<svg width="50" height="50" viewBox="0 0 50 50" fill="none" xmlns="http://www.w3.org/2000/svg">
<g clip-path="url(#clip0_66_411)">
<path fill-rule="evenodd" clip-rule="evenodd" d="M13.7312 0H46.6751C47.3395 0 47.9486 0.276839 48.3915 0.719782C48.8345 1.16273 49.1113 1.77177 49.1113 2.43619C49.1113 3.1006 48.8345 3.70965 48.3915 4.15259C48.1147 4.42943 47.7271 4.6509 47.2842 4.76164V22.8669C47.2842 23.9743 46.8412 24.9155 46.1214 25.6353C45.4017 26.3551 44.405 26.798 43.353 26.798H19.1573C19.0465 27.1856 18.7697 27.5732 18.4375 27.85C17.9392 28.293 17.2748 28.5698 16.555 28.5698C15.1154 28.5698 14.2849 28.6252 13.399 28.6252C13.2329 28.6252 13.0114 28.6252 12.8453 28.6252V30.2862C12.8453 30.6738 12.5131 31.006 12.1256 31.006H0.719782C0.332207 31.006 0 30.6738 0 30.2862V22.2025C0 20.5415 0.719782 19.0465 1.93788 17.9946C3.1006 16.9426 4.70627 16.2782 6.47804 16.2782C8.13908 16.2782 9.41254 16.8872 10.4092 17.8285C11.5165 18.8804 12.1256 20.4307 12.4578 22.0918L12.7346 23.6421H13.2329C13.1776 23.4206 13.1776 23.1438 13.1776 22.9223V4.817C12.7346 4.70627 12.4024 4.4848 12.0702 4.20796C11.6273 3.76502 11.3504 3.15597 11.3504 2.49155C11.3504 1.82714 11.6273 1.21809 12.0702 0.77515C12.4578 0.276839 13.0668 0 13.7312 0ZM38.2038 8.74812H22.3133C21.9257 8.74812 21.5935 9.08033 21.5935 9.46791C21.5935 9.85548 21.9257 10.1877 22.3133 10.1877H38.2038C38.5914 10.1877 38.9236 9.85548 38.9236 9.46791C38.9236 9.08033 38.5914 8.74812 38.2038 8.74812ZM38.2038 13.2883H22.3133C21.9257 13.2883 21.5935 13.6205 21.5935 14.0081C21.5935 14.3956 21.9257 14.7279 22.3133 14.7279H38.2038C38.5914 14.7279 38.9236 14.3956 38.9236 14.0081C38.9236 13.6205 38.5914 13.2883 38.2038 13.2883ZM38.2038 17.8285H30.2309C29.8433 17.8285 29.5111 18.1607 29.5111 18.5482C29.5111 18.9358 29.8433 19.268 30.2309 19.268H38.2038C38.5914 19.268 38.9236 18.9358 38.9236 18.5482C38.8682 18.1607 38.5914 17.8285 38.2038 17.8285ZM37.0411 48.17V49.1113C37.0411 49.4989 36.7089 49.8311 36.3213 49.8311H24.1404C23.7528 49.8311 23.4206 49.4989 23.4206 49.1113V48.17H12.9007C12.5131 48.17 12.1809 47.8378 12.1809 47.4503V45.2355C12.1809 42.6886 13.399 40.8615 15.0601 39.8095C16.0013 39.2558 17.0533 38.8682 18.1607 38.7575C19.268 38.6468 20.3754 38.7575 21.372 39.0897C22.9777 39.588 24.4172 40.6954 25.1924 42.3011C25.8568 41.692 26.6319 41.1937 27.4625 40.8615C28.3483 40.5293 29.2896 40.3632 30.2309 40.3632C31.1721 40.3632 32.1134 40.5293 32.9992 40.8615C33.8298 41.1937 34.6049 41.692 35.2693 42.3011C36.0445 40.6954 37.484 39.6434 39.0897 39.0897C40.1417 38.7575 41.2491 38.6468 42.3011 38.7575C43.4084 38.8682 44.4604 39.2005 45.4017 39.8095C47.1181 40.8615 48.2808 42.6886 48.2808 45.2355V47.4503C48.2808 47.8378 47.9486 48.17 47.561 48.17H37.0411ZM23.4206 46.7859C23.4206 45.5678 23.7528 44.5158 24.1958 43.6852C23.6974 42.0242 22.424 40.9722 20.9844 40.5293C20.1539 40.2524 19.2127 40.1417 18.3268 40.2524C17.4409 40.3632 16.555 40.64 15.8352 41.083C14.5064 41.9135 13.6205 43.2977 13.6205 45.2909V46.8412H23.4206V46.7859ZM36.266 43.6299C36.7643 44.5158 37.0411 45.5124 37.0411 46.7305H46.8412V45.1802C46.8412 43.1869 45.9 41.8027 44.6265 40.9722C43.9067 40.5293 43.0208 40.2524 42.1349 40.1417C41.2491 40.031 40.3078 40.1417 39.4773 40.4185C38.0377 40.9722 36.7643 42.0242 36.266 43.6299ZM35.6569 48.3915V47.4503V46.8412C35.6569 44.405 34.2727 42.8547 32.5009 42.1903C31.7812 41.9135 31.006 41.8027 30.2309 41.8027C29.4557 41.8027 28.6806 41.9135 27.9608 42.1903C26.189 42.8547 24.8048 44.405 24.8048 46.8412V47.4503V48.3915H35.6569ZM30.2309 38.5914C30.9506 38.5914 31.6151 38.3146 32.1134 37.8163C32.6117 37.3179 32.8885 36.7089 32.8885 35.9337C32.8885 35.1586 32.6117 34.5495 32.1134 34.0512C31.6151 33.5529 31.006 33.2761 30.2309 33.2761C29.4557 33.2761 28.8467 33.5529 28.3483 34.0512C27.85 34.5495 27.5732 35.1586 27.5732 35.9337C27.5732 36.7089 27.85 37.3179 28.3483 37.8163C28.8467 38.3146 29.5111 38.5914 30.2309 38.5914ZM33.11 38.8682C33.8298 38.1485 34.2727 37.1518 34.2727 35.9891C34.2727 34.8264 33.8298 33.8851 33.11 33.11C32.3902 32.3348 31.3936 31.9473 30.2309 31.9473C29.0681 31.9473 28.1269 32.3902 27.3517 33.11C26.6319 33.8298 26.189 34.8264 26.189 35.9891C26.189 37.1518 26.6319 38.0931 27.3517 38.8682C28.0715 39.588 29.0681 40.031 30.2309 40.031C31.3382 40.031 32.3902 39.588 33.11 38.8682ZM18.9912 36.9857C19.711 36.9857 20.3754 36.7089 20.8737 36.2106C21.372 35.7123 21.6488 35.1032 21.6488 34.3281C21.6488 33.5529 21.372 32.9439 20.8737 32.4456C20.3754 31.9473 19.7663 31.6704 18.9912 31.6704C18.216 31.6704 17.607 31.9473 17.1087 32.4456C16.6104 32.9439 16.3335 33.5529 16.3335 34.3281C16.3335 35.0479 16.6104 35.7123 17.1087 36.2106C17.607 36.6535 18.2714 36.9857 18.9912 36.9857ZM21.8703 37.2072C22.5901 36.4874 23.033 35.4908 23.033 34.3281C23.033 33.1654 22.5901 32.2241 21.8703 31.4489C21.1505 30.7292 20.1539 30.2862 18.9912 30.2862C17.8285 30.2862 16.8872 30.7292 16.1121 31.4489C15.4476 32.2241 14.9493 33.2207 14.9493 34.3281C14.9493 35.4354 15.3923 36.4321 16.1121 37.2072C16.8318 37.927 17.8285 38.3699 18.9912 38.3699C20.1539 38.3699 21.1505 37.927 21.8703 37.2072ZM41.4705 36.9857C42.1903 36.9857 42.8547 36.7089 43.353 36.2106C43.8514 35.7123 44.1282 35.1032 44.1282 34.3281C44.1282 33.5529 43.8514 32.9439 43.353 32.4456C42.8547 31.9473 42.2457 31.6704 41.4705 31.6704C40.6954 31.6704 40.0863 31.9473 39.588 32.4456C39.0897 32.9439 38.8129 33.5529 38.8129 34.3281C38.8129 35.0479 39.0897 35.7123 39.588 36.2106C40.0863 36.6535 40.7508 36.9857 41.4705 36.9857ZM44.3497 37.2072C45.0694 36.4874 45.5124 35.4908 45.5124 34.3281C45.5124 33.1654 45.0694 32.2241 44.3497 31.4489C43.6299 30.7292 42.6333 30.2862 41.4705 30.2862C40.3078 30.2862 39.3666 30.7292 38.5914 31.4489C37.8716 32.1687 37.4287 33.1654 37.4287 34.3281C37.4287 35.4908 37.8716 36.4321 38.5914 37.2072C39.3112 37.9824 40.3078 38.3699 41.4705 38.3699C42.6333 38.3699 43.5745 37.927 44.3497 37.2072ZM18.0499 23.9189L24.9709 17.9392C25.2477 17.6624 25.6907 17.7177 25.9675 17.9946C26.2444 18.2714 26.189 18.7143 25.9122 18.9912L19.0465 24.9709C19.1019 25.137 19.1573 25.2477 19.2127 25.4139H43.4638C44.1282 25.4139 44.7926 25.137 45.2355 24.6941C45.6785 24.2511 45.9553 23.5867 45.9553 22.9223V4.92774H14.5064V22.9223C14.5064 23.1438 14.5064 23.3099 14.5617 23.476C14.5617 23.5313 14.5617 23.5313 14.6171 23.5867L16.555 23.5313C16.6657 23.5313 16.6104 23.5313 16.6104 23.5313C17.164 23.5313 17.6623 23.6974 18.0499 23.9189ZM17.8838 26.1336C17.8838 26.0783 17.8838 26.0783 17.8838 26.0783C17.8838 25.8014 17.7177 25.5246 17.4962 25.3031C17.2748 25.0816 16.9426 24.9709 16.6104 24.9709C16.555 24.9709 16.6104 24.9709 16.555 24.9709L14.1742 25.0263H14.1188L12.1256 25.0816C11.7934 25.0816 11.4611 24.8602 11.4058 24.528L11.0182 22.424C10.7414 21.0398 10.2431 19.7663 9.35717 18.9358C8.63739 18.216 7.69613 17.8285 6.42267 17.8285C5.03848 17.8285 3.76502 18.3268 2.87913 19.1573C1.99324 19.9878 1.43956 21.0952 1.43956 22.3133V29.7325H11.4611V28.8467C11.1289 28.8467 10.7414 28.8467 10.2431 28.8467C10.1877 28.8467 10.1323 28.8467 10.1323 28.8467C9.68938 28.7359 9.24643 28.5698 8.85886 28.293C8.52665 28.0161 8.24981 27.6286 8.08371 27.1856L5.64752 20.4861C5.53679 20.0985 5.70289 19.711 6.09047 19.6002C6.47804 19.4895 6.86562 19.6556 6.97635 20.0432L9.35717 26.5766C9.41254 26.7427 9.57864 26.9088 9.68938 27.0749C9.85548 27.1856 10.077 27.2964 10.2984 27.3517C11.6826 27.3517 12.5131 27.2964 13.3437 27.2964C14.1742 27.241 15.0601 27.241 16.555 27.241C16.9426 27.241 17.2748 27.1303 17.4962 26.9088C17.7177 26.6873 17.8838 26.4105 17.8838 26.1336ZM6.53341 14.6171C7.36393 14.6171 8.13908 14.2849 8.69276 13.7312C9.24643 13.1776 9.57864 12.4024 9.57864 11.5719C9.57864 10.7414 9.24643 9.96622 8.69276 9.41254C8.13908 8.85886 7.36393 8.52665 6.53341 8.52665C5.70289 8.52665 4.92774 8.85886 4.37406 9.41254C3.82038 9.96622 3.48818 10.7414 3.48818 11.5719C3.48818 12.4024 3.82038 13.1776 4.37406 13.7312C4.92774 14.2849 5.70289 14.6171 6.53341 14.6171ZM9.68938 14.7279C10.4645 13.9527 10.9628 12.79 10.9628 11.5719C10.9628 10.3538 10.4645 9.24643 9.68938 8.41592C8.91423 7.5854 7.7515 7.14246 6.53341 7.14246C5.31532 7.14246 4.20796 7.64077 3.37744 8.41592C2.54692 9.19107 2.10398 10.3538 2.10398 11.5719C2.10398 12.79 2.60229 13.8973 3.37744 14.7279C4.15259 15.5584 5.31532 16.0013 6.53341 16.0013C7.7515 16.0013 8.85886 15.503 9.68938 14.7279ZM46.7305 1.43956H13.7312C13.4544 1.43956 13.1776 1.5503 13.0114 1.77177C12.8453 1.88251 12.7346 2.15935 12.7346 2.43619C12.7346 2.71303 12.8453 2.98986 13.0668 3.15597C13.2329 3.32207 13.5098 3.48818 13.7866 3.48818H13.842H46.6751H46.7305C47.0073 3.48818 47.2842 3.37744 47.4503 3.15597C47.6164 2.98986 47.7825 2.71303 47.7825 2.43619C47.7825 2.15935 47.6717 1.88251 47.4503 1.7164C47.2842 1.5503 47.0073 1.43956 46.7305 1.43956Z" fill="white"/>
</g>
<defs>
<clipPath id="clip0_66_411">
<rect width="49.1667" height="49.8311" fill="white"/>
</clipPath>
</defs>
</svg>
