<svg width="50" height="50" viewBox="0 0 50 50" fill="none" xmlns="http://www.w3.org/2000/svg">
<g clip-path="url(#clip0_66_415)">
<path d="M49.8077 32.9757C49.4535 31.9231 48.5931 31.1538 47.3988 30.8198C46.1134 30.4555 44.4433 30.5769 42.4393 31.164L33.2996 33.8462C33.2591 33.7652 33.2186 33.6943 33.1782 33.6134C32.6721 32.7328 31.8421 32.0951 30.8603 31.832L24.3624 30.0911C19.6255 26.7713 17.085 27.7227 13.3401 29.5547C11.5587 30.4251 9.77735 31.2753 8.09719 32.0648L7.74294 31.2146C7.27735 30.0911 5.9818 29.5547 4.85832 30.0202L1.34618 31.4777C0.799617 31.7004 0.374516 32.1255 0.151844 32.6721C-0.0708281 33.2186 -0.0708281 33.8158 0.161965 34.3623L6.10326 48.6336C6.46763 49.4838 7.28747 50 8.15792 50C8.44132 50 8.72472 49.9494 8.998 49.8279L12.5101 48.3704C13.0567 48.1478 13.4818 47.7227 13.7045 47.1761C13.9271 46.6296 13.9271 46.0324 13.6944 45.4858L13.2996 44.5344L15.5871 43.4211C16.4271 43.0162 17.2672 42.9453 18.1579 43.1984L25.4555 45.3138C25.9919 45.4656 26.5486 45.5364 27.1154 45.5364C29.0587 45.5364 31.0931 44.747 32.8037 44.0789C32.9555 44.0182 33.1073 43.9676 33.249 43.9069L46.9535 38.6235C49.1498 37.7834 50.5263 35.081 49.8077 32.9757ZM12.3887 46.6397C12.3077 46.832 12.1559 46.9838 11.9636 47.0648L8.45144 48.5223C8.04658 48.6842 7.59112 48.502 7.41905 48.0972L1.47775 33.8259C1.39678 33.6336 1.39678 33.4109 1.47775 33.2186C1.55873 33.0263 1.71055 32.8745 1.90286 32.7935L5.415 31.336C5.51622 31.2955 5.61743 31.2753 5.71865 31.2753C6.03241 31.2753 6.32593 31.4575 6.44739 31.7611L12.3887 46.0324C12.4697 46.2348 12.4697 46.4474 12.3887 46.6397ZM46.4271 37.3178L32.7227 42.6012C32.581 42.6619 32.4292 42.7126 32.2773 42.7733C30.2733 43.5526 27.7733 44.5243 25.8502 43.9676L18.5527 41.8522C17.328 41.498 16.1235 41.5992 14.9697 42.1559L12.7531 43.2186L8.65387 33.3704C10.3543 32.5607 12.1559 31.7105 13.9778 30.8198C17.4697 29.1093 19.4838 28.3603 23.6539 31.3158C23.7247 31.3664 23.7956 31.3968 23.8765 31.4271L30.496 33.1984C31.1134 33.3603 31.6296 33.7652 31.9535 34.3219C32.2773 34.8785 32.3583 35.5263 32.1964 36.1437C32.0344 36.7611 31.6296 37.2773 31.0729 37.6012C30.5162 37.9251 29.8684 38.0061 29.251 37.8441L20.4555 35.4858C20.081 35.3846 19.6863 35.6073 19.585 35.9919C19.4838 36.3664 19.7065 36.7611 20.081 36.8624L28.8765 39.2206C29.8583 39.4838 30.8806 39.3421 31.7713 38.836C32.662 38.33 33.2895 37.5 33.5527 36.5182C33.664 36.0931 33.7045 35.6579 33.6741 35.2227L42.834 32.5304C45.8603 31.6397 47.9656 31.9838 48.4616 33.4413C48.9373 34.8178 47.9251 36.7409 46.4271 37.3178ZM11.5385 26.8117H47.0446C48.6741 26.8117 50 25.4858 50 23.8563C50 22.2267 48.6741 20.9008 47.0446 20.9008H46.5486C46.3462 16.5789 44.5547 12.5405 41.4676 9.47368C38.998 7.02429 35.911 5.40486 32.5607 4.76721C32.7126 4.37247 32.7935 3.94737 32.7935 3.51215C32.7935 1.56883 31.2247 0 29.2915 0C27.3583 0 25.7895 1.56883 25.7895 3.50202C25.7895 3.93725 25.8705 4.35223 26.0223 4.75708C22.6721 5.39474 19.585 7.01417 17.1154 9.46356C14.0284 12.5304 12.2369 16.5688 12.0344 20.8907H11.5385C9.90893 20.8907 8.58302 22.2166 8.58302 23.8462C8.58302 25.4757 9.90893 26.8117 11.5385 26.8117ZM27.2065 3.50202C27.2065 2.34818 28.1478 1.417 29.2915 1.417C30.4352 1.417 31.3765 2.3583 31.3765 3.50202C31.3765 3.8664 31.2753 4.23077 31.1033 4.54453C30.5061 4.48381 29.8988 4.45344 29.2915 4.45344C28.6842 4.45344 28.0769 4.48381 27.4798 4.54453C27.2976 4.23077 27.2065 3.8664 27.2065 3.50202ZM29.2915 5.86032C37.7328 5.86032 44.6964 12.5405 45.1316 20.8907H13.4514C13.8867 12.5405 20.8502 5.86032 29.2915 5.86032ZM11.5385 22.3178H47.0446C47.8948 22.3178 48.583 23.0061 48.583 23.8563C48.583 24.7065 47.8948 25.3947 47.0446 25.3947H11.5385C10.6883 25.3947 10 24.7065 10 23.8563C10 23.0061 10.6883 22.3178 11.5385 22.3178Z" fill="white"/>
</g>
<defs>
<clipPath id="clip0_66_415">
<rect width="50" height="50" fill="white"/>
</clipPath>
</defs>
</svg>
