<svg width="51" height="51" viewBox="0 0 51 51" fill="none" xmlns="http://www.w3.org/2000/svg">
<g clip-path="url(#clip0_66_427)">
<path d="M19.494 25.8361C19.7524 25.8361 20.0009 25.697 20.1302 25.4783L21.4722 23.2416L23.2516 26.0747C23.3908 26.2934 23.6393 26.4326 23.8977 26.4226C24.1562 26.4127 24.3948 26.2735 24.5339 26.0449L27.4068 21.0347L31.2639 28.0529C31.3931 28.2915 31.6416 28.4307 31.9001 28.4406H31.91C32.1685 28.4406 32.417 28.3015 32.5462 28.0728L34.9519 24.0468H40.7374C41.145 24.0468 41.483 23.7088 41.483 23.3012C41.483 22.8937 41.145 22.5557 40.7374 22.5557H34.5244C34.266 22.5557 34.0175 22.6949 33.8882 22.9235L31.9398 26.194L28.0729 19.146C27.9436 18.9074 27.6951 18.7583 27.4267 18.7583C27.4267 18.7583 27.4267 18.7583 27.4168 18.7583C27.1484 18.7583 26.8999 18.8975 26.7706 19.1361L23.858 24.2357L22.0885 21.4324C21.9493 21.2137 21.7108 21.0844 21.4622 21.0844C21.4622 21.0844 21.4622 21.0844 21.4523 21.0844C21.1938 21.0844 20.9553 21.2236 20.8161 21.4423L19.0665 24.355H14.8317C14.4242 24.355 14.0862 24.693 14.0862 25.1005C14.0862 25.5081 14.4242 25.8461 14.8317 25.8461L19.494 25.8361Z" fill="white"/>
<path d="M42.0594 5.14941C41.6518 5.14941 41.3138 5.4874 41.3138 5.89497V8.09189H39.1169C38.7093 8.09189 38.3713 8.42987 38.3713 8.83745C38.3713 9.24502 38.7093 9.583 39.1169 9.583H41.3138V11.7799C41.3138 12.1875 41.6518 12.5255 42.0594 12.5255C42.4669 12.5255 42.8049 12.1875 42.8049 11.7799V9.583H45.0018C45.4094 9.583 45.7474 9.24502 45.7474 8.83745C45.7474 8.42987 45.4094 8.09189 45.0018 8.09189H42.8049V5.89497C42.8049 5.47746 42.4669 5.14941 42.0594 5.14941Z" fill="white"/>
<path d="M44.6938 30.6971C48.3222 26.8103 49.3659 20.9452 47.3678 15.9053C49.5051 14.2849 50.8968 11.7202 50.8968 8.83736C50.8968 3.96637 46.9305 0 42.0595 0C40.0614 0 38.0931 0.685914 36.5423 1.93845C36.2242 2.19691 36.1646 2.66413 36.423 2.98224C36.6815 3.30034 37.1487 3.35999 37.4668 3.10153C38.7889 2.0478 40.3695 1.49112 42.0595 1.49112C46.1153 1.49112 49.4057 4.79146 49.4057 8.83736C49.4057 12.8932 46.1054 16.1836 42.0595 16.1836C38.2919 16.1836 35.1705 13.3306 34.7629 9.66244C34.7629 9.6525 34.7629 9.64256 34.7629 9.63262C34.7331 9.36422 34.7132 9.09582 34.7132 8.82742C34.7132 7.67429 34.9717 6.5808 35.4787 5.5569C35.6675 5.18909 35.5184 4.74176 35.1407 4.55288C34.7729 4.36401 34.3255 4.52306 34.1367 4.89087C33.5203 6.12352 33.2122 7.44565 33.2122 8.82742C33.2122 8.95665 33.2122 9.07594 33.2221 9.20517C31.3433 9.88114 29.5838 10.9846 28.1125 12.4359L27.2875 13.2411L27.2775 13.2312L26.4723 12.4359C23.8479 9.85132 20.4184 8.40991 17.0584 8.47949C14.265 8.53913 11.7798 9.63262 9.90102 11.6506C9.62268 11.9488 9.63262 12.426 9.94079 12.7043C10.239 12.9827 10.7162 12.9727 10.9945 12.6646C12.595 10.9448 14.7124 10.0104 17.0982 9.97061C20.0605 9.91096 23.1024 11.1933 25.4385 13.4996L26.2536 14.2949C26.6413 14.6825 26.9793 14.8714 27.3073 14.8714C27.6354 14.8714 27.9634 14.6825 28.3511 14.3048L29.1762 13.4996C30.4188 12.2868 31.8702 11.3325 33.4408 10.7261C34.3057 14.6925 37.8545 17.6747 42.0793 17.6747C43.5307 17.6747 44.8926 17.3268 46.0954 16.7105C47.7456 21.154 46.8012 26.2636 43.6202 29.6633L32.904 40.6181L32.0193 40.787C31.8006 40.8268 31.6117 40.8666 31.4427 40.8964C30.3194 41.125 30.051 41.1747 28.7388 40.9759L22.3668 39.8128C21.5019 39.5146 21.5814 38.8188 21.6312 38.61C21.7107 38.282 22.0089 37.765 22.6551 37.8645C22.665 37.8645 22.665 37.8645 22.6749 37.8645C22.9632 37.9042 23.2714 37.944 23.5895 37.9837C24.7923 38.1428 26.1641 38.3118 27.3769 38.441C29.8621 38.6895 31.2638 37.3873 31.562 35.9856C31.8602 34.5542 31.0451 32.6455 28.5499 31.8503C28.5201 31.8403 28.4903 31.8304 28.4605 31.8304L24.3549 31.0749C22.1282 30.6673 20.3886 30.9854 17.7642 31.4626C17.0683 31.5918 16.283 31.731 15.4082 31.8702L13.4598 32.1883L12.8634 31.5719L10.9846 29.6534C7.48541 25.8957 6.71003 20.0207 9.09582 15.3486C9.28469 14.9808 9.13558 14.5334 8.76777 14.3446C8.39996 14.1557 7.95263 14.3048 7.76375 14.6726C5.08968 19.8915 5.96447 26.4723 9.89108 30.6773L9.90102 30.6872L11.6506 32.4765L8.39002 33.0134V32.9239C8.39002 32.3473 7.88304 31.8801 7.25677 31.8801H1.13325C0.50698 31.8801 0 32.3473 0 32.9239V46.0457C0 46.6223 0.50698 47.0895 1.13325 47.0895H7.26671C7.89298 47.0895 8.39996 46.6223 8.39996 46.0457V45.9563L15.1001 47.7854L21.2932 49.4654C22.7048 49.9027 23.8479 50.0817 24.8818 50.0817C26.522 50.0817 27.9237 49.6343 29.7627 49.0379C29.9218 48.9882 30.0908 48.9286 30.2697 48.8788L42.467 44.9721C43.8786 44.5148 44.8826 43.5009 45.161 42.2483C45.3697 41.2741 45.0815 40.3198 44.3757 39.6836C43.809 39.1667 42.477 38.4311 39.9123 39.2462L35.4886 40.1111L44.6838 30.6971C44.6838 30.6971 44.6838 30.6971 44.6938 30.6971ZM1.49112 45.6183V33.3911H6.90885V33.908V44.992V45.6083L1.49112 45.6183ZM40.3198 40.6876C41.6917 40.2502 42.805 40.29 43.3716 40.797C43.6798 41.0753 43.7991 41.4928 43.6997 41.9402C43.5406 42.6659 42.9144 43.2722 42.0098 43.5605L29.8124 47.4772C29.6335 47.5368 29.4645 47.5865 29.3054 47.6362C26.3828 48.5806 24.9216 49.0578 21.7206 48.0538C21.7107 48.0538 21.7007 48.0538 21.6908 48.0438L8.39996 44.4254V34.5343L15.6468 33.3414C16.5315 33.1923 17.3268 33.0531 18.0326 32.9239C20.5774 32.4567 22.1182 32.1783 24.0865 32.5362L28.1424 33.2817C29.7229 33.7987 30.2697 34.8822 30.1106 35.6775C29.9218 36.592 28.9078 37.099 27.536 36.9598C26.3431 36.8406 24.9812 36.6616 23.7883 36.5125C23.4702 36.4727 23.162 36.433 22.8737 36.3932C21.4522 36.1845 20.4482 37.1785 20.1897 38.272C20.1301 38.5106 20.1102 38.7591 20.1301 39.0076C20.1897 39.9123 20.7265 40.8566 21.9592 41.2443C21.989 41.2543 22.3966 41.3338 22.3966 41.3338L28.4903 42.4472C28.5002 42.4472 28.5002 42.4472 28.5102 42.4472C29.7627 42.646 30.3095 42.6261 31.0848 42.4869C31.2837 42.4472 32.1087 42.2881 32.3175 42.2384L33.6595 41.9799C33.6396 41.9998 40.29 40.6976 40.3198 40.6876Z" fill="white"/>
</g>
<defs>
<clipPath id="clip0_66_427">
<rect width="50.8968" height="50.1016" fill="white"/>
</clipPath>
</defs>
</svg>
