<svg width="57" height="51" viewBox="0 0 57 51" fill="none" xmlns="http://www.w3.org/2000/svg">
<g clip-path="url(#clip0_66_451)">
<path d="M9.08325 8.34975L12.7997 14.7924C12.9586 15.0736 13.2642 15.2569 13.5943 15.2569H18.7778L12.763 20.3793C12.4696 20.6238 12.3596 21.0394 12.4941 21.3939C12.6285 21.7485 12.9708 21.993 13.3498 21.993H19.9514C20.1225 21.993 20.3059 21.9441 20.4526 21.8463L30.6239 15.2569H42.8612C43.3625 15.2569 43.7781 14.8413 43.7781 14.34C43.7781 10.2813 40.4773 6.98054 36.4186 6.98054H31.6875L24.6458 0.256727C24.4747 0.0978008 24.2546 0 24.0101 0H18.6433C18.301 0 17.9954 0.183377 17.8364 0.489004C17.6775 0.794632 17.702 1.14916 17.8853 1.43034L21.6384 6.96831H16.8462L12.384 0.403428C12.2129 0.146701 11.9317 0 11.6261 0H9.87789C9.37666 0 8.961 0.415654 8.961 0.916883V7.88519C8.961 8.04412 8.99768 8.20305 9.08325 8.34975ZM19.6824 20.147H15.8437L23.3011 13.7899H29.4747L19.6824 20.147ZM38.5091 9.21773H35.9296C35.4284 9.21773 35.0127 9.63338 35.0127 10.1346C35.0127 10.6358 35.4284 11.0515 35.9296 11.0515H40.8563C41.3575 11.7361 41.7121 12.543 41.8588 13.4109H33.3256C33.4846 13.1909 33.5457 12.8975 33.4601 12.6163C33.3501 12.2251 32.9833 11.9562 32.5799 11.9562H22.9588C22.7387 11.9562 22.5309 12.0295 22.3597 12.1762L20.9049 13.4109H14.0955L11.4672 8.80208H36.4186C37.1521 8.80208 37.8612 8.94878 38.5091 9.21773ZM20.367 1.83377H23.6434L29.0346 6.96831H23.8634L20.367 1.83377ZM11.1371 1.83377L14.6335 6.96831H10.7948V1.83377H11.1371ZM56.4433 38.7536L52.7024 36.2474V29.4625C52.7024 28.9613 52.2868 28.5456 51.7856 28.5456H47.1278V25.0859C47.1278 24.5847 46.7121 24.169 46.2109 24.169C45.7097 24.169 45.294 24.5847 45.294 25.0859V28.5456H40.6363C40.135 28.5456 39.7194 28.9613 39.7194 29.4625V36.2474L35.9663 38.7536C35.5995 38.9981 35.465 39.4749 35.6362 39.8783L39.1203 48.0447C38.7903 48.2036 38.448 48.3014 37.8612 48.3014C37.3599 48.3014 36.9443 48.717 36.9443 49.2183C36.9443 49.7195 37.3599 50.1352 37.8612 50.1352C39.1448 50.1352 39.8294 49.7562 40.3918 49.4506C40.8808 49.1816 41.2353 48.986 42.0421 48.986C42.849 48.986 43.2035 49.1816 43.6925 49.4506C44.2549 49.7562 44.9395 50.1352 46.2231 50.1352C47.5068 50.1352 48.1914 49.7562 48.7537 49.4506C49.2427 49.1816 49.5973 48.986 50.4041 48.986C51.211 48.986 51.5655 49.1816 52.0545 49.4506C52.6169 49.7562 53.3015 50.1352 54.5851 50.1352C55.0863 50.1352 55.502 49.7195 55.502 49.2183C55.502 48.717 55.0863 48.3014 54.5851 48.3014C53.9983 48.3014 53.656 48.2036 53.3259 48.0447L56.8101 39.8661C56.9445 39.4626 56.8101 38.9981 56.4433 38.7536ZM41.5409 30.3794H50.8564V35.0127L46.7121 32.2376C46.4065 32.0298 46.0031 32.0298 45.6974 32.2376L41.5409 35.0127V30.3794ZM51.6144 47.2989C51.2721 47.2134 50.8687 47.1522 50.3797 47.1522C49.096 47.1522 48.4114 47.5312 47.8491 47.8368C47.5923 47.9713 47.3845 48.0936 47.1156 48.1791V37.3355C47.1156 36.8342 46.6999 36.4186 46.1987 36.4186C45.6974 36.4186 45.2818 36.8342 45.2818 37.3355V48.1791C45.0251 48.0936 44.805 47.9835 44.5483 47.8368C43.9859 47.5312 43.3013 47.1522 42.0177 47.1522C41.5287 47.1522 41.1253 47.2134 40.783 47.2989L37.6044 39.8538L46.1865 34.108L54.7685 39.8538L51.6144 47.2989ZM31.8709 26.6996H14.1322C12.6285 26.6996 11.406 27.9221 11.406 29.4258V30.6972H6.88274C6.63823 30.6972 6.40596 30.795 6.2348 30.9662L0.268952 36.9076C0.0978009 37.0787 0 37.311 0 37.5555V46.3821C0 46.8833 0.415654 47.2989 0.916883 47.2989H3.05628C3.47193 48.9249 4.93894 50.1229 6.68713 50.1229C8.43532 50.1229 9.90234 48.9249 10.3058 47.3112H23.8634C24.2791 48.9371 25.7461 50.1352 27.4943 50.1352C29.2425 50.1352 30.7095 48.9249 31.1251 47.3112H31.9931C33.4234 47.3112 34.5848 46.0887 34.5848 44.585V29.4258C34.5971 27.9221 33.3745 26.6996 31.8709 26.6996ZM1.83377 37.9345L7.26171 32.5188H11.406V45.4774H10.318C9.90234 43.8515 8.43532 42.6534 6.68713 42.6534C4.93894 42.6534 3.45971 43.8515 3.05628 45.4774H1.83377V37.9345ZM6.68713 48.3014C5.63577 48.3014 4.78002 47.4456 4.78002 46.3943C4.78002 45.3429 5.63577 44.4872 6.68713 44.4872C7.73849 44.4872 8.59425 45.3429 8.59425 46.3943C8.59425 47.4456 7.73849 48.3014 6.68713 48.3014ZM27.5065 48.3014C26.4551 48.3014 25.5994 47.4456 25.5994 46.3943C25.5994 45.3429 26.4551 44.4872 27.5065 44.4872C28.5578 44.4872 29.4136 45.3429 29.4136 46.3943C29.4136 47.4456 28.5578 48.3014 27.5065 48.3014ZM32.7633 44.585C32.7633 45.074 32.421 45.4774 32.0053 45.4774H31.1373C30.7217 43.8515 29.2547 42.6534 27.5065 42.6534C25.7583 42.6534 24.2913 43.8637 23.8756 45.4774H13.2398V29.4258C13.2398 28.9368 13.6432 28.5334 14.1322 28.5334H31.8709C32.3599 28.5334 32.7633 28.9368 32.7633 29.4258V44.585Z" fill="white"/>
</g>
<defs>
<clipPath id="clip0_66_451">
<rect width="56.8467" height="50.1352" fill="white"/>
</clipPath>
</defs>
</svg>
