<svg width="55" height="50" viewBox="0 0 55 50" fill="none" xmlns="http://www.w3.org/2000/svg">
<g clip-path="url(#clip0_66_402)">
<path d="M9.84837 35.6365C7.40049 35.6365 5.46497 37.6289 5.46497 40.0768C5.46497 42.5247 7.45742 44.4602 9.84837 44.4602C12.2962 44.4602 14.2887 42.4678 14.2887 40.0768C14.2887 37.6289 12.2962 35.6365 9.84837 35.6365ZM9.84837 43.2078C8.14055 43.2078 6.71737 41.7846 6.71737 40.0768C6.71737 38.369 8.14055 36.9458 9.84837 36.9458C11.5562 36.9458 12.9794 38.369 12.9794 40.0768C12.9794 41.7846 11.6131 43.2078 9.84837 43.2078Z" fill="white"/>
<path d="M52.2024 39.166C51.4054 38.369 50.3807 37.7997 49.2991 37.5151C49.5268 37.1735 49.6976 36.7181 49.6976 36.2627V26.1866C49.6976 24.8772 48.6729 23.8525 47.3635 23.8525H34.3272C33.0178 23.8525 31.9932 24.8772 31.9932 26.1866V36.2058C31.9932 36.6043 32.107 36.9458 32.2778 37.2874H30.9115V33.4733C30.9115 33.1317 30.6269 32.8471 30.2853 32.8471H28.8622V11.3285L34.2702 14.1749C33.9856 14.915 34.2702 15.8258 35.0103 16.2243L37.7428 17.8183L40.4753 21.917C40.5892 22.0878 40.8169 22.2017 40.9877 22.2017C41.0446 22.2017 41.0446 22.2017 41.1015 22.2017L47.1358 20.9493C47.4205 20.8923 47.5912 20.6646 47.6482 20.38L47.8759 18.5014C47.8759 18.3306 47.819 18.1598 47.7051 17.989C47.5912 17.8752 47.3635 17.7613 47.1928 17.7613L42.9232 17.8183L40.4184 14.7442L41.7847 12.4102L45.7126 13.0933L47.762 16.8505C47.819 17.0213 47.9897 17.1351 48.1605 17.1921C48.2174 17.1921 48.2744 17.1921 48.3313 17.1921C48.4452 17.1921 48.6159 17.1351 48.7298 17.0782L50.2668 15.9397C50.4945 15.7689 50.6084 15.4842 50.4945 15.1996L48.559 9.27915C48.5021 9.05144 48.2744 8.88066 47.9897 8.82374L43.2648 8.48217L40.5323 6.88821C39.7353 6.43279 38.7106 6.71742 38.1982 7.51441L31.4808 3.87106C30.57 1.59397 28.4067 0 25.845 0C22.4863 0 19.7538 2.73251 19.7538 6.09122C19.7538 8.31139 20.9493 10.2469 22.7709 11.3285V32.8471H21.3477C21.0062 32.8471 20.7215 33.1317 20.7215 33.4733V37.9136C20.7215 38.2552 21.0062 38.5398 21.3477 38.5398H47.762C49.0714 38.5398 50.3807 39.0521 51.3484 40.0199C52.3162 40.9307 52.8286 42.2401 52.8286 43.6063C52.8286 46.3958 50.5515 48.6729 47.819 48.6729H12.2963L12.4102 48.0467C12.8656 47.8759 13.321 47.7051 13.7195 47.4774L14.8011 48.2744C15.0288 48.4452 15.4273 48.4452 15.655 48.2174L18.046 45.8265C18.2737 45.5988 18.2737 45.2572 18.1029 44.9726L17.3059 43.891C17.5336 43.4925 17.7044 43.0371 17.8752 42.5816L19.2414 42.4109C19.583 42.3539 19.8107 42.0693 19.8107 41.7847V38.4259C19.8107 38.0844 19.583 37.8567 19.2414 37.7997L17.8752 37.629C17.7044 37.1735 17.5336 36.7181 17.3059 36.3196L18.1029 35.238C18.2737 35.0103 18.2737 34.6118 18.046 34.3841L15.655 31.8793C15.4273 31.6516 15.0857 31.6516 14.8011 31.8224L13.7195 32.6194C13.321 32.3916 12.8656 32.2209 12.4102 32.0501L12.2394 30.6838C12.1824 30.3423 11.8978 30.1146 11.6132 30.1146H8.25446C7.9129 30.1146 7.68519 30.3423 7.62826 30.6838L7.45748 32.0501C7.00206 32.2209 6.54664 32.3916 6.14815 32.6194L5.06653 31.8224C4.83882 31.6516 4.44033 31.6516 4.21262 31.8793L1.70782 34.2702C1.48011 34.498 1.48011 34.8395 1.65089 35.1242L2.44788 36.2058C2.22017 36.6612 2.04938 37.0597 1.8786 37.5151L0.569273 37.7428C0.227709 37.7997 0 38.0844 0 38.369V41.7277C0 42.0693 0.227709 42.297 0.569273 42.3539L1.93553 42.5247C2.10631 42.9801 2.27709 43.4355 2.5048 43.834L1.65089 44.9726C1.48011 45.2003 1.48011 45.5988 1.70782 45.8265L4.09877 48.2174C4.32648 48.4452 4.66804 48.4452 4.95268 48.2744L6.0343 47.4774C6.43279 47.7051 6.88821 47.8759 7.34362 48.0467L7.51441 49.4129C7.57133 49.7545 7.85597 49.9822 8.14061 49.9822H47.7051C51.1777 49.9822 54.024 47.1358 54.024 43.6633C54.081 41.8985 53.3978 40.3045 52.2024 39.166ZM42.2401 18.8999C42.3539 19.0707 42.5816 19.1276 42.7524 19.1276L46.6235 19.0707L46.5666 19.8107L41.3862 20.8923L39.0521 17.4198L39.8491 15.9397L42.2401 18.8999ZM43.4356 9.7915L47.6482 10.0761L49.2991 15.1427L48.7298 15.5981L46.8512 12.1824C46.7373 12.0117 46.5666 11.8978 46.3958 11.8409L42.6386 11.2147L43.4356 9.7915ZM39.2799 8.14061C39.3368 8.02675 39.5076 7.9129 39.6783 7.9129C39.7353 7.9129 39.8491 7.9129 39.9061 7.96983L42.2401 9.33608L38.0275 16.5089L35.6934 15.1427C35.4657 15.0288 35.4088 14.7442 35.5227 14.5734L39.2799 8.14061ZM31.8793 5.52195L37.5151 8.59603L34.9534 13.0933L30.0576 10.4746C31.1962 9.39301 31.9362 7.79904 31.9362 6.09122C31.8793 5.92044 31.8793 5.69273 31.8793 5.52195ZM21.0062 6.09122C21.0062 3.41564 23.1694 1.30933 25.7881 1.30933C28.4637 1.30933 30.57 3.47257 30.57 6.09122C30.57 8.70988 28.4067 10.8731 25.7881 10.8731C23.1694 10.8731 21.0062 8.70988 21.0062 6.09122ZM27.6098 11.8978V32.8471H24.0803V11.8978C24.6495 12.0686 25.2188 12.1824 25.845 12.1824C26.4143 12.1255 27.0405 12.0686 27.6098 11.8978ZM29.6591 37.2874H21.9739V34.1564H29.6591V37.2874ZM38.9952 25.1049H42.7524V27.2113L41.1015 26.642C41.0446 26.642 40.9877 26.5851 40.8738 26.5851C40.76 26.5851 40.76 26.5851 40.6461 26.642L38.9952 27.2113V25.1049ZM48.4452 36.2058C48.4452 36.7751 47.9897 37.2874 47.3635 37.2874H34.3272C33.7579 37.2874 33.2456 36.832 33.2456 36.2058V26.1866C33.2456 25.6173 33.701 25.1049 34.3272 25.1049H37.6859V28.1221C37.6859 28.3498 37.7997 28.5206 37.9705 28.6344C38.1413 28.7483 38.369 28.8052 38.5398 28.6914L40.8738 27.8944L43.2078 28.6914C43.2648 28.6914 43.3217 28.7483 43.4356 28.7483C43.5494 28.7483 43.7202 28.6914 43.834 28.6344C44.0048 28.5206 44.1187 28.2929 44.1187 28.1221V25.1049H47.4774C48.0467 25.1049 48.559 25.5604 48.559 26.1866L48.4452 36.2058ZM11.1578 47.4205L10.987 48.6159H8.70988L8.5391 47.4205C8.48217 47.1928 8.31139 46.965 8.08368 46.9081C7.45748 46.7373 6.83128 46.5096 6.26201 46.1681C6.0343 46.0542 5.74966 46.0542 5.57888 46.225L4.61111 46.965L3.01715 45.3711L3.7572 44.4033C3.92799 44.1756 3.92799 43.891 3.81413 43.7202C3.47257 43.1509 3.24486 42.5816 3.07408 41.8985C3.01715 41.6708 2.78944 41.4431 2.56173 41.4431L1.36626 41.2723V38.9952L2.56173 38.8244C2.78944 38.7675 3.01715 38.5967 3.07408 38.369C3.24486 37.7428 3.47257 37.1166 3.81413 36.5473C3.92799 36.3196 3.92799 36.035 3.7572 35.8642L3.01715 34.8965L4.61111 33.3025L5.57888 34.0425C5.80659 34.2133 6.09122 34.2133 6.26201 34.0995C6.77435 33.7579 7.40055 33.5302 8.08368 33.3594C8.31139 33.3025 8.5391 33.0748 8.5391 32.8471L8.70988 31.6516H10.987L11.1578 32.8471C11.2147 33.0748 11.3855 33.3025 11.6132 33.3594C12.2394 33.5302 12.8656 33.7579 13.4348 34.0995C13.6626 34.2133 13.9472 34.2133 14.118 34.0425L15.0857 33.3025L16.6797 34.8965L15.9397 35.8642C15.7689 36.0919 15.7689 36.3766 15.8827 36.5473C16.2243 37.1166 16.452 37.6859 16.6228 38.369C16.6797 38.5967 16.9074 38.8244 17.1351 38.8244L18.3306 38.9952V41.2723L17.1351 41.4431C16.9074 41.5 16.6797 41.6708 16.6228 41.8985C16.452 42.5247 16.2243 43.1509 15.8827 43.7202C15.7689 43.9479 15.7689 44.2325 15.9397 44.4033L16.6797 45.3711L15.0857 46.965L14.118 46.225C13.8903 46.0542 13.6056 46.0542 13.4348 46.1681C12.8656 46.5096 12.2394 46.7373 11.6132 46.9081C11.3855 46.965 11.2147 47.1358 11.1578 47.4205Z" fill="white"/>
<path d="M26.4713 43.6064C26.4713 42.0125 25.1619 40.7031 23.568 40.7031C21.974 40.7031 20.6647 42.0125 20.6647 43.6064C20.6647 45.2004 21.974 46.5097 23.568 46.5097C25.1619 46.5097 26.4713 45.2004 26.4713 43.6064ZM21.9171 43.6064C21.9171 42.6956 22.6571 41.9555 23.568 41.9555C24.4788 41.9555 25.2189 42.6956 25.2189 43.6064C25.2189 44.5173 24.4788 45.2573 23.568 45.2573C22.6571 45.2573 21.9171 44.5173 21.9171 43.6064Z" fill="white"/>
<path d="M38.5397 43.6064C38.5397 42.0125 37.2304 40.7031 35.6364 40.7031C34.0425 40.7031 32.7332 42.0125 32.7332 43.6064C32.7332 45.2004 34.0425 46.5097 35.6364 46.5097C37.2873 46.5097 38.5397 45.2004 38.5397 43.6064ZM34.0425 43.6064C34.0425 42.6956 34.7825 41.9555 35.6934 41.9555C36.6042 41.9555 37.3443 42.6956 37.3443 43.6064C37.3443 44.5173 36.6042 45.2573 35.6934 45.2573C34.7256 45.2573 34.0425 44.5173 34.0425 43.6064Z" fill="white"/>
<path d="M50.6653 43.6064C50.6653 42.0125 49.356 40.7031 47.7621 40.7031C46.1681 40.7031 44.8588 42.0125 44.8588 43.6064C44.8588 45.2004 46.1681 46.5097 47.7621 46.5097C49.356 46.5097 50.6653 45.2004 50.6653 43.6064ZM46.1112 43.6064C46.1112 42.6956 46.8512 41.9555 47.7621 41.9555C48.6729 41.9555 49.413 42.6956 49.413 43.6064C49.413 44.5173 48.6729 45.2573 47.7621 45.2573C46.8512 45.2573 46.1112 44.5173 46.1112 43.6064Z" fill="white"/>
<path d="M28.5206 6.09111C28.5206 4.611 27.3251 3.41553 25.845 3.41553C24.3649 3.41553 23.1694 4.611 23.1694 6.09111C23.1694 7.57122 24.3649 8.7667 25.845 8.7667C27.2682 8.7667 28.5206 7.57122 28.5206 6.09111ZM25.845 7.5143C25.048 7.5143 24.4218 6.88809 24.4218 6.09111C24.4218 5.29413 25.048 4.66793 25.845 4.66793C26.642 4.66793 27.2682 5.29413 27.2682 6.09111C27.2113 6.83117 26.5851 7.5143 25.845 7.5143Z" fill="white"/>
<path d="M39.1661 29.5452H36.2628C35.1242 29.5452 34.2134 30.456 34.2134 31.5945C34.2134 32.7331 35.1242 33.6439 36.2628 33.6439H39.1661C40.3046 33.6439 41.2154 32.7331 41.2154 31.5945C41.2154 30.456 40.3046 29.5452 39.1661 29.5452ZM39.1661 32.3915H36.2628C35.8643 32.3915 35.4658 32.05 35.4658 31.5945C35.4658 31.1961 35.8073 30.7976 36.2628 30.7976H39.1661C39.5645 30.7976 39.963 31.1391 39.963 31.5945C39.963 32.05 39.6215 32.3915 39.1661 32.3915Z" fill="white"/>
</g>
<defs>
<clipPath id="clip0_66_402">
<rect width="54.081" height="49.9253" fill="white"/>
</clipPath>
</defs>
</svg>
