<svg width="50" height="50" viewBox="0 0 50 50" fill="none" xmlns="http://www.w3.org/2000/svg">
<g clip-path="url(#clip0_66_433)">
<path d="M31.4355 41.4941C32.041 41.4941 32.5391 41.0059 32.5391 40.3906V37.0117C32.5391 35.8984 31.6309 34.9902 30.5176 34.9902H28.9063C27.793 34.9902 26.8848 35.8984 26.8848 37.0117V40.3906C26.8848 40.9961 27.373 41.4941 27.9883 41.4941H31.4355ZM28.3398 37.0117C28.3398 36.709 28.5938 36.4551 28.8965 36.4551H30.5078C30.8105 36.4551 31.0645 36.709 31.0645 37.0117V40.0293H28.3398V37.0117Z" fill="white"/>
<path d="M42.1387 41.4941C42.7441 41.4941 43.2422 41.0059 43.2422 40.3906V37.0117C43.2422 35.8984 42.334 34.9902 41.2207 34.9902H39.6094C38.4961 34.9902 37.5879 35.8984 37.5879 37.0117V40.3906C37.5879 40.9961 38.0762 41.4941 38.6914 41.4941H42.1387ZM39.0527 37.0117C39.0527 36.709 39.3066 36.4551 39.6094 36.4551H41.2207C41.5234 36.4551 41.7773 36.709 41.7773 37.0117V40.0293H39.0527V37.0117Z" fill="white"/>
<path d="M35.8887 33.5449C36.2891 33.5449 36.6211 33.2129 36.6211 32.8125C36.6211 32.4121 36.2891 32.0801 35.8887 32.0801H34.2383C33.8379 32.0801 33.5059 32.4121 33.5059 32.8125C33.5059 33.2129 33.8379 33.5449 34.2383 33.5449H35.8887Z" fill="white"/>
<path d="M47.5879 48.5352H46.8359V32.666C46.8359 32.3633 46.6504 32.0996 46.377 31.9824L35.332 27.5586C35.1562 27.4902 34.9609 27.4902 34.7852 27.5586L23.7402 31.9824C23.4668 32.0898 23.2812 32.3633 23.2812 32.666V36.4941C23.2812 36.8945 23.6133 37.2266 24.0137 37.2266C24.4141 37.2266 24.7461 36.8945 24.7461 36.4941V33.1641L35.0586 29.0332L45.3711 33.1641V48.5352H38.4082V44.3652C38.4082 43.5449 37.7344 42.8711 36.9141 42.8711H33.1836C32.3633 42.8711 31.6895 43.5352 31.6895 44.3652V48.5352H24.7266V39.3164C24.7266 38.916 24.3945 38.584 23.9941 38.584C23.5937 38.584 23.2617 38.916 23.2617 39.3164V48.5352H22.5098C22.1094 48.5352 21.7773 48.8672 21.7773 49.2676C21.7773 49.668 22.1094 50 22.5098 50H47.5684C47.9688 50 48.3008 49.668 48.3008 49.2676C48.3203 48.8672 47.9883 48.5352 47.5879 48.5352ZM33.1641 44.3652C33.1641 44.3555 33.1738 44.3359 33.1934 44.3359H36.9238C36.9336 44.3359 36.9531 44.3457 36.9531 44.3652V48.5352H33.1738L33.1641 44.3652Z" fill="white"/>
<path d="M49.9219 22.6758C49.8145 22.4023 49.6094 22.1875 49.3457 22.0703L45.4297 20.332C45.0586 20.166 44.6289 20.332 44.4629 20.7031C44.2969 21.0742 44.4629 21.5039 44.834 21.6699L48.418 23.2617L47.7734 24.707L35.3516 19.1895C35.166 19.1016 34.9512 19.1016 34.7559 19.1895L22.334 24.6973L21.6895 23.252L34.7266 17.4707C34.9316 17.3828 35.166 17.3828 35.3711 17.4707L42.2363 20.5176C42.6074 20.6836 43.0371 20.5176 43.2031 20.1465C43.3691 19.7754 43.2031 19.3457 42.832 19.1797L35.9668 16.1328C35.9082 16.1035 35.8496 16.084 35.7812 16.0645V11.4941H46.0449C46.4648 11.4941 46.8457 11.2598 47.0508 10.8984C47.2461 10.5273 47.2266 10.0781 47.002 9.72656L45.1758 6.93359C44.9609 6.61133 44.6094 6.41602 44.2188 6.41602H16.7285C16.3281 6.41602 15.9961 6.74805 15.9961 7.14844C15.9961 7.54883 16.3281 7.88086 16.7285 7.88086H44.043L45.4492 10.0293H2.08984L3.49609 7.88086H13.8867C14.2871 7.88086 14.6191 7.54883 14.6191 7.14844C14.6191 6.74805 14.2871 6.41602 13.8867 6.41602H11.4746V3.92578C11.4746 3.27148 10.9473 2.74414 10.293 2.74414H9.27734V0.732422C9.27734 0.332031 8.95508 0 8.54492 0C8.14453 0 7.8125 0.332031 7.8125 0.732422V2.74414H6.79688C6.14258 2.74414 5.61523 3.27148 5.61523 3.92578V6.41602H3.32031C2.92969 6.41602 2.57812 6.61133 2.36328 6.93359L0.537109 9.72656C0.302734 10.0781 0.283203 10.5273 0.488281 10.8984C0.683594 11.2695 1.07422 11.4941 1.49414 11.4941H5.61523V21.8359H5.54688C5.14648 21.8359 4.81445 22.168 4.81445 22.5684C4.81445 22.9688 5.14648 23.3008 5.54688 23.3008H5.61523V25.6445H5.54688C5.14648 25.6445 4.81445 25.9766 4.81445 26.377C4.81445 26.7773 5.14648 27.1094 5.54688 27.1094H5.61523V29.4531H5.54688C5.14648 29.4531 4.81445 29.7852 4.81445 30.1855C4.81445 30.5859 5.14648 30.918 5.54688 30.918H5.61523V33.2617H5.54688C5.14648 33.2617 4.81445 33.5938 4.81445 33.9941C4.81445 34.3945 5.14648 34.7266 5.54688 34.7266H5.61523V37.0703H5.54688C5.14648 37.0703 4.81445 37.4023 4.81445 37.8027C4.81445 38.2031 5.14648 38.5352 5.54688 38.5352H5.61523V40.8789H5.54688C5.14648 40.8789 4.81445 41.2109 4.81445 41.6113C4.81445 42.0117 5.14648 42.3438 5.54688 42.3438H5.61523V43.7207H1.18164C0.527344 43.7207 0 44.248 0 44.9023V48.8281C0 49.4824 0.527344 50.0098 1.18164 50.0098H7.04102C7.44141 50.0098 7.77344 49.6777 7.77344 49.2773C7.77344 48.877 7.44141 48.5449 7.04102 48.5449H1.46484V45.1758H15.6348V48.5352H9.87305C9.47266 48.5352 9.14062 48.8672 9.14062 49.2676C9.14062 49.668 9.47266 50 9.87305 50H15.9082C16.5625 50 17.0898 49.4727 17.0898 48.8184V44.8926C17.0898 44.2383 16.5625 43.7109 15.9082 43.7109H11.4844V42.334H11.5527C11.9531 42.334 12.2852 42.002 12.2852 41.6016C12.2852 41.2012 11.9531 40.8691 11.5527 40.8691H11.4844V38.5254H11.5527C11.9531 38.5254 12.2852 38.1934 12.2852 37.793C12.2852 37.3926 11.9531 37.0605 11.5527 37.0605H11.4844V34.7168H11.5527C11.9531 34.7168 12.2852 34.3848 12.2852 33.9844C12.2852 33.584 11.9531 33.252 11.5527 33.252H11.4844V30.9082H11.5527C11.9531 30.9082 12.2852 30.5762 12.2852 30.1758C12.2852 29.7754 11.9531 29.4434 11.5527 29.4434H11.4844V27.0996H11.5527C11.9531 27.0996 12.2852 26.7676 12.2852 26.3672C12.2852 25.9668 11.9531 25.6348 11.5527 25.6348H11.4844V23.291H11.5527C11.9531 23.291 12.2852 22.959 12.2852 22.5586C12.2852 22.1582 11.9531 21.8262 11.5527 21.8262H11.4844V19.707H18.9746C19.5117 19.707 20.0195 19.4434 20.3223 18.9941C20.625 18.5449 20.6836 17.9785 20.4785 17.4805L18.0371 11.4941H34.3262V16.0645C34.2676 16.084 34.209 16.1133 34.1406 16.1328L20.7617 22.0605C20.2051 22.3047 19.9609 22.959 20.2051 23.5059L21.1426 25.625C21.2598 25.8887 21.4746 26.1035 21.748 26.2012C21.875 26.25 22.0117 26.2793 22.1387 26.2793C22.2852 26.2793 22.4414 26.25 22.5879 26.1816L35.0586 20.6641L47.5195 26.1914C48.0762 26.4355 48.7207 26.1816 48.9648 25.6348L49.9023 23.5156C50.0195 23.2422 50.0293 22.9492 49.9219 22.6758ZM7.08008 4.20898H10.0195V6.40625H7.08008V4.20898ZM10.0195 43.7012H7.08008V42.3242H10.0195V43.7012ZM10.0195 40.8594H7.08008V38.5156H10.0195V40.8594ZM10.0195 37.0605H7.08008V34.7168H10.0195V37.0605ZM10.0195 33.252H7.08008V30.9082H10.0195V33.252ZM10.0195 29.4434H7.08008V27.0996H10.0195V29.4434ZM10.0195 25.6445H7.08008V23.3008H10.0195V25.6445ZM7.08008 21.8359V11.4941H10.0195V21.8359H7.08008ZM19.1211 18.0371C19.1504 18.0957 19.1309 18.1543 19.1016 18.1836C19.0723 18.2129 19.043 18.252 18.9746 18.252H11.4844V11.4941H16.4551L19.1211 18.0371Z" fill="white"/>
</g>
<defs>
<clipPath id="clip0_66_433">
<rect width="50" height="50" fill="white"/>
</clipPath>
</defs>
</svg>
