<svg width="61" height="50" viewBox="0 0 61 50" fill="none" xmlns="http://www.w3.org/2000/svg">
<g clip-path="url(#clip0_66_418)">
<path d="M59.5406 41.1943H56.8445V11.913C56.8445 10.195 55.44 8.79053 53.722 8.79053H48.7436C48.3674 8.79053 48.0539 9.10403 48.0539 9.48024C48.0539 9.85644 48.3674 10.1699 48.7436 10.1699H53.722C54.6751 10.1699 55.4651 10.9474 55.4651 11.913V41.1943H4.76526V11.913C4.76526 10.9474 5.54275 10.1699 6.50834 10.1699H11.4868C11.863 10.1699 12.1765 9.85644 12.1765 9.48024C12.1765 9.10403 11.863 8.79053 11.4868 8.79053H6.50834C4.79034 8.79053 3.38584 10.1825 3.38584 11.913V41.1943H0.689708C0.313504 41.1943 0 41.5078 0 41.884C0 46.2605 3.5614 49.8094 7.92538 49.8094H52.305C56.6815 49.8094 60.2304 46.248 60.2304 41.884C60.2304 41.5078 59.9169 41.1943 59.5406 41.1943ZM44.9314 42.5737C44.6179 43.8528 43.4642 44.8184 42.0848 44.8184H18.1456C16.7662 44.8184 15.6125 43.8653 15.299 42.5737H44.9314ZM52.305 48.43H7.92538C4.55208 48.43 1.75562 45.8592 1.41704 42.5737H13.8945C14.2205 44.6177 16.0012 46.1978 18.1456 46.1978H42.0848C44.2291 46.1978 45.9973 44.6303 46.3359 42.5737H58.8133C58.4747 45.8592 55.6783 48.43 52.305 48.43Z" fill="white"/>
<path d="M28.3783 9.44263C26.3343 9.44263 24.679 11.0979 24.679 13.142V20.3902C24.679 20.7664 24.9925 21.0799 25.3687 21.0799C25.7449 21.0799 26.0584 20.7664 26.0584 20.3902V16.7912H30.6857V20.3902C30.6857 20.7664 30.9992 21.0799 31.3754 21.0799C31.7516 21.0799 32.0651 20.7664 32.0651 20.3902V13.142C32.0776 11.0979 30.4098 9.44263 28.3783 9.44263ZM26.0584 15.3992V13.142C26.0584 11.8629 27.0992 10.822 28.3783 10.822C29.6574 10.822 30.6982 11.8629 30.6982 13.142V15.3992H26.0584Z" fill="white"/>
<path d="M34.9995 9.44263C34.6233 9.44263 34.3098 9.75613 34.3098 10.1323V20.3776C34.3098 20.7538 34.6233 21.0673 34.9995 21.0673C35.3757 21.0673 35.6892 20.7538 35.6892 20.3776V10.1323C35.6892 9.75613 35.3757 9.44263 34.9995 9.44263Z" fill="white"/>
<path d="M45.2323 10.2328C45.4454 10.2328 45.6461 10.1324 45.784 9.95688L49.2326 5.41735C49.6464 5.64307 50.1229 5.78101 50.6245 5.78101C52.2171 5.78101 53.5088 4.48938 53.5088 2.89678C53.5088 1.30418 52.2171 0.0125402 50.6245 0.0125402C49.0319 0.0125402 47.7403 1.30418 47.7403 2.89678C47.7403 3.48616 47.9158 4.02539 48.2168 4.47684L44.8937 8.85335H38.9496C36.9683 6.15722 33.7831 4.40159 30.1841 4.40159C26.585 4.40159 23.3998 6.15722 21.4185 8.85335H15.3365L12.0134 4.46429C12.3143 4.01285 12.4899 3.46108 12.4899 2.88424C12.4899 1.29164 11.1983 0 9.60567 0C8.01307 0 6.72144 1.29164 6.72144 2.88424C6.72144 4.47683 8.01307 5.76847 9.60567 5.76847C10.1073 5.76847 10.5838 5.63053 10.9976 5.40481L14.4462 9.94434C14.5716 10.1199 14.7848 10.2202 14.9979 10.2202H20.5658C19.8761 11.5369 19.4497 13.0041 19.3494 14.5591H14.1201C13.8066 13.3051 12.678 12.3646 11.3237 12.3646C9.73107 12.3646 8.43944 13.6562 8.43944 15.2488C8.43944 16.8414 9.73107 18.1331 11.3237 18.1331C12.678 18.1331 13.8066 17.1926 14.1201 15.9385H19.3494C19.4497 17.4935 19.8761 18.9607 20.5658 20.2774H14.9979C14.7848 20.2774 14.5841 20.3778 14.4462 20.5533L10.9976 25.0928C10.5838 24.8671 10.1073 24.7292 9.60567 24.7292C8.01307 24.7292 6.72144 26.0208 6.72144 27.6134C6.72144 29.206 8.01307 30.4977 9.60567 30.4977C11.1983 30.4977 12.4899 29.206 12.4899 27.6134C12.4899 27.024 12.3143 26.4848 12.0134 26.0334L15.3365 21.6568H21.4185C23.3998 24.353 26.585 26.1086 30.1841 26.1086C33.7831 26.1086 36.9683 24.353 38.9496 21.6568H44.8937L48.2168 26.0334C47.9158 26.4848 47.7403 27.0366 47.7403 27.6134C47.7403 29.206 49.0319 30.4977 50.6245 30.4977C52.2171 30.4977 53.5088 29.206 53.5088 27.6134C53.5088 26.0208 52.2171 24.7292 50.6245 24.7292C50.1229 24.7292 49.6464 24.8671 49.2326 25.0928L45.784 20.5659C45.6586 20.3903 45.4454 20.29 45.2323 20.29H39.8024C40.4921 18.9733 40.9184 17.5061 41.0188 15.9511H46.1101C46.4236 17.2051 47.5522 18.1456 48.9065 18.1456C50.4991 18.1456 51.7907 16.854 51.7907 15.2614C51.7907 13.6688 50.4991 12.3771 48.9065 12.3771C47.5522 12.3771 46.4236 13.3176 46.1101 14.5717H41.0188C40.9184 13.0167 40.4921 11.5495 39.8024 10.2328H45.2323ZM50.6371 1.37942C51.4647 1.37942 52.1419 2.05659 52.1419 2.88424C52.1419 3.71189 51.4647 4.38905 50.6371 4.38905C49.8094 4.38905 49.1322 3.71189 49.1322 2.88424C49.1197 2.05659 49.7969 1.37942 50.6371 1.37942ZM8.08831 2.88424C8.08831 2.05659 8.76548 1.37942 9.59313 1.37942C10.4208 1.37942 11.0979 2.05659 11.0979 2.88424C11.0979 3.71189 10.4208 4.38905 9.59313 4.38905C8.76548 4.40159 8.08831 3.72443 8.08831 2.88424ZM9.59313 29.1308C8.76548 29.1308 8.08831 28.4536 8.08831 27.626C8.08831 26.7983 8.76548 26.1211 9.59313 26.1211C10.4208 26.1211 11.0979 26.7983 11.0979 27.626C11.1105 28.4536 10.4333 29.1308 9.59313 29.1308ZM52.1419 27.626C52.1419 28.4536 51.4647 29.1308 50.6371 29.1308C49.8094 29.1308 49.1322 28.4536 49.1322 27.626C49.1322 26.7983 49.8094 26.1211 50.6371 26.1211C51.4647 26.1211 52.1419 26.7983 52.1419 27.626ZM11.3111 16.7662C10.4835 16.7662 9.80631 16.089 9.80631 15.2614C9.80631 14.4337 10.4835 13.7565 11.3111 13.7565C12.1388 13.7565 12.816 14.4337 12.816 15.2614C12.8285 16.089 12.1513 16.7662 11.3111 16.7662ZM30.1841 24.7417C24.9548 24.7417 20.7037 20.4906 20.7037 15.2614C20.7037 10.0321 24.9548 5.78101 30.1841 5.78101C35.4133 5.78101 39.6644 10.0321 39.6644 15.2614C39.6644 20.4906 35.4133 24.7417 30.1841 24.7417ZM48.9191 13.744C49.7467 13.744 50.4239 14.4212 50.4239 15.2488C50.4239 16.0765 49.7467 16.7536 48.9191 16.7536C48.0914 16.7536 47.4142 16.0765 47.4142 15.2488C47.4017 14.4212 48.0789 13.744 48.9191 13.744Z" fill="white"/>
</g>
<defs>
<clipPath id="clip0_66_418">
<rect width="60.2304" height="49.8095" fill="white"/>
</clipPath>
</defs>
</svg>
