<svg width="50" height="50" viewBox="0 0 50 50" fill="none" xmlns="http://www.w3.org/2000/svg">
<g clip-path="url(#clip0_66_448)">
<path fill-rule="evenodd" clip-rule="evenodd" d="M5.81294 30.5895C2.72351 22.8761 6.47351 14.1261 14.1768 11.0367C21.88 7.94722 30.6402 11.6972 33.7296 19.4005C36.819 27.1139 33.069 35.8639 25.3658 38.9533C23.7804 39.5936 22.0934 39.9493 20.3759 40.0204C20.254 45.6505 15.5894 50.1119 9.95928 49.9797C4.3292 49.8578 -0.132183 45.1932 -6.96196e-05 39.5631C0.0913938 35.7216 2.33733 32.246 5.81294 30.5895ZM24.5426 0.203318C24.7662 -0.0507472 25.1524 -0.0710724 25.4064 0.152505C25.4166 0.162667 25.4268 0.17283 25.4369 0.17283L27.8861 2.62202C28.13 2.85576 28.13 3.24194 27.8963 3.48584C27.6625 3.72974 27.2764 3.72974 27.0324 3.496L27.0223 3.48584L25.6097 2.0834V8.96348C25.6097 9.29885 25.3353 9.57324 24.9999 9.57324C24.6646 9.57324 24.3902 9.29885 24.3902 8.96348V2.0834L22.9776 3.496C22.7438 3.7399 22.3577 3.7399 22.1138 3.50616C21.8698 3.27242 21.8698 2.88624 22.1036 2.64234C22.1036 2.63218 22.1138 2.63218 22.1138 2.63218L24.5426 0.203318ZM25.0609 50.0001C25.2032 49.9899 25.3353 49.9289 25.4268 49.8273L27.8759 47.3781C28.1198 47.1444 28.1198 46.7582 27.8861 46.5143C27.6524 46.2704 27.2662 46.2704 27.0223 46.5041L27.0121 46.5143L25.6097 47.9167V41.0367C25.6097 40.7013 25.3353 40.4269 24.9999 40.4269C24.6646 40.4269 24.3902 40.7013 24.3902 41.0367V47.9167L22.9776 46.5041C22.7337 46.2704 22.3475 46.2806 22.1138 46.5143C21.8902 46.748 21.8902 47.1241 22.1138 47.3578L24.5426 49.7867C24.6747 49.9391 24.8678 50.0204 25.0609 50.0001ZM42.8556 42.185V38.7806C42.8556 38.4452 42.5711 38.181 42.2357 38.181C41.9105 38.181 41.6361 38.4554 41.6361 38.7806V40.7724L34.4511 33.5875C34.2174 33.3436 33.8312 33.3436 33.5873 33.5773C33.3434 33.811 33.3434 34.1972 33.5772 34.4411L33.5873 34.4513L40.7723 41.6362H38.7804C38.4451 41.6362 38.1707 41.9106 38.1707 42.246C38.1707 42.5814 38.4451 42.8558 38.7804 42.8558H42.2459C42.5812 42.8558 42.8556 42.5814 42.8556 42.246C42.8556 42.2257 42.8556 42.2054 42.8556 42.185ZM49.7967 24.5427C50.0507 24.7663 50.0711 25.1525 49.8475 25.4066C49.8373 25.4167 49.8272 25.4269 49.8272 25.4371L47.378 27.8862C47.1442 28.1301 46.7581 28.1301 46.5142 27.8964C46.2703 27.6627 46.2703 27.2765 46.504 27.0326L46.5142 27.0224L47.9268 25.6098H36.6463C36.3109 25.6098 36.0365 25.3354 36.0365 25.0001C36.0365 24.6647 36.3109 24.3903 36.6463 24.3903H47.9166L46.504 22.9777C46.2703 22.7338 46.2804 22.3476 46.5142 22.1139C46.7479 21.8903 47.1239 21.8903 47.3577 22.1139L49.7967 24.5427ZM42.1849 7.14438H38.7804C38.4451 7.14438 38.1808 7.42893 38.1808 7.76429C38.1808 8.0895 38.4552 8.36389 38.7804 8.36389H40.7723L33.5873 15.5488C33.3536 15.7927 33.3536 16.1789 33.5975 16.4127C33.8312 16.6464 34.2072 16.6464 34.4511 16.4127L41.6361 9.22771V11.2196C41.6361 11.5549 41.9105 11.8293 42.2459 11.8293C42.5812 11.8293 42.8556 11.5549 42.8556 11.2196V7.75413C42.8556 7.41877 42.5812 7.14438 42.2459 7.14438C42.2255 7.14438 42.2052 7.14438 42.1849 7.14438ZM9.58326 35.3862V36.118C8.53652 36.3314 7.63204 37.1444 7.63204 38.2318C7.63204 41.2196 11.5243 39.7257 11.5243 41.372C11.5142 41.6261 11.382 41.8598 11.1788 42.0123C10.3353 42.6932 8.84139 42.2257 8.84139 41.372C8.84139 41.0367 8.567 40.7623 8.23164 40.7623C7.89627 40.7623 7.62188 41.0367 7.62188 41.372C7.62188 42.4594 8.52635 43.2724 9.5731 43.4858V44.2175C9.5731 44.5529 9.84749 44.8273 10.1829 44.8273C10.5182 44.8273 10.7926 44.5529 10.7926 44.2175V43.4858C11.8394 43.2724 12.7438 42.4594 12.7438 41.372C12.7438 38.3842 8.85156 39.8781 8.85156 38.2318C8.86172 37.9777 8.98367 37.744 9.19709 37.5915C10.0406 36.9106 11.5345 37.3781 11.5345 38.2318C11.5345 38.5671 11.8089 38.8415 12.1442 38.8415C12.4796 38.8415 12.754 38.5671 12.754 38.2318C12.754 37.1444 11.8495 36.3314 10.8028 36.118V35.3862C10.8028 35.0509 10.5284 34.7765 10.193 34.7765C9.85765 34.7765 9.58326 35.0407 9.58326 35.3862ZM18.9938 34.6647C19.0548 34.6647 19.1056 34.6545 19.1666 34.6545V25.6098H12.2459C12.2764 27.0631 12.439 28.5062 12.7337 29.9289C15.3759 30.6098 17.6219 32.3171 18.9938 34.6647ZM11.4532 29.685C11.1991 28.3436 11.067 26.9818 11.0365 25.6098H5.97554C6.03652 27.1647 6.37188 28.6891 6.95115 30.1322C8.39424 29.6444 9.92879 29.4919 11.4532 29.685ZM10.193 30.8232C5.23367 30.8232 1.20928 34.8375 1.20928 39.7968C1.20928 44.7562 5.22351 48.7806 10.1829 48.7806C15.1422 48.7806 19.1666 44.7663 19.1666 39.807C19.1666 34.8476 15.1625 30.8232 10.193 30.8232ZM25.3658 37.6423C25.193 37.5204 25.0203 37.4086 24.8475 37.2968C24.6036 37.5915 24.3394 37.8761 24.065 38.1403C24.502 37.998 24.939 37.8253 25.3658 37.6423ZM23.7499 36.7074C22.693 36.2297 21.5446 35.9452 20.3861 35.8741V38.7704C21.6056 38.5875 22.754 37.8558 23.7499 36.7074ZM20.3861 34.6545C21.819 34.7358 23.2113 35.1017 24.502 35.7216C26.2194 33.1606 27.2052 29.4818 27.2967 25.6098H20.3759L20.3861 34.6545ZM25.569 36.311C25.9146 36.5346 26.2499 36.7684 26.5751 37.0326C30.7215 34.685 33.3739 30.3659 33.5772 25.6098H28.5162C28.4247 29.6952 27.378 33.5671 25.569 36.311ZM20.3861 11.2297V14.1261C21.5446 14.0549 22.693 13.7704 23.7499 13.2927C22.754 12.1444 21.6056 11.4127 20.3861 11.2297ZM20.3861 15.3456V24.3903H27.3068C27.2154 20.5184 26.2296 16.8395 24.5121 14.2785C23.2113 14.9086 21.819 15.2643 20.3861 15.3456ZM19.1666 24.3903V15.3456C17.7337 15.2643 16.3414 14.8984 15.0507 14.2785C13.3333 16.8395 12.3475 20.5184 12.256 24.3903H19.1666ZM19.1666 14.1261V11.2297C17.9471 11.4127 16.7987 12.1444 15.8028 13.2927C16.8597 13.7704 18.0081 14.0549 19.1666 14.1261ZM11.0264 24.3903C11.1178 20.3049 12.1646 16.433 13.9837 13.6891C13.6381 13.4655 13.3028 13.2318 12.9776 12.9675C8.83123 15.3151 6.17879 19.624 5.97554 24.3903H11.0264ZM14.7052 12.7033C14.9491 12.4086 15.2133 12.124 15.4877 11.8598C15.0406 12.0021 14.6138 12.1749 14.1869 12.3578C14.3597 12.4797 14.5324 12.5915 14.7052 12.7033ZM24.065 11.8598C24.3394 12.124 24.6036 12.4086 24.8475 12.7033C25.0203 12.5915 25.2032 12.4797 25.3658 12.3578C24.939 12.1749 24.502 12.0021 24.065 11.8598ZM25.569 13.6891C27.378 16.433 28.4349 20.3049 28.5264 24.3903H33.5873C33.3739 19.6342 30.7316 15.3151 26.5853 12.9675C26.2499 13.2216 25.9146 13.4655 25.569 13.6891Z" fill="white"/>
</g>
<defs>
<clipPath id="clip0_66_448">
<rect width="50" height="50" fill="white"/>
</clipPath>
</defs>
</svg>
