<svg width="402" height="66" viewBox="0 0 402 66" fill="none" xmlns="http://www.w3.org/2000/svg">
<g clip-path="url(#clip0_96_1147)">
<path d="M60.5964 4.50883C61.2124 4.12014 61.7514 3.80919 62.3674 3.65371C62.9063 3.42049 63.4453 3.34276 63.9073 3.26502C64.8313 3.10954 65.4472 3.18728 65.6012 3.18728C65.6782 3.18728 65.7552 3.18728 65.8322 3.18728C66.2172 3.18728 66.5252 3.0318 66.8332 2.79859C67.1412 2.56537 67.2952 2.17668 67.3722 1.71025V1.55477C67.3722 0.699647 66.9102 0.388693 66.6792 0.233216C66.3712 0.0777385 65.8322 0 65.1393 0C63.5223 0 62.0594 0.310954 60.6734 0.855124C59.3645 1.39929 58.1325 2.25442 57.1316 3.26502C56.1306 4.27562 55.2067 5.4417 54.5137 6.76325C53.8207 8.08481 53.2817 9.56184 52.8968 11.0389C52.7428 11.6608 52.5118 12.5159 52.3578 13.6042C52.1268 14.6148 51.8958 15.7809 51.6648 17.1025C51.4338 18.424 51.2028 19.8233 50.8949 21.3004C50.6639 22.7774 50.4329 24.3322 50.2019 25.8869C49.9709 27.4417 49.7399 28.9965 49.5089 30.4735C49.4319 31.0954 49.3549 31.7173 49.2779 32.3392C49.0469 31.7173 48.8929 31.0954 48.6619 30.4735C48.123 28.9187 47.584 27.364 47.045 25.7314C46.429 24.0989 45.8901 22.3887 45.2741 20.7562C44.6581 19.0459 44.1191 17.4134 43.5032 15.8587C42.9642 14.3039 42.4252 12.7491 41.8862 11.3498L40.5003 7.61837C40.1153 6.53004 39.8073 5.67491 39.5763 4.97527C39.3453 4.27562 39.1913 3.88693 39.1143 3.73145C38.8834 3.10954 38.3444 2.72085 37.7284 2.72085C37.1124 2.72085 36.8814 2.87633 36.5735 3.18728C36.2655 3.49823 36.1885 3.88693 36.1885 4.27562V4.81979C36.1885 5.28622 36.1885 6.14134 36.1115 7.30742C36.1115 8.4735 35.8805 9.95053 35.6495 11.583C35.4185 13.2155 35.0335 15.159 34.4945 17.258C33.9556 19.3569 33.2626 21.5336 32.4156 23.8657C31.5687 26.0424 30.5677 27.9859 29.4898 29.5406C28.3348 31.0954 27.1799 32.417 25.9479 33.4276C24.716 34.4382 23.484 35.2933 22.2521 35.8375C21.0201 36.4594 19.7882 36.9258 18.6332 37.159C17.4783 37.47 16.4773 37.6254 15.5533 37.7032C14.6294 37.7809 13.8594 37.8587 13.3204 37.8587C11.9345 37.8587 10.5486 37.7032 9.31661 37.3145C8.08466 36.9258 7.0067 36.3816 6.08274 35.682C5.15878 34.9823 4.46581 34.2049 3.92683 33.2721C3.38786 32.3392 3.15687 31.3286 3.15687 30.1625C3.15687 28.9965 3.38786 28.1413 3.84984 27.2862C4.31182 26.3534 5.00479 25.576 5.77476 24.9541C6.62172 24.2544 7.54568 23.788 8.62364 23.3993C9.70159 23.0106 10.7795 22.8551 11.9345 22.8551C13.0894 22.8551 14.4754 23.0883 15.4763 23.3993C16.4773 23.788 17.2473 24.2544 17.8632 24.7208C18.4792 25.1873 18.9412 25.6537 19.1722 26.0424C19.4032 26.3534 19.5572 26.5866 19.5572 26.5866C19.8652 27.2085 20.3271 27.5194 20.8661 27.5194C21.4051 27.5194 21.7131 27.364 22.0211 27.053C22.3291 26.7421 22.4061 26.3534 22.4061 26.0424C22.4061 25.7314 22.4061 25.576 22.1751 25.265L21.8671 24.7986C21.6361 24.4876 21.4051 24.1767 21.0201 23.7102C20.6351 23.3216 20.1731 22.8551 19.6342 22.4664C19.0952 22 18.4022 21.6113 17.6323 21.2226C16.8623 20.8339 16.0153 20.523 15.0144 20.2898C14.0134 20.0565 12.9355 19.9011 11.7035 19.9011C10.4716 19.9011 8.70063 20.1343 7.31469 20.6784C5.92875 21.2226 4.6968 21.9223 3.61885 22.8551C2.54089 23.788 1.69393 24.8763 1.00096 26.1201C0.384984 27.364 0 28.7633 0 30.2403C0 31.7173 0.307987 33.3498 1.00096 34.6714C1.69393 35.9929 2.61789 37.159 3.77284 38.0919C4.92779 39.0247 6.39073 39.8021 8.00766 40.2686C9.62459 40.8127 11.3955 41.0459 13.2434 41.0459C15.0914 41.0459 14.6294 41.0459 15.6303 40.8905C16.6313 40.8127 17.8632 40.5795 19.0952 40.1908C20.4041 39.8799 21.7901 39.3357 23.253 38.636C24.716 37.9364 26.1789 37.0035 27.6418 35.8375C29.0278 34.6714 30.4137 33.1943 31.7227 31.4064C33.0316 29.6184 34.1866 27.5194 35.1105 25.0318C35.7265 23.477 36.2655 21.8445 36.6505 20.3675C37.1124 18.8905 37.4974 17.4134 37.7284 16.0919C38.0364 14.7703 38.2674 13.4488 38.4214 12.2827C38.4214 12.0495 38.4214 11.7385 38.4984 11.5053C38.8064 12.2827 39.1143 13.1378 39.4223 13.9929C40.1153 15.7809 40.8083 17.7244 41.5012 19.6678C42.1942 21.689 42.9642 23.6325 43.6572 25.7314C44.3501 27.7526 45.0431 29.6961 45.6591 31.4841C46.275 33.2721 46.814 34.9046 47.276 36.3039C47.738 37.7032 48.046 38.8693 48.277 39.6466C48.354 40.0353 48.5849 40.2686 48.8929 40.5018C49.5089 40.8905 50.3559 40.8905 50.8179 40.3463C51.0488 40.1131 51.2028 39.8021 51.2798 39.4134C51.3568 38.2474 51.5878 36.8481 51.7418 35.2155C51.9728 33.583 52.2038 31.8728 52.4348 30.0848C52.6658 28.2968 52.9738 26.4311 53.2817 24.5654C53.5897 22.6996 53.8977 20.9117 54.1287 19.2792C54.4367 17.6466 54.6677 16.1696 54.9757 14.7703C55.2067 13.4488 55.4377 12.4382 55.6687 11.7385C56.0536 10.3392 56.5156 9.17315 57.0546 8.24028C57.5936 7.30742 58.1325 6.4523 58.7485 5.83039C59.3645 5.20848 59.9035 4.66431 60.5194 4.27562L60.5964 4.50883Z" fill="#008000"/>
<path d="M139.441 30.9398C138.748 30.9398 138.286 31.2507 138.055 31.8726C137.824 32.4168 137.516 33.0387 137.131 33.7384C136.746 34.438 136.361 35.1377 135.899 35.7596C135.437 36.3815 134.975 36.9257 134.436 37.3143C133.974 37.703 133.512 37.8585 133.05 37.8585C131.818 37.8585 130.817 36.0705 130.048 32.65C130.51 31.5617 130.971 30.3179 131.51 28.8408C132.049 27.2861 132.588 25.6536 133.127 23.7878C133.589 21.9999 134.051 20.0564 134.359 18.1129C134.667 16.0917 134.898 14.0705 134.898 12.1271C134.898 10.1836 134.898 10.3391 134.744 9.56169C134.59 8.78431 134.436 8.00692 134.128 7.46275C133.82 6.84084 133.435 6.37441 133.05 5.98572C132.588 5.59703 131.972 5.44155 131.279 5.44155C130.587 5.44155 129.817 5.67477 129.201 6.21894C128.662 6.68537 128.2 7.38501 127.815 8.1624C127.43 8.93978 127.122 9.87265 126.891 10.8832C126.66 11.8938 126.429 12.9822 126.275 14.0705C126.121 15.1589 126.044 16.3249 125.967 17.491C125.967 18.6571 125.89 19.7454 125.89 20.8338C125.89 23.1659 125.967 25.2649 126.198 27.2083C126.198 27.2083 126.044 27.2083 125.967 27.2083C125.12 27.2083 124.273 27.4416 123.349 27.8302C122.502 28.2189 121.732 28.8408 121.039 29.6182C120.577 30.0847 120.192 30.7066 119.884 31.3285C119.653 31.484 119.422 31.7172 119.268 32.0281C119.114 32.3391 118.96 32.7278 118.729 33.1942C118.498 33.6606 118.267 34.0493 117.959 34.5158C117.651 34.9822 117.343 35.4486 117.035 35.9151C116.727 36.3815 116.342 36.7702 116.034 37.0811C115.726 37.3921 115.341 37.703 115.033 37.8585C114.725 38.014 114.417 38.0917 114.109 38.0917C113.647 38.0917 113.339 37.9363 113.108 37.703C112.8 37.3143 112.569 36.9257 112.415 36.3815C112.261 35.8373 112.107 35.2931 112.107 34.749C112.107 34.2048 112.03 33.7384 112.03 33.4274C112.03 33.0387 111.876 32.7278 111.568 32.4168C111.029 31.7949 110.105 31.8726 109.489 32.4168C109.181 32.65 109.027 33.0387 108.95 33.3497C108.873 34.2048 108.642 34.9044 108.411 35.4486C108.18 36.0705 107.872 36.537 107.487 36.9257C107.18 37.3143 106.872 37.5476 106.564 37.703C106.256 37.8585 106.025 37.9363 105.794 37.9363C105.486 37.9363 105.255 37.9362 105.024 37.7808C104.793 37.6253 104.639 37.4698 104.562 37.3143C104.408 37.0811 104.331 36.8479 104.254 36.6147C104.254 36.3037 104.177 36.0705 104.177 35.7596C104.177 34.8267 104.331 33.9716 104.639 33.3497C104.947 32.65 105.332 32.1059 105.717 31.6394C106.179 31.173 106.641 30.862 107.103 30.6288C107.949 30.3179 108.796 30.2401 109.335 30.3956C109.566 30.3956 109.797 30.5511 109.951 30.6288C110.182 30.7066 110.259 30.7843 110.336 30.862C110.413 30.862 110.49 31.0175 110.49 31.0175C111.029 31.5617 112.03 31.6394 112.646 31.0175C112.954 30.7066 113.108 30.3179 113.108 29.9292C113.108 29.5405 112.954 29.2295 112.646 28.8408C112.646 28.8408 112.492 28.7631 112.338 28.6076C112.107 28.4522 111.876 28.2967 111.491 28.0635C111.183 27.908 110.721 27.6748 110.259 27.5193C109.027 27.1306 107.564 27.2083 106.025 27.8302C105.101 28.2189 104.331 28.7631 103.561 29.4628C103.022 30.0069 102.483 30.7066 102.098 31.4062C101.867 31.5617 101.636 31.7949 101.559 32.1059C101.405 32.4168 101.251 32.7278 101.02 33.1942C100.789 33.5829 100.558 34.0493 100.25 34.5158C99.9418 34.9822 99.6338 35.4486 99.3258 35.8373C99.0178 36.3037 98.6329 36.6924 98.2479 37.0811C97.8629 37.3921 97.5549 37.703 97.1699 37.9363C96.6309 38.2472 96.015 38.3249 95.784 38.0917C95.63 37.9363 95.553 37.7808 95.476 37.5476C95.399 37.3143 95.322 37.0034 95.245 36.6147C95.245 36.226 95.245 35.8373 95.245 35.4486C95.245 34.749 95.245 34.1271 95.322 33.5052C95.399 32.8055 95.476 32.2613 95.476 31.8726C95.476 31.484 95.476 30.862 95.322 30.3956C95.168 29.9292 95.014 29.5405 94.783 29.1518C94.552 28.7631 94.167 28.4522 93.7821 28.2189C92.9351 27.7525 91.8571 27.7525 90.7022 28.3744C90.1632 28.6854 89.6242 29.1518 89.0853 29.7737C88.6233 30.3956 88.0843 31.0953 87.6223 31.7949C87.1603 32.4946 86.6984 33.1942 86.3134 33.8938C85.9284 34.5158 85.6204 35.1377 85.3124 35.7596V32.65C86.1594 31.0175 87.0063 29.385 87.7763 27.6748C88.6233 25.8868 89.3163 24.0988 89.9322 22.2331C90.5482 20.3673 91.0102 18.5016 91.3952 16.5582C91.7801 14.6147 91.9341 12.5935 91.9341 10.5723C91.9341 8.55109 91.9341 8.62883 91.7031 7.69597C91.5492 6.76311 91.3182 5.90798 91.0102 5.20834C90.7022 4.43095 90.2402 3.88678 89.6242 3.42035C89.0083 2.95392 88.3153 2.7207 87.4683 2.7207C86.6214 2.7207 85.6204 3.18713 84.9274 4.12C84.3115 4.97512 83.8495 6.1412 83.4645 7.61823C83.0795 9.09526 82.8485 10.8055 82.6945 12.9044C82.5405 14.9257 82.3865 17.1801 82.3095 19.7454C82.3095 22.2331 82.1556 24.9539 82.1556 27.8302C82.1556 29.385 82.1556 30.9398 82.1556 32.5723C81.8476 33.2719 81.4626 33.9716 81.0776 34.6712C80.6156 35.5264 80.0766 36.226 79.4607 36.9257C78.8447 37.5476 78.1517 38.0917 77.4587 38.5582C76.9968 38.7914 76.6118 38.9469 76.0728 39.0246C76.2268 38.7914 76.3808 38.5582 76.4578 38.3249C76.7658 37.6253 76.9198 36.8479 76.9198 36.0705C76.9198 35.2931 76.8428 34.8267 76.6118 34.2825C76.3808 33.7384 76.1498 33.1165 75.8418 32.4946C75.5338 31.8726 75.2258 31.173 74.8409 30.4734C74.4559 29.7737 74.1479 28.9963 73.7629 28.1412C73.7629 27.8302 73.9169 27.5193 73.9169 27.2861C73.9169 26.9751 73.9939 26.6642 73.9939 26.3532C73.9939 25.7313 73.8399 25.1871 73.5319 24.7984C73.2239 24.332 72.685 24.0211 72.146 24.0211C71.607 24.0211 71.068 24.2543 70.683 24.7984C70.3751 25.2649 70.2211 25.809 70.2211 26.5087C70.2211 27.2083 70.2211 27.1306 70.2981 27.4416C70.2981 27.6748 70.452 27.9857 70.529 28.3744C70.375 28.9963 70.2211 29.6182 70.0671 30.1624C69.9131 30.7066 69.6051 31.3285 69.2201 32.0281C69.2201 32.1059 69.0661 32.1836 69.0661 32.2613C68.5271 33.2719 68.0651 34.2048 67.5262 35.0599C66.9872 35.9151 66.5252 36.6147 65.9862 37.1589C65.5243 37.703 64.9853 38.1695 64.5233 38.4804C63.8303 38.9469 63.2914 38.9469 62.6754 38.7914C62.4444 38.7914 62.2134 38.5582 62.0594 38.3249C61.8284 38.0917 61.6744 37.703 61.5204 37.2366C61.3664 36.7702 61.2894 36.0705 61.2894 35.2154C61.2894 34.3603 61.2894 33.8161 61.2894 33.0387C61.2894 32.2613 61.3664 31.484 61.4434 30.7843L61.5974 28.9963C61.5974 28.4522 61.5974 28.1412 61.5974 28.0635C61.5974 27.6748 61.4434 27.2861 61.2124 26.9751C60.6735 26.3532 59.5955 26.3532 59.0565 26.9751C58.8255 27.2083 58.5945 27.597 58.5945 27.908C58.2866 30.3179 58.1326 32.8055 58.1326 35.2931C58.1326 37.7808 58.2096 37.0034 58.4406 37.7808C58.6715 38.5582 58.9795 39.2578 59.4415 39.8797C59.9035 40.5016 60.4425 40.9681 61.0584 41.3567C61.6744 41.7454 62.4444 41.9009 63.2913 41.9009C64.1383 41.9009 64.6003 41.7454 65.2933 41.4345C65.9092 41.1235 66.5252 40.7348 67.0642 40.1907C67.5262 39.802 67.9882 39.3355 68.3731 38.7914C68.3731 38.9469 68.4501 39.1023 68.6041 39.2578C69.2971 40.2684 70.1441 40.9681 71.222 41.4345C72.223 41.8232 73.3779 42.0564 74.6099 42.0564C75.8418 42.0564 76.5348 41.9009 77.3818 41.59C78.2287 41.279 78.9987 40.8903 79.6917 40.4239C80.3846 39.9575 81.0006 39.3355 81.6166 38.7136C81.7706 38.4804 82.0016 38.3249 82.1556 38.0917V38.4804C82.1556 39.1801 82.3095 39.802 82.6945 40.3461C83.0795 40.8903 83.6955 41.2013 84.3885 41.2013C85.0814 41.2013 85.2354 41.0458 85.6974 40.7348C86.1594 40.4239 86.5444 39.8797 86.9294 39.1023C87.0833 38.7136 87.3143 38.2472 87.6223 37.703C87.9303 37.1589 88.2383 36.537 88.5463 35.9151C88.9313 35.2931 89.2393 34.6712 89.6242 34.0493C90.0092 33.4274 90.3942 32.8832 90.7022 32.4168C91.0872 31.9504 91.3952 31.5617 91.7031 31.2507C92.0111 30.9398 92.2421 30.9398 92.2421 30.9398C92.2421 30.9398 92.3191 31.0953 92.3191 31.6394C92.3191 32.1836 92.3191 32.0281 92.3191 32.3391C92.3191 32.65 92.3191 32.961 92.2421 33.2719C92.2421 33.5829 92.2421 33.9716 92.1651 34.2825C92.1651 34.6712 92.1651 34.9822 92.1651 35.2931C92.1651 35.9151 92.1651 36.537 92.3191 37.2366C92.3961 37.9363 92.6271 38.5582 92.9351 39.1023C93.2431 39.7242 93.7051 40.1907 94.244 40.5794C94.783 40.9681 95.553 41.2013 96.3999 41.2013C97.2469 41.2013 97.9399 41.0458 98.6329 40.6571C99.3258 40.2684 99.9418 39.8797 100.481 39.2578C100.866 38.8691 101.174 38.4804 101.482 38.0917C101.713 38.6359 101.944 39.1023 102.329 39.491C102.714 39.9575 103.253 40.3461 103.792 40.5794C104.331 40.8126 105.024 40.9681 105.717 40.9681C106.41 40.9681 107.564 40.6571 108.411 40.0352C109.027 39.6465 109.489 39.1023 110.028 38.4804C110.336 39.1023 110.721 39.5688 111.183 40.0352C111.953 40.7348 112.877 41.1235 114.032 41.1235C115.187 41.1235 115.572 40.9681 116.265 40.5794C116.958 40.1907 117.574 39.802 118.113 39.2578C118.498 38.9469 118.806 38.5582 119.114 38.1695C119.345 38.7914 119.653 39.3355 120.115 39.802C120.5 40.2684 121.039 40.5794 121.578 40.7348C122.117 40.8903 122.656 41.0458 123.195 41.0458C124.273 41.0458 125.351 40.5794 126.275 39.7242C126.968 39.1023 127.584 38.1695 128.2 37.0034C128.739 38.2472 129.278 39.1801 129.971 39.8797C130.894 40.7348 131.972 41.2013 133.281 41.2013C134.59 41.2013 134.667 41.0458 135.283 40.6571C135.899 40.3461 136.438 39.9575 136.977 39.4133C137.516 38.9469 137.978 38.4027 138.363 37.7808C138.748 37.2366 139.133 36.6147 139.518 36.0705C139.826 35.5264 140.134 34.9822 140.365 34.438C140.596 33.9716 140.75 33.5829 140.904 33.2719C140.981 33.1165 141.058 32.8832 141.058 32.65C141.058 32.2613 140.904 31.8726 140.596 31.5617C140.288 31.2507 139.903 31.0953 139.518 31.0953L139.441 30.9398ZM125.659 35.2154C125.274 35.9928 124.889 36.537 124.581 36.9257C124.196 37.3921 123.965 37.5476 123.811 37.6253C123.58 37.703 123.349 37.7808 123.195 37.7808C122.733 37.7808 122.425 37.6253 122.194 37.3143C121.963 36.9257 121.809 36.3815 121.809 35.6818C121.809 34.9822 121.963 33.8938 122.194 33.2719C122.502 32.5723 122.81 32.0281 123.272 31.6394C123.734 31.173 124.196 30.862 124.658 30.6288C125.197 30.3956 125.659 30.2401 126.121 30.1624C126.275 30.1624 126.429 30.1624 126.583 30.0069C126.737 30.862 126.814 31.6394 126.968 32.3391C126.506 33.5052 126.044 34.438 125.659 35.2154ZM130.894 20.756C130.587 22.1553 130.202 23.5546 129.74 24.9539C129.586 25.4981 129.355 26.0423 129.201 26.5864C129.201 26.12 129.124 25.6536 129.047 25.1094C128.893 23.6324 128.893 22.1553 128.893 20.6783C128.893 19.2013 128.97 17.6465 129.124 16.0917C129.278 14.6147 129.509 13.2154 129.74 12.0493C129.971 10.8832 130.279 9.95039 130.663 9.25074C130.971 8.62883 131.202 8.47335 131.279 8.47335C131.279 8.47335 131.279 8.47335 131.356 8.62883C131.51 8.86205 131.587 9.173 131.664 9.56169C131.741 9.95039 131.818 10.4168 131.818 10.8832C131.818 11.3497 131.818 11.8161 131.818 12.2048C131.818 13.6041 131.741 15.0811 131.51 16.4804C131.356 17.9575 131.048 19.3567 130.741 20.756H130.894ZM85.3124 25.6536C85.3124 24.4875 85.3124 23.2437 85.3124 21.9999C85.3124 20.756 85.3124 19.4345 85.3894 18.1129C85.3894 16.7914 85.4664 15.4698 85.5434 14.226C85.6204 12.9822 85.6974 11.7384 85.8514 10.65C86.0054 9.56169 86.1594 8.55109 86.3134 7.69597C86.4674 6.91858 86.6984 6.29667 86.9294 5.83024C87.0063 5.67477 87.1603 5.36381 87.3913 5.36381C87.6223 5.36381 87.7763 5.36381 88.0073 5.75251C88.2383 6.1412 88.3923 6.60763 88.5463 7.1518C88.7003 7.69597 88.7003 8.31788 88.7773 8.86205C88.7773 9.40622 88.7773 9.87265 88.7773 10.1059C88.7773 11.7384 88.6233 13.2931 88.4693 14.7702C88.2383 16.2472 87.9303 17.7242 87.5453 19.2013C87.1603 20.6783 86.6214 22.1553 86.0824 23.5546C85.8514 24.1765 85.5434 24.8762 85.3124 25.6536ZM70.0671 36.3815C70.452 35.7596 70.837 35.2154 71.145 34.5935C71.453 34.0493 71.684 33.5829 71.915 33.1942C71.992 33.0387 72.069 32.961 72.146 32.8055C72.3 32.4946 72.377 32.2613 72.531 32.0281C72.531 32.1059 72.608 32.1836 72.685 32.2613C72.9159 32.7278 73.1469 33.1165 73.3779 33.5829C73.6089 33.9716 73.7629 34.3603 73.8399 34.749C73.9169 35.1377 73.9939 35.4486 73.9939 35.8373C73.9939 36.226 73.9939 36.1483 73.9169 36.3815C73.9169 36.6147 73.7629 36.7702 73.6089 37.0034C73.4549 37.1589 73.3009 37.3143 73.1469 37.4698C72.9159 37.6253 72.454 37.703 71.992 37.5476C71.838 37.5476 71.684 37.4698 71.607 37.3921C71.453 37.3143 71.376 37.2366 71.299 37.1589C70.991 36.7702 70.529 36.6147 70.0671 36.6147C70.0671 36.6147 70.1441 36.4592 70.2211 36.3815H70.0671Z" fill="#008000"/>
<path d="M316.765 22.9329C317.535 22.9329 318.228 22.622 318.767 22.0778C319.306 21.5336 319.614 20.834 319.614 20.0566C319.614 19.2792 319.614 19.2792 319.383 18.8905C319.229 18.5796 318.998 18.2686 318.767 17.9577C318.536 17.7244 318.228 17.4912 317.843 17.3358C317.15 17.0248 316.303 17.0248 315.61 17.3358C315.302 17.4912 314.994 17.7244 314.686 17.9577C314.455 18.1909 314.224 18.5018 314.07 18.8905C313.916 19.2792 313.839 19.5902 313.839 20.0566C313.839 20.834 314.147 21.5336 314.686 22.0778C315.225 22.622 315.918 22.9329 316.765 22.9329ZM315.61 20.0566C315.61 19.7456 315.687 19.4347 315.995 19.2015C316.226 18.8905 316.457 18.8905 316.765 18.8905C317.073 18.8905 317.304 18.8905 317.612 19.2792C317.92 19.5902 317.997 19.9011 317.997 20.1343C317.997 20.3676 317.997 20.6008 317.689 20.9117C317.15 21.4559 316.534 21.4559 315.995 20.9117C315.764 20.6785 315.687 20.4453 315.687 20.1343L315.61 20.0566Z" fill="#096C6C"/>
<path d="M401.307 31.4842C400.845 30.9401 399.998 30.7846 399.382 31.1733C399.151 31.3288 398.92 31.562 398.766 31.8729C398.612 32.2616 398.304 32.8835 397.919 33.5832C397.534 34.2828 397.149 34.9825 396.61 35.6044C396.148 36.2263 395.609 36.8482 395.07 37.3146C394.531 37.7033 394.069 37.9365 393.607 37.9365C393.145 37.9365 393.222 37.9365 393.068 37.7811C392.914 37.7033 392.837 37.5478 392.76 37.3924C392.683 37.1592 392.606 36.9259 392.529 36.615C392.529 36.304 392.529 35.9153 392.529 35.5266C392.529 35.138 392.529 34.9047 392.529 34.516L392.683 32.4171C392.683 32.1061 392.683 31.7952 392.683 31.562C392.683 30.4736 392.452 29.6185 391.99 28.8411C391.451 28.0637 390.604 27.5973 389.604 27.5973C388.603 27.5973 388.526 27.7528 387.91 28.0637C387.371 28.3747 386.832 28.8411 386.293 29.463C385.831 30.0849 385.292 30.7846 384.83 31.4065C384.368 32.1062 383.983 32.8058 383.521 33.5054C383.29 33.9719 382.982 34.3606 382.751 34.827C382.751 34.4383 382.751 34.1274 382.828 33.7387C382.828 32.9613 382.982 32.3394 382.982 31.6397C382.982 31.0178 382.982 30.4736 382.982 30.1627C382.982 29.8517 382.982 29.3076 382.828 28.8411C382.751 28.3747 382.597 27.986 382.443 27.5973C382.212 27.2086 381.981 26.8977 381.596 26.5867C381.211 26.3535 380.749 26.198 380.287 26.198C379.44 26.198 378.67 26.7422 377.823 27.6751C377.13 28.6079 376.437 29.9295 375.667 31.7952C375.513 32.1062 375.359 32.4948 375.128 32.9613C374.897 33.35 374.666 33.8164 374.358 34.2828C374.05 34.7493 373.819 35.2157 373.434 35.6821C373.126 36.1486 372.741 36.5372 372.433 36.8482C372.125 37.1592 371.74 37.4701 371.432 37.6256C371.124 37.7811 370.816 37.8588 370.508 37.8588C370.046 37.8588 369.738 37.7033 369.507 37.3924C369.199 37.0037 368.968 36.615 368.814 36.0708C368.66 35.5266 368.506 34.9825 368.506 34.4383C368.506 33.8941 368.429 33.4277 368.429 33.1167C368.429 32.7281 368.275 32.4171 367.967 32.1061C367.428 31.4842 366.505 31.4842 365.889 32.1061C365.581 32.3394 365.427 32.6503 365.35 33.039C365.273 33.8941 365.042 34.5938 364.811 35.138C364.503 35.7599 364.272 36.2263 363.887 36.615C363.579 37.0037 363.271 37.2369 362.963 37.3924C362.655 37.5478 362.424 37.6256 362.193 37.6256C361.885 37.6256 361.654 37.6256 361.423 37.4701C361.192 37.3146 361.038 37.1592 360.961 37.0037C360.807 36.7705 360.73 36.5372 360.653 36.304C360.653 35.9931 360.576 35.7599 360.576 35.4489C360.576 34.516 360.73 33.6609 361.038 33.039C361.346 32.3394 361.731 31.7952 362.116 31.3288C362.578 30.8623 363.04 30.5514 363.502 30.3182C364.349 30.0072 365.196 29.9295 365.735 30.0849C365.966 30.0849 366.197 30.2404 366.35 30.3182C366.504 30.3959 366.658 30.4736 366.735 30.5514C366.812 30.5514 366.889 30.7069 366.889 30.7069C367.505 31.251 368.429 31.3288 369.045 30.7069C369.353 30.3959 369.507 30.0072 369.507 29.6185C369.507 29.2298 369.353 28.9189 369.045 28.5302C369.045 28.5302 368.891 28.4524 368.737 28.2192C368.506 28.0637 368.275 27.9083 367.89 27.6751C367.582 27.5196 367.12 27.2864 366.659 27.1309C365.427 26.7422 363.964 26.8199 362.424 27.4418C361.5 27.8305 360.73 28.3747 359.96 29.0743C359.421 29.6185 358.882 30.3182 358.497 31.0955C358.266 31.251 358.035 31.4842 357.958 31.7952C357.804 32.1062 357.65 32.4171 357.419 32.8835C357.188 33.2722 356.957 33.7387 356.649 34.2051C356.341 34.6715 356.033 35.138 355.725 35.6044C355.417 36.0708 355.032 36.4595 354.724 36.7705C354.416 37.0814 354.031 37.3924 353.646 37.5478C353.338 37.7033 352.953 37.8588 352.645 37.8588C352.337 37.8588 352.183 37.8588 352.029 37.7033C351.875 37.6256 351.798 37.4701 351.721 37.3146C351.644 37.0814 351.567 36.8482 351.567 36.5372C351.567 36.2263 351.567 35.8376 351.567 35.5266C351.567 34.6715 351.567 33.9719 351.721 33.35C351.798 32.7281 351.875 32.0284 351.875 31.4842C351.875 30.9401 351.875 30.6291 351.721 30.1627C351.644 29.6963 351.413 29.2298 351.182 28.8411C350.951 28.4524 350.566 28.0637 350.104 27.8305C349.257 27.3641 348.025 27.2086 346.485 27.986C345.792 28.3747 345.022 29.0743 344.252 30.1627C344.021 30.5514 343.713 31.0178 343.405 31.562C343.097 32.1061 342.789 32.6503 342.482 33.2722C342.251 33.6609 342.097 34.0496 341.866 34.4383V33.9719C341.866 33.4277 341.866 32.9613 341.943 32.5726C341.943 32.1062 341.943 31.7175 341.943 31.4842C341.943 30.9401 341.943 30.4736 341.789 30.0072C341.635 29.5408 341.481 29.0743 341.25 28.7634C341.019 28.3747 340.711 28.0637 340.326 27.8305C339.556 27.3641 338.401 27.2864 337.246 27.9083C336.63 28.2192 336.091 28.6857 335.552 29.3076C335.244 29.6963 334.859 30.2404 334.474 30.9401C334.089 31.6397 333.627 32.3394 333.242 33.1167C332.934 33.6609 332.626 34.2828 332.318 34.827C332.318 34.516 332.318 34.1273 332.318 33.8164C332.318 32.5726 332.395 31.1733 332.395 29.6185C332.395 28.0637 332.395 28.8411 332.318 28.4524C332.241 28.0637 332.087 27.6751 331.933 27.3641C331.702 26.9754 331.471 26.7422 331.163 26.509C330.778 26.2758 330.393 26.1203 329.854 26.1203C329.007 26.1203 328.16 26.5867 327.39 27.5973C326.697 28.5302 325.927 29.8517 325.157 31.7952C324.695 32.7281 324.156 33.6609 323.694 34.4383C323.155 35.2934 322.693 35.9931 322.154 36.5372C321.692 37.0814 321.153 37.5478 320.691 37.8588C319.998 38.3252 319.459 38.3252 318.844 38.1698C318.613 38.1698 318.382 37.9365 318.228 37.7033C317.997 37.4701 317.843 37.0814 317.689 36.615C317.535 36.1486 317.458 35.4489 317.458 34.5938C317.458 33.7387 317.458 33.1945 317.458 32.4171C317.458 31.6397 317.535 30.8623 317.612 30.1627L317.766 28.3747C317.766 27.8305 317.766 27.5196 317.766 27.4418C317.766 27.0531 317.612 26.6645 317.381 26.3535C316.842 25.7316 315.764 25.7316 315.225 26.3535C314.994 26.5867 314.763 26.9754 314.763 27.2864C314.609 28.6857 314.455 30.0849 314.378 31.4842C314.378 31.4842 314.378 31.4842 314.378 31.562C314.224 31.8729 314.07 32.1839 313.839 32.6503C313.608 33.039 313.377 33.5054 313.069 33.9719C312.761 34.4383 312.453 34.9047 312.145 35.2934C311.837 35.7599 311.452 36.1486 311.067 36.5372C310.682 36.8482 310.374 37.1592 309.989 37.3924C309.45 37.7033 308.834 37.7811 308.603 37.5478C308.449 37.3924 308.372 37.2369 308.295 37.0037C308.218 36.7705 308.141 36.4595 308.064 36.0708C308.064 35.6821 308.064 35.2934 308.064 34.9047C308.064 34.2051 308.064 33.5832 308.141 32.9613C308.218 32.2616 308.295 31.7175 308.295 31.3288C308.295 30.9401 308.295 30.3182 308.141 29.8517C307.987 29.3853 307.833 28.9966 307.602 28.6079C307.371 28.2192 306.986 27.9083 306.601 27.6751C305.754 27.2086 304.676 27.2086 303.521 27.8305C302.982 28.1415 302.443 28.6079 301.904 29.2298C301.442 29.8517 300.903 30.5514 300.441 31.251C299.979 31.9507 299.517 32.6503 299.132 33.35C298.747 33.9719 298.439 34.5938 298.131 35.2157V32.1061C298.978 30.4736 299.825 28.8411 300.595 27.1309C301.442 25.4206 302.135 23.5549 302.751 21.6892C303.367 19.8235 303.829 17.9577 304.214 16.0143C304.599 14.0708 304.753 12.0496 304.753 10.0284C304.753 8.00721 304.753 8.08495 304.522 7.15208C304.368 6.21922 304.137 5.3641 303.829 4.66445C303.521 3.88707 303.059 3.3429 302.443 2.87647C301.827 2.41004 301.134 2.17682 300.287 2.17682C299.44 2.17682 298.439 2.64325 297.746 3.57611C297.13 4.43124 296.668 5.59731 296.283 7.07435C295.898 8.55138 295.667 10.2616 295.513 12.3606C295.359 14.3818 295.206 16.7139 295.129 19.2016C295.129 21.6892 294.975 24.41 294.975 27.2864C294.975 28.6857 294.975 30.1627 294.975 31.562C294.821 31.8729 294.667 32.2616 294.436 32.7281C294.205 33.1167 293.974 33.5832 293.666 34.0496C293.358 34.516 293.127 34.9825 292.742 35.4489C292.434 35.9153 292.049 36.304 291.741 36.615C291.433 36.9259 291.048 37.2369 290.74 37.3924C290.432 37.5478 290.124 37.6256 289.816 37.6256C289.354 37.6256 289.046 37.4701 288.815 37.1592C288.507 36.7705 288.276 36.3818 288.122 35.8376C287.968 35.2934 287.814 34.7493 287.814 34.2051C287.814 33.6609 287.737 33.1945 287.737 32.8835C287.737 32.4948 287.583 32.1839 287.275 31.8729C286.736 31.251 285.812 31.251 285.196 31.8729C284.888 32.1061 284.734 32.4171 284.657 32.8058C284.58 33.6609 284.349 34.3606 284.118 34.9047C283.81 35.5266 283.579 35.9931 283.194 36.3818C282.886 36.7705 282.578 37.0037 282.27 37.1592C281.962 37.3146 281.731 37.3924 281.5 37.3924C281.192 37.3924 280.961 37.3924 280.73 37.2369C280.499 37.0814 280.345 36.9259 280.268 36.7705C280.114 36.5372 280.037 36.304 279.96 36.0708C279.96 35.7599 279.883 35.5266 279.883 35.2157C279.883 34.2828 280.037 33.4277 280.345 32.8058C280.653 32.1061 281.038 31.562 281.423 31.0955C281.885 30.6291 282.347 30.3182 282.809 30.0849C283.656 29.774 284.503 29.6963 285.042 29.8517C285.273 29.8517 285.504 30.0072 285.658 30.0849C285.812 30.1627 285.966 30.2404 286.043 30.3182C286.12 30.3182 286.197 30.4736 286.197 30.4736C286.813 31.0178 287.737 31.0956 288.353 30.4736C288.661 30.1627 288.815 29.774 288.815 29.3853C288.815 28.9966 288.661 28.6857 288.353 28.297C288.353 28.297 288.199 28.2192 288.045 27.986C287.814 27.8305 287.583 27.6751 287.198 27.4418C286.89 27.2864 286.428 27.0531 285.966 26.8977C284.734 26.509 283.271 26.5867 281.731 27.2086C280.807 27.5973 280.037 28.1415 279.267 28.8411C278.728 29.3853 278.189 30.0849 277.804 30.8623C277.573 31.0178 277.419 31.1733 277.265 31.4065C276.957 31.9507 276.649 32.5726 276.187 33.35C275.802 34.0496 275.34 34.7493 274.801 35.3712C274.262 35.9931 273.723 36.5372 273.184 37.0037C272.645 37.3924 272.106 37.6256 271.491 37.6256C270.875 37.6256 271.106 37.6256 270.875 37.5478C270.644 37.5478 270.49 37.3924 270.259 37.1592C270.105 37.0037 269.874 36.6927 269.797 36.3818C269.643 36.0708 269.566 35.6044 269.566 35.0602C269.566 34.516 269.566 34.2828 269.566 33.8164C269.566 33.35 269.643 32.9613 269.72 32.4948C269.72 32.0284 269.874 31.562 269.874 31.1733C269.874 30.7069 269.951 30.3182 269.951 29.8517C269.951 28.6857 269.643 27.8305 269.027 27.2864C268.411 26.7422 267.564 26.509 266.486 26.509C265.408 26.509 265.947 26.509 265.639 26.509C265.562 26.509 265.485 26.509 265.331 26.509C265.331 26.2758 265.331 26.0425 265.331 25.8093C265.331 25.3429 265.177 24.8765 265.023 24.41C264.869 23.9436 264.638 23.4772 264.33 23.1662C263.637 22.3888 262.482 22.2334 261.558 23.1662C261.173 23.5549 260.865 24.0213 260.557 24.4878C260.249 24.9542 260.018 25.4984 259.864 26.0425C259.71 26.5867 259.633 27.0531 259.633 27.3641C259.633 27.9083 259.787 28.297 260.018 28.6079C260.249 28.9189 260.557 29.1521 260.942 29.3076C261.25 29.463 261.635 29.5408 261.943 29.5408C261.943 29.5408 262.097 29.5408 262.174 29.5408C262.097 29.9295 262.02 30.2404 261.943 30.4736C261.866 30.7846 261.789 30.9401 261.789 31.0178C261.789 31.0178 261.712 31.1733 261.635 31.251C261.481 31.562 261.327 31.9507 261.173 32.3394C260.942 32.7281 260.711 33.1945 260.48 33.6609C260.249 34.1273 259.941 34.5938 259.633 35.0602C259.325 35.5266 259.017 35.9153 258.632 36.2263C258.247 36.5372 257.939 36.8482 257.554 37.0037C256.784 37.3924 255.937 37.3924 255.475 36.8482C255.167 36.5372 254.936 36.0708 254.782 35.6044C254.628 35.0602 254.474 34.5938 254.474 34.0496C254.474 33.5054 254.474 33.1167 254.474 32.7281L254.782 28.4524C254.782 28.0637 254.628 27.6751 254.397 27.3641C253.858 26.7422 252.857 26.6645 252.241 27.2086C251.933 27.4418 251.779 27.8305 251.702 28.2192L251.317 32.5726C251.24 33.35 251.086 34.0496 250.778 34.5938C250.547 35.138 250.239 35.6044 249.854 35.9931C249.546 36.3818 249.161 36.615 248.853 36.7705C248.545 36.9259 248.238 37.0037 248.084 37.0037C247.545 37.0037 247.16 36.8482 246.852 36.4595C246.544 36.0708 246.39 35.3712 246.39 34.516C246.39 33.6609 246.39 32.9613 246.621 32.2616C246.775 31.6397 246.929 31.0178 247.16 30.5514C247.314 30.0849 247.545 29.6963 247.699 29.3853C247.853 29.0743 248.007 28.8411 248.084 28.6857C248.084 28.6079 248.16 28.4524 248.237 28.3747C248.237 28.2192 248.314 27.986 248.314 27.8305C248.314 27.4418 248.16 27.0531 247.93 26.7422C247.545 26.2758 246.852 26.1203 246.236 26.3535C246.005 26.4312 245.851 26.5867 245.697 26.7422C245.235 27.4418 244.773 28.0637 244.542 28.7634C244.311 29.3076 244.08 29.9295 243.926 30.6291C243.849 30.7846 243.695 30.8623 243.695 31.0955C243.464 31.6397 243.156 32.2616 242.771 32.9613C242.386 33.6609 242.001 34.3606 241.539 34.9825C241.077 35.6044 240.615 36.1486 240.076 36.5372C239.614 36.9259 239.152 37.0814 238.69 37.0814C237.458 37.0814 236.457 35.2934 235.687 31.8729C236.149 30.7846 236.611 29.5408 237.15 28.0637C237.689 26.509 238.228 24.8765 238.767 23.0107C239.229 21.2228 239.691 19.2793 239.999 17.3358C240.307 15.3146 240.538 13.3712 240.538 11.35C240.538 9.32876 240.538 9.56198 240.384 8.78459C240.23 8.00721 240.076 7.22982 239.768 6.68565C239.46 6.06375 239.075 5.59731 238.69 5.20862C238.228 4.81993 237.612 4.66445 236.919 4.66445C236.226 4.66445 235.456 4.89767 234.84 5.44184C234.301 5.90827 233.839 6.60792 233.454 7.3853C233.069 8.16269 232.761 9.09555 232.53 10.1061C232.299 11.1167 232.068 12.2051 231.914 13.2934C231.76 14.3818 231.683 15.5478 231.606 16.7139C231.606 17.88 231.529 18.9683 231.529 20.0567C231.529 22.3888 231.606 24.4878 231.837 26.4312C231.837 26.4312 231.683 26.4312 231.606 26.4312C230.759 26.4312 229.912 26.6645 228.988 27.0531C228.141 27.4418 227.371 28.0637 226.678 28.8411C226.216 29.3076 225.831 29.9295 225.523 30.5514C225.292 30.7069 225.061 30.9401 224.984 31.1733C224.753 31.6397 224.523 32.1062 224.215 32.5726C223.907 33.1168 223.522 33.5832 223.137 33.9719C222.752 34.4383 222.367 34.7493 221.982 35.0602C221.674 35.2934 221.366 35.4489 221.058 35.4489C220.75 35.4489 220.365 35.4489 220.057 35.2934C219.749 35.138 219.518 34.9825 219.287 34.827C219.056 34.6715 218.902 34.516 218.825 34.2828C218.748 34.1273 218.671 34.0496 218.594 33.9719C218.594 33.5832 218.594 33.1945 218.594 32.8835C218.594 32.1061 218.517 31.3288 218.363 30.5514C218.209 29.774 217.901 29.0743 217.516 28.4524C217.131 27.8305 216.592 27.2864 216.053 26.8977C215.437 26.509 214.667 26.2758 213.897 26.2758C213.127 26.2758 212.896 26.3535 212.511 26.5867C212.049 26.7422 211.664 27.0531 211.356 27.3641C210.971 27.7528 210.74 28.1415 210.509 28.6079C210.278 29.0743 210.201 29.6185 210.201 30.1627C210.201 30.7069 210.201 30.9401 210.355 31.3288C210.432 31.7175 210.663 32.1061 210.817 32.4948C211.048 32.8835 211.279 33.1945 211.664 33.4277C212.28 33.9719 213.281 34.0496 213.897 33.4277C214.205 33.1167 214.359 32.7281 214.359 32.3394C214.359 31.9507 214.128 31.3288 213.666 31.0178C213.512 30.8623 213.358 30.7846 213.281 30.6291C213.281 30.4736 213.204 30.3182 213.204 30.1627C213.204 30.1627 213.204 30.0072 213.204 29.9295C213.204 29.8517 213.204 29.774 213.281 29.6963C213.281 29.6185 213.358 29.5408 213.512 29.463C213.512 29.463 213.666 29.463 213.897 29.463C214.128 29.463 214.359 29.463 214.59 29.6963C214.821 29.8517 214.975 30.1627 215.129 30.4736C215.283 30.7846 215.437 31.1733 215.514 31.6397C215.591 32.1061 215.668 32.4948 215.668 32.9613C215.668 33.5832 215.591 34.2828 215.36 34.9047C215.206 35.5266 214.898 36.0708 214.59 36.5372C214.282 37.0037 213.897 37.3924 213.435 37.7033C212.665 38.2475 211.664 38.2475 210.971 37.7033C210.586 37.3924 210.278 37.0037 209.97 36.4595C209.662 35.9153 209.431 35.2934 209.277 34.5938C209.123 33.8941 208.969 33.1945 208.892 32.4948C209.585 30.8623 210.355 29.1521 211.048 27.3641C211.818 25.4984 212.511 23.5549 213.127 21.6892C213.743 19.7457 214.282 17.8023 214.667 15.8588C215.052 13.9153 215.283 11.9719 215.283 10.1061C215.283 8.24042 215.206 7.85173 215.052 6.84113C214.898 5.83053 214.59 4.97541 214.282 4.27576C213.897 3.49837 213.435 2.95421 212.896 2.48777C211.972 1.78813 210.74 1.55491 209.508 2.09908C209.046 2.3323 208.584 2.64325 208.122 3.18742C207.737 3.73159 207.275 4.43124 206.967 5.28636C206.582 6.14148 206.274 7.30756 206.043 8.70686C205.812 10.0284 205.581 11.7387 205.427 13.6821C205.273 15.6256 205.196 17.88 205.196 20.5231C205.196 23.1662 205.196 22.933 205.196 24.1768C205.119 23.9436 204.965 23.7881 204.811 23.6327C204.503 23.3994 204.118 23.244 203.81 23.244C203.502 23.244 203.656 23.244 201.885 23.3994C200.808 23.5549 199.191 23.7104 196.958 24.0213C196.958 23.5549 196.958 23.0885 196.958 22.6221V20.6008C196.958 18.7351 196.958 16.8694 197.035 15.0814C197.035 13.2934 197.189 11.5832 197.343 10.1061C197.42 8.62912 197.574 7.30756 197.651 6.29696C197.728 5.44184 197.805 4.74219 197.882 4.43124C198.036 4.27576 198.19 4.04254 198.267 3.80933C198.498 3.42064 198.575 3.10968 198.575 2.72099C198.575 2.3323 198.421 1.78813 198.036 1.47717C197.728 1.16622 197.343 1.01074 196.958 1.01074C196.265 1.01074 195.803 1.3217 195.495 1.86587C195.264 2.25456 195.11 2.72099 195.033 3.18742C194.725 3.73159 194.263 4.43124 193.801 5.20862C193.262 6.06375 192.723 6.99661 192.03 8.00721C191.414 9.01781 190.644 10.1839 189.951 11.35C189.181 12.516 188.411 13.6821 187.641 14.9259C186.871 16.092 186.101 17.3358 185.331 18.5019C184.561 19.668 183.791 20.7563 183.098 21.7669C182.636 22.3888 182.097 23.0885 181.558 23.8659C181.019 24.5655 180.326 25.4206 179.633 26.198C178.016 26.3535 176.554 26.509 175.091 26.5867C171.01 26.8199 167.468 26.7422 164.619 26.3535C162.848 26.1203 161.308 25.7316 160.076 25.2652C158.921 24.7987 157.997 24.2546 157.381 23.5549C156.842 22.933 156.534 22.2334 156.534 21.3782C156.534 20.5231 156.611 20.4454 156.842 20.0567C157.073 19.5902 157.304 19.2016 157.535 18.8906C157.766 18.5796 157.997 18.3464 158.228 18.1132C158.459 17.9577 158.536 17.8023 158.613 17.8023C158.844 17.6468 158.998 17.4913 159.075 17.2581C159.152 17.0249 159.229 16.7917 159.229 16.5584C159.229 16.092 159.075 15.7033 158.69 15.3924C157.997 14.8482 157.227 14.8482 156.226 15.6256C155.764 16.0143 155.302 16.4807 154.917 17.1026C154.532 17.7245 154.147 18.3464 153.839 19.0461C153.531 19.8235 153.377 20.5231 153.377 21.3005C153.377 22.933 153.916 24.3323 154.917 25.4206C155.918 26.509 157.227 27.3641 158.844 27.986C160.384 28.6079 162.232 29.0743 164.311 29.3076C167.391 29.6963 170.779 29.774 174.321 29.6185C174.937 29.6185 175.63 29.6185 176.323 29.5408C175.476 30.3959 174.475 31.1733 173.474 31.9507C172.011 33.1167 170.471 34.1273 168.777 35.0602C167.083 35.9931 165.312 36.6927 163.387 37.2369C161.539 37.7811 159.537 38.092 157.458 38.092C155.379 38.092 154.686 37.9365 153.608 37.7033C152.531 37.3924 151.607 37.0814 150.914 36.7705C150.221 36.4595 149.682 36.1486 149.374 35.8376C149.066 35.5266 148.835 35.3712 148.835 35.3712C148.296 34.7493 147.295 34.6715 146.679 35.3712C146.371 35.6821 146.217 36.0708 146.217 36.4595C146.217 36.8482 146.371 37.2369 146.602 37.5478C146.602 37.5478 146.91 37.7811 147.295 38.1698C147.757 38.5584 148.45 39.0249 149.297 39.4913C150.144 39.9577 151.299 40.3464 152.608 40.7351C153.916 41.1238 155.533 41.2793 157.381 41.2793C161.462 41.2793 165.543 40.191 169.547 38.1698C173.474 36.1486 177.323 33.1167 180.865 29.2298C182.251 29.0743 183.637 28.9189 184.946 28.6857C186.948 28.4524 188.719 28.1415 190.336 27.986C191.645 27.8305 192.877 27.6751 193.955 27.5196C193.955 28.7634 194.109 29.9295 194.186 31.0178C194.263 32.3394 194.417 33.5832 194.648 34.7493C194.802 35.9153 195.033 37.0037 195.264 37.9365C195.495 38.9471 195.803 39.7245 196.111 40.4242C196.265 40.6574 196.419 40.8906 196.65 41.0461C196.881 41.2016 197.112 41.2793 197.42 41.2793C197.882 41.2793 198.267 41.1238 198.498 40.8129C198.806 40.5019 198.96 40.191 198.96 39.7245C198.96 39.2581 198.96 39.2581 198.806 39.0249C198.575 38.4807 198.344 37.8588 198.113 37.0037C197.882 36.1486 197.728 35.138 197.574 34.0496C197.42 32.9613 197.266 31.7952 197.189 30.5514C197.112 29.463 197.035 28.297 196.958 27.1309C197.805 27.0531 198.575 26.8977 199.191 26.8199L201.269 26.5867C201.885 26.5867 202.347 26.4312 202.732 26.4312C203.117 26.4312 203.502 26.3535 203.81 26.2758C204.195 26.2758 204.503 26.0425 204.811 25.7316C204.965 25.5761 205.042 25.4206 205.119 25.1874C205.119 26.5867 205.273 27.986 205.35 29.3853C205.504 30.8623 205.735 32.3394 205.966 33.7387C206.274 35.138 206.659 36.3818 207.121 37.4701C207.66 38.5584 208.276 39.4913 209.046 40.1132C209.893 40.8129 210.894 41.2016 212.049 41.2016C213.204 41.2016 213.281 41.1238 213.897 40.8906C214.513 40.6574 215.052 40.3464 215.514 39.9577C216.053 39.569 216.515 39.1026 216.9 38.5584C217.131 38.2475 217.362 37.8588 217.593 37.4701C217.901 37.7033 218.286 37.9365 218.671 38.092C219.364 38.4807 220.211 38.6362 221.135 38.6362C222.059 38.6362 222.367 38.4807 222.983 38.1698C223.522 37.8588 224.061 37.5478 224.522 37.0814C224.599 37.0814 224.676 36.9259 224.753 36.8482C224.753 37.0037 224.83 37.1592 224.907 37.3146C225.138 37.9365 225.446 38.5584 225.908 38.9471C226.293 39.4136 226.832 39.7245 227.371 39.88C227.91 40.0355 228.449 40.191 228.988 40.191C230.066 40.191 231.144 39.7245 232.068 38.8694C232.761 38.2475 233.377 37.3146 233.993 36.1486C234.532 37.3924 235.071 38.3252 235.764 39.0249C236.688 39.88 237.766 40.3464 239.075 40.3464C240.384 40.3464 240.461 40.191 241.077 39.8023C241.693 39.4913 242.232 39.1026 242.771 38.5584C243.233 38.092 243.695 37.6256 244.08 37.0814C244.311 37.6256 244.542 38.1698 244.927 38.6362C245.312 39.1026 245.851 39.4913 246.39 39.8023C246.929 40.0355 247.622 40.191 248.314 40.191C249.007 40.191 250.162 39.88 251.009 39.2581C251.548 38.8694 252.087 38.3252 252.549 37.7033C252.857 38.403 253.319 38.9471 253.781 39.3358C254.551 39.9577 255.475 40.3464 256.63 40.3464C257.785 40.3464 258.247 40.191 258.94 39.8023C259.633 39.4136 260.249 39.0249 260.788 38.403C261.327 37.8588 261.866 37.2369 262.328 36.615C262.79 35.9931 263.175 35.3712 263.483 34.827C263.791 34.2828 264.099 33.7387 264.253 33.2722C264.407 32.8835 264.561 32.6503 264.638 32.4948C264.638 32.4171 264.715 32.2616 264.792 32.1061C264.792 31.9507 264.946 31.6397 265.023 31.3288C265.1 31.0178 265.254 30.6291 265.331 30.2404C265.331 29.9295 265.485 29.6963 265.485 29.3853C265.639 29.3853 265.793 29.3853 265.87 29.3853H266.64C267.025 29.3853 267.179 29.3853 267.179 29.3853C267.179 29.3853 267.179 29.5408 267.179 29.6963C267.179 30.3959 267.102 31.1733 266.948 31.9507C266.794 32.8058 266.717 33.7387 266.717 34.5938C266.717 35.4489 266.871 36.2263 267.102 36.9259C267.333 37.6256 267.718 38.2475 268.18 38.7139C268.642 39.1804 269.181 39.569 269.797 39.88C270.413 40.1132 271.029 40.2687 271.721 40.2687C272.799 40.2687 273.8 39.9577 274.724 39.4136C275.571 38.8694 276.341 38.1698 277.034 37.3924C277.111 37.2369 277.188 37.1592 277.342 37.0037C277.573 37.5478 277.881 38.092 278.189 38.5584C278.574 39.0249 279.113 39.4136 279.652 39.6468C280.191 39.88 280.884 40.0355 281.577 40.0355C282.27 40.0355 283.425 39.7245 284.272 39.1026C284.888 38.7139 285.35 38.1698 285.889 37.5478C286.197 38.1698 286.582 38.6362 287.044 39.1026C287.814 39.8023 288.738 40.191 289.893 40.191C291.048 40.191 291.433 40.0355 292.126 39.6468C292.819 39.2581 293.435 38.8694 293.974 38.3252C294.436 37.9365 294.821 37.4701 295.129 37.0037V37.4701C295.129 38.1698 295.283 38.7917 295.667 39.3358C296.052 39.88 296.668 40.191 297.361 40.191C298.054 40.191 298.208 40.0355 298.67 39.7245C299.132 39.4136 299.517 38.8694 299.902 38.092C300.056 37.7033 300.287 37.2369 300.595 36.6927C300.903 36.1486 301.211 35.5266 301.519 34.9047C301.904 34.2828 302.212 33.6609 302.597 33.039C302.982 32.4171 303.367 31.8729 303.675 31.4065C304.06 30.9401 304.368 30.5514 304.676 30.2404C304.984 29.9295 305.215 29.9295 305.215 29.9295C305.215 29.9295 305.292 30.0849 305.292 30.6291C305.292 31.1733 305.292 31.0178 305.292 31.3288C305.292 31.6397 305.292 31.9507 305.215 32.2616C305.215 32.5726 305.215 32.9613 305.138 33.2722C305.138 33.6609 305.138 33.9719 305.138 34.2828C305.138 34.9047 305.138 35.5266 305.292 36.2263C305.369 36.9259 305.6 37.5478 305.908 38.092C306.216 38.7139 306.678 39.1804 307.217 39.569C307.756 39.9577 308.526 40.191 309.373 40.191C310.22 40.191 310.913 40.0355 311.606 39.6468C312.299 39.2581 312.915 38.8694 313.454 38.2475C313.916 37.7811 314.378 37.2369 314.84 36.615C315.071 37.3924 315.379 38.092 315.841 38.7139C316.303 39.3358 316.842 39.8023 317.458 40.191C318.074 40.5796 318.844 40.7351 319.69 40.7351C320.537 40.7351 320.999 40.5796 321.692 40.2687C322.308 39.9577 322.924 39.569 323.463 39.0249C324.002 38.5584 324.541 38.0143 325.003 37.3924C325.465 36.7705 325.927 36.2263 326.312 35.6044C326.697 34.9825 327.082 34.4383 327.39 33.8164C327.698 33.2722 327.929 32.8058 328.16 32.4171C328.776 31.0178 329.238 30.0072 329.623 29.463C329.623 29.6185 329.623 29.774 329.623 29.9295V32.4948C329.469 33.4277 329.392 34.2828 329.392 35.0602C329.392 35.8376 329.392 36.5372 329.315 37.0814C329.315 37.6256 329.315 37.9365 329.315 38.0143C329.315 38.6362 329.469 39.1804 329.777 39.569C330.008 39.88 330.47 40.2687 331.317 40.2687C332.164 40.2687 332.241 40.1132 332.703 39.7245C333.165 39.4136 333.55 38.8694 333.935 38.0143C334.243 37.3924 334.551 36.7705 334.936 35.9931C335.321 35.2157 335.706 34.516 336.091 33.8164C336.476 33.1167 336.861 32.4948 337.246 31.8729C337.631 31.3288 337.862 30.8623 338.093 30.6291C338.401 30.1627 338.632 30.0072 338.709 30.0072C338.863 29.9295 339.017 29.8517 339.017 29.8517C339.017 29.8517 339.094 30.0072 339.094 30.4736C339.094 30.9401 339.094 30.9401 339.094 31.3288C339.094 31.7175 339.094 32.1839 339.094 32.6503C339.094 33.1167 339.094 33.6609 339.094 34.2051C339.094 34.7493 339.094 35.2934 339.094 35.7599V37.1592C339.094 37.6256 339.094 37.9365 339.094 38.1698C339.094 38.7917 339.248 39.3358 339.556 39.7245C339.787 40.0355 340.249 40.4242 341.019 40.4242C341.789 40.4242 341.558 40.4242 341.866 40.2687C342.097 40.1132 342.328 39.9577 342.559 39.7245C342.79 39.4913 342.944 39.1804 343.174 38.7917C343.405 38.403 343.636 38.0143 343.867 37.4701C344.406 36.4595 344.868 35.5266 345.33 34.5938C345.792 33.6609 346.331 32.8058 346.716 32.1061C347.178 31.4065 347.563 30.8623 348.025 30.3959C348.333 30.0849 348.641 29.9295 348.872 29.9295C349.103 29.9295 348.949 29.9295 349.026 29.9295C349.026 29.9295 349.026 29.9295 349.103 30.1627C349.103 30.2404 349.18 30.4736 349.18 30.9401C349.18 31.4065 349.18 31.7952 349.026 32.4948C348.949 33.1945 348.872 33.9719 348.872 34.827C348.872 35.6821 348.872 36.1486 349.026 36.7705C349.103 37.3924 349.334 38.0143 349.642 38.4807C349.95 39.0249 350.412 39.4136 350.951 39.7245C351.49 40.0355 352.183 40.191 353.03 40.191C353.877 40.191 354.57 40.0355 355.263 39.6468C355.956 39.2581 356.572 38.8694 357.111 38.2475C357.496 37.8588 357.881 37.4701 358.189 37.0814C358.42 37.6256 358.651 38.092 359.036 38.5584C359.421 39.0249 359.96 39.4136 360.499 39.6468C361.038 39.88 361.731 40.0355 362.424 40.0355C363.117 40.0355 364.272 39.7245 365.119 39.1026C365.735 38.7139 366.197 38.1698 366.735 37.5478C367.043 38.1698 367.428 38.6362 367.89 39.1026C368.66 39.8023 369.584 40.191 370.739 40.191C371.894 40.191 372.279 40.0355 372.972 39.6468C373.665 39.2581 374.281 38.8694 374.82 38.3252C375.359 37.7811 375.898 37.2369 376.36 36.5372C376.822 35.9153 377.207 35.2934 377.515 34.7493C377.823 34.2051 378.131 33.6609 378.362 33.1945L378.824 32.3394C379.44 30.9401 379.902 29.9295 380.21 29.3853C380.21 29.6185 380.21 29.774 380.21 30.0072C380.21 30.3182 380.21 30.7069 380.21 31.1733C380.21 31.6397 380.21 32.1839 380.056 32.7281L379.902 34.3606C379.902 34.9047 379.825 35.4489 379.748 35.9153C379.748 36.3818 379.671 36.8482 379.594 37.1592C379.594 37.5478 379.594 37.7811 379.594 37.9365C379.594 38.6362 379.825 39.1804 380.21 39.569C380.518 39.88 380.826 40.0355 381.211 40.1132C381.827 40.2687 382.52 40.1132 383.136 39.7245C383.521 39.4136 383.906 38.8694 384.291 38.092C384.445 37.7033 384.676 37.2369 384.984 36.6927C385.292 36.1486 385.6 35.5266 385.908 34.9047C386.216 34.2828 386.601 33.6609 386.986 33.039C387.371 32.4171 387.756 31.8729 388.141 31.3288C388.526 30.8623 388.834 30.4736 389.142 30.1627C389.373 29.9295 389.527 29.8517 389.604 29.8517C389.604 29.8517 389.604 29.8517 389.681 29.9295C389.681 29.9295 389.758 30.0849 389.758 30.6291C389.758 31.1733 389.758 31.251 389.758 31.6397C389.758 31.9507 389.758 32.3394 389.681 32.6503C389.681 33.039 389.681 33.35 389.604 33.6609C389.604 33.9719 389.604 34.2828 389.604 34.5938C389.604 35.2157 389.604 35.8376 389.758 36.4595C389.835 37.0814 390.066 37.7033 390.373 38.2475C390.681 38.7917 391.143 39.2581 391.682 39.6468C392.221 40.0355 392.991 40.191 393.838 40.191C394.685 40.191 395.378 39.9577 396.071 39.6468C396.687 39.2581 397.303 38.7917 397.919 38.3252C398.458 37.7811 398.997 37.2369 399.459 36.5372C399.921 35.9153 400.306 35.2934 400.614 34.7493C400.922 34.2051 401.23 33.6609 401.461 33.2722C401.692 32.8835 401.769 32.5726 401.846 32.4171C401.923 32.2616 402 32.0284 402 31.7952C402 31.4065 401.846 31.0955 401.615 30.7846L401.307 31.4842ZM193.647 23.244C193.647 23.7881 193.647 24.3323 193.647 24.8765L189.797 25.3429C188.18 25.5761 186.409 25.8093 184.407 26.0425C184.099 26.0425 183.868 26.0425 183.637 26.1203C183.791 25.9648 183.868 25.8093 184.022 25.6539C184.484 25.1097 184.869 24.5655 185.254 23.9436C186.024 22.7775 186.871 21.5337 187.795 20.2122C188.719 18.8906 189.566 17.569 190.413 16.1698C191.26 14.8482 192.107 13.5266 192.954 12.2051L193.955 10.6503C193.955 11.6609 193.801 12.827 193.801 13.9931C193.724 16.1698 193.647 18.5019 193.647 20.8341C193.647 23.1662 193.647 22.3111 193.647 23.0885V23.244ZM298.131 25.6539C298.131 24.4878 298.131 23.244 298.131 22.0001C298.131 20.7563 298.131 19.4348 298.208 18.1132C298.208 16.7917 298.285 15.4701 298.362 14.2263C298.439 12.9825 298.593 11.7387 298.67 10.6503C298.824 9.56198 298.978 8.55138 299.132 7.69625C299.286 6.91887 299.517 6.29696 299.748 5.83053C299.825 5.67505 299.979 5.3641 300.21 5.3641C300.441 5.3641 300.595 5.3641 300.826 5.75279C301.057 6.14148 301.211 6.60791 301.365 7.15208C301.519 7.69625 301.519 8.31816 301.596 8.86233C301.596 9.4065 301.596 9.87293 301.596 10.1061C301.596 11.7387 301.442 13.2934 301.288 14.7705C301.057 16.2475 300.749 17.7245 300.364 19.2016C299.979 20.6786 299.44 22.1556 298.901 23.5549C298.67 24.1768 298.362 24.8765 298.054 25.5761L298.131 25.6539ZM231.298 35.2157C230.913 35.9931 230.528 36.5372 230.22 36.9259C229.835 37.3924 229.604 37.5478 229.45 37.6256C229.219 37.7033 228.988 37.7811 228.834 37.7811C228.372 37.7811 228.064 37.6256 227.833 37.3146C227.602 36.9259 227.448 36.3818 227.448 35.6821C227.448 34.9825 227.602 33.8941 227.833 33.2722C228.141 32.5726 228.449 32.0284 228.911 31.6397C229.373 31.1733 229.835 30.8623 230.297 30.6291C230.836 30.3959 231.298 30.2404 231.76 30.1627C231.914 30.1627 232.068 30.1627 232.222 30.0072C232.376 30.8623 232.453 31.6397 232.607 32.3394C232.145 33.5054 231.683 34.4383 231.298 35.2157ZM236.457 20.7563C236.149 22.1556 235.764 23.5549 235.302 24.9542C235.148 25.4984 234.917 26.0425 234.763 26.5867C234.763 26.1203 234.686 25.6539 234.609 25.1097C234.455 23.6327 234.455 22.1556 234.455 20.6786C234.455 19.2016 234.532 17.569 234.686 16.092C234.84 14.615 235.071 13.2157 235.302 12.0496C235.533 10.8835 235.841 9.95067 236.226 9.25102C236.534 8.62912 236.765 8.47364 236.842 8.47364C236.842 8.47364 236.842 8.47364 236.919 8.62912C237.073 8.86233 237.15 9.17329 237.227 9.56198C237.304 9.95067 237.381 10.4171 237.381 10.8835C237.381 11.35 237.381 11.8164 237.381 12.2051C237.381 13.6044 237.304 15.0814 237.073 16.4807C236.919 17.9577 236.611 19.357 236.303 20.7563H236.457ZM210.432 20.2122C209.97 21.8447 209.431 23.3994 208.892 24.9542C208.661 25.6539 208.353 26.3535 208.122 26.9754C208.122 26.6645 208.122 26.4312 208.122 26.1203C208.122 25.4206 208.122 24.6433 208.122 23.8659C208.122 23.0885 208.122 22.3111 208.122 21.5337C208.122 19.2016 208.122 17.1804 208.276 15.4701C208.43 13.7599 208.584 12.2828 208.738 11.1167C208.892 9.95067 209.123 8.94007 209.354 8.16269C209.585 7.3853 209.816 6.84113 210.047 6.3747C210.278 5.90827 210.509 5.67505 210.586 5.59731C210.663 5.51958 210.74 5.44184 210.74 5.44184C210.894 5.44184 211.048 5.44184 211.279 5.75279C211.51 6.06375 211.664 6.45244 211.818 6.99661C211.972 7.54078 212.049 8.08495 212.126 8.70686C212.126 9.32876 212.203 10.0284 212.203 10.5726C212.203 12.1274 212.049 13.7599 211.741 15.3924C211.433 17.0249 211.048 18.6574 210.586 20.2899L210.432 20.2122Z" fill="#096C6C"/>
<path d="M60.6734 22.9329C61.4434 22.9329 62.1364 22.622 62.6754 22.0778C63.2143 21.5336 63.5223 20.834 63.5223 20.0566C63.5223 19.2792 63.5223 19.2792 63.2913 18.8905C63.1373 18.5796 62.9063 18.2686 62.6754 17.9577C62.4444 17.7244 62.1364 17.4912 61.7514 17.3358C61.0584 17.0248 60.2115 17.0248 59.5185 17.3358C59.2105 17.4912 58.9025 17.7244 58.5945 17.9577C58.3635 18.1909 58.1325 18.5018 57.9786 18.8905C57.8246 19.2792 57.7476 19.5902 57.7476 20.0566C57.7476 20.834 58.0555 21.5336 58.5945 22.0778C59.1335 22.622 59.8265 22.9329 60.5964 22.9329H60.6734ZM59.5185 20.0566C59.5185 19.7456 59.5955 19.4347 59.9035 19.2015C60.1345 18.8905 60.3655 18.8905 60.6734 18.8905C60.9814 18.8905 61.2124 18.8905 61.5204 19.2792C61.8284 19.5902 61.9054 19.9011 61.9054 20.1343C61.9054 20.3676 61.9054 20.6008 61.5974 20.9117C61.0584 21.4559 60.4424 21.4559 59.9035 20.9117C59.6725 20.6785 59.5955 20.4453 59.5185 20.0566Z" fill="#008000"/>
<path d="M87.5454 62.9684V56.9048L87.8534 57.6822L82.6946 51.3076H84.0035L88.3153 56.6716H88.0074L92.3192 51.3076H93.5511L88.4693 57.6822L88.7003 56.9048V62.9684H87.5454Z" fill="black"/>
<path d="M96.9389 63.1233C96.0919 63.1233 95.399 62.9678 94.783 62.5791C94.167 62.2682 93.705 61.724 93.397 61.1021C93.0891 60.4802 92.9351 59.7805 92.9351 58.9254C92.9351 58.0703 93.0891 57.3706 93.397 56.7487C93.705 56.1268 94.167 55.6604 94.783 55.2717C95.399 54.9608 96.0919 54.7275 96.9389 54.7275C97.7859 54.7275 98.4788 54.883 99.0948 55.2717C99.7108 55.6604 100.173 56.1268 100.481 56.7487C100.789 57.3706 100.943 58.0703 100.943 58.9254C100.943 59.7805 100.789 60.4802 100.481 61.1021C100.173 61.724 99.7108 62.1904 99.0948 62.5791C98.4788 62.9678 97.7859 63.1233 96.9389 63.1233ZM97.0159 62.2682C97.9398 62.2682 98.6328 61.9572 99.1718 61.413C99.7108 60.8689 99.9418 60.0138 99.9418 58.9254C99.9418 57.8371 99.7108 57.0597 99.1718 56.5155C98.6328 55.9714 97.9398 55.6604 97.0159 55.6604C96.0919 55.6604 95.399 55.9714 94.86 56.5155C94.321 57.0597 94.09 57.9148 94.09 58.9254C94.09 59.936 94.321 60.7911 94.86 61.413C95.399 61.9572 96.0919 62.2682 97.0159 62.2682Z" fill="black"/>
<path d="M106.409 63.1239C105.716 63.1239 105.101 63.0461 104.639 62.8129C104.177 62.5797 103.792 62.2687 103.638 61.8023C103.407 61.3359 103.33 60.7917 103.33 60.0921V55.0391H104.408V60.0143C104.408 60.5585 104.408 60.9472 104.639 61.3359C104.87 61.7246 105.024 61.9578 105.332 62.1133C105.639 62.2687 106.101 62.3465 106.563 62.3465C107.025 62.3465 107.564 62.2687 108.026 62.0355C108.411 61.8023 108.719 61.4914 109.027 61.1027C109.258 60.714 109.412 60.2475 109.412 59.6256V55.0391H110.49V63.0461H109.412V61.1027H109.643C109.412 61.8023 109.027 62.2687 108.488 62.6574C107.949 63.0461 107.256 63.2016 106.563 63.2016L106.409 63.1239Z" fill="black"/>
<path d="M113.339 62.9682V54.9611H114.417V56.8269H114.263C114.494 56.205 114.879 55.6608 115.341 55.3498C115.88 55.0389 116.496 54.8057 117.343 54.8057H117.805L117.882 55.6608H117.112C116.265 55.8163 115.572 56.0495 115.11 56.5159C114.648 56.9823 114.417 57.5265 114.417 58.3039V63.0459L113.339 62.9682Z" fill="black"/>
<path d="M129.894 63.1235C128.585 63.1235 127.43 62.8903 126.506 62.4238C125.582 61.9574 124.889 61.2578 124.427 60.4026C123.965 59.4698 123.734 58.4592 123.734 57.1376C123.734 55.8161 123.965 54.8055 124.427 53.9503C124.889 53.0952 125.582 52.3956 126.429 51.9291C127.276 51.4627 128.354 51.2295 129.586 51.2295C130.818 51.2295 130.741 51.2295 131.28 51.385C131.819 51.4627 132.281 51.6959 132.743 51.9291C133.204 52.1624 133.589 52.3956 133.974 52.7843L133.512 53.6394C132.896 53.173 132.281 52.7843 131.665 52.551C131.049 52.3178 130.356 52.2401 129.509 52.2401C127.969 52.2401 126.814 52.7065 126.044 53.5616C125.274 54.4168 124.812 55.6606 124.812 57.2931C124.812 58.9256 125.197 60.1694 126.044 61.0245C126.891 61.8797 128.123 62.3461 129.817 62.3461C131.511 62.3461 131.049 62.3461 131.588 62.1906C132.204 62.1129 132.743 61.9574 133.204 61.7242L132.897 62.4238V58.0705H129.509V57.2154H133.897V62.5016C133.589 62.6571 133.204 62.8125 132.743 62.8903C132.281 62.968 131.742 63.1235 131.28 63.2012C130.741 63.2012 130.279 63.279 129.74 63.279L129.894 63.1235Z" fill="black"/>
<path d="M139.749 63.1237C139.133 63.1237 138.671 63.0459 138.132 62.8127C137.593 62.5795 137.285 62.3463 137.054 61.9576C136.746 61.5689 136.669 61.1802 136.669 60.7138C136.669 60.2474 136.823 59.6255 137.131 59.3145C137.439 59.0035 137.978 58.7703 138.748 58.6149C139.518 58.4594 140.596 58.3816 141.905 58.3816H142.675V59.159H141.905C141.135 59.159 140.442 59.159 139.903 59.159C139.364 59.159 138.902 59.3145 138.594 59.3922C138.286 59.47 138.055 59.7032 137.901 59.8587C137.747 60.0141 137.747 60.3251 137.747 60.5583C137.747 61.0247 137.901 61.4912 138.286 61.8021C138.671 62.1131 139.133 62.2686 139.826 62.2686C140.519 62.2686 140.827 62.1908 141.212 61.9576C141.597 61.7244 141.905 61.4134 142.136 61.0247C142.367 60.6361 142.444 60.1696 142.444 59.7032V57.8375C142.444 57.0601 142.29 56.5937 141.982 56.205C141.674 55.8163 141.135 55.6608 140.442 55.6608C139.749 55.6608 139.441 55.6608 138.902 55.894C138.363 56.1272 137.901 56.2827 137.362 56.5937L136.9 55.8163C137.208 55.5831 137.593 55.4276 137.901 55.2721C138.286 55.1166 138.671 55.0389 139.056 54.9611C139.441 54.8834 139.903 54.8057 140.288 54.8057C140.981 54.8057 141.597 54.8834 142.059 55.1166C142.521 55.3498 142.829 55.6608 143.06 56.1272C143.291 56.5936 143.368 57.1378 143.368 57.8375V62.9682H142.29V61.0247H142.444C142.367 61.4912 142.136 61.8021 141.828 62.1131C141.52 62.424 141.212 62.6573 140.827 62.8127C140.442 62.9682 139.98 63.0459 139.441 63.0459L139.749 63.1237Z" fill="black"/>
<path d="M149.836 63.1232C148.835 63.1232 148.142 62.89 147.68 62.4236C147.218 61.9571 146.987 61.2575 146.987 60.3246V55.8158H145.216V55.0384H146.987V52.5508H148.065V55.0384H150.914V55.8158H148.065V60.2469C148.065 60.9465 148.219 61.413 148.527 61.8017C148.835 62.1904 149.297 62.3458 149.99 62.3458C150.683 62.3458 150.375 62.3458 150.606 62.3458C150.76 62.3458 150.991 62.2681 151.145 62.1904L151.376 62.9677C151.222 62.9677 151.068 63.1232 150.76 63.201C150.452 63.201 150.221 63.2787 149.913 63.2787L149.836 63.1232Z" fill="black"/>
<path d="M156.226 63.1231C155.302 63.1231 154.532 62.9676 153.916 62.6567C153.3 62.3457 152.762 61.8793 152.454 61.2574C152.146 60.6355 151.915 59.9358 151.915 59.0807C151.915 58.2256 152.069 57.5259 152.454 56.904C152.839 56.2821 153.3 55.8157 153.916 55.427C154.532 55.0383 155.225 54.8828 156.072 54.8828C156.919 54.8828 157.535 55.0383 158.074 55.3492C158.613 55.6602 159.075 56.1266 159.306 56.6708C159.614 57.215 159.768 57.9146 159.768 58.7697V59.2362H152.762V58.4588H159.075L158.767 58.692C158.767 57.7591 158.536 56.9818 158.074 56.4376C157.612 55.8934 156.919 55.6602 156.072 55.6602C155.225 55.6602 154.84 55.8157 154.378 56.0489C153.916 56.2821 153.608 56.7485 153.377 57.215C153.146 57.6814 153.07 58.3033 153.07 58.9252C153.07 59.7026 153.223 60.3245 153.454 60.7909C153.685 61.2574 154.07 61.6461 154.532 61.8793C154.994 62.1125 155.61 62.268 156.303 62.268C156.996 62.268 157.381 62.268 157.843 62.0348C158.305 61.8793 158.767 61.6461 159.229 61.2574L159.691 62.0348C159.306 62.3457 158.844 62.6567 158.228 62.8121C157.612 62.9676 156.996 63.1231 156.38 63.1231H156.226Z" fill="black"/>
<path d="M164.157 62.968L161 54.9609H162.155L164.927 62.4238H164.465L167.391 54.9609H168.469L171.318 62.4238H170.856L173.705 54.9609H174.86L171.703 62.968H170.548L167.622 55.4274H168.315L165.312 62.968H164.157Z" fill="black"/>
<path d="M179.48 63.1237C178.864 63.1237 178.402 63.0459 177.863 62.8127C177.324 62.5795 177.016 62.3463 176.785 61.9576C176.477 61.5689 176.4 61.1802 176.4 60.7138C176.4 60.2474 176.554 59.6255 176.862 59.3145C177.17 59.0035 177.709 58.7703 178.479 58.6149C179.249 58.4594 180.326 58.3816 181.635 58.3816H182.405V59.159H181.635C180.865 59.159 180.172 59.159 179.634 59.159C179.095 59.159 178.633 59.3145 178.325 59.3922C178.017 59.47 177.786 59.7032 177.632 59.8587C177.478 60.0141 177.478 60.3251 177.478 60.5583C177.478 61.0247 177.632 61.4912 178.017 61.8021C178.402 62.1131 178.864 62.2686 179.557 62.2686C180.249 62.2686 180.557 62.1908 180.942 61.9576C181.327 61.7244 181.635 61.4134 181.866 61.0247C182.097 60.6361 182.174 60.1696 182.174 59.7032V57.8375C182.174 57.0601 182.02 56.5937 181.712 56.205C181.404 55.8163 180.865 55.6608 180.172 55.6608C179.48 55.6608 179.172 55.6608 178.633 55.894C178.094 56.1272 177.632 56.2827 177.093 56.5937L176.631 55.8163C176.939 55.5831 177.324 55.4276 177.632 55.2721C178.017 55.1166 178.402 55.0389 178.787 54.9611C179.172 54.8834 179.634 54.8057 180.019 54.8057C180.711 54.8057 181.327 54.8834 181.789 55.1166C182.251 55.3498 182.559 55.6608 182.79 56.1272C183.021 56.5936 183.098 57.1378 183.098 57.8375V62.9682H182.02V61.0247H182.174C182.097 61.4912 181.866 61.8021 181.558 62.1131C181.25 62.424 180.942 62.6573 180.557 62.8127C180.172 62.9682 179.711 63.0459 179.172 63.0459L179.48 63.1237Z" fill="black"/>
<path d="M187.179 65.9998L188.719 62.7348V63.2012L184.869 54.9609H186.101L189.412 62.3461H188.95L192.261 54.9609H193.416L188.257 65.9998H187.102H187.179Z" fill="black"/>
<path d="M203.118 63.1232C202.117 63.1232 201.424 62.89 200.962 62.4236C200.5 61.9571 200.269 61.2575 200.269 60.3246V55.8158H198.498V55.0384H200.269V52.5508H201.347V55.0384H204.196V55.8158H201.347V60.2469C201.347 60.9465 201.501 61.413 201.809 61.8017C202.117 62.1904 202.579 62.3458 203.272 62.3458C203.965 62.3458 203.657 62.3458 203.888 62.3458C204.042 62.3458 204.273 62.2681 204.427 62.1904L204.658 62.9677C204.504 62.9677 204.35 63.1232 204.042 63.201C203.734 63.201 203.503 63.2787 203.195 63.2787L203.118 63.1232Z" fill="black"/>
<path d="M209.277 63.1233C208.43 63.1233 207.737 62.9678 207.121 62.5791C206.505 62.2682 206.043 61.724 205.735 61.1021C205.427 60.4802 205.273 59.7805 205.273 58.9254C205.273 58.0703 205.427 57.3706 205.735 56.7487C206.043 56.1268 206.505 55.6604 207.121 55.2717C207.737 54.9608 208.43 54.7275 209.277 54.7275C210.124 54.7275 210.817 54.883 211.433 55.2717C212.049 55.6604 212.511 56.1268 212.819 56.7487C213.127 57.3706 213.281 58.0703 213.281 58.9254C213.281 59.7805 213.127 60.4802 212.819 61.1021C212.511 61.724 212.049 62.1904 211.433 62.5791C210.817 62.9678 210.124 63.1233 209.277 63.1233ZM209.277 62.2682C210.201 62.2682 210.894 61.9572 211.433 61.413C211.972 60.8689 212.203 60.0138 212.203 58.9254C212.203 57.8371 211.972 57.0597 211.433 56.5155C210.894 55.9714 210.201 55.6604 209.277 55.6604C208.353 55.6604 207.66 55.9714 207.121 56.5155C206.582 57.0597 206.351 57.9148 206.351 58.9254C206.351 59.936 206.582 60.7911 207.121 61.413C207.66 61.9572 208.353 62.2682 209.277 62.2682Z" fill="black"/>
<path d="M224.369 63.1235C223.676 63.1235 223.06 63.1235 222.521 62.968C221.982 62.8125 221.443 62.7348 220.981 62.5016C220.519 62.2684 220.057 62.0351 219.672 61.7242L220.134 60.8691C220.519 61.18 220.981 61.4132 221.366 61.6465C221.751 61.8797 222.213 61.9574 222.752 62.1129C223.214 62.1906 223.83 62.2684 224.369 62.2684C225.524 62.2684 226.371 62.0351 226.91 61.6465C227.449 61.2578 227.757 60.7136 227.757 60.0139C227.757 59.3143 227.68 59.3143 227.449 59.0811C227.295 58.8479 226.987 58.6146 226.602 58.4592C226.217 58.3037 225.678 58.1482 225.062 57.9927L223.214 57.6818C222.059 57.4486 221.212 57.1376 220.673 56.5935C220.134 56.127 219.826 55.4274 219.826 54.5722C219.826 53.7171 219.98 53.3284 220.365 52.7843C220.75 52.2401 221.289 51.8514 221.982 51.6182C222.675 51.3072 223.445 51.2295 224.292 51.2295C225.139 51.2295 225.447 51.2295 225.909 51.385C226.448 51.4627 226.91 51.6182 227.295 51.8514C227.68 52.0846 228.142 52.3178 228.45 52.6288L227.988 53.4839C227.449 53.0175 226.833 52.6288 226.217 52.4733C225.601 52.2401 224.908 52.1624 224.215 52.1624C223.522 52.1624 222.983 52.2401 222.444 52.4733C221.905 52.7065 221.52 52.9397 221.289 53.3284C221.058 53.7171 220.904 54.1058 220.904 54.65C220.904 55.1942 221.058 55.6606 221.52 56.0493C221.905 56.3602 222.521 56.6712 223.368 56.8267L225.216 57.1376C226.448 57.3708 227.372 57.6818 227.911 58.1482C228.45 58.6147 228.758 59.2366 228.758 60.0139C228.758 60.7913 228.604 61.18 228.219 61.6465C227.834 62.1129 227.295 62.5016 226.602 62.7348C225.909 62.968 225.139 63.1235 224.138 63.1235H224.369Z" fill="black"/>
<path d="M233.839 63.1237C233.223 63.1237 232.761 63.0459 232.222 62.8127C231.683 62.5795 231.375 62.3463 231.144 61.9576C230.836 61.5689 230.759 61.1802 230.759 60.7138C230.759 60.2474 230.913 59.6255 231.221 59.3145C231.529 59.0035 232.068 58.7703 232.838 58.6149C233.608 58.4594 234.686 58.3816 235.995 58.3816H236.765V59.159H235.995C235.225 59.159 234.532 59.159 233.993 59.159C233.454 59.159 232.992 59.3145 232.684 59.3922C232.376 59.47 232.145 59.7032 231.991 59.8587C231.837 60.0141 231.837 60.3251 231.837 60.5583C231.837 61.0247 231.991 61.4912 232.376 61.8021C232.761 62.1131 233.223 62.2686 233.916 62.2686C234.609 62.2686 234.917 62.1908 235.302 61.9576C235.687 61.7244 235.995 61.4134 236.226 61.0247C236.457 60.6361 236.534 60.1696 236.534 59.7032V57.8375C236.534 57.0601 236.38 56.5937 236.072 56.205C235.764 55.8163 235.225 55.6608 234.532 55.6608C233.839 55.6608 233.531 55.6608 232.992 55.894C232.453 56.1272 231.991 56.2827 231.452 56.5937L230.99 55.8163C231.298 55.5831 231.683 55.4276 231.991 55.2721C232.376 55.1166 232.761 55.0389 233.146 54.9611C233.531 54.8834 233.993 54.8057 234.378 54.8057C235.071 54.8057 235.687 54.8834 236.149 55.1166C236.611 55.3498 236.919 55.6608 237.15 56.1272C237.381 56.5936 237.458 57.1378 237.458 57.8375V62.9682H236.38V61.0247H236.534C236.457 61.4912 236.226 61.8021 235.918 62.1131C235.61 62.424 235.302 62.6573 234.917 62.8127C234.532 62.9682 234.07 63.0459 233.531 63.0459L233.839 63.1237Z" fill="black"/>
<path d="M243.618 63.1239C242.925 63.1239 242.309 63.0461 241.847 62.8129C241.385 62.5797 241 62.2687 240.846 61.8023C240.615 61.3359 240.538 60.7917 240.538 60.0921V55.0391H241.616V60.0143C241.616 60.5585 241.616 60.9472 241.847 61.3359C242.078 61.7246 242.232 61.9578 242.54 62.1133C242.848 62.2687 243.31 62.3465 243.772 62.3465C244.234 62.3465 244.773 62.2687 245.235 62.0355C245.62 61.8023 245.928 61.4914 246.236 61.1027C246.467 60.714 246.621 60.2475 246.621 59.6256V55.0391H247.699V63.0461H246.621V61.1027H246.852C246.621 61.8023 246.236 62.2687 245.697 62.6574C245.158 63.0461 244.465 63.2016 243.772 63.2016L243.618 63.1239Z" fill="black"/>
<path d="M253.858 63.1235C253.089 63.1235 252.396 62.968 251.78 62.5793C251.164 62.2684 250.779 61.7242 250.394 61.1023C250.086 60.4804 249.932 59.703 249.932 58.9256C249.932 58.1482 250.086 57.3708 250.394 56.7489C250.702 56.127 251.164 55.6606 251.703 55.2719C252.319 54.9609 253.012 54.7277 253.781 54.7277C254.551 54.7277 255.321 54.8832 255.86 55.2719C256.476 55.6606 256.784 56.2048 257.015 56.8267H256.784V51.2295H257.862V62.8903H256.784V60.8691H256.938C256.707 61.491 256.322 62.0351 255.783 62.4238C255.244 62.8125 254.474 62.968 253.704 62.968L253.858 63.1235ZM254.012 62.2684C254.936 62.2684 255.629 61.9574 256.168 61.4132C256.707 60.8691 256.938 60.0139 256.938 58.9256C256.938 57.8373 256.707 57.0599 256.168 56.5157C255.629 55.9715 254.936 55.6606 254.012 55.6606C253.088 55.6606 252.396 55.9715 251.934 56.5157C251.395 57.0599 251.164 57.915 251.164 58.9256C251.164 59.9362 251.395 60.7913 251.934 61.4132C252.473 61.9574 253.165 62.2684 254.012 62.2684Z" fill="black"/>
<path d="M260.711 52.862V51.6182H262.174V52.862H260.711ZM260.865 62.968V54.9609H261.943V62.968H260.865Z" fill="black"/>
<path d="M268.488 62.9684L274.032 51.3076H275.033L280.576 62.9684H279.421L277.881 59.6256L278.497 59.8589H270.644L271.26 59.6256L269.72 62.9684H268.488ZM274.494 52.5514L271.414 59.1592L271.029 58.926H278.035L277.65 59.1592L274.571 52.5514H274.494Z" fill="black"/>
<path d="M282.501 62.9682V54.9611H283.579V56.8269H283.425C283.656 56.205 284.041 55.6608 284.503 55.3498C285.042 55.0389 285.658 54.8057 286.505 54.8057H286.967L287.044 55.6608H286.274C285.427 55.8163 284.734 56.0495 284.272 56.5159C283.81 56.9823 283.579 57.5265 283.579 58.3039V63.0459H282.424L282.501 62.9682Z" fill="black"/>
<path d="M291.279 63.1237C290.663 63.1237 290.201 63.0459 289.662 62.8127C289.123 62.5795 288.815 62.3463 288.584 61.9576C288.276 61.5689 288.199 61.1802 288.199 60.7138C288.199 60.2474 288.353 59.6255 288.661 59.3145C288.969 59.0035 289.508 58.7703 290.278 58.6149C291.048 58.4594 292.126 58.3816 293.435 58.3816H294.205V59.159H293.435C292.665 59.159 291.972 59.159 291.433 59.159C290.894 59.159 290.432 59.3145 290.124 59.3922C289.816 59.47 289.585 59.7032 289.431 59.8587C289.277 60.0141 289.277 60.3251 289.277 60.5583C289.277 61.0247 289.431 61.4912 289.816 61.8021C290.201 62.1131 290.663 62.2686 291.356 62.2686C292.049 62.2686 292.357 62.1908 292.742 61.9576C293.127 61.7244 293.435 61.4134 293.666 61.0247C293.897 60.6361 293.974 60.1696 293.974 59.7032V57.8375C293.974 57.0601 293.82 56.5937 293.512 56.205C293.204 55.8163 292.665 55.6608 291.972 55.6608C291.279 55.6608 290.971 55.6608 290.432 55.894C289.893 56.1272 289.431 56.2827 288.892 56.5937L288.43 55.8163C288.738 55.5831 289.123 55.4276 289.431 55.2721C289.816 55.1166 290.201 55.0389 290.586 54.9611C290.971 54.8834 291.433 54.8057 291.818 54.8057C292.511 54.8057 293.127 54.8834 293.589 55.1166C294.051 55.3498 294.359 55.6608 294.59 56.1272C294.821 56.5936 294.898 57.1378 294.898 57.8375V62.9682H293.82V61.0247H293.974C293.897 61.4912 293.666 61.8021 293.358 62.1131C293.05 62.424 292.742 62.6573 292.357 62.8127C291.972 62.9682 291.51 63.0459 290.971 63.0459L291.279 63.1237Z" fill="black"/>
<path d="M302.135 63.1233C301.288 63.1233 300.595 62.9678 300.056 62.5791C299.517 62.1904 299.055 61.6463 298.901 61.0243H299.132V63.0455H298.054V51.3848H299.132V56.9819H298.901C299.132 56.36 299.517 55.8159 300.056 55.4272C300.672 55.0385 301.365 54.883 302.135 54.883C302.905 54.883 303.598 55.0385 304.214 55.4272C304.83 55.7381 305.215 56.2823 305.523 56.9042C305.831 57.5261 305.985 58.2258 305.985 59.0809C305.985 59.936 305.831 60.6357 305.523 61.2576C305.215 61.8795 304.753 62.3459 304.137 62.7346C303.521 63.1233 302.905 63.2788 302.058 63.2788L302.135 63.1233ZM301.981 62.2682C302.905 62.2682 303.598 61.9572 304.137 61.413C304.676 60.8689 304.907 60.0137 304.907 58.9254C304.907 57.8371 304.676 57.0597 304.137 56.5155C303.598 55.9713 302.905 55.6604 301.981 55.6604C301.057 55.6604 300.364 55.9713 299.825 56.5155C299.286 57.0597 299.055 57.9148 299.055 58.9254C299.055 59.936 299.286 60.7911 299.825 61.413C300.364 61.9572 301.057 62.2682 301.981 62.2682Z" fill="black"/>
<path d="M308.141 52.862V51.6182H309.604V52.862H308.141ZM308.372 62.968V54.9609H309.45V62.968H308.372Z" fill="black"/>
<path d="M315.071 63.1237C314.455 63.1237 313.993 63.0459 313.454 62.8127C312.915 62.5795 312.607 62.3463 312.376 61.9576C312.068 61.5689 311.991 61.1802 311.991 60.7138C311.991 60.2474 312.145 59.6255 312.453 59.3145C312.761 59.0035 313.3 58.7703 314.07 58.6149C314.84 58.4594 315.918 58.3816 317.227 58.3816H317.997V59.159H317.227C316.457 59.159 315.764 59.159 315.225 59.159C314.686 59.159 314.224 59.3145 313.916 59.3922C313.608 59.47 313.377 59.7032 313.223 59.8587C313.069 60.0141 313.069 60.3251 313.069 60.5583C313.069 61.0247 313.223 61.4912 313.608 61.8021C313.993 62.1131 314.455 62.2686 315.148 62.2686C315.841 62.2686 316.149 62.1908 316.534 61.9576C316.919 61.7244 317.227 61.4134 317.458 61.0247C317.689 60.6361 317.766 60.1696 317.766 59.7032V57.8375C317.766 57.0601 317.612 56.5937 317.304 56.205C316.996 55.8163 316.457 55.6608 315.764 55.6608C315.071 55.6608 314.763 55.6608 314.224 55.894C313.685 56.1272 313.223 56.2827 312.684 56.5937L312.222 55.8163C312.53 55.5831 312.915 55.4276 313.223 55.2721C313.608 55.1166 313.993 55.0389 314.378 54.9611C314.763 54.8834 315.225 54.8057 315.61 54.8057C316.303 54.8057 316.919 54.8834 317.381 55.1166C317.843 55.3498 318.151 55.6608 318.382 56.1272C318.613 56.5936 318.69 57.1378 318.69 57.8375V62.9682H317.612V61.0247H317.766C317.689 61.4912 317.458 61.8021 317.15 62.1131C316.842 62.424 316.534 62.6573 316.149 62.8127C315.764 62.9682 315.302 63.0459 314.763 63.0459L315.071 63.1237Z" fill="black"/>
</g>
<defs>
<clipPath id="clip0_96_1147">
<rect width="402" height="66" fill="white"/>
</clipPath>
</defs>
</svg>
