<svg width="344" height="56" viewBox="0 0 344 56" fill="none" xmlns="http://www.w3.org/2000/svg">
<g clip-path="url(#clip0_58_317)">
<path d="M51.8537 3.82568C52.3808 3.49588 52.842 3.23204 53.3691 3.10012C53.8303 2.90224 54.2915 2.83628 54.6868 2.77032C55.4775 2.6384 56.0046 2.70436 56.1364 2.70436C56.2023 2.70436 56.2682 2.70436 56.334 2.70436C56.6635 2.70436 56.927 2.57244 57.1906 2.37456C57.4541 2.17668 57.5859 1.84688 57.6518 1.45112V1.3192C57.6518 0.59364 57.2565 0.3298 57.0588 0.19788C56.7953 0.06596 56.334 0 55.7411 0C54.3574 0 53.1055 0.26384 51.9196 0.72556C50.7995 1.18728 49.7453 1.91284 48.8887 2.77032C48.0322 3.6278 47.2415 4.6172 46.6485 5.73852C46.0555 6.85984 45.5943 8.11307 45.2649 9.36631C45.1331 9.89399 44.9355 10.6196 44.8037 11.543C44.606 12.4005 44.4084 13.3899 44.2107 14.5112C44.013 15.6325 43.8154 16.8198 43.5518 18.073C43.3541 19.3263 43.1565 20.6455 42.9588 21.9647C42.7612 23.2839 42.5635 24.6031 42.3658 25.8563C42.2999 26.384 42.2341 26.9117 42.1682 27.4393C41.9705 26.9117 41.8387 26.384 41.6411 25.8563C41.1799 24.5371 40.7186 23.2179 40.2574 21.8327C39.7303 20.4476 39.2691 18.9965 38.742 17.6113C38.2149 16.1602 37.7537 14.775 37.2266 13.4558C36.7654 12.1366 36.3042 10.8174 35.8429 9.63015L34.657 6.46408C34.3275 5.54064 34.064 4.81508 33.8663 4.22144C33.6687 3.6278 33.5369 3.298 33.471 3.16608C33.2733 2.6384 32.8121 2.3086 32.285 2.3086C31.7579 2.3086 31.5602 2.44052 31.2967 2.70436C31.0331 2.9682 30.9673 3.298 30.9673 3.6278V4.08952C30.9673 4.48528 30.9673 5.21084 30.9014 6.20024C30.9014 7.18963 30.7037 8.44287 30.506 9.82803C30.3084 11.2132 29.9789 12.8622 29.5177 14.6431C29.0565 16.424 28.4635 18.2709 27.7387 20.2497C27.014 22.0966 26.1574 23.7456 25.235 25.0648C24.2467 26.384 23.2584 27.5053 22.2042 28.3628C21.15 29.2203 20.0958 29.9458 19.0416 30.4075C17.9874 30.9352 16.9332 31.331 15.9448 31.5289C14.9565 31.7927 14.1 31.9246 13.3093 31.9906C12.5187 32.0565 11.8598 32.1225 11.3986 32.1225C10.2126 32.1225 9.02662 31.9906 7.97242 31.6608C6.91822 31.331 5.99579 30.8693 5.20513 30.2756C4.41448 29.682 3.82149 29.0224 3.36028 28.2309C2.89906 27.4393 2.7014 26.5819 2.7014 25.5925C2.7014 24.6031 2.89906 23.8775 3.29439 23.1519C3.68971 22.3604 4.2827 21.7008 4.94158 21.1731C5.66635 20.5795 6.457 20.1837 7.37943 19.8539C8.30186 19.5241 9.22429 19.3922 10.2126 19.3922C11.2009 19.3922 12.3869 19.5901 13.2434 19.8539C14.1 20.1837 14.7589 20.5795 15.286 20.9753C15.8131 21.371 16.2084 21.7668 16.4061 22.0966C16.6037 22.3604 16.7355 22.5583 16.7355 22.5583C16.999 23.086 17.3944 23.3498 17.8556 23.3498C18.3168 23.3498 18.5804 23.2179 18.8439 22.9541C19.1075 22.6902 19.1733 22.3604 19.1733 22.0966C19.1733 21.8327 19.1733 21.7008 18.9757 21.437L18.7121 21.0412C18.5145 20.7774 18.3168 20.5135 17.9874 20.1178C17.6579 19.788 17.2626 19.3922 16.8014 19.0624C16.3402 18.6667 15.7472 18.3369 15.0883 18.0071C14.4294 17.6773 13.7047 17.4134 12.8481 17.2155C11.9916 17.0177 11.0691 16.8857 10.0149 16.8857C8.96074 16.8857 7.44532 17.0836 6.25934 17.5453C5.07336 18.0071 4.01915 18.6007 3.09672 19.3922C2.1743 20.1837 1.44953 21.1072 0.856541 22.1625C0.329439 23.2179 0 24.4052 0 25.6584C0 26.9117 0.263551 28.2968 0.856541 29.4181C1.44953 30.5395 2.24018 31.5289 3.2285 32.3204C4.21682 33.1119 5.46868 33.7715 6.85233 34.1673C8.23597 34.629 9.75139 34.8269 11.3327 34.8269C12.914 34.8269 12.5187 34.8269 13.3752 34.6949C14.2318 34.629 15.286 34.4311 16.3402 34.1013C17.4603 33.8375 18.6462 33.3757 19.8981 32.7821C21.15 32.1885 22.4018 31.3969 23.6537 30.4075C24.8397 29.4181 26.0257 28.1649 27.1458 26.6478C28.2659 25.1307 29.2542 23.3498 30.0448 21.2391C30.5719 19.9199 31.0331 18.5347 31.3626 17.2815C31.7579 16.0283 32.0873 14.775 32.285 13.6537C32.5486 12.5324 32.7462 11.4111 32.878 10.4217C32.878 10.2238 32.878 9.95995 32.9439 9.76207C33.2074 10.4217 33.471 11.1472 33.7345 11.8728C34.3275 13.3899 34.9205 15.0389 35.5135 16.6879C36.1065 18.4028 36.7654 20.0518 37.3584 21.8327C37.9514 23.5477 38.5443 25.1967 39.0714 26.7138C39.5985 28.2309 40.0598 29.616 40.4551 30.8033C40.8504 31.9906 41.114 32.98 41.3116 33.6396C41.3775 33.9694 41.5752 34.1673 41.8387 34.3651C42.3658 34.6949 43.0906 34.6949 43.4859 34.2332C43.6836 34.0353 43.8154 33.7715 43.8813 33.4417C43.9471 32.4523 44.1448 31.265 44.2766 29.8799C44.4742 28.4947 44.6719 27.0436 44.8696 25.5265C45.0672 24.0094 45.3308 22.4264 45.5943 20.8433C45.8579 19.2603 46.1214 17.7432 46.3191 16.3581C46.5827 14.9729 46.7803 13.7197 47.0439 12.5324C47.2415 11.4111 47.4392 10.5536 47.6369 9.95995C47.9663 8.77267 48.3616 7.78327 48.8228 6.99176C49.284 6.20024 49.7453 5.47468 50.2724 4.947C50.7995 4.41932 51.2607 3.9576 51.7878 3.6278L51.8537 3.82568Z" fill="white"/>
<path d="M119.323 26.2521C118.73 26.2521 118.334 26.5159 118.137 27.0436C117.939 27.5053 117.676 28.033 117.346 28.6266C117.017 29.2203 116.687 29.8139 116.292 30.3416C115.897 30.8693 115.501 31.331 115.04 31.6608C114.645 31.9906 114.249 32.1225 113.854 32.1225C112.8 32.1225 111.943 30.6054 111.284 27.7032C111.68 26.7797 112.075 25.7244 112.536 24.4711C112.997 23.1519 113.459 21.7668 113.92 20.1838C114.315 18.6667 114.711 17.0177 114.974 15.3687C115.238 13.6537 115.435 11.9388 115.435 10.2898C115.435 8.64076 115.435 8.77268 115.304 8.11308C115.172 7.45348 115.04 6.79388 114.776 6.33216C114.513 5.80448 114.183 5.40872 113.854 5.07892C113.459 4.74912 112.932 4.6172 112.339 4.6172C111.746 4.6172 111.087 4.81508 110.56 5.2768C110.098 5.67256 109.703 6.2662 109.374 6.9258C109.044 7.5854 108.781 8.37692 108.583 9.2344C108.385 10.0919 108.188 11.0153 108.056 11.9388C107.924 12.8622 107.858 13.8516 107.792 14.841C107.792 15.8304 107.726 16.7538 107.726 17.6773C107.726 19.6561 107.792 21.437 107.99 23.086C107.99 23.086 107.858 23.086 107.792 23.086C107.068 23.086 106.343 23.2839 105.552 23.6137C104.827 23.9435 104.169 24.4711 103.576 25.1307C103.18 25.5265 102.851 26.0542 102.587 26.5819C102.39 26.7138 102.192 26.9117 102.06 27.1755C101.928 27.4393 101.797 27.7691 101.599 28.1649C101.401 28.5607 101.204 28.8905 100.94 29.2862C100.676 29.682 100.413 30.0777 100.149 30.4735C99.8858 30.8693 99.5564 31.1991 99.2928 31.4629C99.0293 31.7267 98.6998 31.9906 98.4363 32.1225C98.1727 32.2544 97.9092 32.3204 97.6456 32.3204C97.2503 32.3204 96.9868 32.1885 96.7891 31.9906C96.5256 31.6608 96.3279 31.331 96.1961 30.8693C96.0643 30.4075 95.9326 29.9458 95.9326 29.4841C95.9326 29.0224 95.8667 28.6266 95.8667 28.3628C95.8667 28.033 95.7349 27.7691 95.4713 27.5053C95.0101 26.9776 94.2195 27.0436 93.6924 27.5053C93.4288 27.7032 93.2971 28.033 93.2312 28.2968C93.1653 29.0224 92.9676 29.616 92.77 30.0777C92.5723 30.6054 92.3087 31.0012 91.9793 31.331C91.7158 31.6608 91.4522 31.8587 91.1886 31.9906C90.9251 32.1225 90.7274 32.1885 90.5298 32.1885C90.2662 32.1885 90.0686 32.1885 89.8709 32.0565C89.6732 31.9246 89.5415 31.7927 89.4756 31.6608C89.3438 31.4629 89.2779 31.265 89.212 31.0671C89.212 30.8033 89.1461 30.6054 89.1461 30.3416C89.1461 29.5501 89.2779 28.8245 89.5414 28.2968C89.805 27.7032 90.1344 27.2415 90.4639 26.8457C90.8592 26.4499 91.2545 26.1861 91.6499 25.9882C92.3746 25.7244 93.0994 25.6584 93.5606 25.7903C93.7583 25.7903 93.9559 25.9223 94.0877 25.9882C94.2854 26.0542 94.3513 26.1201 94.4171 26.1861C94.483 26.1861 94.5489 26.318 94.5489 26.318C95.0101 26.7797 95.8667 26.8457 96.3938 26.318C96.6573 26.0542 96.7891 25.7244 96.7891 25.3946C96.7891 25.0648 96.6573 24.8009 96.3938 24.4711C96.3938 24.4711 96.262 24.4052 96.1302 24.2733C95.9326 24.1413 95.7349 24.0094 95.4055 23.8115C95.1419 23.6796 94.7466 23.4817 94.3513 23.3498C93.2971 23.02 92.0452 23.086 90.7274 23.6137C89.9368 23.9435 89.2779 24.4052 88.619 24.9988C88.1578 25.4605 87.6966 26.0542 87.3672 26.6478C87.1695 26.7797 86.9718 26.9776 86.9059 27.2415C86.7742 27.5053 86.6424 27.7691 86.4447 28.1649C86.2471 28.4947 86.0494 28.8905 85.7858 29.2862C85.5223 29.682 85.2587 30.0777 84.9952 30.4075C84.7316 30.8033 84.4022 31.1331 84.0728 31.4629C83.7433 31.7267 83.4798 31.9906 83.1503 32.1885C82.6891 32.4523 82.162 32.5183 81.9644 32.3204C81.8326 32.1885 81.7667 32.0565 81.7008 31.8587C81.6349 31.6608 81.569 31.3969 81.5031 31.0671C81.5031 30.7373 81.5031 30.4075 81.5031 30.0777C81.5031 29.4841 81.5031 28.9564 81.569 28.4287C81.6349 27.8351 81.7008 27.3734 81.7008 27.0436C81.7008 26.7138 81.7008 26.1861 81.569 25.7903C81.4373 25.3946 81.3055 25.0648 81.1078 24.735C80.9102 24.4052 80.5807 24.1413 80.2513 23.9435C79.5265 23.5477 78.6041 23.5477 77.6158 24.0754C77.1546 24.3392 76.6933 24.735 76.2321 25.2627C75.8368 25.7903 75.3756 26.384 74.9803 26.9776C74.5849 27.5713 74.1896 28.1649 73.8602 28.7585C73.5307 29.2862 73.2672 29.8139 73.0036 30.3416V27.7032C73.7284 26.318 74.4532 24.9329 75.112 23.4817C75.8368 21.9647 76.4298 20.4476 76.9569 18.8645C77.484 17.2815 77.8793 15.6985 78.2088 14.0495C78.5382 12.4005 78.67 10.6855 78.67 8.97056C78.67 7.2556 78.67 7.32156 78.4723 6.53004C78.3405 5.73852 78.1429 5.01296 77.8793 4.41932C77.6158 3.75972 77.2204 3.298 76.6933 2.90224C76.1662 2.50648 75.5732 2.3086 74.8485 2.3086C74.1237 2.3086 73.2672 2.70436 72.6742 3.49588C72.1471 4.22144 71.7518 5.21084 71.4223 6.46408C71.0929 7.71732 70.8952 9.16844 70.7634 10.9494C70.6317 12.6643 70.4999 14.5772 70.434 16.7538C70.434 18.8645 70.3022 21.1731 70.3022 23.6137C70.3022 24.9329 70.3022 26.2521 70.3022 27.6372C70.0387 28.2309 69.7092 28.8245 69.3798 29.4181C68.9845 30.1437 68.5233 30.7373 67.9961 31.331C67.469 31.8587 66.8761 32.3204 66.2831 32.7161C65.8877 32.914 65.5583 33.0459 65.0971 33.1119C65.2289 32.914 65.3606 32.7161 65.4265 32.5183C65.6901 31.9246 65.8219 31.265 65.8219 30.6054C65.8219 29.9458 65.756 29.5501 65.5583 29.0883C65.3606 28.6266 65.163 28.0989 64.8994 27.5713C64.6359 27.0436 64.3723 26.4499 64.0429 25.8563C63.7134 25.2627 63.4499 24.6031 63.1205 23.8775C63.1205 23.6137 63.2522 23.3498 63.2522 23.1519C63.2522 22.8881 63.3181 22.6243 63.3181 22.3604C63.3181 21.8327 63.1863 21.371 62.9228 21.0412C62.6592 20.6455 62.198 20.3816 61.7368 20.3816C61.2756 20.3816 60.8144 20.5795 60.4849 21.0412C60.2214 21.437 60.0896 21.8987 60.0896 22.4923C60.0896 23.086 60.0896 23.02 60.1555 23.2839C60.1555 23.4817 60.2873 23.7456 60.3532 24.0754C60.2214 24.6031 60.0896 25.1307 59.9578 25.5925C59.8261 26.0542 59.5625 26.5819 59.2331 27.1755C59.2331 27.2415 59.1013 27.3074 59.1013 27.3734C58.6401 28.2309 58.2448 29.0224 57.7835 29.7479C57.3223 30.4735 56.927 31.0671 56.4658 31.5289C56.0705 31.9906 55.6093 32.3863 55.2139 32.6502C54.6209 33.0459 54.1597 33.0459 53.6326 32.914C53.435 32.914 53.2373 32.7161 53.1055 32.5183C52.9079 32.3204 52.7761 31.9906 52.6443 31.5948C52.5125 31.1991 52.4466 30.6054 52.4466 29.8799C52.4466 29.1543 52.4466 28.6926 52.4466 28.033C52.4466 27.3734 52.5125 26.7138 52.5784 26.1201L52.7102 24.6031C52.7102 24.1413 52.7102 23.8775 52.7102 23.8115C52.7102 23.4817 52.5784 23.1519 52.3807 22.8881C51.9195 22.3604 50.9971 22.3604 50.5359 22.8881C50.3382 23.086 50.1406 23.4158 50.1406 23.6796C49.877 25.7244 49.7452 27.8351 49.7452 29.9458C49.7452 32.0565 49.8111 31.3969 50.0088 32.0565C50.2065 32.7161 50.47 33.3098 50.8653 33.8375C51.2607 34.3651 51.7219 34.7609 52.249 35.0907C52.7761 35.4205 53.435 35.5524 54.1597 35.5524C54.8845 35.5524 55.2798 35.4205 55.8728 35.1567C56.3999 34.8928 56.927 34.563 57.3882 34.1013C57.7835 33.7715 58.1789 33.3757 58.5083 32.914C58.5083 33.0459 58.5742 33.1779 58.706 33.3098C59.299 34.1673 60.0237 34.7609 60.9462 35.1567C61.8027 35.4865 62.791 35.6843 63.8452 35.6843C64.8994 35.6843 65.4924 35.5524 66.2172 35.2886C66.9419 35.0247 67.6008 34.6949 68.1938 34.2992C68.7868 33.9034 69.3139 33.3757 69.841 32.8481C69.9728 32.6502 70.1704 32.5183 70.3022 32.3204V32.6502C70.3022 33.2438 70.434 33.7715 70.7634 34.2332C71.0929 34.6949 71.62 34.9588 72.213 34.9588C72.806 34.9588 72.9377 34.8269 73.3331 34.563C73.7284 34.2992 74.0578 33.8375 74.3873 33.1779C74.519 32.8481 74.7167 32.4523 74.9803 31.9906C75.2438 31.5289 75.5074 31.0012 75.7709 30.4735C76.1003 29.9458 76.3639 29.4181 76.6933 28.8905C77.0228 28.3628 77.3522 27.9011 77.6158 27.5053C77.9452 27.1095 78.2088 26.7797 78.4723 26.5159C78.7359 26.2521 78.9335 26.2521 78.9335 26.2521C78.9335 26.2521 78.9994 26.384 78.9994 26.8457C78.9994 27.3074 78.9994 27.1755 78.9994 27.4393C78.9994 27.7032 78.9994 27.967 78.9335 28.2309C78.9335 28.4947 78.9335 28.8245 78.8676 29.0883C78.8676 29.4181 78.8676 29.682 78.8676 29.9458C78.8676 30.4735 78.8676 31.0012 78.9994 31.5948C79.0653 32.1885 79.263 32.7161 79.5265 33.1779C79.7901 33.7055 80.1854 34.1013 80.6466 34.4311C81.1078 34.7609 81.7667 34.9588 82.4915 34.9588C83.2162 34.9588 83.8092 34.8269 84.4022 34.4971C84.9952 34.1673 85.5223 33.8375 85.9835 33.3098C86.313 32.98 86.5765 32.6502 86.8401 32.3204C87.0377 32.7821 87.2354 33.1779 87.5648 33.5077C87.8943 33.9034 88.3555 34.2332 88.8167 34.4311C89.2779 34.629 89.8709 34.7609 90.4639 34.7609C91.0569 34.7609 92.0452 34.4971 92.77 33.9694C93.2971 33.6396 93.6924 33.1779 94.1536 32.6502C94.4171 33.1779 94.7466 33.5736 95.1419 33.9694C95.8008 34.563 96.5914 34.8928 97.5798 34.8928C98.5681 34.8928 98.8975 34.7609 99.4905 34.4311C100.083 34.1013 100.611 33.7715 101.072 33.3098C101.401 33.0459 101.665 32.7161 101.928 32.3863C102.126 32.914 102.39 33.3757 102.785 33.7715C103.114 34.1673 103.576 34.4311 104.037 34.563C104.498 34.6949 104.959 34.8269 105.42 34.8269C106.343 34.8269 107.265 34.4311 108.056 33.7055C108.649 33.1779 109.176 32.3863 109.703 31.3969C110.164 32.4523 110.626 33.2438 111.219 33.8375C112.009 34.563 112.932 34.9588 114.052 34.9588C115.172 34.9588 115.238 34.8269 115.765 34.4971C116.292 34.2332 116.753 33.9034 117.214 33.4417C117.676 33.0459 118.071 32.5842 118.4 32.0565C118.73 31.5948 119.059 31.0671 119.389 30.6054C119.652 30.1437 119.916 29.682 120.113 29.2203C120.311 28.8245 120.443 28.4947 120.575 28.2309C120.64 28.0989 120.706 27.9011 120.706 27.7032C120.706 27.3734 120.575 27.0436 120.311 26.7797C120.047 26.5159 119.718 26.384 119.389 26.384L119.323 26.2521ZM107.529 29.8799C107.199 30.5395 106.87 31.0012 106.606 31.331C106.277 31.7267 106.079 31.8587 105.948 31.9246C105.75 31.9906 105.552 32.0565 105.42 32.0565C105.025 32.0565 104.762 31.9246 104.564 31.6608C104.366 31.331 104.234 30.8693 104.234 30.2756C104.234 29.682 104.366 28.7585 104.564 28.2309C104.827 27.6372 105.091 27.1755 105.486 26.8457C105.882 26.4499 106.277 26.1861 106.672 25.9882C107.133 25.7903 107.529 25.6584 107.924 25.5925C108.056 25.5925 108.188 25.5925 108.319 25.4605C108.451 26.1861 108.517 26.8457 108.649 27.4393C108.254 28.4287 107.858 29.2203 107.529 29.8799ZM112.009 17.6113C111.746 18.7986 111.416 19.9859 111.021 21.1731C110.889 21.6349 110.691 22.0966 110.56 22.5583C110.56 22.1625 110.494 21.7668 110.428 21.3051C110.296 20.0518 110.296 18.7986 110.296 17.5454C110.296 16.2921 110.362 14.9729 110.494 13.6537C110.626 12.4005 110.823 11.2132 111.021 10.2238C111.219 9.2344 111.482 8.44288 111.812 7.84924C112.075 7.32156 112.273 7.18964 112.339 7.18964C112.339 7.18964 112.339 7.18964 112.405 7.32156C112.536 7.51944 112.602 7.78328 112.668 8.11308C112.734 8.44288 112.8 8.83864 112.8 9.2344C112.8 9.63016 112.8 10.0259 112.8 10.3557C112.8 11.543 112.734 12.7962 112.536 13.9835C112.405 15.2368 112.141 16.424 111.877 17.6113H112.009ZM73.0036 21.7668C73.0036 20.7774 73.0036 19.722 73.0036 18.6667C73.0036 17.6113 73.0036 16.49 73.0695 15.3687C73.0695 14.2474 73.1354 13.126 73.2013 12.0707C73.2672 11.0153 73.3331 9.95996 73.4648 9.03652C73.5966 8.11308 73.7284 7.2556 73.8602 6.53004C73.9919 5.87044 74.1896 5.34276 74.3873 4.947C74.4532 4.81508 74.5849 4.55124 74.7826 4.55124C74.9803 4.55124 75.112 4.55124 75.3097 4.88104C75.5074 5.21084 75.6391 5.6066 75.7709 6.06832C75.9027 6.53004 75.9027 7.05772 75.9686 7.51944C75.9686 7.98116 75.9686 8.37692 75.9686 8.5748C75.9686 9.95996 75.8368 11.2792 75.705 12.5324C75.5074 13.7856 75.2438 15.0389 74.9144 16.2921C74.5849 17.5454 74.1237 18.7986 73.6625 19.9859C73.4648 20.5135 73.2013 21.1072 73.0036 21.7668ZM59.9578 30.8693C60.2873 30.3416 60.6167 29.8799 60.8803 29.3522C61.1438 28.8905 61.3415 28.4947 61.5392 28.1649C61.605 28.033 61.6709 27.967 61.7368 27.8351C61.8686 27.5713 61.9345 27.3734 62.0662 27.1755C62.0662 27.2415 62.1321 27.3074 62.198 27.3734C62.3957 27.7691 62.5934 28.0989 62.791 28.4947C62.9887 28.8245 63.1205 29.1543 63.1863 29.4841C63.2522 29.8139 63.3181 30.0777 63.3181 30.4075C63.3181 30.7373 63.3181 30.6714 63.2522 30.8693C63.2522 31.0671 63.1205 31.1991 62.9887 31.3969C62.8569 31.5289 62.7251 31.6608 62.5934 31.7927C62.3957 31.9246 62.0004 31.9906 61.605 31.8587C61.4733 31.8587 61.3415 31.7927 61.2756 31.7267C61.1438 31.6608 61.0779 31.5948 61.012 31.5289C60.7485 31.1991 60.3532 31.0671 59.9578 31.0671C59.9578 31.0671 60.0237 30.9352 60.0896 30.8693H59.9578Z" fill="white"/>
<path d="M271.062 19.4582C271.721 19.4582 272.314 19.1943 272.775 18.7326C273.237 18.2709 273.5 17.6773 273.5 17.0177C273.5 16.3581 273.5 16.3581 273.303 16.0283C273.171 15.7644 272.973 15.5006 272.775 15.2368C272.578 15.0389 272.314 14.841 271.985 14.7091C271.392 14.4452 270.667 14.4452 270.074 14.7091C269.81 14.841 269.547 15.0389 269.283 15.2368C269.086 15.4346 268.888 15.6985 268.756 16.0283C268.624 16.3581 268.559 16.6219 268.559 17.0177C268.559 17.6773 268.822 18.2709 269.283 18.7326C269.745 19.1943 270.338 19.4582 271.062 19.4582ZM270.074 17.0177C270.074 16.7538 270.14 16.49 270.403 16.2921C270.601 16.0283 270.799 16.0283 271.062 16.0283C271.326 16.0283 271.524 16.0283 271.787 16.3581C272.051 16.6219 272.117 16.8858 272.117 17.0836C272.117 17.2815 272.117 17.4794 271.853 17.7432C271.392 18.205 270.865 18.205 270.403 17.7432C270.206 17.5454 270.14 17.3475 270.14 17.0836L270.074 17.0177Z" fill="white"/>
<path d="M343.407 26.7138C343.012 26.2521 342.287 26.1201 341.76 26.4499C341.562 26.5819 341.365 26.7797 341.233 27.0436C341.101 27.3734 340.837 27.9011 340.508 28.4947C340.179 29.0883 339.849 29.682 339.388 30.2097C338.993 30.7373 338.531 31.265 338.07 31.6608C337.609 31.9906 337.214 32.1885 336.818 32.1885C336.423 32.1885 336.489 32.1885 336.357 32.0565C336.225 31.9906 336.159 31.8587 336.093 31.7267C336.028 31.5289 335.962 31.331 335.896 31.0671C335.896 30.8033 335.896 30.4735 335.896 30.1437C335.896 29.8139 335.896 29.616 335.896 29.2862L336.028 27.5053C336.028 27.2415 336.028 26.9776 336.028 26.7797C336.028 25.8563 335.83 25.1307 335.435 24.4711C334.973 23.8115 334.249 23.4158 333.392 23.4158C332.536 23.4158 332.47 23.5477 331.943 23.8115C331.481 24.0754 331.02 24.4711 330.559 24.9988C330.164 25.5265 329.702 26.1201 329.307 26.6478C328.912 27.2415 328.582 27.8351 328.187 28.4287C327.989 28.8245 327.726 29.1543 327.528 29.5501C327.528 29.2203 327.528 28.9564 327.594 28.6266C327.594 27.967 327.726 27.4393 327.726 26.8457C327.726 26.318 327.726 25.8563 327.726 25.5925C327.726 25.3286 327.726 24.8669 327.594 24.4711C327.528 24.0754 327.396 23.7456 327.265 23.4158C327.067 23.086 326.869 22.8221 326.54 22.5583C326.21 22.3604 325.815 22.2285 325.42 22.2285C324.695 22.2285 324.036 22.6902 323.311 23.4817C322.718 24.2733 322.125 25.3946 321.466 26.9776C321.335 27.2415 321.203 27.5713 321.005 27.967C320.808 28.2968 320.61 28.6926 320.346 29.0883C320.083 29.4841 319.885 29.8799 319.556 30.2756C319.292 30.6714 318.963 31.0012 318.699 31.265C318.436 31.5289 318.106 31.7927 317.843 31.9246C317.579 32.0565 317.315 32.1225 317.052 32.1225C316.657 32.1225 316.393 31.9906 316.195 31.7267C315.932 31.3969 315.734 31.0671 315.602 30.6054C315.471 30.1437 315.339 29.682 315.339 29.2203C315.339 28.7585 315.273 28.3628 315.273 28.0989C315.273 27.7691 315.141 27.5053 314.878 27.2415C314.416 26.7138 313.626 26.7138 313.099 27.2415C312.835 27.4393 312.703 27.7032 312.637 28.033C312.572 28.7585 312.374 29.3522 312.176 29.8139C311.913 30.3416 311.715 30.7373 311.386 31.0671C311.122 31.3969 310.858 31.5948 310.595 31.7267C310.331 31.8587 310.134 31.9246 309.936 31.9246C309.672 31.9246 309.475 31.9246 309.277 31.7927C309.079 31.6608 308.948 31.5289 308.882 31.3969C308.75 31.1991 308.684 31.0012 308.618 30.8033C308.618 30.5395 308.552 30.3416 308.552 30.0777C308.552 29.2862 308.684 28.5607 308.948 28.033C309.211 27.4393 309.541 26.9776 309.87 26.5819C310.265 26.1861 310.661 25.9223 311.056 25.7244C311.781 25.4605 312.506 25.3946 312.967 25.5265C313.165 25.5265 313.362 25.6584 313.494 25.7244C313.626 25.7903 313.758 25.8563 313.823 25.9223C313.889 25.9223 313.955 26.0542 313.955 26.0542C314.482 26.5159 315.273 26.5819 315.8 26.0542C316.064 25.7903 316.195 25.4605 316.195 25.1307C316.195 24.8009 316.064 24.5371 315.8 24.2073C315.8 24.2073 315.668 24.1413 315.536 23.9435C315.339 23.8115 315.141 23.6796 314.812 23.4817C314.548 23.3498 314.153 23.1519 313.758 23.02C312.703 22.6902 311.451 22.7562 310.134 23.2839C309.343 23.6137 308.684 24.0754 308.025 24.669C307.564 25.1307 307.103 25.7244 306.773 26.384C306.576 26.5159 306.378 26.7138 306.312 26.9776C306.18 27.2415 306.049 27.5053 305.851 27.9011C305.653 28.2309 305.456 28.6266 305.192 29.0224C304.929 29.4181 304.665 29.8139 304.401 30.2097C304.138 30.6054 303.808 30.9352 303.545 31.1991C303.281 31.4629 302.952 31.7267 302.622 31.8587C302.359 31.9906 302.03 32.1225 301.766 32.1225C301.502 32.1225 301.371 32.1225 301.239 31.9906C301.107 31.9246 301.041 31.7927 300.975 31.6608C300.909 31.4629 300.844 31.265 300.844 31.0012C300.844 30.7373 300.844 30.4075 300.844 30.1437C300.844 29.4181 300.844 28.8245 300.975 28.2968C301.041 27.7691 301.107 27.1755 301.107 26.7138C301.107 26.2521 301.107 25.9882 300.975 25.5925C300.909 25.1967 300.712 24.8009 300.514 24.4711C300.316 24.1413 299.987 23.8115 299.592 23.6137C298.867 23.2179 297.813 23.086 296.495 23.7456C295.902 24.0754 295.243 24.669 294.584 25.5925C294.387 25.9223 294.123 26.318 293.859 26.7797C293.596 27.2415 293.332 27.7032 293.069 28.2309C292.871 28.5607 292.739 28.8905 292.542 29.2203V28.8245C292.542 28.3628 292.542 27.967 292.608 27.6372C292.608 27.2415 292.608 26.9117 292.608 26.7138C292.608 26.2521 292.608 25.8563 292.476 25.4605C292.344 25.0648 292.212 24.669 292.015 24.4052C291.817 24.0754 291.553 23.8115 291.224 23.6137C290.565 23.2179 289.577 23.1519 288.588 23.6796C288.061 23.9435 287.6 24.3392 287.139 24.8669C286.875 25.1967 286.546 25.6584 286.216 26.2521C285.887 26.8457 285.492 27.4393 285.162 28.0989C284.899 28.5607 284.635 29.0883 284.372 29.5501C284.372 29.2862 284.372 28.9564 284.372 28.6926C284.372 27.6372 284.437 26.4499 284.437 25.1307C284.437 23.8115 284.437 24.4711 284.372 24.1413C284.306 23.8115 284.174 23.4817 284.042 23.2179C283.844 22.8881 283.647 22.6902 283.383 22.4923C283.054 22.2945 282.724 22.1625 282.263 22.1625C281.538 22.1625 280.814 22.5583 280.155 23.4158C279.562 24.2073 278.903 25.3286 278.244 26.9776C277.849 27.7691 277.387 28.5607 276.992 29.2203C276.531 29.9458 276.136 30.5395 275.674 31.0012C275.279 31.4629 274.818 31.8587 274.423 32.1225C273.83 32.5183 273.368 32.5183 272.841 32.3863C272.644 32.3863 272.446 32.1885 272.314 31.9906C272.116 31.7927 271.985 31.4629 271.853 31.0671C271.721 30.6714 271.655 30.0777 271.655 29.3522C271.655 28.6266 271.655 28.1649 271.655 27.5053C271.655 26.8457 271.721 26.1861 271.787 25.5925L271.919 24.0754C271.919 23.6137 271.919 23.3498 271.919 23.2839C271.919 22.9541 271.787 22.6243 271.589 22.3604C271.128 21.8328 270.206 21.8328 269.744 22.3604C269.547 22.5583 269.349 22.8881 269.349 23.1519C269.217 24.3392 269.086 25.5265 269.02 26.7138C269.02 26.7138 269.02 26.7138 269.02 26.7797C268.888 27.0436 268.756 27.3074 268.559 27.7032C268.361 28.033 268.163 28.4287 267.9 28.8245C267.636 29.2203 267.373 29.616 267.109 29.9458C266.845 30.3416 266.516 30.6714 266.187 31.0012C265.857 31.265 265.594 31.5289 265.264 31.7267C264.803 31.9906 264.276 32.0565 264.078 31.8587C263.946 31.7267 263.88 31.5948 263.815 31.3969C263.749 31.1991 263.683 30.9352 263.617 30.6054C263.617 30.2756 263.617 29.9458 263.617 29.616C263.617 29.0224 263.617 28.4947 263.683 27.967C263.749 27.3734 263.815 26.9117 263.815 26.5819C263.815 26.2521 263.815 25.7244 263.683 25.3286C263.551 24.9329 263.419 24.6031 263.222 24.2733C263.024 23.9435 262.695 23.6796 262.365 23.4817C261.64 23.086 260.718 23.086 259.73 23.6137C259.268 23.8775 258.807 24.2733 258.346 24.8009C257.951 25.3286 257.489 25.9223 257.094 26.5159C256.699 27.1095 256.303 27.7032 255.974 28.2968C255.645 28.8245 255.381 29.3522 255.117 29.8799V27.2415C255.842 25.8563 256.567 24.4711 257.226 23.02C257.951 21.5689 258.544 19.9859 259.071 18.4028C259.598 16.8198 259.993 15.2368 260.323 13.5878C260.652 11.9388 260.784 10.2238 260.784 8.50884C260.784 6.79388 260.784 6.85984 260.586 6.06832C260.454 5.2768 260.257 4.55124 259.993 3.9576C259.73 3.298 259.334 2.83628 258.807 2.44052C258.28 2.04476 257.687 1.84688 256.962 1.84688C256.238 1.84688 255.381 2.24264 254.788 3.03416C254.261 3.75972 253.866 4.74912 253.536 6.00236C253.207 7.2556 253.009 8.70672 252.877 10.4876C252.745 12.2026 252.614 14.1814 252.548 16.2921C252.548 18.4028 252.416 20.7114 252.416 23.1519C252.416 24.3392 252.416 25.5925 252.416 26.7797C252.284 27.0436 252.152 27.3734 251.955 27.7691C251.757 28.0989 251.559 28.4947 251.296 28.8905C251.032 29.2862 250.835 29.682 250.505 30.0777C250.242 30.4735 249.912 30.8033 249.649 31.0671C249.385 31.331 249.056 31.5948 248.792 31.7267C248.529 31.8587 248.265 31.9246 248.002 31.9246C247.606 31.9246 247.343 31.7927 247.145 31.5289C246.881 31.1991 246.684 30.8693 246.552 30.4075C246.42 29.9458 246.288 29.4841 246.288 29.0224C246.288 28.5607 246.223 28.1649 246.223 27.9011C246.223 27.5713 246.091 27.3074 245.827 27.0436C245.366 26.5159 244.575 26.5159 244.048 27.0436C243.785 27.2415 243.653 27.5053 243.587 27.8351C243.521 28.5607 243.324 29.1543 243.126 29.616C242.862 30.1437 242.665 30.5395 242.335 30.8693C242.072 31.1991 241.808 31.3969 241.545 31.5289C241.281 31.6608 241.083 31.7267 240.886 31.7267C240.622 31.7267 240.424 31.7267 240.227 31.5948C240.029 31.4629 239.897 31.331 239.831 31.1991C239.7 31.0012 239.634 30.8033 239.568 30.6054C239.568 30.3416 239.502 30.1437 239.502 29.8799C239.502 29.0883 239.634 28.3628 239.897 27.8351C240.161 27.2415 240.49 26.7797 240.82 26.384C241.215 25.9882 241.61 25.7244 242.006 25.5265C242.731 25.2627 243.455 25.1967 243.917 25.3286C244.114 25.3286 244.312 25.4605 244.444 25.5265C244.575 25.5925 244.707 25.6584 244.773 25.7244C244.839 25.7244 244.905 25.8563 244.905 25.8563C245.432 26.318 246.223 26.384 246.75 25.8563C247.013 25.5925 247.145 25.2627 247.145 24.9329C247.145 24.6031 247.013 24.3392 246.75 24.0094C246.75 24.0094 246.618 23.9435 246.486 23.7456C246.288 23.6137 246.091 23.4817 245.761 23.2839C245.498 23.1519 245.102 22.9541 244.707 22.8221C243.653 22.4923 242.401 22.5583 241.083 23.086C240.293 23.4158 239.634 23.8775 238.975 24.4711C238.514 24.9329 238.052 25.5265 237.723 26.1861C237.525 26.318 237.394 26.4499 237.262 26.6478C236.998 27.1095 236.735 27.6372 236.339 28.2968C236.01 28.8905 235.615 29.4841 235.153 30.0118C234.692 30.5395 234.231 31.0012 233.77 31.3969C233.309 31.7267 232.847 31.9246 232.32 31.9246C231.793 31.9246 231.991 31.9246 231.793 31.8587C231.595 31.8587 231.464 31.7267 231.266 31.5289C231.134 31.3969 230.937 31.1331 230.871 30.8693C230.739 30.6054 230.673 30.2097 230.673 29.7479C230.673 29.2862 230.673 29.0883 230.673 28.6926C230.673 28.2968 230.739 27.967 230.805 27.5713C230.805 27.1755 230.937 26.7797 230.937 26.4499C230.937 26.0542 231.003 25.7244 231.003 25.3286C231.003 24.3392 230.739 23.6137 230.212 23.1519C229.685 22.6902 228.96 22.4923 228.038 22.4923C227.115 22.4923 227.576 22.4923 227.313 22.4923C227.247 22.4923 227.181 22.4923 227.049 22.4923C227.049 22.2945 227.049 22.0966 227.049 21.8987C227.049 21.5029 226.917 21.1072 226.786 20.7114C226.654 20.3157 226.456 19.9199 226.193 19.6561C225.6 18.9965 224.611 18.8645 223.821 19.6561C223.491 19.9859 223.228 20.3816 222.964 20.7774C222.701 21.1731 222.503 21.6349 222.371 22.0966C222.239 22.5583 222.174 22.9541 222.174 23.2179C222.174 23.6796 222.305 24.0094 222.503 24.2733C222.701 24.5371 222.964 24.735 223.294 24.8669C223.557 24.9988 223.887 25.0648 224.15 25.0648C224.15 25.0648 224.282 25.0648 224.348 25.0648C224.282 25.3946 224.216 25.6584 224.15 25.8563C224.084 26.1201 224.018 26.2521 224.018 26.318C224.018 26.318 223.952 26.4499 223.887 26.5159C223.755 26.7797 223.623 27.1095 223.491 27.4393C223.294 27.7691 223.096 28.1649 222.898 28.5607C222.701 28.9564 222.437 29.3522 222.174 29.7479C221.91 30.1437 221.646 30.4735 221.317 30.7373C220.988 31.0012 220.724 31.265 220.395 31.3969C219.736 31.7267 219.011 31.7267 218.616 31.265C218.352 31.0012 218.154 30.6054 218.023 30.2097C217.891 29.7479 217.759 29.3522 217.759 28.8905C217.759 28.4287 217.759 28.0989 217.759 27.7691L218.023 24.1413C218.023 23.8115 217.891 23.4817 217.693 23.2179C217.232 22.6902 216.375 22.6243 215.848 23.086C215.585 23.2839 215.453 23.6137 215.387 23.9435L215.058 27.6372C214.992 28.2968 214.86 28.8905 214.596 29.3522C214.399 29.8139 214.135 30.2097 213.806 30.5395C213.542 30.8693 213.213 31.0671 212.949 31.1991C212.686 31.331 212.422 31.3969 212.29 31.3969C211.829 31.3969 211.5 31.265 211.236 30.9352C210.973 30.6054 210.841 30.0118 210.841 29.2862C210.841 28.5607 210.841 27.967 211.038 27.3734C211.17 26.8457 211.302 26.318 211.5 25.9223C211.631 25.5265 211.829 25.1967 211.961 24.9329C212.093 24.669 212.224 24.4711 212.29 24.3392C212.29 24.2733 212.356 24.1413 212.422 24.0754C212.422 23.9435 212.488 23.7456 212.488 23.6137C212.488 23.2839 212.356 22.9541 212.159 22.6902C211.829 22.2945 211.236 22.1625 210.709 22.3604C210.511 22.4264 210.38 22.5583 210.248 22.6902C209.853 23.2839 209.457 23.8115 209.26 24.4052C209.062 24.8669 208.864 25.3946 208.732 25.9882C208.667 26.1201 208.535 26.1861 208.535 26.384C208.337 26.8457 208.074 27.3734 207.744 27.967C207.415 28.5607 207.085 29.1543 206.69 29.682C206.295 30.2097 205.899 30.6714 205.438 31.0012C205.043 31.331 204.647 31.4629 204.252 31.4629C203.198 31.4629 202.341 29.9458 201.682 27.0436C202.078 26.1201 202.473 25.0648 202.934 23.8115C203.396 22.4923 203.857 21.1072 204.318 19.5242C204.713 18.0071 205.109 16.3581 205.372 14.7091C205.636 12.9941 205.833 11.3451 205.833 9.63016C205.833 7.9152 205.833 8.11308 205.702 7.45348C205.57 6.79388 205.438 6.13428 205.174 5.67256C204.911 5.14488 204.581 4.74912 204.252 4.41932C203.857 4.08952 203.33 3.9576 202.737 3.9576C202.144 3.9576 201.485 4.15548 200.958 4.6172C200.496 5.01296 200.101 5.6066 199.772 6.2662C199.442 6.9258 199.179 7.71732 198.981 8.5748C198.783 9.43228 198.586 10.3557 198.454 11.2792C198.322 12.2026 198.256 13.192 198.19 14.1814C198.19 15.1708 198.125 16.0942 198.125 17.0177C198.125 18.9965 198.19 20.7774 198.388 22.4264C198.388 22.4264 198.256 22.4264 198.19 22.4264C197.466 22.4264 196.741 22.6243 195.95 22.9541C195.225 23.2839 194.567 23.8115 193.974 24.4711C193.578 24.8669 193.249 25.3946 192.985 25.9223C192.788 26.0542 192.59 26.2521 192.524 26.4499C192.326 26.8457 192.129 27.2415 191.865 27.6372C191.602 28.0989 191.272 28.4947 190.943 28.8245C190.613 29.2203 190.284 29.4841 189.954 29.7479C189.691 29.9458 189.427 30.0777 189.164 30.0777C188.9 30.0777 188.571 30.0777 188.307 29.9458C188.044 29.8139 187.846 29.682 187.648 29.5501C187.451 29.4181 187.319 29.2862 187.253 29.0883C187.187 28.9564 187.121 28.8905 187.055 28.8245C187.055 28.4947 187.055 28.1649 187.055 27.9011C187.055 27.2415 186.989 26.5819 186.858 25.9223C186.726 25.2627 186.462 24.669 186.133 24.1413C185.803 23.6137 185.342 23.1519 184.881 22.8221C184.354 22.4923 183.695 22.2945 183.036 22.2945C182.377 22.2945 182.18 22.3604 181.85 22.5583C181.455 22.6902 181.125 22.9541 180.862 23.2179C180.532 23.5477 180.335 23.8775 180.137 24.2733C179.939 24.669 179.874 25.1307 179.874 25.5925C179.874 26.0542 179.874 26.2521 180.005 26.5819C180.071 26.9117 180.269 27.2415 180.401 27.5713C180.598 27.9011 180.796 28.1649 181.125 28.3628C181.653 28.8245 182.509 28.8905 183.036 28.3628C183.3 28.0989 183.432 27.7691 183.432 27.4393C183.432 27.1095 183.234 26.5819 182.839 26.318C182.707 26.1861 182.575 26.1201 182.509 25.9882C182.509 25.8563 182.443 25.7244 182.443 25.5925C182.443 25.5925 182.443 25.4605 182.443 25.3946C182.443 25.3286 182.443 25.2627 182.509 25.1967C182.509 25.1307 182.575 25.0648 182.707 24.9988C182.707 24.9988 182.839 24.9988 183.036 24.9988C183.234 24.9988 183.432 24.9988 183.629 25.1967C183.827 25.3286 183.959 25.5925 184.09 25.8563C184.222 26.1201 184.354 26.4499 184.42 26.8457C184.486 27.2415 184.552 27.5713 184.552 27.967C184.552 28.4947 184.486 29.0883 184.288 29.616C184.156 30.1437 183.893 30.6054 183.629 31.0012C183.366 31.3969 183.036 31.7267 182.641 31.9906C181.982 32.4523 181.125 32.4523 180.532 31.9906C180.203 31.7267 179.939 31.3969 179.676 30.9352C179.412 30.4735 179.215 29.9458 179.083 29.3522C178.951 28.7585 178.819 28.1649 178.753 27.5713C179.346 26.1861 180.005 24.735 180.598 23.2179C181.257 21.6349 181.85 19.9859 182.377 18.4028C182.904 16.7538 183.366 15.1048 183.695 13.4558C184.025 11.8068 184.222 10.1578 184.222 8.5748C184.222 6.99176 184.156 6.66196 184.025 5.80448C183.893 4.947 183.629 4.22144 183.366 3.6278C183.036 2.9682 182.641 2.50648 182.18 2.11072C181.389 1.51708 180.335 1.3192 179.281 1.78092C178.885 1.9788 178.49 2.24264 178.095 2.70436C177.765 3.16608 177.37 3.75972 177.106 4.48528C176.777 5.21084 176.513 6.20024 176.316 7.38752C176.118 8.50884 175.92 9.95996 175.789 11.609C175.657 13.258 175.591 15.1708 175.591 17.4134C175.591 19.6561 175.591 19.4582 175.591 20.5135C175.525 20.3157 175.393 20.1838 175.261 20.0518C174.998 19.854 174.668 19.722 174.405 19.722C174.141 19.722 174.273 19.722 172.758 19.854C171.835 19.9859 170.452 20.1178 168.541 20.3816C168.541 19.9859 168.541 19.5901 168.541 19.1944V17.4794C168.541 15.8964 168.541 14.3133 168.607 12.7962C168.607 11.2792 168.739 9.82804 168.87 8.5748C168.936 7.32156 169.068 6.20024 169.134 5.34276C169.2 4.6172 169.266 4.02356 169.332 3.75972C169.463 3.6278 169.595 3.42992 169.661 3.23204C169.859 2.90224 169.925 2.6384 169.925 2.3086C169.925 1.9788 169.793 1.51708 169.463 1.25324C169.2 0.989403 168.87 0.857483 168.541 0.857483C167.948 0.857483 167.553 1.12132 167.289 1.58304C167.091 1.91284 166.96 2.3086 166.894 2.70436C166.63 3.16608 166.235 3.75972 165.839 4.41932C165.378 5.14488 164.917 5.9364 164.324 6.79388C163.797 7.65136 163.138 8.64076 162.545 9.63016C161.886 10.6196 161.227 11.609 160.568 12.6643C159.91 13.6537 159.251 14.7091 158.592 15.6985C157.933 16.6879 157.274 17.6113 156.681 18.4688C156.286 18.9965 155.825 19.5901 155.363 20.2497C154.902 20.8433 154.309 21.5689 153.716 22.2285C152.333 22.3604 151.081 22.4923 149.829 22.5583C146.337 22.7562 143.306 22.6902 140.868 22.3604C139.353 22.1625 138.035 21.8327 136.981 21.437C135.992 21.0412 135.202 20.5795 134.675 19.9859C134.213 19.4582 133.95 18.8646 133.95 18.139C133.95 17.4134 134.016 17.3475 134.213 17.0177C134.411 16.6219 134.609 16.2921 134.806 16.0283C135.004 15.7644 135.202 15.5666 135.399 15.3687C135.597 15.2368 135.663 15.1048 135.729 15.1048C135.926 14.9729 136.058 14.841 136.124 14.6431C136.19 14.4452 136.256 14.2474 136.256 14.0495C136.256 13.6537 136.124 13.3239 135.795 13.0601C135.202 12.5984 134.543 12.5984 133.686 13.258C133.291 13.5878 132.896 13.9835 132.566 14.5112C132.237 15.0389 131.907 15.5666 131.644 16.1602C131.38 16.8198 131.248 17.4134 131.248 18.073C131.248 19.4582 131.71 20.6455 132.566 21.5689C133.423 22.4923 134.543 23.2179 135.926 23.7456C137.244 24.2733 138.826 24.669 140.604 24.8669C143.24 25.1967 146.139 25.2627 149.17 25.1307C149.697 25.1307 150.29 25.1307 150.883 25.0648C150.158 25.7903 149.302 26.4499 148.445 27.1095C147.193 28.0989 145.875 28.9564 144.426 29.7479C142.976 30.5395 141.461 31.1331 139.814 31.5948C138.233 32.0565 136.519 32.3204 134.74 32.3204C132.961 32.3204 132.369 32.1885 131.446 31.9906C130.524 31.7267 129.733 31.4629 129.14 31.1991C128.547 30.9352 128.086 30.6714 127.822 30.4075C127.559 30.1437 127.361 30.0118 127.361 30.0118C126.9 29.4841 126.043 29.4181 125.516 30.0118C125.253 30.2756 125.121 30.6054 125.121 30.9352C125.121 31.265 125.253 31.5948 125.45 31.8587C125.45 31.8587 125.714 32.0565 126.043 32.3863C126.439 32.7161 127.032 33.1119 127.756 33.5077C128.481 33.9034 129.469 34.2332 130.59 34.563C131.71 34.8928 133.093 35.0247 134.675 35.0247C138.167 35.0247 141.659 34.1013 145.085 32.3863C148.445 30.6714 151.74 28.0989 154.77 24.8009C155.956 24.669 157.142 24.5371 158.262 24.3392C159.975 24.1413 161.491 23.8775 162.875 23.7456C163.995 23.6137 165.049 23.4817 165.971 23.3498C165.971 24.4052 166.103 25.3946 166.169 26.318C166.235 27.4393 166.367 28.4947 166.564 29.4841C166.696 30.4735 166.894 31.3969 167.091 32.1885C167.289 33.0459 167.553 33.7055 167.816 34.2992C167.948 34.4971 168.08 34.6949 168.277 34.8269C168.475 34.9588 168.673 35.0247 168.936 35.0247C169.332 35.0247 169.661 34.8928 169.859 34.629C170.122 34.3651 170.254 34.1013 170.254 33.7055C170.254 33.3098 170.254 33.3098 170.122 33.1119C169.925 32.6502 169.727 32.1225 169.529 31.3969C169.332 30.6714 169.2 29.8139 169.068 28.8905C168.936 27.967 168.804 26.9776 168.739 25.9223C168.673 24.9988 168.607 24.0094 168.541 23.02C169.266 22.9541 169.925 22.8221 170.452 22.7562L172.231 22.5583C172.758 22.5583 173.153 22.4264 173.482 22.4264C173.812 22.4264 174.141 22.3604 174.405 22.2945C174.734 22.2945 174.998 22.0966 175.261 21.8327C175.393 21.7008 175.459 21.5689 175.525 21.371C175.525 22.5583 175.657 23.7456 175.723 24.9329C175.854 26.1861 176.052 27.4393 176.25 28.6266C176.513 29.8139 176.843 30.8693 177.238 31.7927C177.699 32.7161 178.226 33.5077 178.885 34.0353C179.61 34.629 180.467 34.9588 181.455 34.9588C182.443 34.9588 182.509 34.8928 183.036 34.6949C183.563 34.4971 184.025 34.2332 184.42 33.9034C184.881 33.5736 185.276 33.1779 185.606 32.7161C185.803 32.4523 186.001 32.1225 186.199 31.7927C186.462 31.9906 186.792 32.1885 187.121 32.3204C187.714 32.6502 188.439 32.7821 189.23 32.7821C190.02 32.7821 190.284 32.6502 190.811 32.3863C191.272 32.1225 191.733 31.8587 192.129 31.4629C192.195 31.4629 192.26 31.331 192.326 31.265C192.326 31.3969 192.392 31.5289 192.458 31.6608C192.656 32.1885 192.919 32.7161 193.315 33.0459C193.644 33.4417 194.105 33.7055 194.567 33.8375C195.028 33.9694 195.489 34.1013 195.95 34.1013C196.873 34.1013 197.795 33.7055 198.586 32.98C199.179 32.4523 199.706 31.6608 200.233 30.6714C200.694 31.7267 201.155 32.5183 201.748 33.1119C202.539 33.8375 203.461 34.2332 204.581 34.2332C205.702 34.2332 205.767 34.1013 206.295 33.7715C206.822 33.5077 207.283 33.1779 207.744 32.7161C208.139 32.3204 208.535 31.9246 208.864 31.4629C209.062 31.9246 209.26 32.3863 209.589 32.7821C209.918 33.1779 210.38 33.5077 210.841 33.7715C211.302 33.9694 211.895 34.1013 212.488 34.1013C213.081 34.1013 214.069 33.8375 214.794 33.3098C215.255 32.98 215.717 32.5183 216.112 31.9906C216.375 32.5842 216.771 33.0459 217.166 33.3757C217.825 33.9034 218.616 34.2332 219.604 34.2332C220.592 34.2332 220.988 34.1013 221.581 33.7715C222.174 33.4417 222.701 33.1119 223.162 32.5842C223.623 32.1225 224.084 31.5948 224.48 31.0671C224.875 30.5395 225.204 30.0118 225.468 29.5501C225.731 29.0883 225.995 28.6266 226.127 28.2309C226.259 27.9011 226.39 27.7032 226.456 27.5713C226.456 27.5053 226.522 27.3734 226.588 27.2415C226.588 27.1095 226.72 26.8457 226.786 26.5819C226.852 26.318 226.983 25.9882 227.049 25.6584C227.049 25.3946 227.181 25.1967 227.181 24.9329C227.313 24.9329 227.445 24.9329 227.51 24.9329H228.169C228.499 24.9329 228.631 24.9329 228.631 24.9329C228.631 24.9329 228.631 25.0648 228.631 25.1967C228.631 25.7903 228.565 26.4499 228.433 27.1095C228.301 27.8351 228.235 28.6266 228.235 29.3522C228.235 30.0777 228.367 30.7373 228.565 31.331C228.762 31.9246 229.092 32.4523 229.487 32.8481C229.882 33.2438 230.344 33.5736 230.871 33.8375C231.398 34.0353 231.925 34.1673 232.518 34.1673C233.44 34.1673 234.297 33.9034 235.088 33.4417C235.812 32.98 236.471 32.3863 237.064 31.7267C237.13 31.5948 237.196 31.5289 237.328 31.3969C237.525 31.8587 237.789 32.3204 238.052 32.7161C238.382 33.1119 238.843 33.4417 239.304 33.6396C239.766 33.8375 240.359 33.9694 240.952 33.9694C241.545 33.9694 242.533 33.7055 243.258 33.1779C243.785 32.8481 244.18 32.3863 244.641 31.8587C244.905 32.3863 245.234 32.7821 245.63 33.1779C246.288 33.7715 247.079 34.1013 248.067 34.1013C249.056 34.1013 249.385 33.9694 249.978 33.6396C250.571 33.3098 251.098 32.98 251.559 32.5183C251.955 32.1885 252.284 31.7927 252.548 31.3969V31.7927C252.548 32.3863 252.68 32.914 253.009 33.3757C253.338 33.8375 253.866 34.1013 254.459 34.1013C255.052 34.1013 255.183 33.9694 255.579 33.7055C255.974 33.4417 256.303 32.98 256.633 32.3204C256.765 31.9906 256.962 31.5948 257.226 31.1331C257.489 30.6714 257.753 30.1437 258.016 29.616C258.346 29.0883 258.609 28.5607 258.939 28.033C259.268 27.5053 259.598 27.0436 259.861 26.6478C260.191 26.2521 260.454 25.9223 260.718 25.6584C260.981 25.3946 261.179 25.3946 261.179 25.3946C261.179 25.3946 261.245 25.5265 261.245 25.9882C261.245 26.4499 261.245 26.318 261.245 26.5819C261.245 26.8457 261.245 27.1095 261.179 27.3734C261.179 27.6372 261.179 27.967 261.113 28.2309C261.113 28.5607 261.113 28.8245 261.113 29.0883C261.113 29.616 261.113 30.1437 261.245 30.7373C261.311 31.331 261.509 31.8587 261.772 32.3204C262.036 32.8481 262.431 33.2438 262.892 33.5736C263.353 33.9034 264.012 34.1013 264.737 34.1013C265.462 34.1013 266.055 33.9694 266.648 33.6396C267.241 33.3098 267.768 32.98 268.229 32.4523C268.624 32.0565 269.02 31.5948 269.415 31.0671C269.613 31.7267 269.876 32.3204 270.272 32.8481C270.667 33.3757 271.128 33.7715 271.655 34.1013C272.182 34.4311 272.841 34.563 273.566 34.563C274.291 34.563 274.686 34.4311 275.279 34.1673C275.806 33.9034 276.333 33.5736 276.794 33.1119C277.256 32.7161 277.717 32.2544 278.112 31.7267C278.508 31.1991 278.903 30.7373 279.232 30.2097C279.562 29.682 279.891 29.2203 280.155 28.6926C280.418 28.2309 280.616 27.8351 280.814 27.5053C281.341 26.318 281.736 25.4605 282.066 24.9988C282.066 25.1307 282.066 25.2627 282.066 25.3946V27.5713C281.934 28.3628 281.868 29.0883 281.868 29.7479C281.868 30.4075 281.868 31.0012 281.802 31.4629C281.802 31.9246 281.802 32.1885 281.802 32.2544C281.802 32.7821 281.934 33.2438 282.197 33.5736C282.395 33.8375 282.79 34.1673 283.515 34.1673C284.24 34.1673 284.306 34.0353 284.701 33.7055C285.096 33.4417 285.426 32.98 285.755 32.2544C286.019 31.7267 286.282 31.1991 286.612 30.5395C286.941 29.8799 287.271 29.2862 287.6 28.6926C287.93 28.0989 288.259 27.5713 288.588 27.0436C288.918 26.5819 289.116 26.1861 289.313 25.9882C289.577 25.5925 289.774 25.4605 289.84 25.4605C289.972 25.3946 290.104 25.3286 290.104 25.3286C290.104 25.3286 290.17 25.4605 290.17 25.8563C290.17 26.2521 290.17 26.2521 290.17 26.5819C290.17 26.9117 290.17 27.3074 290.17 27.7032C290.17 28.0989 290.17 28.5607 290.17 29.0224C290.17 29.4841 290.17 29.9458 290.17 30.3416V31.5289C290.17 31.9246 290.17 32.1885 290.17 32.3863C290.17 32.914 290.301 33.3757 290.565 33.7055C290.763 33.9694 291.158 34.2992 291.817 34.2992C292.476 34.2992 292.278 34.2992 292.542 34.1673C292.739 34.0353 292.937 33.9034 293.135 33.7055C293.332 33.5077 293.464 33.2438 293.662 32.914C293.859 32.5842 294.057 32.2544 294.255 31.7927C294.716 30.9352 295.111 30.1437 295.507 29.3522C295.902 28.5607 296.363 27.8351 296.693 27.2415C297.088 26.6478 297.417 26.1861 297.813 25.7903C298.076 25.5265 298.34 25.3946 298.537 25.3946C298.735 25.3946 298.603 25.3946 298.669 25.3946C298.669 25.3946 298.669 25.3946 298.735 25.5925C298.735 25.6584 298.801 25.8563 298.801 26.2521C298.801 26.6478 298.801 26.9776 298.669 27.5713C298.603 28.1649 298.537 28.8245 298.537 29.5501C298.537 30.2756 298.537 30.6714 298.669 31.1991C298.735 31.7267 298.933 32.2544 299.196 32.6502C299.46 33.1119 299.855 33.4417 300.316 33.7055C300.778 33.9694 301.371 34.1013 302.095 34.1013C302.82 34.1013 303.413 33.9694 304.006 33.6396C304.599 33.3098 305.126 32.98 305.587 32.4523C305.917 32.1225 306.246 31.7927 306.51 31.4629C306.708 31.9246 306.905 32.3204 307.235 32.7161C307.564 33.1119 308.025 33.4417 308.487 33.6396C308.948 33.8375 309.541 33.9694 310.134 33.9694C310.727 33.9694 311.715 33.7055 312.44 33.1779C312.967 32.8481 313.362 32.3863 313.823 31.8587C314.087 32.3863 314.416 32.7821 314.812 33.1779C315.471 33.7715 316.261 34.1013 317.25 34.1013C318.238 34.1013 318.567 33.9694 319.16 33.6396C319.753 33.3098 320.28 32.98 320.742 32.5183C321.203 32.0565 321.664 31.5948 322.059 31.0012C322.455 30.4735 322.784 29.9458 323.048 29.4841C323.311 29.0224 323.575 28.5607 323.772 28.1649L324.168 27.4393C324.695 26.2521 325.09 25.3946 325.354 24.9329C325.354 25.1307 325.354 25.2627 325.354 25.4605C325.354 25.7244 325.354 26.0542 325.354 26.4499C325.354 26.8457 325.354 27.3074 325.222 27.7691L325.09 29.1543C325.09 29.616 325.024 30.0777 324.958 30.4735C324.958 30.8693 324.893 31.265 324.827 31.5289C324.827 31.8587 324.827 32.0565 324.827 32.1885C324.827 32.7821 325.024 33.2438 325.354 33.5736C325.617 33.8375 325.881 33.9694 326.21 34.0353C326.737 34.1673 327.33 34.0353 327.858 33.7055C328.187 33.4417 328.516 32.98 328.846 32.3204C328.978 31.9906 329.175 31.5948 329.439 31.1331C329.702 30.6714 329.966 30.1437 330.229 29.616C330.493 29.0883 330.822 28.5607 331.152 28.033C331.481 27.5053 331.811 27.0436 332.14 26.5819C332.47 26.1861 332.733 25.8563 332.997 25.5925C333.194 25.3946 333.326 25.3286 333.392 25.3286C333.392 25.3286 333.392 25.3286 333.458 25.3946C333.458 25.3946 333.524 25.5265 333.524 25.9882C333.524 26.4499 333.524 26.5159 333.524 26.8457C333.524 27.1095 333.524 27.4393 333.458 27.7032C333.458 28.033 333.458 28.2968 333.392 28.5607C333.392 28.8245 333.392 29.0883 333.392 29.3522C333.392 29.8799 333.392 30.4075 333.524 30.9352C333.59 31.4629 333.787 31.9906 334.051 32.4523C334.315 32.914 334.71 33.3098 335.171 33.6396C335.632 33.9694 336.291 34.1013 337.016 34.1013C337.741 34.1013 338.334 33.9034 338.927 33.6396C339.454 33.3098 339.981 32.914 340.508 32.5183C340.969 32.0565 341.43 31.5948 341.826 31.0012C342.221 30.4735 342.55 29.9458 342.814 29.4841C343.078 29.0224 343.341 28.5607 343.539 28.2309C343.736 27.9011 343.802 27.6372 343.868 27.5053C343.934 27.3734 344 27.1755 344 26.9776C344 26.6478 343.868 26.384 343.671 26.1201L343.407 26.7138ZM165.708 19.722C165.708 20.1838 165.708 20.6455 165.708 21.1072L162.413 21.5029C161.03 21.7008 159.514 21.8987 157.801 22.0966C157.538 22.0966 157.34 22.0966 157.142 22.1625C157.274 22.0306 157.34 21.8987 157.472 21.7668C157.867 21.3051 158.197 20.8433 158.526 20.3157C159.185 19.3263 159.91 18.2709 160.7 17.1496C161.491 16.0283 162.216 14.907 162.94 13.7197C163.665 12.5984 164.39 11.477 165.115 10.3557L165.971 9.03652C165.971 9.894 165.839 10.8834 165.839 11.8728C165.774 13.7197 165.708 15.6985 165.708 17.6773C165.708 19.6561 165.708 18.9305 165.708 19.5901V19.722ZM255.117 21.7668C255.117 20.7774 255.117 19.722 255.117 18.6667C255.117 17.6113 255.117 16.49 255.183 15.3687C255.183 14.2474 255.249 13.126 255.315 12.0707C255.381 11.0153 255.513 9.95996 255.579 9.03652C255.71 8.11308 255.842 7.2556 255.974 6.53004C256.106 5.87044 256.303 5.34276 256.501 4.947C256.567 4.81508 256.699 4.55124 256.896 4.55124C257.094 4.55124 257.226 4.55124 257.423 4.88104C257.621 5.21084 257.753 5.6066 257.885 6.06832C258.016 6.53004 258.016 7.05772 258.082 7.51944C258.082 7.98116 258.082 8.37692 258.082 8.5748C258.082 9.95996 257.951 11.2792 257.819 12.5324C257.621 13.7856 257.358 15.0389 257.028 16.2921C256.699 17.5454 256.238 18.7986 255.776 19.9859C255.579 20.5135 255.315 21.1072 255.052 21.7008L255.117 21.7668ZM197.927 29.8799C197.597 30.5395 197.268 31.0012 197.004 31.331C196.675 31.7267 196.477 31.8587 196.346 31.9246C196.148 31.9906 195.95 32.0565 195.818 32.0565C195.423 32.0565 195.16 31.9246 194.962 31.6608C194.764 31.331 194.632 30.8693 194.632 30.2756C194.632 29.682 194.764 28.7585 194.962 28.2309C195.225 27.6372 195.489 27.1755 195.884 26.8457C196.28 26.4499 196.675 26.1861 197.07 25.9882C197.532 25.7903 197.927 25.6584 198.322 25.5925C198.454 25.5925 198.586 25.5925 198.717 25.4605C198.849 26.1861 198.915 26.8457 199.047 27.4393C198.652 28.4287 198.256 29.2203 197.927 29.8799ZM202.341 17.6113C202.078 18.7986 201.748 19.9859 201.353 21.1731C201.221 21.6349 201.024 22.0966 200.892 22.5583C200.892 22.1625 200.826 21.7668 200.76 21.3051C200.628 20.0518 200.628 18.7986 200.628 17.5454C200.628 16.2921 200.694 14.907 200.826 13.6537C200.958 12.4005 201.155 11.2132 201.353 10.2238C201.551 9.2344 201.814 8.44288 202.144 7.84924C202.407 7.32156 202.605 7.18964 202.671 7.18964C202.671 7.18964 202.671 7.18964 202.737 7.32156C202.868 7.51944 202.934 7.78328 203 8.11308C203.066 8.44288 203.132 8.83864 203.132 9.2344C203.132 9.63016 203.132 10.0259 203.132 10.3557C203.132 11.543 203.066 12.7962 202.868 13.9835C202.737 15.2368 202.473 16.424 202.21 17.6113H202.341ZM180.071 17.1496C179.676 18.5348 179.215 19.8539 178.753 21.1731C178.556 21.7668 178.292 22.3604 178.095 22.8881C178.095 22.6243 178.095 22.4264 178.095 22.1625C178.095 21.5689 178.095 20.9093 178.095 20.2497C178.095 19.5901 178.095 18.9305 178.095 18.2709C178.095 16.2921 178.095 14.5772 178.226 13.126C178.358 11.6749 178.49 10.4217 178.622 9.43228C178.754 8.44288 178.951 7.5854 179.149 6.9258C179.346 6.2662 179.544 5.80448 179.742 5.40872C179.939 5.01296 180.137 4.81508 180.203 4.74912C180.269 4.68316 180.335 4.6172 180.335 4.6172C180.467 4.6172 180.598 4.6172 180.796 4.88104C180.994 5.14488 181.125 5.47468 181.257 5.9364C181.389 6.39812 181.455 6.85984 181.521 7.38752C181.521 7.9152 181.587 8.50884 181.587 8.97056C181.587 10.2898 181.455 11.6749 181.191 13.0601C180.928 14.4452 180.598 15.8304 180.203 17.2156L180.071 17.1496Z" fill="white"/>
<path d="M51.9195 19.4582C52.5784 19.4582 53.1714 19.1943 53.6326 18.7326C54.0938 18.2709 54.3574 17.6773 54.3574 17.0177C54.3574 16.3581 54.3574 16.3581 54.1597 16.0283C54.0279 15.7644 53.8303 15.5006 53.6326 15.2368C53.4349 15.0389 53.1714 14.841 52.8419 14.7091C52.2489 14.4452 51.5242 14.4452 50.9312 14.7091C50.6676 14.841 50.4041 15.0389 50.1405 15.2368C49.9429 15.4346 49.7452 15.6985 49.6134 16.0283C49.4817 16.3581 49.4158 16.6219 49.4158 17.0177C49.4158 17.6773 49.6793 18.2709 50.1405 18.7326C50.6018 19.1943 51.1947 19.4582 51.8536 19.4582H51.9195ZM50.9312 17.0177C50.9312 16.7538 50.9971 16.49 51.2606 16.2921C51.4583 16.0283 51.656 16.0283 51.9195 16.0283C52.1831 16.0283 52.3807 16.0283 52.6443 16.3581C52.9078 16.6219 52.9737 16.8858 52.9737 17.0836C52.9737 17.2815 52.9737 17.4794 52.7102 17.7432C52.2489 18.205 51.7218 18.205 51.2606 17.7432C51.063 17.5454 50.9971 17.3475 50.9312 17.0177Z" fill="white"/>
<path d="M74.9144 53.4276V48.2827L75.1779 48.9423L70.7634 43.5336H71.8835L75.5732 48.0848H75.3097L78.9994 43.5336H80.0536L75.705 48.9423L75.9027 48.2827V53.4276H74.9144Z" fill="white"/>
<path d="M82.9527 53.5595C82.2279 53.5595 81.6349 53.4276 81.1078 53.0978C80.5807 52.8339 80.1854 52.3722 79.9218 51.8445C79.6583 51.3168 79.5265 50.7232 79.5265 49.9976C79.5265 49.2721 79.6583 48.6784 79.9218 48.1508C80.1854 47.6231 80.5807 47.2273 81.1078 46.8975C81.6349 46.6337 82.2279 46.4358 82.9527 46.4358C83.6774 46.4358 84.2704 46.5677 84.7975 46.8975C85.3246 47.2273 85.7199 47.6231 85.9835 48.1508C86.247 48.6784 86.3788 49.2721 86.3788 49.9976C86.3788 50.7232 86.247 51.3168 85.9835 51.8445C85.7199 52.3722 85.3246 52.768 84.7975 53.0978C84.2704 53.4276 83.6774 53.5595 82.9527 53.5595ZM83.0185 52.8339C83.8092 52.8339 84.4022 52.5701 84.8634 52.1084C85.3246 51.6466 85.5223 50.9211 85.5223 49.9976C85.5223 49.0742 85.3246 48.4146 84.8634 47.9529C84.4022 47.4912 83.8092 47.2273 83.0185 47.2273C82.2279 47.2273 81.6349 47.4912 81.1737 47.9529C80.7125 48.4146 80.5148 49.1402 80.5148 49.9976C80.5148 50.8551 80.7125 51.5807 81.1737 52.1084C81.6349 52.5701 82.2279 52.8339 83.0185 52.8339Z" fill="white"/>
<path d="M91.0569 53.5595C90.4639 53.5595 89.9368 53.4935 89.5415 53.2956C89.1462 53.0978 88.8167 52.8339 88.6849 52.4382C88.4873 52.0424 88.4214 51.5807 88.4214 50.987V46.6996H89.3438V50.9211C89.3438 51.3828 89.3438 51.7126 89.5415 52.0424C89.7391 52.3722 89.8709 52.5701 90.1345 52.702C90.398 52.8339 90.7933 52.8999 91.1887 52.8999C91.584 52.8999 92.0452 52.8339 92.4405 52.636C92.77 52.4382 93.0335 52.1743 93.2971 51.8445C93.4948 51.5147 93.6265 51.119 93.6265 50.5913V46.6996H94.549V53.4935H93.6265V51.8445H93.8242C93.6265 52.4382 93.2971 52.8339 92.8359 53.1637C92.3747 53.4935 91.7817 53.6254 91.1887 53.6254L91.0569 53.5595Z" fill="white"/>
<path d="M96.9868 53.4276V46.6337H97.9093V48.2167H97.7775C97.9751 47.689 98.3046 47.2273 98.6999 46.9635C99.1611 46.6996 99.6882 46.5018 100.413 46.5018H100.808L100.874 47.2273H100.215C99.4906 47.3592 98.8976 47.5571 98.5022 47.9529C98.1069 48.3486 97.9093 48.8104 97.9093 49.47V53.4935L96.9868 53.4276Z" fill="white"/>
<path d="M111.153 53.5595C110.033 53.5595 109.044 53.3616 108.254 52.9658C107.463 52.5701 106.87 51.9764 106.475 51.2509C106.079 50.4594 105.882 49.6019 105.882 48.4806C105.882 47.3592 106.079 46.5018 106.475 45.7762C106.87 45.0506 107.463 44.457 108.188 44.0612C108.912 43.6655 109.835 43.4676 110.889 43.4676C111.943 43.4676 111.877 43.4676 112.339 43.5995C112.8 43.6655 113.195 43.8634 113.59 44.0612C113.986 44.2591 114.315 44.457 114.645 44.7868L114.249 45.5124C113.722 45.1166 113.195 44.7868 112.668 44.5889C112.141 44.391 111.548 44.3251 110.823 44.3251C109.505 44.3251 108.517 44.7208 107.858 45.4464C107.199 46.172 106.804 47.2273 106.804 48.6125C106.804 49.9976 107.133 51.053 107.858 51.7786C108.583 52.5041 109.637 52.8999 111.087 52.8999C112.536 52.8999 112.141 52.8999 112.602 52.768C113.129 52.702 113.59 52.5701 113.986 52.3722L113.722 52.9658V49.2721H110.823V48.5465H114.579V53.0318C114.315 53.1637 113.986 53.2956 113.59 53.3616C113.195 53.4276 112.734 53.5595 112.339 53.6254C111.877 53.6254 111.482 53.6914 111.021 53.6914L111.153 53.5595Z" fill="white"/>
<path d="M119.586 53.5595C119.059 53.5595 118.664 53.4935 118.203 53.2956C117.741 53.0978 117.478 52.8999 117.28 52.5701C117.017 52.2403 116.951 51.9105 116.951 51.5147C116.951 51.119 117.083 50.5913 117.346 50.3274C117.61 50.0636 118.071 49.8657 118.73 49.7338C119.389 49.6019 120.311 49.5359 121.431 49.5359H122.09V50.1955H121.431C120.772 50.1955 120.179 50.1955 119.718 50.1955C119.257 50.1955 118.862 50.3274 118.598 50.3934C118.334 50.4594 118.137 50.6572 118.005 50.7892C117.873 50.9211 117.873 51.1849 117.873 51.3828C117.873 51.7786 118.005 52.1743 118.334 52.4382C118.664 52.702 119.059 52.8339 119.652 52.8339C120.245 52.8339 120.509 52.768 120.838 52.5701C121.168 52.3722 121.431 52.1084 121.629 51.7786C121.827 51.4488 121.892 51.053 121.892 50.6572V49.0742C121.892 48.4146 121.761 48.0188 121.497 47.689C121.234 47.3592 120.772 47.2273 120.179 47.2273C119.586 47.2273 119.323 47.2273 118.862 47.4252C118.4 47.6231 118.005 47.755 117.544 48.0188L117.148 47.3592C117.412 47.1614 117.741 47.0294 118.005 46.8975C118.334 46.7656 118.664 46.6996 118.993 46.6337C119.323 46.5677 119.718 46.5018 120.048 46.5018C120.641 46.5018 121.168 46.5677 121.563 46.7656C121.958 46.9635 122.222 47.2273 122.419 47.6231C122.617 48.0188 122.683 48.4806 122.683 49.0742V53.4276H121.761V51.7786H121.892C121.827 52.1743 121.629 52.4382 121.365 52.702C121.102 52.9658 120.838 53.1637 120.509 53.2956C120.179 53.4276 119.784 53.4935 119.323 53.4935L119.586 53.5595Z" fill="white"/>
<path d="M128.218 53.5595C127.361 53.5595 126.768 53.3616 126.373 52.9658C125.977 52.5701 125.78 51.9764 125.78 51.1849V47.3592H124.264V46.6996H125.78V44.5889H126.702V46.6996H129.14V47.3592H126.702V51.119C126.702 51.7126 126.834 52.1084 127.097 52.4382C127.361 52.768 127.756 52.8999 128.349 52.8999C128.942 52.8999 128.679 52.8999 128.876 52.8999C129.008 52.8999 129.206 52.8339 129.338 52.768L129.535 53.4276C129.404 53.4276 129.272 53.5595 129.008 53.6254C128.745 53.6254 128.547 53.6914 128.283 53.6914L128.218 53.5595Z" fill="white"/>
<path d="M133.686 53.5595C132.896 53.5595 132.237 53.4276 131.71 53.1637C131.183 52.8999 130.721 52.5041 130.458 51.9764C130.194 51.4488 129.997 50.8551 129.997 50.1296C129.997 49.404 130.128 48.8104 130.458 48.2827C130.787 47.755 131.183 47.3592 131.71 47.0294C132.237 46.6996 132.83 46.5677 133.555 46.5677C134.279 46.5677 134.806 46.6996 135.268 46.9635C135.729 47.2273 136.124 47.6231 136.322 48.0848C136.585 48.5465 136.717 49.1402 136.717 49.8657V50.2615H130.721V49.6019H136.124L135.861 49.7998C135.861 49.0082 135.663 48.3486 135.268 47.8869C134.872 47.4252 134.279 47.2273 133.555 47.2273C132.83 47.2273 132.5 47.3592 132.105 47.5571C131.71 47.755 131.446 48.1508 131.248 48.5465C131.051 48.9423 130.985 49.47 130.985 49.9976C130.985 50.6572 131.117 51.1849 131.314 51.5807C131.512 51.9764 131.841 52.3062 132.237 52.5041C132.632 52.702 133.159 52.8339 133.752 52.8339C134.345 52.8339 134.675 52.8339 135.07 52.636C135.465 52.5041 135.861 52.3062 136.256 51.9764L136.651 52.636C136.322 52.8999 135.926 53.1637 135.399 53.2956C134.872 53.4276 134.345 53.5595 133.818 53.5595H133.686Z" fill="white"/>
<path d="M140.473 53.4276L137.771 46.6337H138.76L141.132 52.9658H140.736L143.24 46.6337H144.162L146.6 52.9658H146.205L148.643 46.6337H149.631L146.93 53.4276H145.941L143.438 47.0294H144.031L141.461 53.4276H140.473Z" fill="white"/>
<path d="M153.584 53.5595C153.057 53.5595 152.662 53.4935 152.201 53.2956C151.74 53.0978 151.476 52.8999 151.278 52.5701C151.015 52.2403 150.949 51.9105 150.949 51.5147C150.949 51.119 151.081 50.5913 151.344 50.3274C151.608 50.0636 152.069 49.8657 152.728 49.7338C153.387 49.6019 154.309 49.5359 155.429 49.5359H156.088V50.1955H155.429C154.77 50.1955 154.177 50.1955 153.716 50.1955C153.255 50.1955 152.86 50.3274 152.596 50.3934C152.332 50.4594 152.135 50.6572 152.003 50.7892C151.871 50.9211 151.871 51.1849 151.871 51.3828C151.871 51.7786 152.003 52.1743 152.332 52.4382C152.662 52.702 153.057 52.8339 153.65 52.8339C154.243 52.8339 154.507 52.768 154.836 52.5701C155.166 52.3722 155.429 52.1084 155.627 51.7786C155.825 51.4488 155.89 51.053 155.89 50.6572V49.0742C155.89 48.4146 155.759 48.0188 155.495 47.689C155.232 47.3592 154.77 47.2273 154.177 47.2273C153.584 47.2273 153.321 47.2273 152.86 47.4252C152.398 47.6231 152.003 47.755 151.542 48.0188L151.147 47.3592C151.41 47.1614 151.739 47.0294 152.003 46.8975C152.332 46.7656 152.662 46.6996 152.991 46.6337C153.321 46.5677 153.716 46.5018 154.046 46.5018C154.639 46.5018 155.166 46.5677 155.561 46.7656C155.956 46.9635 156.22 47.2273 156.418 47.6231C156.615 48.0188 156.681 48.4806 156.681 49.0742V53.4276H155.759V51.7786H155.89C155.825 52.1743 155.627 52.4382 155.363 52.702C155.1 52.9658 154.836 53.1637 154.507 53.2956C154.177 53.4276 153.782 53.4935 153.321 53.4935L153.584 53.5595Z" fill="white"/>
<path d="M160.173 56L161.491 53.2297V53.6254L158.197 46.6337H159.251L162.084 52.8999H161.689L164.522 46.6337H165.51L161.096 56H160.107H160.173Z" fill="white"/>
<path d="M173.812 53.5595C172.955 53.5595 172.362 53.3616 171.967 52.9658C171.572 52.5701 171.374 51.9764 171.374 51.1849V47.3592H169.859V46.6996H171.374V44.5889H172.296V46.6996H174.734V47.3592H172.296V51.119C172.296 51.7126 172.428 52.1084 172.692 52.4382C172.955 52.768 173.351 52.8999 173.944 52.8999C174.537 52.8999 174.273 52.8999 174.471 52.8999C174.603 52.8999 174.8 52.8339 174.932 52.768L175.13 53.4276C174.998 53.4276 174.866 53.5595 174.603 53.6254C174.339 53.6254 174.141 53.6914 173.878 53.6914L173.812 53.5595Z" fill="white"/>
<path d="M179.083 53.5595C178.358 53.5595 177.765 53.4276 177.238 53.0978C176.711 52.8339 176.316 52.3722 176.052 51.8445C175.789 51.3168 175.657 50.7232 175.657 49.9976C175.657 49.2721 175.789 48.6784 176.052 48.1508C176.316 47.6231 176.711 47.2273 177.238 46.8975C177.765 46.6337 178.358 46.4358 179.083 46.4358C179.808 46.4358 180.401 46.5677 180.928 46.8975C181.455 47.2273 181.85 47.6231 182.114 48.1508C182.377 48.6784 182.509 49.2721 182.509 49.9976C182.509 50.7232 182.377 51.3168 182.114 51.8445C181.85 52.3722 181.455 52.768 180.928 53.0978C180.401 53.4276 179.808 53.5595 179.083 53.5595ZM179.083 52.8339C179.874 52.8339 180.467 52.5701 180.928 52.1084C181.389 51.6466 181.587 50.9211 181.587 49.9976C181.587 49.0742 181.389 48.4146 180.928 47.9529C180.467 47.4912 179.874 47.2273 179.083 47.2273C178.292 47.2273 177.699 47.4912 177.238 47.9529C176.777 48.4146 176.579 49.1402 176.579 49.9976C176.579 50.8551 176.777 51.5807 177.238 52.1084C177.699 52.5701 178.292 52.8339 179.083 52.8339Z" fill="white"/>
<path d="M191.997 53.5595C191.404 53.5595 190.877 53.5595 190.416 53.4276C189.954 53.2956 189.493 53.2297 189.098 53.0318C188.703 52.8339 188.307 52.636 187.978 52.3722L188.373 51.6466C188.703 51.9105 189.098 52.1084 189.427 52.3062C189.757 52.5041 190.152 52.5701 190.613 52.702C191.009 52.768 191.536 52.8339 191.997 52.8339C192.985 52.8339 193.71 52.636 194.171 52.3062C194.632 51.9764 194.896 51.5147 194.896 50.9211C194.896 50.3274 194.83 50.3274 194.632 50.1296C194.501 49.9317 194.237 49.7338 193.908 49.6019C193.578 49.47 193.117 49.338 192.59 49.2061L191.009 48.9423C190.02 48.7444 189.296 48.4806 188.834 48.0188C188.373 47.6231 188.11 47.0294 188.11 46.3039C188.11 45.5783 188.241 45.2485 188.571 44.7868C188.9 44.3251 189.361 43.9953 189.954 43.7974C190.547 43.5336 191.206 43.4676 191.931 43.4676C192.656 43.4676 192.919 43.4676 193.315 43.5995C193.776 43.6655 194.171 43.7974 194.501 43.9953C194.83 44.1932 195.225 44.391 195.489 44.6549L195.094 45.3804C194.632 44.9847 194.105 44.6549 193.578 44.523C193.051 44.3251 192.458 44.2591 191.865 44.2591C191.272 44.2591 190.811 44.3251 190.35 44.523C189.889 44.7208 189.559 44.9187 189.361 45.2485C189.164 45.5783 189.032 45.9081 189.032 46.3698C189.032 46.8316 189.164 47.2273 189.559 47.5571C189.889 47.821 190.416 48.0848 191.14 48.2167L192.722 48.4806C193.776 48.6784 194.567 48.9423 195.028 49.338C195.489 49.7338 195.753 50.2615 195.753 50.9211C195.753 51.5807 195.621 51.9105 195.291 52.3062C194.962 52.702 194.501 53.0318 193.908 53.2297C193.315 53.4276 192.656 53.5595 191.799 53.5595H191.997Z" fill="white"/>
<path d="M200.101 53.5595C199.574 53.5595 199.179 53.4935 198.717 53.2956C198.256 53.0978 197.993 52.8999 197.795 52.5701C197.531 52.2403 197.466 51.9105 197.466 51.5147C197.466 51.119 197.597 50.5913 197.861 50.3274C198.124 50.0636 198.586 49.8657 199.245 49.7338C199.903 49.6019 200.826 49.5359 201.946 49.5359H202.605V50.1955H201.946C201.287 50.1955 200.694 50.1955 200.233 50.1955C199.772 50.1955 199.376 50.3274 199.113 50.3934C198.849 50.4594 198.652 50.6572 198.52 50.7892C198.388 50.9211 198.388 51.1849 198.388 51.3828C198.388 51.7786 198.52 52.1743 198.849 52.4382C199.179 52.702 199.574 52.8339 200.167 52.8339C200.76 52.8339 201.024 52.768 201.353 52.5701C201.682 52.3722 201.946 52.1084 202.144 51.7786C202.341 51.4488 202.407 51.053 202.407 50.6572V49.0742C202.407 48.4146 202.275 48.0188 202.012 47.689C201.748 47.3592 201.287 47.2273 200.694 47.2273C200.101 47.2273 199.838 47.2273 199.376 47.4252C198.915 47.6231 198.52 47.755 198.059 48.0188L197.663 47.3592C197.927 47.1614 198.256 47.0294 198.52 46.8975C198.849 46.7656 199.179 46.6996 199.508 46.6337C199.838 46.5677 200.233 46.5018 200.562 46.5018C201.155 46.5018 201.682 46.5677 202.078 46.7656C202.473 46.9635 202.737 47.2273 202.934 47.6231C203.132 48.0188 203.198 48.4806 203.198 49.0742V53.4276H202.275V51.7786H202.407C202.341 52.1743 202.144 52.4382 201.88 52.702C201.616 52.9658 201.353 53.1637 201.024 53.2956C200.694 53.4276 200.299 53.4935 199.838 53.4935L200.101 53.5595Z" fill="white"/>
<path d="M208.469 53.5595C207.876 53.5595 207.349 53.4935 206.953 53.2956C206.558 53.0978 206.229 52.8339 206.097 52.4382C205.899 52.0424 205.833 51.5807 205.833 50.987V46.6996H206.756V50.9211C206.756 51.3828 206.756 51.7126 206.953 52.0424C207.151 52.3722 207.283 52.5701 207.546 52.702C207.81 52.8339 208.205 52.8999 208.601 52.8999C208.996 52.8999 209.457 52.8339 209.853 52.636C210.182 52.4382 210.446 52.1743 210.709 51.8445C210.907 51.5147 211.039 51.119 211.039 50.5913V46.6996H211.961V53.4935H211.039V51.8445H211.236C211.039 52.4382 210.709 52.8339 210.248 53.1637C209.787 53.4935 209.194 53.6254 208.601 53.6254L208.469 53.5595Z" fill="white"/>
<path d="M217.232 53.5595C216.573 53.5595 215.98 53.4276 215.453 53.0978C214.926 52.8339 214.596 52.3722 214.267 51.8445C214.003 51.3168 213.872 50.6572 213.872 49.9976C213.872 49.338 214.003 48.6784 214.267 48.1508C214.531 47.6231 214.926 47.2273 215.387 46.8975C215.914 46.6337 216.507 46.4358 217.166 46.4358C217.825 46.4358 218.484 46.5677 218.945 46.8975C219.472 47.2273 219.736 47.689 219.933 48.2167H219.736V43.4676H220.658V53.3616H219.736V51.6466H219.867C219.67 52.1743 219.34 52.636 218.879 52.9658C218.418 53.2956 217.759 53.4276 217.1 53.4276L217.232 53.5595ZM217.364 52.8339C218.154 52.8339 218.747 52.5701 219.209 52.1084C219.67 51.6466 219.867 50.9211 219.867 49.9976C219.867 49.0742 219.67 48.4146 219.209 47.9529C218.747 47.4912 218.154 47.2273 217.364 47.2273C216.573 47.2273 215.98 47.4912 215.585 47.9529C215.124 48.4146 214.926 49.1402 214.926 49.9976C214.926 50.8551 215.124 51.5807 215.585 52.1084C216.046 52.5701 216.639 52.8339 217.364 52.8339Z" fill="white"/>
<path d="M223.096 44.8528V43.7974H224.348V44.8528H223.096ZM223.228 53.4276V46.6337H224.15V53.4276H223.228Z" fill="white"/>
<path d="M229.75 53.4276L234.494 43.5336H235.351L240.095 53.4276H239.107L237.789 50.5913L238.316 50.7892H231.595L232.122 50.5913L230.805 53.4276H229.75ZM234.89 44.5889L232.254 50.1955L231.925 49.9976H237.921L237.591 50.1955L234.956 44.5889H234.89Z" fill="white"/>
<path d="M241.742 53.4276V46.6337H242.665V48.2167H242.533C242.73 47.689 243.06 47.2273 243.455 46.9635C243.916 46.6996 244.444 46.5018 245.168 46.5018H245.564L245.63 47.2273H244.971C244.246 47.3592 243.653 47.5571 243.258 47.9529C242.862 48.3486 242.665 48.8104 242.665 49.47V53.4935H241.676L241.742 53.4276Z" fill="white"/>
<path d="M249.253 53.5595C248.726 53.5595 248.331 53.4935 247.87 53.2956C247.409 53.0978 247.145 52.8999 246.947 52.5701C246.684 52.2403 246.618 51.9105 246.618 51.5147C246.618 51.119 246.75 50.5913 247.013 50.3274C247.277 50.0636 247.738 49.8657 248.397 49.7338C249.056 49.6019 249.978 49.5359 251.098 49.5359H251.757V50.1955H251.098C250.439 50.1955 249.846 50.1955 249.385 50.1955C248.924 50.1955 248.529 50.3274 248.265 50.3934C248.002 50.4594 247.804 50.6572 247.672 50.7892C247.54 50.9211 247.54 51.1849 247.54 51.3828C247.54 51.7786 247.672 52.1743 248.002 52.4382C248.331 52.702 248.726 52.8339 249.319 52.8339C249.912 52.8339 250.176 52.768 250.505 52.5701C250.835 52.3722 251.098 52.1084 251.296 51.7786C251.494 51.4488 251.56 51.053 251.56 50.6572V49.0742C251.56 48.4146 251.428 48.0188 251.164 47.689C250.901 47.3592 250.439 47.2273 249.846 47.2273C249.253 47.2273 248.99 47.2273 248.529 47.4252C248.067 47.6231 247.672 47.755 247.211 48.0188L246.816 47.3592C247.079 47.1614 247.409 47.0294 247.672 46.8975C248.002 46.7656 248.331 46.6996 248.66 46.6337C248.99 46.5677 249.385 46.5018 249.715 46.5018C250.308 46.5018 250.835 46.5677 251.23 46.7656C251.625 46.9635 251.889 47.2273 252.087 47.6231C252.284 48.0188 252.35 48.4806 252.35 49.0742V53.4276H251.428V51.7786H251.56C251.494 52.1743 251.296 52.4382 251.032 52.702C250.769 52.9658 250.505 53.1637 250.176 53.2956C249.846 53.4276 249.451 53.4935 248.99 53.4935L249.253 53.5595Z" fill="white"/>
<path d="M258.544 53.5595C257.819 53.5595 257.226 53.4276 256.765 53.0978C256.303 52.768 255.908 52.3062 255.776 51.7786H255.974V53.4935H255.052V43.5995H255.974V48.3486H255.776C255.974 47.821 256.303 47.3592 256.765 47.0294C257.292 46.6996 257.885 46.5677 258.544 46.5677C259.202 46.5677 259.795 46.6996 260.323 47.0294C260.85 47.2933 261.179 47.755 261.443 48.2827C261.706 48.8104 261.838 49.404 261.838 50.1296C261.838 50.8551 261.706 51.4488 261.443 51.9764C261.179 52.5041 260.784 52.8999 260.257 53.2297C259.73 53.5595 259.202 53.6914 258.478 53.6914L258.544 53.5595ZM258.412 52.8339C259.202 52.8339 259.795 52.5701 260.257 52.1084C260.718 51.6466 260.916 50.9211 260.916 49.9976C260.916 49.0742 260.718 48.4146 260.257 47.9529C259.795 47.4912 259.202 47.2273 258.412 47.2273C257.621 47.2273 257.028 47.4912 256.567 47.9529C256.106 48.4146 255.908 49.1402 255.908 49.9976C255.908 50.8551 256.106 51.5807 256.567 52.1084C257.028 52.5701 257.621 52.8339 258.412 52.8339Z" fill="white"/>
<path d="M263.683 44.8528V43.7974H264.935V44.8528H263.683ZM263.881 53.4276V46.6337H264.803V53.4276H263.881Z" fill="white"/>
<path d="M269.613 53.5595C269.086 53.5595 268.69 53.4935 268.229 53.2956C267.768 53.0978 267.504 52.8999 267.307 52.5701C267.043 52.2403 266.977 51.9105 266.977 51.5147C266.977 51.119 267.109 50.5913 267.373 50.3274C267.636 50.0636 268.097 49.8657 268.756 49.7338C269.415 49.6019 270.338 49.5359 271.458 49.5359H272.117V50.1955H271.458C270.799 50.1955 270.206 50.1955 269.745 50.1955C269.283 50.1955 268.888 50.3274 268.624 50.3934C268.361 50.4594 268.163 50.6572 268.031 50.7892C267.9 50.9211 267.9 51.1849 267.9 51.3828C267.9 51.7786 268.031 52.1743 268.361 52.4382C268.69 52.702 269.086 52.8339 269.679 52.8339C270.272 52.8339 270.535 52.768 270.865 52.5701C271.194 52.3722 271.458 52.1084 271.655 51.7786C271.853 51.4488 271.919 51.053 271.919 50.6572V49.0742C271.919 48.4146 271.787 48.0188 271.524 47.689C271.26 47.3592 270.799 47.2273 270.206 47.2273C269.613 47.2273 269.349 47.2273 268.888 47.4252C268.427 47.6231 268.031 47.755 267.57 48.0188L267.175 47.3592C267.439 47.1614 267.768 47.0294 268.031 46.8975C268.361 46.7656 268.69 46.6996 269.02 46.6337C269.349 46.5677 269.745 46.5018 270.074 46.5018C270.667 46.5018 271.194 46.5677 271.589 46.7656C271.985 46.9635 272.248 47.2273 272.446 47.6231C272.644 48.0188 272.71 48.4806 272.71 49.0742V53.4276H271.787V51.7786H271.919C271.853 52.1743 271.655 52.4382 271.392 52.702C271.128 52.9658 270.865 53.1637 270.535 53.2956C270.206 53.4276 269.81 53.4935 269.349 53.4935L269.613 53.5595Z" fill="white"/>
</g>
<defs>
<clipPath id="clip0_58_317">
<rect width="344" height="56" fill="white"/>
</clipPath>
</defs>
</svg>
