<svg width="150" height="100" viewBox="0 0 150 100" fill="none" xmlns="http://www.w3.org/2000/svg">
<g clip-path="url(#clip0_58_74)">
<path d="M89.1531 4.66495H91.159V2.65503H89.1531V4.66495Z" fill="black"/>
<path d="M92.1743 4.66495H94.1803V2.65503H92.1743V4.66495Z" fill="black"/>
<path d="M124.195 24.7394H126.201V22.7295H124.195V24.7394Z" fill="black"/>
<path d="M120.183 24.7394H122.189V22.7295H120.183V24.7394Z" fill="black"/>
<path d="M143.957 20.8685C144.354 20.6948 144.7 20.397 144.948 20.0248C145.22 19.6278 145.394 19.1563 145.493 18.6848C145.617 18.0893 145.666 17.4938 145.641 16.8982V5.16125H143.957V16.8982C143.957 17.2952 143.933 17.6923 143.883 18.0893C143.833 18.3622 143.759 18.6352 143.635 18.8833C143.512 19.0819 143.363 19.2307 143.165 19.33C142.917 19.4292 142.645 19.4789 142.372 19.4789C142.249 19.4789 142.1 19.4789 141.976 19.4541C141.828 19.4292 141.654 19.4044 141.506 19.3548L141.06 20.9677C141.506 21.0918 141.976 21.1414 142.447 21.1414C142.942 21.191 143.462 21.0918 143.957 20.8685Z" fill="black"/>
<path d="M134.481 0H138.171V3.47395H134.481V0Z" fill="black"/>
<path d="M138.171 0H134.481V3.47395H138.171V0Z" fill="black"/>
<mask id="mask0_58_74" style="mask-type:luminance" maskUnits="userSpaceOnUse" x="134" y="0" width="5" height="4">
<path d="M138.171 0H134.481V3.47395H138.171V0Z" fill="white"/>
</mask>
<g mask="url(#mask0_58_74)">
<path d="M138.171 2.1836H135.843V1.81139C135.843 1.6377 135.868 1.464 135.992 1.31511C136.14 1.19105 136.338 1.14142 136.512 1.16623H137.676V-2.18307e-05H136.487C135.942 -0.0496496 135.397 0.148862 135.001 0.496256C134.629 0.942906 134.431 1.53844 134.481 2.10916V3.49874H138.171V2.1836Z" fill="black"/>
</g>
<path d="M133.457 21.1787C132.962 21.1787 132.442 21.1291 131.971 21.005C131.377 20.8561 130.807 20.6824 130.262 20.4591L130.782 18.8462C131.228 19.0695 131.724 19.2184 132.194 19.3425C132.64 19.4418 133.135 19.4914 133.581 19.4914C134.324 19.541 135.067 19.3425 135.711 18.9207C136.256 18.4492 136.528 17.7544 136.478 17.0348V15.3723L135.909 16.5633H135.438C134.547 16.5633 133.63 16.4641 132.764 16.2408C131.971 16.0422 131.228 15.6949 130.535 15.2482C129.891 14.8016 129.371 14.206 129.024 13.5112C128.306 11.9728 128.281 10.211 128.975 8.67252C129.321 7.97773 129.817 7.35738 130.411 6.86111C131.055 6.3152 131.798 5.91818 132.615 5.67004C133.531 5.37227 134.497 5.22339 135.463 5.22339H138.162V16.9355C138.237 18.077 137.816 19.2184 137.048 20.0869C136.057 20.881 134.77 21.278 133.457 21.1787ZM134.72 6.86111C134.151 6.86111 133.606 6.96036 133.061 7.15887C131.996 7.50627 131.08 8.2755 130.56 9.26805C130.312 9.78914 130.163 10.3599 130.163 10.9306C130.114 12.072 130.634 13.139 131.525 13.8586C131.971 14.206 132.467 14.4542 132.987 14.6279C133.556 14.8016 134.151 14.9008 134.77 14.9008H136.478V7.35738L137.444 6.88592H134.72V6.86111Z" fill="black"/>
<path d="M125.73 20.9802H94.9727C94.4526 21.005 93.9078 20.9057 93.4372 20.6824C93.041 20.5087 92.6943 20.2109 92.4467 19.8387C92.4219 19.7891 92.3971 19.7395 92.3724 19.6898L92.3476 19.6402V20.9057H88.831C86.7012 20.9305 84.6705 20.0869 83.1846 18.5732C81.7731 17.0844 81.0054 15.1241 81.0301 13.0645V13.0149C81.0054 10.9554 81.7978 8.97024 83.2094 7.48141C84.6953 5.94295 86.7508 5.07446 88.8805 5.12409H93.4372V16.737C93.4372 17.134 93.462 17.531 93.5115 17.9281C93.5611 18.201 93.6354 18.474 93.7592 18.7221C93.883 18.9206 94.0316 19.0695 94.2297 19.1688C94.4774 19.268 94.7498 19.3176 95.0222 19.3176H124.022V5.17371H125.706L125.73 20.9802ZM88.831 6.7618C85.5125 6.7618 82.8379 9.44171 82.8132 12.742V13.0397C82.7141 16.4144 85.3639 19.2184 88.7319 19.3424H92.1495C92.0257 19.0695 91.9514 18.7965 91.9018 18.4988C91.778 17.9032 91.7285 17.3077 91.7532 16.7122V7.25808L92.7934 6.73699L88.831 6.7618Z" fill="black"/>
<path d="M72.6102 16.7619L73.3532 18.6973L62.63 5.12415H60.946V20.881H62.6796V9.01993L61.689 6.71223L72.9074 20.881H74.319V5.14896H72.5855L72.6102 16.7619Z" fill="black"/>
<path d="M96.6321 46.067L106.365 36.8362V30.4839H80.3616V37.7047H93.6851L98.638 34.5534L86.3052 46.8859L87.6177 52.2457H91.1343C95.8644 52.2457 98.6628 53.9826 98.6628 57.1092V57.2085C98.6628 60.062 96.4092 61.8486 93.2393 61.8486C89.3512 61.8486 86.6024 60.2109 83.9525 57.2581L78.1328 62.7916C81.8475 67.1836 87.3701 69.6402 93.1155 69.4169C101.684 69.4169 106.959 64.1067 106.959 56.8859V56.7866C106.959 49.665 101.857 46.9603 96.6321 46.067Z" fill="black"/>
<path d="M49.9258 21.1787C47.7217 21.2283 45.6167 20.335 44.1061 18.747C42.6697 17.2085 41.8773 15.1738 41.8773 13.0646V13.0149C41.8525 10.9058 42.645 8.84621 44.1061 7.30775C45.6415 5.71966 47.7465 4.85117 49.9506 4.87599C52.1546 4.82636 54.2596 5.71966 55.7703 7.28293C57.2066 8.8214 57.9991 10.8561 57.9991 12.9653V13.0149C58.0239 15.1241 57.2314 17.1837 55.7703 18.7221C54.2596 20.3102 52.1299 21.2035 49.9258 21.1787ZM49.9258 6.53852C46.5083 6.53852 43.7346 9.29286 43.7099 12.7172V13.0149C43.6108 16.5137 46.3349 19.4169 49.8267 19.5162H49.9753C53.3929 19.5162 56.1665 16.7618 56.1913 13.3375V13.0149C56.2903 9.51619 53.5662 6.61296 50.0744 6.5137H49.9258V6.53852Z" fill="black"/>
<path d="M129.519 69.4169C124.071 69.4914 118.821 67.4318 114.883 63.6601C111.169 59.9877 109.089 54.9753 109.138 49.7395V49.6155C109.113 44.3797 111.194 39.3425 114.933 35.6452C123.18 27.9033 135.983 27.8785 144.254 35.5956C147.969 39.2681 150.049 44.2805 150 49.4914V49.5906C150.025 54.8264 147.944 59.8636 144.205 63.5609C140.292 67.3822 134.992 69.4914 129.519 69.4169ZM129.519 37.6055C123.18 37.5559 118.004 42.6676 117.979 49.0199C117.979 49.1936 117.979 49.3673 117.979 49.5162V49.6155C117.806 56.0919 122.907 61.4765 129.371 61.6254C129.371 61.6254 129.371 61.6254 129.396 61.6254H129.643C135.983 61.675 141.159 56.5633 141.184 50.211C141.184 50.0373 141.184 49.8636 141.184 49.7147V49.5906C141.357 43.1142 136.255 37.7296 129.792 37.5807C129.792 37.5807 129.792 37.5807 129.767 37.5807C129.668 37.6055 129.594 37.6055 129.519 37.6055Z" fill="black"/>
<path d="M37.0232 20.9058H38.831V5.14893H37.0232V20.9058Z" fill="black"/>
<path d="M8.32085 64.3798L9.95532 63.1143L18.3506 56.6626C25.1609 51.4269 28.4546 48.2507 28.4546 41.8736V41.7743C28.4546 34.6031 23.1797 29.9629 15.2302 29.9629C8.37038 29.9629 4.68043 32.742 0.891428 37.8785L6.8102 42.6428C9.65814 39.144 11.7136 37.5063 14.6854 37.5063C17.7067 37.5063 19.8612 39.2433 19.8612 42.4939C19.8612 45.6453 17.9791 47.7296 13.2243 51.675L0.420898 62.0969V68.747H28.8508V61.4765H14.1653L8.32085 64.3798Z" fill="black"/>
<path d="M8.39525 21.005L15.2055 5.14893H13.2987L7.89995 18.077L8.0733 19.8139L7.6523 18.7221L2.97177 7.48143L1.98118 5.14893H0L6.8103 21.005H8.39525Z" fill="black"/>
<path d="M17.6572 20.9058H19.4651V5.14893H17.6572V20.9058Z" fill="black"/>
<path d="M28.9005 12.1713C25.4086 11.4269 24.6162 10.5832 24.6162 9.11918V9.06955C24.6162 7.65516 25.9287 6.53854 27.9842 6.53854C29.6682 6.53854 31.2779 7.13407 32.5656 8.25069L33.6058 6.88593C32.0456 5.57079 30.0644 4.90082 28.0337 4.95045C25.0124 4.95045 22.8331 6.76186 22.8331 9.24325V9.29288C22.8331 11.8735 24.5171 13.0646 28.1327 13.8338C31.476 14.5286 32.2437 15.3723 32.2437 16.8363V16.8859C32.2437 18.4492 30.8569 19.5658 28.7023 19.5658C26.6716 19.5906 24.7152 18.7966 23.2789 17.3574L22.1892 18.6725C23.9475 20.3102 26.2506 21.2284 28.6528 21.2035C31.7979 21.2035 34.0515 19.4418 34.0515 16.737V16.6874C34.0763 14.2308 32.4418 12.9405 28.9005 12.1713Z" fill="black"/>
<path d="M7.82568 88.8462H8.81675V87.8536H7.82568V88.8462Z" fill="black"/>
<path d="M74.5419 86.7123H63.5959C63.0758 86.7123 62.5805 86.6378 62.0853 86.5138C61.6395 86.3897 61.2185 86.1912 60.8223 85.943C60.4508 85.6701 60.1536 85.3475 59.9555 84.9505C59.7326 84.5038 59.6335 83.9827 59.6335 83.4865C59.6335 83.0398 59.7326 82.5932 59.906 82.1961C60.0793 81.7991 60.3517 81.4269 60.6984 81.154C61.0699 80.8562 61.4909 80.6329 61.9614 80.484C62.4815 80.3103 63.0511 80.2358 63.5959 80.2358H65.1065V85.7942H68.9451V80.2358H69.9109V85.7942H73.5513V80.2358H74.5171L74.5419 86.7123ZM63.1997 81.154C62.8777 81.154 62.5558 81.2036 62.2338 81.3028C61.9367 81.4021 61.6395 81.551 61.3918 81.7743C61.1442 81.9728 60.9461 82.2458 60.7975 82.5187C60.6489 82.8165 60.5746 83.1391 60.5746 83.4616C60.5746 83.7842 60.6489 84.1316 60.7727 84.4294C60.8965 84.7023 61.0947 84.9505 61.3423 85.149C61.59 85.3475 61.8624 85.5212 62.1843 85.6205C62.5063 85.7197 62.853 85.7693 63.1997 85.7693H64.1655V81.1788H63.1997V81.154Z" fill="black"/>
<path d="M53.9128 86.7122H54.8791V78.1018H53.9128V86.7122Z" fill="black"/>
<path d="M64.1406 79.0944H65.1317V78.1018H64.1406V79.0944Z" fill="black"/>
<path d="M73.5759 88.8462H74.567V87.8536H73.5759V88.8462Z" fill="black"/>
<path d="M9.53442 88.8462H10.5255V87.8536H9.53442V88.8462Z" fill="black"/>
<path d="M21.5454 89.3673C21.2482 89.3673 20.9758 89.3425 20.6787 89.2681C20.3567 89.1936 20.01 89.0944 19.6881 88.9703L19.9852 88.0522C20.2577 88.1763 20.5301 88.2755 20.8025 88.3252C21.0749 88.3748 21.3225 88.3996 21.595 88.3996C22.016 88.4244 22.4617 88.3252 22.8084 88.077C23.1304 87.8041 23.279 87.407 23.2542 86.9852V86.7122H22.6846C22.1645 86.7122 21.6445 86.6626 21.1492 86.5385C20.6787 86.4145 20.2577 86.216 19.8614 85.9678C19.4899 85.6949 19.1928 85.3723 18.9699 84.9753C18.747 84.5286 18.6479 84.0075 18.6479 83.5113C18.6479 83.0646 18.747 82.5931 18.9451 82.1961C19.1432 81.7991 19.4157 81.4269 19.7624 81.1539C20.1338 80.8562 20.5548 80.608 21.0254 80.4591C21.5454 80.2854 22.115 80.1862 22.6598 80.211H24.22V85.7693H27.5633L25.8545 81.7495C26.1269 81.5261 26.3745 81.3028 26.647 81.1043C26.9194 80.9058 27.2413 80.7321 27.5385 80.5832C27.8357 80.4343 28.1576 80.3351 28.4795 80.2358C29.0987 80.0869 29.7425 80.0869 30.3617 80.2358C30.6836 80.3103 31.0056 80.4343 31.3027 80.5832C31.5999 80.7321 31.8971 80.9058 32.1943 81.1043C32.4914 81.3028 32.7638 81.5013 33.0115 81.7495L31.3027 85.7693H36.3795V80.8065H37.3453V85.7693H39.2274C39.4503 85.7693 39.6484 85.7445 39.8466 85.6701C40.0447 85.5956 40.218 85.5212 40.3666 85.3971C40.5152 85.2482 40.639 85.0745 40.7381 84.9008C40.8372 84.6527 40.8867 84.4046 40.8867 84.1316V80.8065H41.8525V84.206C41.8525 84.4294 41.902 84.6527 42.0011 84.876C42.1002 85.0745 42.2487 85.2482 42.3973 85.4219C42.5707 85.5708 42.7688 85.6949 42.9917 85.7941C43.2393 85.8934 43.5117 85.9182 43.7594 85.943C44.2547 85.9926 44.75 85.7941 45.1214 85.4467C45.4434 85.0745 45.592 84.6031 45.5672 84.1316V80.881H46.533V83.9827C46.533 84.2805 46.5083 84.5783 46.4587 84.876C46.6321 85.1986 46.9045 85.4467 47.2265 85.5956C47.6475 85.7693 48.0932 85.8438 48.5637 85.8438H50.1487V78.1763H51.1145V86.7867H48.3161V86.7122C48.0685 86.7122 47.8456 86.6874 47.6227 86.6378C47.375 86.5882 47.1522 86.4889 46.954 86.3897C46.7807 86.2904 46.6321 86.1663 46.4835 86.0175C46.3597 85.8934 46.2606 85.7693 46.1863 85.6204C45.9882 86.0175 45.6415 86.34 45.2453 86.5385C44.7747 86.7619 44.2794 86.8611 43.7594 86.8363C43.2641 86.8611 42.7688 86.7371 42.323 86.5137C41.9268 86.3152 41.6049 85.9926 41.3572 85.6204C41.1343 85.9678 40.8372 86.2408 40.4904 86.4145C40.0942 86.613 39.6732 86.7122 39.2274 86.7122H24.22V86.8859C24.2448 87.5559 24.0219 88.2011 23.5761 88.6974C23.0313 89.1936 22.2884 89.4418 21.5454 89.3673ZM29.4454 81.1788C29.0244 81.1788 28.6281 81.2532 28.2319 81.4021C27.8109 81.5758 27.4147 81.7991 27.0927 82.0969L28.6034 85.7693H30.3121L31.8228 82.0969C31.5008 81.8239 31.1294 81.6006 30.7331 81.4517C30.3369 81.2532 29.8911 81.1788 29.4454 81.1788ZM22.3131 81.1788C21.9912 81.1788 21.6445 81.2284 21.3225 81.3276C21.0254 81.4269 20.7282 81.6006 20.4805 81.7991C20.2329 81.9976 20.0348 82.2706 19.8862 82.5435C19.589 83.1391 19.589 83.8338 19.8614 84.4542C19.9852 84.7271 20.1834 84.9753 20.431 85.149C20.6787 85.3475 20.9758 85.4964 21.273 85.5956C21.595 85.6949 21.9417 85.7445 22.2884 85.7445H23.2542V81.1788H22.3131Z" fill="black"/>
<path d="M4.53198 79.0944H5.52305V78.1018H4.53198V79.0944Z" fill="black"/>
<path d="M102.179 79.0944H103.17V78.1018H102.179V79.0944Z" fill="black"/>
<path d="M93.6355 86.7122H94.6018V78.1018H93.6355V86.7122Z" fill="black"/>
<path d="M62.4565 79.0944H63.4476V78.1018H62.4565V79.0944Z" fill="black"/>
<path d="M17.162 82.9406C17.162 82.5683 17.1124 82.221 17.0134 81.8736C16.9143 81.551 16.7657 81.278 16.5429 81.0299C16.2952 80.7569 15.998 80.5584 15.6761 80.3847C15.3046 80.2358 14.9084 80.1614 14.5121 80.1862H13.794V81.154H14.636C14.8589 81.154 15.0817 81.2036 15.3046 81.3028C15.5027 81.4021 15.6761 81.5262 15.8247 81.6999C15.9733 81.8487 16.0723 82.0473 16.0971 82.2706C16.1466 82.5187 16.1714 82.742 16.1714 82.9902V85.7693H11.689V86.7371H17.1867L17.162 82.9406Z" fill="black"/>
<path d="M144.7 86.7122H145.667V78.1018H144.7V86.7122Z" fill="black"/>
<path d="M103.863 79.0944H104.854V78.1018H103.863V79.0944Z" fill="black"/>
<path d="M134.374 87.804C133.878 87.804 133.408 87.7048 132.987 87.5063C132.566 87.3077 132.194 87.0348 131.872 86.7122H127.613C127.291 87.0596 126.895 87.3326 126.449 87.5063C126.003 87.7048 125.508 87.804 125.012 87.7792C124.517 87.7792 124.047 87.68 123.626 87.4814C123.205 87.2829 122.833 87.01 122.511 86.6874H103.368C102.848 86.6874 102.353 86.613 101.857 86.4889C101.412 86.3648 100.991 86.1663 100.594 85.9182C100.223 85.6452 99.9258 85.3226 99.7277 84.9256C99.5048 84.479 99.4058 83.9579 99.4058 83.4616C99.4058 83.0149 99.5048 82.5683 99.6782 82.1713C99.8515 81.7742 100.124 81.402 100.471 81.1291C100.842 80.8313 101.263 80.608 101.734 80.4591C102.254 80.2854 102.823 80.211 103.368 80.211H104.879V85.7693H113.794V84.3053C113.794 84.0571 113.769 83.8338 113.72 83.6105C113.67 83.412 113.571 83.2135 113.447 83.0398C113.299 82.8661 113.125 82.742 112.903 82.6675C112.655 82.5683 112.382 82.5187 112.11 82.5187H107.207C107.083 82.3946 106.984 82.2457 106.934 82.072C106.86 81.8983 106.81 81.7246 106.786 81.5261L108.643 78.077H109.708L107.9 81.5261H112.184C112.605 81.5261 113.002 81.5757 113.373 81.7246C113.695 81.8735 113.992 82.072 114.215 82.345C114.438 82.5931 114.587 82.8661 114.686 83.1886C114.785 83.536 114.834 83.8834 114.834 84.2556V85.7445H117.905V78.077H118.871V85.7445H121.843C121.768 85.5211 121.694 85.2978 121.62 85.0745C121.57 84.8263 121.545 84.5782 121.545 84.3301C121.521 82.4194 123.056 80.8561 124.963 80.8313H124.988C125.458 80.8313 125.929 80.9058 126.375 81.0794C126.796 81.2531 127.167 81.5013 127.489 81.8239C127.811 82.1464 128.059 82.5187 128.232 82.9157C128.405 83.3623 128.504 83.809 128.504 84.3053C128.504 84.8015 128.405 85.273 128.207 85.7197H131.204C131.129 85.4963 131.055 85.273 130.981 85.0497C130.931 84.8015 130.907 84.5534 130.907 84.3053C130.882 82.3946 132.417 80.8313 134.324 80.8065H134.349C134.819 80.8065 135.29 80.8809 135.736 81.0546C136.157 81.2283 136.528 81.4765 136.85 81.7991C137.172 82.1216 137.42 82.4938 137.593 82.8909C137.766 83.3375 137.865 83.7842 137.865 84.2804C137.865 84.7767 137.766 85.2482 137.568 85.6948H140.911V78.0273H141.877V86.6378H136.974C136.652 86.9852 136.256 87.2581 135.81 87.4318C135.364 87.7048 134.869 87.8288 134.374 87.804ZM134.374 81.7991C134.027 81.7991 133.68 81.8735 133.383 81.9976C133.086 82.1216 132.813 82.3202 132.591 82.5435C132.368 82.7668 132.194 83.0397 132.07 83.3375C131.947 83.6601 131.897 83.9827 131.897 84.3301C131.897 85 132.145 85.6204 132.591 86.1167C132.813 86.34 133.086 86.5137 133.383 86.6626C133.705 86.7866 134.027 86.8611 134.374 86.8611C134.72 86.8611 135.042 86.8115 135.364 86.6874C135.983 86.4393 136.454 85.9678 136.726 85.3723C136.85 85.0497 136.924 84.7271 136.924 84.3797C136.924 84.0323 136.85 83.6849 136.726 83.3623C136.602 83.0646 136.429 82.7916 136.181 82.5683C135.959 82.345 135.686 82.1713 135.389 82.0472C135.042 81.8487 134.72 81.7991 134.374 81.7991ZM125.012 81.7991C124.344 81.7991 123.7 82.0472 123.229 82.5435C123.007 82.7668 122.833 83.0397 122.709 83.3375C122.462 83.9579 122.462 84.6775 122.709 85.2978C122.833 85.5956 123.007 85.8685 123.229 86.0919C123.452 86.3152 123.725 86.4889 124.022 86.6378C124.344 86.7618 124.666 86.8363 125.012 86.8363C125.359 86.8363 125.706 86.7618 126.028 86.6626C126.969 86.2904 127.588 85.3474 127.588 84.3301C127.588 83.9827 127.514 83.6353 127.39 83.3127C127.266 83.0149 127.093 82.742 126.845 82.5187C126.622 82.2953 126.35 82.1216 126.053 81.9976C125.706 81.8487 125.359 81.7991 125.012 81.7991ZM102.922 81.1539C102.6 81.1539 102.278 81.2035 101.957 81.3028C101.659 81.402 101.362 81.5509 101.115 81.7742C100.867 81.9728 100.669 82.2457 100.52 82.5187C100.372 82.8164 100.297 83.139 100.297 83.4616C100.297 83.7842 100.372 84.1316 100.495 84.4293C100.619 84.7023 100.817 84.9504 101.065 85.1489C101.313 85.3474 101.61 85.5211 101.907 85.6204C102.229 85.7197 102.576 85.7693 102.922 85.7693H103.888V81.1787H102.922V81.1539Z" fill="black"/>
<path d="M10.327 86.7122H3.98723C3.46717 86.7122 2.97187 86.6377 2.47658 86.5137C2.03081 86.3896 1.60981 86.1911 1.21358 85.9429C0.842105 85.67 0.544928 85.3474 0.322045 84.9504C0.123927 84.4789 0.00010377 83.9827 0.0248685 83.4616C0.0248685 83.0149 0.123927 82.5683 0.297281 82.1712C0.470634 81.7742 0.743046 81.402 1.08975 81.1291C1.46122 80.8313 1.88222 80.608 2.35275 80.4591C2.87281 80.2854 3.4424 80.2109 3.98723 80.2109H5.49788V85.7693H9.36117V80.2109H10.327V86.7122ZM3.61576 81.1539C3.29381 81.1539 2.97187 81.2035 2.64993 81.3028C2.35275 81.402 2.05558 81.5509 1.80793 81.7742C1.56028 81.9727 1.36216 82.2457 1.21358 82.5186C1.06499 82.8164 0.990693 83.139 0.990693 83.4616C0.990693 83.7841 1.06499 84.1315 1.18881 84.4293C1.31263 84.7023 1.51075 84.9504 1.7584 85.1489C2.00605 85.3474 2.30322 85.5211 2.6004 85.6204C2.92234 85.7196 3.26905 85.7693 3.61576 85.7693H4.58158V81.1787H3.61576V81.1539Z" fill="black"/>
<path d="M70.0347 88.8462H71.0257V87.8536H70.0347V88.8462Z" fill="black"/>
<path d="M68.3259 88.8462H69.317V87.8536H68.3259V88.8462Z" fill="black"/>
<path d="M76.5477 89.3673C76.2753 89.3673 76.0277 89.3425 75.78 89.2681L76.0277 88.3499C76.102 88.3748 76.201 88.3996 76.2753 88.3996C76.3496 88.3996 76.4239 88.4244 76.4982 88.4244C76.6468 88.4244 76.8201 88.3996 76.9687 88.3499C77.0926 88.3003 77.1916 88.2011 77.2411 88.1018C77.3154 87.9529 77.365 87.804 77.3897 87.6303C77.4145 87.407 77.4393 87.1589 77.4393 86.9356V80.211H78.4051V85.7693H81.9712L80.2624 81.7495C80.5101 81.5261 80.7825 81.3028 81.0549 81.1043C81.3273 80.9058 81.6245 80.7321 81.9464 80.5832C82.2436 80.4343 82.5656 80.3351 82.8875 80.2358C83.1847 80.1614 83.5066 80.1117 83.8286 80.1117C84.1505 80.1117 84.4477 80.1614 84.7696 80.2358C85.0916 80.3102 85.4135 80.4343 85.7107 80.5832C86.0326 80.7321 86.3298 80.9058 86.6022 81.1043C86.8994 81.3028 87.1718 81.5013 87.4195 81.7495L85.7107 85.7693H89.8216V78.1018H90.7875V86.7122H78.3556V86.9107C78.3556 87.2581 78.3308 87.6055 78.2565 87.9281C78.207 88.2011 78.1079 88.4492 77.9593 88.6973C77.8107 88.9207 77.6126 89.0695 77.3897 89.1688C77.1421 89.3177 76.8449 89.3673 76.5477 89.3673ZM83.8533 81.1787C83.4323 81.1787 83.0361 81.2532 82.6399 81.4021C82.2189 81.5758 81.8474 81.7991 81.5007 82.072L83.0113 85.7445H84.7201L86.2308 82.072C85.9088 81.7991 85.5373 81.5758 85.1411 81.4269C84.7696 81.2532 84.3239 81.1787 83.8533 81.1787Z" fill="black"/>
<path d="M2.8479 79.0944H3.83897V78.1018H2.8479V79.0944Z" fill="black"/>
<path d="M6.95889 93.0398H5.44824L2.17929 96.4889V93.0398H0.96582V99.8884H2.17929V97.9033L3.26894 96.8115L5.62159 99.8884H7.10747L4.11094 95.9678L6.95889 93.0398Z" fill="black"/>
<path d="M8.19702 99.8884H9.41108V93.0398H8.19702V99.8884Z" fill="black"/>
<path d="M16.0724 97.7793L12.3825 93.0398H11.2681V99.8884H12.4568V95.0001L16.2705 99.8884H17.2859V93.0398H16.0972L16.0724 97.7793Z" fill="black"/>
<path d="M22.2882 97.1093H24.0465V98.3996C23.5512 98.747 22.9816 98.9207 22.3873 98.9207C21.1243 98.9455 20.0594 97.9529 20.0346 96.6874V96.4641C19.9851 95.1738 20.9757 94.1068 22.2387 94.0323H22.2634C22.9816 94.0075 23.675 94.2805 24.1951 94.7768L24.9628 93.8835C24.2199 93.2383 23.2788 92.9157 22.313 92.9405C20.3813 92.9157 18.7964 94.4542 18.7469 96.3897V96.4889C18.6726 98.3748 20.1337 99.9381 22.0158 100.037H22.313C23.3779 100.037 24.3932 99.6651 25.1857 98.9455V96.0671H22.2882V97.1093Z" fill="black"/>
<path d="M29.4701 99.8884H26.8945V93.0398H29.4701C31.3522 92.8909 32.9867 94.3053 33.1352 96.1912V96.216V96.4641C33.1352 98.3748 31.5998 99.9133 29.6929 99.9133L29.4701 99.8884ZM28.108 94.1316V98.7966H29.4701C30.7083 98.8711 31.7732 97.9281 31.8722 96.6875V96.4641C31.897 95.2234 30.9312 94.1812 29.6929 94.1316H28.108Z" fill="black"/>
<path d="M37.8653 99.9877C35.9337 100.062 34.3239 98.5485 34.2744 96.6378V96.4641C34.2744 95.5212 34.6459 94.6279 35.2898 93.9579C35.9832 93.2879 36.9242 92.9157 37.8901 92.9157C39.8217 92.8413 41.4314 94.3549 41.481 96.2656V96.2904V96.4641C41.481 97.407 41.1095 98.3003 40.4656 98.9703C39.7474 99.6403 38.8311 100.012 37.8653 99.9877ZM37.8653 94.0075C36.5775 94.0075 35.5374 95.0497 35.5374 96.34V96.4641C35.5127 97.7792 36.528 98.8462 37.8405 98.8959H37.8901C39.1778 98.8959 40.218 97.8537 40.218 96.5634V96.4393C40.2675 95.149 39.2769 94.0572 37.9891 94.0075C37.9891 94.0075 37.9891 94.0075 37.9644 94.0075H37.8653Z" fill="black"/>
<path d="M46.3845 96.2903L44.2795 93.0397H42.9917V99.8883H44.1804V95L46.3349 98.2258H46.3845L48.5638 94.9752V99.8883H49.7772V93.0149H48.4647L46.3845 96.2903Z" fill="black"/>
<path d="M57.7762 99.9877C55.8445 100.062 54.2348 98.5485 54.1853 96.6378V96.4641C54.1853 95.5212 54.5568 94.6279 55.2007 93.9579C55.8941 93.2879 56.8351 92.9157 57.801 92.9157C59.7326 92.8413 61.3423 94.3549 61.3918 96.2656V96.2904V96.4641C61.3918 97.407 61.0204 98.3003 60.3765 98.9703C59.6831 99.6403 58.742 100.012 57.7762 99.9877ZM57.7762 94.0075C56.4884 94.0075 55.4483 95.0497 55.4483 96.34V96.4641C55.4235 97.7792 56.4389 98.8462 57.7514 98.8959H57.801C59.0887 98.8959 60.1288 97.8537 60.1288 96.5634V96.4393C60.1784 95.149 59.1878 94.0572 57.9 94.0075C57.9 94.0075 57.9 94.0075 57.8752 94.0075H57.7762Z" fill="black"/>
<path d="M62.9023 99.8883H64.1158V97.0844H67.5829V95.9926H64.1158V94.1067H68.0286V93.0149H62.9023V99.8883Z" fill="black"/>
<path d="M74.9877 95.9181C73.6752 95.5956 73.3532 95.3722 73.3532 94.8263V94.8015C73.3532 94.3301 73.7742 93.9827 74.4676 93.9827C75.161 94.0075 75.8049 94.2556 76.3497 94.6775L77.0184 93.7842C76.325 93.2134 75.4334 92.9157 74.5172 92.9157C73.378 92.7668 72.3379 93.5856 72.1893 94.7519C72.1893 94.7519 72.1893 94.7519 72.1893 94.7767C72.1893 94.8263 72.1645 94.876 72.1645 94.9256V94.9504C72.1645 96.2159 72.9817 96.6626 74.4676 96.9851C75.7554 97.2829 76.0278 97.5559 76.0278 98.0273V98.0521C76.0278 98.5732 75.5573 98.9206 74.8143 98.9206C73.9971 98.9206 73.2046 98.598 72.635 98.0273L71.8921 98.8958C72.6846 99.6154 73.6999 100.012 74.7648 99.9876C76.2259 99.9876 77.2165 99.2184 77.2165 97.9529V97.9281C77.1917 96.7866 76.4488 96.2655 74.9877 95.9181Z" fill="black"/>
<path d="M79.1232 99.8884H77.885L80.9311 92.9901H82.0455L85.0915 99.8884H83.8038L83.1104 98.2258H79.8662L79.1232 99.8884ZM81.4511 94.4293L80.2624 97.1589H82.6398L81.4511 94.4293Z" fill="black"/>
<path d="M90.4655 96.9851C90.4655 98.2506 89.7969 98.8958 88.732 98.8958C87.6671 98.8958 86.9985 98.2258 86.9985 96.9355V93.0397H85.785V97.0099C85.6116 98.474 86.6518 99.8387 88.1129 100.012C88.1129 100.012 88.1376 100.012 88.1624 100.012C88.3605 100.037 88.5339 100.037 88.732 100.012C90.2426 100.136 91.5799 99.0447 91.7038 97.531C91.7038 97.531 91.7038 97.531 91.7038 97.5062C91.7285 97.3077 91.7285 97.1092 91.679 96.9355V93.0149H90.4655V96.9851Z" fill="black"/>
<path d="M96.0128 99.8884H93.4373V93.0398H96.0128C97.8949 92.9157 99.5294 94.3301 99.678 96.216V96.4641C99.678 98.3748 98.1426 99.9133 96.2357 99.9133L96.0128 99.8884ZM94.6755 94.1316V98.7966H96.0376C97.2758 98.8711 98.3407 97.9281 98.4397 96.6874V96.4641C98.4893 95.2234 97.4987 94.1812 96.2604 94.1316H94.6755Z" fill="black"/>
<path d="M101.213 99.8884H102.427V93.0398H101.213V99.8884Z" fill="black"/>
<path d="M107.875 99.8884H106.637L109.683 92.9901H110.797L113.844 99.8884H112.556L111.862 98.2258H108.618L107.875 99.8884ZM110.228 94.4293L109.039 97.1589H111.417L110.228 94.4293Z" fill="black"/>
<path d="M116.196 99.8885H114.983V93.0398H118.053C118.772 92.9902 119.49 93.2383 120.059 93.7098C120.431 94.1068 120.629 94.6527 120.629 95.1986V95.2234C120.654 96.216 119.96 97.0845 118.995 97.3078L120.852 99.9133H119.44L117.756 97.5063H116.246L116.196 99.8885ZM116.196 94.1316V96.4393H117.979C118.846 96.4393 119.391 95.9927 119.391 95.2979V95.2731C119.391 94.5535 118.871 94.1316 117.954 94.1316H116.196Z" fill="black"/>
<path d="M122.957 99.8884H121.719L124.765 92.9653H125.879L128.925 99.8636H127.638L126.944 98.2011H123.7L122.957 99.8884ZM125.285 94.4294L124.096 97.1589H126.474L125.285 94.4294Z" fill="black"/>
<path d="M133.259 99.8884H130.064V93.0398H133.16C133.804 92.9902 134.448 93.2135 134.968 93.6353C135.29 93.9331 135.438 94.3549 135.438 94.7768V94.8016C135.438 95.4715 135.067 96.0671 134.448 96.3152C135.24 96.4641 135.81 97.1589 135.835 97.9777V98.0026C135.785 99.1688 134.844 99.8884 133.259 99.8884ZM131.228 96.9356V98.8214H133.234C134.076 98.8214 134.572 98.474 134.572 97.8785V97.8537C134.572 97.2581 134.076 96.9356 133.16 96.9356H131.228ZM131.228 94.1068V95.9182H132.888C133.705 95.9182 134.175 95.5708 134.175 94.9753C134.175 94.4294 133.705 94.1068 132.962 94.1068H131.228Z" fill="black"/>
<path d="M137.271 99.8884H138.485V93.0398H137.271V99.8884Z" fill="black"/>
<path d="M140.911 99.8884H139.673L142.719 92.9901H143.834L146.88 99.8884H145.592L144.898 98.2258H141.654L140.911 99.8884ZM143.239 94.4293L142.051 97.1589H144.428L143.239 94.4293Z" fill="black"/>
<path d="M51.8326 27.3325L53.789 29.1936L51.9069 31.129L49.9504 29.268L51.8326 27.3325Z" fill="black"/>
<path d="M56.2654 29.268L58.2218 31.129L60.1039 29.1936L58.1475 27.3325L56.2654 29.268Z" fill="black"/>
<path d="M53.5166 31.6998L55.0272 33.139L56.4884 31.6254L54.9777 30.1862L53.5166 31.6998Z" fill="black"/>
<path d="M59.0886 32.5434L60.5993 34.0075L62.0604 32.4938L60.5497 31.0298L59.0886 32.5434Z" fill="black"/>
<path d="M51.04 34.0075L52.5507 35.4716L54.0118 33.9579L52.5012 32.4939L51.04 34.0075Z" fill="black"/>
<path d="M56.1416 34.1813L57.6523 35.6453L59.1134 34.1316L57.6027 32.6676L56.1416 34.1813Z" fill="black"/>
<path d="M54.1357 35.943L55.2006 36.9603L56.216 35.8933L55.1511 34.876L54.1357 35.943Z" fill="black"/>
<path d="M58.1724 36.737L59.2372 37.7544L60.2526 36.6874L59.1877 35.67L58.1724 36.737Z" fill="black"/>
<path d="M66.9639 28.6477L67.5582 31.9479L70.8767 31.3524L70.2823 28.0521L66.9639 28.6477Z" fill="black"/>
<path d="M62.6548 30.0373L63.1253 32.6675L65.7751 32.1961L65.3046 29.5658L62.6548 30.0373Z" fill="black"/>
<path d="M67.781 33.7097L68.2515 36.34L70.9014 35.8686L70.4308 33.2383L67.781 33.7097Z" fill="black"/>
<path d="M64.116 34.0819L64.4874 36.1415L66.5677 35.7693L66.1962 33.7097L64.116 34.0819Z" fill="black"/>
<path d="M68.1277 38.0026L68.4992 40.0621L70.5794 39.6899L70.2079 37.6304L68.1277 38.0026Z" fill="black"/>
<path d="M60.9956 34.9257L61.3671 36.9852L63.4473 36.613L63.0758 34.5535L60.9956 34.9257Z" fill="black"/>
<path d="M64.7598 37.6303L65.1312 39.6898L67.2115 39.3176L66.84 37.2581L64.7598 37.6303Z" fill="black"/>
<path d="M62.1348 37.8784L62.3824 39.3176L63.8435 39.0447L63.5959 37.6055L62.1348 37.8784Z" fill="black"/>
<path d="M64.9331 40.881L65.1808 42.3202L66.6419 42.072L66.3942 40.6328L64.9331 40.881Z" fill="black"/>
<path d="M76.7955 39.4418L75.3591 42.4691L78.4052 43.9083L79.8415 40.881L76.7955 39.4418Z" fill="black"/>
<path d="M72.4865 38.0273L71.3225 40.4591L73.7495 41.6254L74.9134 39.1936L72.4865 38.0273Z" fill="black"/>
<path d="M74.4923 44.0074L73.3284 46.4392L75.7553 47.6055L76.9193 45.1737L74.4923 44.0074Z" fill="black"/>
<path d="M71.2978 42.196L70.4062 44.0819L72.3131 44.9752L73.2047 43.0893L71.2978 42.196Z" fill="black"/>
<path d="M72.2387 47.7048L71.3472 49.5907L73.254 50.484L74.1456 48.5981L72.2387 47.7048Z" fill="black"/>
<path d="M68.2763 41.0795L67.3848 42.9653L69.2916 43.8586L70.1832 41.9728L68.2763 41.0795Z" fill="black"/>
<path d="M69.7621 45.4219L68.8706 47.3077L70.7775 48.201L71.669 46.3152L69.7621 45.4219Z" fill="black"/>
<path d="M67.4591 44.1068L66.8152 45.4219L68.1525 46.0671L68.7964 44.752L67.4591 44.1068Z" fill="black"/>
<path d="M67.9791 48.1514L67.3352 49.4665L68.6725 50.1117L69.3164 48.7965L67.9791 48.1514Z" fill="black"/>
<path d="M78.4299 53.9082L75.4829 55.5211L77.0926 58.474L80.0396 56.8611L78.4299 53.9082Z" fill="black"/>
<path d="M75.7553 50.2606L73.3779 51.5509L74.6657 53.9083L77.0183 52.6179L75.7553 50.2606Z" fill="black"/>
<path d="M73.8733 56.2656L71.4958 57.5559L72.7836 59.9133L75.1363 58.6229L73.8733 56.2656Z" fill="black"/>
<path d="M72.3377 52.9406L70.5051 53.9331L71.5205 55.7693L73.3531 54.7768L72.3377 52.9406Z" fill="black"/>
<path d="M69.8861 57.9529L68.0535 58.9454L69.0688 60.7817L70.9014 59.7891L69.8861 57.9529Z" fill="black"/>
<path d="M70.5794 50.2606L68.7468 51.2532L69.7622 53.0894L71.5948 52.0968L70.5794 50.2606Z" fill="black"/>
<path d="M69.1927 54.6775L67.3601 55.67L68.3755 57.5063L70.2081 56.5137L69.1927 54.6775Z" fill="black"/>
<path d="M68.1279 52.2457L66.8401 52.9405L67.5583 54.2308L68.846 53.536L68.1279 52.2457Z" fill="black"/>
<path d="M66.1467 55.8438L64.8589 56.5385L65.5771 57.8289L66.8648 57.1341L66.1467 55.8438Z" fill="black"/>
<path d="M71.2481 66.5881L67.9049 66.1663L67.4839 69.4913L70.8271 69.9132L71.2481 66.5881Z" fill="black"/>
<path d="M71.2234 62.0968L68.5489 61.7494L68.2021 64.4045L70.8767 64.7519L71.2234 62.0968Z" fill="black"/>
<path d="M66.1465 65.8437L63.4719 65.4963L63.1252 68.1514L65.7998 68.4988L66.1465 65.8437Z" fill="black"/>
<path d="M66.8897 62.2457L64.8094 61.9976L64.5618 64.0819L66.642 64.3301L66.8897 62.2457Z" fill="black"/>
<path d="M61.9366 64.9256L59.8564 64.6775L59.584 66.7619L61.6642 67.01L61.9366 64.9256Z" fill="black"/>
<path d="M67.0133 59.0696L64.9083 58.8214L64.6606 60.9058L66.7409 61.1539L67.0133 59.0696Z" fill="black"/>
<path d="M63.2987 61.8238L61.1937 61.5757L60.946 63.6601L63.0263 63.9082L63.2987 61.8238Z" fill="black"/>
<path d="M63.8684 59.2433L62.4072 59.0696L62.2339 60.5336L63.695 60.7073L63.8684 59.2433Z" fill="black"/>
<path d="M60.1535 61.005L58.6924 60.8313L58.519 62.2953L59.9802 62.469L60.1535 61.005Z" fill="black"/>
<path d="M57.9495 72.6923L55.473 70.4094L53.1699 72.866L55.6464 75.1489L57.9495 72.6923Z" fill="black"/>
<path d="M57.5037 25.8437L55.0272 23.5608L52.7241 26.0174L55.2006 28.3002L57.5037 25.8437Z" fill="black"/>
<path d="M60.5994 69.0447L58.6182 67.2333L56.7856 69.1936L58.7668 71.005L60.5994 69.0447Z" fill="black"/>
<path d="M54.2596 69.1439L52.2784 67.3325L50.4458 69.2928L52.427 71.1042L54.2596 69.1439Z" fill="black"/>
<path d="M56.9837 66.6626L55.4483 65.2482L54.012 66.7866L55.5474 68.201L56.9837 66.6626Z" fill="black"/>
<path d="M51.4117 65.9182L49.8763 64.5038L48.4399 66.0422L49.9754 67.4566L51.4117 65.9182Z" fill="black"/>
<path d="M58.94 64.1316L57.4046 62.7172L55.9683 64.2556L57.5037 65.67L58.94 64.1316Z" fill="black"/>
<path d="M54.3092 64.206L52.7738 62.7916L51.3374 64.3301L52.8728 65.7445L54.3092 64.206Z" fill="black"/>
<path d="M56.2655 62.4442L55.1759 61.4517L54.1853 62.5435L55.2749 63.536L56.2655 62.4442Z" fill="black"/>
<path d="M52.2536 61.7246L51.1639 60.7321L50.1733 61.8239L51.263 62.8164L52.2536 61.7246Z" fill="black"/>
<path d="M43.6108 69.9132L42.9421 66.6378L39.6484 67.3078L40.3171 70.5832L43.6108 69.9132Z" fill="black"/>
<path d="M47.8951 68.474L47.3503 65.8438L44.7004 66.3648L45.2453 68.9951L47.8951 68.474Z" fill="black"/>
<path d="M42.6944 64.876L42.1496 62.2457L39.4998 62.7668L40.0446 65.3971L42.6944 64.876Z" fill="black"/>
<path d="M46.3595 64.4294L45.9385 62.3947L43.8831 62.7917L44.3041 64.8264L46.3595 64.4294Z" fill="black"/>
<path d="M49.4303 63.5609L49.0093 61.5261L46.9539 61.9231L47.3749 63.9827L49.4303 63.5609Z" fill="black"/>
<path d="M45.6415 60.9057L45.2205 58.871L43.165 59.2928L43.586 61.3275L45.6415 60.9057Z" fill="black"/>
<path d="M48.2665 60.608L47.9941 59.1688L46.533 59.4418L46.8054 60.881L48.2665 60.608Z" fill="black"/>
<path d="M45.4186 57.6799L45.1462 56.2407L43.6851 56.5137L43.9575 57.9529L45.4186 57.6799Z" fill="black"/>
<path d="M33.581 59.2929L34.9678 56.2408L31.9217 54.8512L30.5349 57.9033L33.581 59.2929Z" fill="black"/>
<path d="M37.9148 60.6329L39.0293 58.2011L36.5775 57.0845L35.4631 59.5162L37.9148 60.6329Z" fill="black"/>
<path d="M35.8099 54.7023L36.9243 52.2706L34.4726 51.1539L33.3582 53.5857L35.8099 54.7023Z" fill="black"/>
<path d="M39.0541 56.4641L39.9209 54.5534L38.014 53.6849L37.1472 55.5956L39.0541 56.4641Z" fill="black"/>
<path d="M41.6046 61.2284L42.4714 59.3177L40.5645 58.4492L39.6978 60.3599L41.6046 61.2284Z" fill="black"/>
<path d="M37.9892 50.9802L38.8559 49.0695L36.949 48.201L36.0823 50.1117L37.9892 50.9802Z" fill="black"/>
<path d="M42.0753 57.5311L42.9421 55.6204L41.0352 54.752L40.1685 56.6626L42.0753 57.5311Z" fill="black"/>
<path d="M40.5399 53.1886L41.4067 51.2779L39.4998 50.4094L38.6331 52.3201L40.5399 53.1886Z" fill="black"/>
<path d="M42.8429 54.479L43.462 53.139L42.1247 52.5187L41.5056 53.8586L42.8429 54.479Z" fill="black"/>
<path d="M42.2733 50.4343L42.8924 49.0943L41.5552 48.474L40.936 49.814L42.2733 50.4343Z" fill="black"/>
<path d="M31.6989 44.8512L34.6211 43.1886L32.9371 40.2854L30.0149 41.9479L31.6989 44.8512Z" fill="black"/>
<path d="M34.4476 48.4492L36.7755 47.134L35.4382 44.8015L33.1104 46.1415L34.4476 48.4492Z" fill="black"/>
<path d="M36.2309 42.4443L38.5587 41.1291L37.2214 38.7966L34.8936 40.1366L36.2309 42.4443Z" fill="black"/>
<path d="M37.8158 45.7445L39.6236 44.7023L38.5835 42.8909L36.7756 43.9331L37.8158 45.7445Z" fill="black"/>
<path d="M40.1932 40.6825L42.001 39.6403L40.9609 37.8289L39.1531 38.871L40.1932 40.6825Z" fill="black"/>
<path d="M39.6236 48.3747L41.4314 47.3325L40.3913 45.5211L38.5835 46.5633L39.6236 48.3747Z" fill="black"/>
<path d="M40.9361 43.9578L42.7439 42.9157L41.7038 41.1042L39.896 42.1464L40.9361 43.9578Z" fill="black"/>
<path d="M42.0506 46.34L43.3383 45.6204L42.5954 44.3301L41.3076 45.0497L42.0506 46.34Z" fill="black"/>
<path d="M43.9573 42.742L45.2451 42.0224L44.5021 40.7321L43.2144 41.4517L43.9573 42.742Z" fill="black"/>
<path d="M38.6577 32.0472L42.001 32.3946L42.3724 29.0696L39.0292 28.7222L38.6577 32.0472Z" fill="black"/>
<path d="M38.7568 36.5633L41.4314 36.8362L41.7038 34.1812L39.0292 33.9082L38.7568 36.5633Z" fill="black"/>
<path d="M43.7839 32.7172L46.4585 32.9902L46.7309 30.3351L44.0563 30.0621L43.7839 32.7172Z" fill="black"/>
<path d="M43.0906 36.3152L45.1956 36.5385L45.4185 34.4542L43.3135 34.2308L43.0906 36.3152Z" fill="black"/>
<path d="M48.0188 33.5857L50.1238 33.809L50.3467 31.7247L48.2417 31.5013L48.0188 33.5857Z" fill="black"/>
<path d="M43.041 39.5161L45.146 39.7395L45.3689 37.6551L43.2639 37.4318L43.041 39.5161Z" fill="black"/>
<path d="M46.7063 36.6874L48.8113 36.9107L49.0342 34.8264L46.9292 34.603L46.7063 36.6874Z" fill="black"/>
<path d="M46.1863 39.2681L47.6722 39.417L47.8208 37.953L46.3349 37.8041L46.1863 39.2681Z" fill="black"/>
<path d="M49.8762 37.4567L51.3621 37.6056L51.5107 36.1416L50.0248 35.9927L49.8762 37.4567Z" fill="black"/>
<path d="M65.7505 51.402C65.3295 51.1538 64.8837 50.9553 64.4132 50.8313C63.2245 50.4591 61.9615 50.3598 60.748 50.5831C60.2032 50.6576 59.6583 50.8064 59.1383 50.9801L58.9897 51.0298C58.6925 51.129 58.4201 51.2779 58.1477 51.402C57.9 51.526 57.6772 51.6501 57.4295 51.799C56.8847 52.1216 56.3399 52.4938 55.8198 52.8908C55.3988 50.062 55.3493 47.2084 55.6712 44.3796C55.6712 44.3796 55.6712 44.3548 55.696 44.3548C56.9837 45.1489 56.6123 47.3821 56.3399 48.0273C56.3399 48.0273 56.3399 48.0521 56.3646 48.0521C57.4295 46.8114 57.6276 45.0496 56.8352 43.6104C56.8352 43.5856 56.8352 43.5856 56.8599 43.5856C57.0828 43.7593 57.2562 43.9578 57.4295 44.1563C57.8505 44.7022 58.0982 45.3474 58.1477 46.0422C58.1725 46.3151 58.1725 46.6129 58.1477 46.9107C58.1477 46.9603 58.1229 47.0347 58.1229 47.0844C58.1229 47.1092 58.1229 47.1092 58.1477 47.1092C58.6925 46.067 58.6925 44.8263 58.1477 43.7841C57.9496 43.4367 57.7019 43.0893 57.4295 42.7916C57.3305 42.6923 57.2562 42.593 57.1571 42.5186V42.4938C57.1571 42.469 57.1571 42.4938 57.1819 42.4938C57.2809 42.5186 57.38 42.5434 57.4543 42.5682C57.7019 42.6675 57.9496 42.7916 58.1725 42.9404C58.643 43.2878 58.9897 43.7345 59.163 44.2804C59.3116 44.6774 59.4107 45.0744 59.4107 45.4963C59.4107 45.4963 59.4107 45.5211 59.4355 45.5211C59.4602 45.5211 59.4602 45.5211 59.4602 45.4963C59.9308 44.1811 59.4107 42.7171 58.1972 42.0471C57.9743 41.8983 57.7267 41.799 57.479 41.7246C57.3552 41.6997 57.2562 41.6501 57.1323 41.6501C57.1076 41.6501 57.1076 41.6253 57.1323 41.6253C57.2562 41.6005 57.3552 41.6005 57.479 41.6005C57.7267 41.6005 57.9496 41.6253 58.1972 41.6501C58.5439 41.7246 58.8906 41.8486 59.1878 42.0471C59.4602 42.2208 59.7079 42.469 59.8565 42.7667C59.8565 42.7916 59.8812 42.7667 59.8812 42.7667C59.8317 42.2457 59.584 41.7494 59.1878 41.4268C58.8906 41.1787 58.5439 41.005 58.1972 40.9057C57.9496 40.8313 57.7267 40.8064 57.479 40.8064C57.1819 40.8064 56.8599 40.8561 56.5875 40.9553C56.5627 40.9553 56.5627 40.9553 56.5627 40.9305C56.7856 40.6079 57.1076 40.3846 57.479 40.2854C57.7019 40.2109 57.9496 40.1861 58.1972 40.2109C58.3953 40.2109 58.5935 40.2605 58.7668 40.3598H58.7916V40.335C58.6182 40.1365 58.4201 39.9876 58.1972 39.8635C57.9743 39.7394 57.7267 39.665 57.479 39.6154C56.7856 39.5409 56.117 39.8635 55.7703 40.4839H55.7207C55.6465 40.335 55.5722 40.1613 55.4731 40.0124C55.2997 39.5906 55.1512 39.1687 55.0769 38.7221C55.0769 38.7221 55.0769 38.6973 55.0521 38.6973C55.0521 38.6973 55.0273 38.6973 55.0273 38.7221C54.953 39.1687 54.8045 39.6154 54.6311 40.0124C54.5568 40.1861 54.4825 40.335 54.3835 40.4839H54.3587C53.8139 39.6154 52.6747 39.3672 51.8079 39.9131C51.6346 40.0372 51.4612 40.1861 51.3374 40.3598V40.3846H51.3622C52.1546 40.062 53.0462 40.3102 53.591 40.9553V40.9801H53.5662C52.5756 40.6327 51.4612 40.9057 50.7183 41.6749C50.4459 41.9727 50.2973 42.3697 50.2477 42.7667C50.2477 42.7916 50.2725 42.7916 50.2725 42.7667C50.3963 42.5682 50.5449 42.3945 50.7183 42.2208C51.3622 41.6997 52.2042 41.4764 53.0214 41.6005C53.0462 41.6005 53.0462 41.6253 53.0214 41.6253C52.006 41.799 51.1393 42.4938 50.7183 43.4367C50.4954 44.1067 50.4954 44.8015 50.6935 45.4715C50.6935 45.4715 50.6935 45.4963 50.7183 45.4963C50.743 45.4963 50.743 45.4963 50.743 45.4715V45.4218C50.7183 44.0323 51.6346 42.8164 52.9719 42.4442C52.9719 42.4442 52.9719 42.4442 52.9966 42.4442C52.9966 42.4442 52.9966 42.4442 52.9966 42.469V42.4938C51.6098 43.5856 51.1888 45.4963 51.9813 47.0595H52.006V47.0347C51.7584 45.7196 52.2537 44.3796 53.2938 43.5112C53.3186 43.5112 53.3186 43.5112 53.3186 43.536C52.5509 44.9752 52.7242 46.737 53.7891 47.9777C53.7891 48.0025 53.8139 47.9777 53.8139 47.9529C53.5662 47.3077 53.1947 45.0993 54.4577 44.2804H54.4825C54.7797 47.1092 54.7302 49.9628 54.3339 52.7916C53.3681 52.0223 52.328 51.402 51.1888 50.9305C51.0402 50.8809 50.9412 50.8313 50.8173 50.7816C49.8515 50.4591 48.8609 50.3102 47.8456 50.3598C46.7807 50.3846 45.7406 50.6576 44.7747 51.129C44.6509 51.1787 44.5519 51.2531 44.4776 51.2779C44.4528 51.3027 44.4528 51.3027 44.4776 51.3275C44.4776 51.3275 44.5023 51.3524 44.5271 51.3524C44.6261 51.3275 44.7004 51.3027 44.7995 51.2779C45.7901 51.005 46.8302 50.9057 47.8703 50.9801C48.9104 51.0794 49.901 51.3524 50.8421 51.7742C52.1299 52.3697 53.3186 53.139 54.4082 54.0819C53.2938 55.1489 52.1051 56.1662 50.8421 57.1092L50.7183 57.1588C50.4706 56.7866 49.9506 56.7122 49.5791 56.9603C49.5791 56.9603 49.5543 56.9603 49.5543 56.9851C49.381 57.1092 49.2819 57.2581 49.2324 57.4566C49.1829 57.7047 49.2324 57.9777 49.381 58.1762C49.7524 58.5484 50.3468 58.6476 50.8173 58.3747C52.2537 57.4566 53.591 56.3648 54.7549 55.1241C54.9035 55 55.0026 54.8759 55.1512 54.7519C55.2997 54.8759 55.3988 55 55.5474 55.1241C56.2656 55.794 56.9342 56.4144 57.5286 56.9603C57.7762 57.1836 57.9991 57.4069 58.2467 57.5806C58.5687 57.8536 58.8906 58.0769 59.2373 58.2754C59.7079 58.6228 60.3765 58.6228 60.847 58.2258C60.8718 58.201 60.8966 58.1762 60.9213 58.1762C61.0699 57.9777 61.1442 57.7047 61.0699 57.4566C61.0452 57.3077 60.9461 57.1588 60.8223 57.0595C60.7232 56.9603 60.5746 56.8859 60.4508 56.8362C60.1289 56.7618 59.7822 56.8859 59.584 57.1588C59.4602 57.0844 59.3364 57.0347 59.2373 56.9355C58.8906 56.6873 58.5687 56.4144 58.2467 56.1414C58.0239 55.9429 57.7762 55.7196 57.5286 55.4963C57.0333 55.0496 56.4885 54.5533 55.9189 54.0571C56.4389 53.6352 56.9837 53.2134 57.5286 52.866C57.7762 52.7171 57.9991 52.5682 58.2467 52.3945C58.5687 52.196 58.9154 52.0223 59.2373 51.8486C59.7574 51.6005 60.2775 51.402 60.847 51.2531C62.0358 50.9057 63.2988 50.8313 64.5122 51.0298C64.958 51.1042 65.379 51.2035 65.8248 51.3275C65.8495 51.3275 65.8743 51.3275 65.8743 51.3027C65.7505 51.4268 65.7505 51.402 65.7505 51.402Z" fill="black"/>
</g>
<defs>
<clipPath id="clip0_58_74">
<rect width="150" height="100" fill="white"/>
</clipPath>
</defs>
</svg>
