<svg width="170" height="59" viewBox="0 0 170 59" fill="none" xmlns="http://www.w3.org/2000/svg">
<g clip-path="url(#clip0_224_326)">
<path d="M113.665 56.6474L113.122 56.7378L110.948 58.9096C117.922 57.4618 128.066 56.4664 139.297 56.4664C150.527 56.4664 160.671 57.4618 167.645 58.9096L170 56.5569C162.754 55.0185 152.61 54.2041 141.923 54.2041C131.236 54.2946 120.911 55.1995 113.665 56.6474Z" fill="#FDFEFF"/>
<path d="M113.122 56.9187L113.212 56.3758C114.752 49.1365 115.658 38.8206 115.658 28.0521C115.658 17.3742 114.752 7.23926 113.303 0L110.948 2.35276C112.397 9.32055 113.394 19.4555 113.394 30.6764C113.394 41.8972 112.397 52.0322 110.948 59L113.122 56.9187Z" fill="#FDFEFF"/>
<path d="M4.34736 25.6089C4.34736 25.0659 3.80394 24.523 2.62653 23.7991C2.26425 24.161 1.90197 24.7945 1.44912 25.4279C1.35855 25.6089 1.35855 25.7899 1.35855 25.8804C1.35855 26.3328 1.72083 26.6043 2.26425 26.6043C2.80767 26.6043 3.35109 26.4233 3.98508 26.2423C4.16622 26.0613 4.34736 25.7899 4.34736 25.6089ZM4.98135 19.365L4.25679 20.5414L2.53596 19.4555L2.08311 20.4509L0.27171 19.365L0.996271 18.0981L2.7171 19.184L3.26052 18.1886L4.98135 19.365ZM5.52477 24.704C5.52477 25.0659 5.25306 25.6994 4.89078 26.5138C4.5285 26.8758 4.34736 27.2377 3.98508 27.4187C3.44166 27.7807 2.80767 28.0521 2.08311 28.2331C1.63026 28.3236 1.17741 28.2331 0.815131 28.0521C0.27171 27.8712 0 27.5092 0 27.1472C0 26.4233 0.54342 25.3374 1.72083 23.8896L3.16995 22.0797C3.35109 22.2607 3.6228 22.5322 4.07565 22.8942C4.5285 23.2561 4.80021 23.4371 4.98135 23.5276C5.34363 23.7991 5.52477 24.161 5.52477 24.704Z" fill="#FDFEFF"/>
<path d="M12.4079 27.4186C12.4079 28.5045 12.0456 29.6809 11.1399 30.8572C10.3248 31.9431 9.50969 32.5766 8.60399 32.5766C8.2417 32.5766 7.51714 32.3956 6.4303 32.0336C5.34346 31.6717 4.70947 31.3097 4.70947 30.9477L4.89061 30.7667C4.98118 30.7667 5.25289 30.9477 5.88688 31.1287C6.52087 31.3097 6.97372 31.4907 7.336 31.4907C8.15114 31.4907 9.14741 30.9477 10.2342 29.8618C11.3211 28.7759 11.9551 27.871 11.9551 27.0566C11.9551 26.5137 11.3211 25.6993 9.96254 24.7039C10.0531 24.3419 10.2342 23.7085 10.3248 22.894C11.0494 23.437 11.5022 23.9799 11.8645 24.5229C12.1362 25.4278 12.4079 26.3327 12.4079 27.4186Z" fill="#FDFEFF"/>
<path d="M18.114 28.1425H15.1252C14.944 24.4324 14.6723 20.9938 14.3101 17.5551C14.5818 17.1932 14.8535 16.8312 15.3063 16.1978L15.7592 21.9892C16.0309 24.5229 16.1215 25.9708 16.212 26.1517L16.3932 26.3327C16.5743 26.5137 16.7555 26.6042 17.2083 26.6042H18.0234L18.114 28.1425Z" fill="#FDFEFF"/>
<path d="M32.2429 26.6045H17.48V28.1428H32.2429V26.6045Z" fill="#FDFEFF"/>
<path d="M34.8697 26.6045H31.8809V28.1428H34.8697V26.6045Z" fill="#FDFEFF"/>
<path d="M42.2961 31.2192L41.5715 32.3956L39.8507 31.4002L40.5753 30.2238L42.2961 31.2192ZM47.0057 28.1425H42.8395C42.4772 28.1425 42.2055 27.871 42.115 27.3281C42.0244 27.1471 42.0244 26.7851 41.9338 26.1517C41.7527 26.3327 41.481 26.5137 40.9375 26.8756C40.5753 27.1471 40.213 27.3281 39.9413 27.5091C39.4884 27.9615 38.8544 28.233 38.1299 28.233H34.4165V26.6946H38.2204C39.3073 26.6946 40.5753 26.1517 41.9338 24.9753C41.3904 24.7943 40.4847 24.6134 39.3073 24.4324L38.4922 24.2514C38.1299 24.2514 37.4959 24.5229 36.7713 25.0658V24.9753C36.7713 24.7943 36.8619 24.6134 36.9525 24.3419C37.4053 23.256 38.1299 22.6226 39.0356 22.6226C39.4884 22.6226 40.3941 22.8035 41.481 23.075C43.2018 23.5275 44.3792 23.7989 45.1943 23.7989H45.6472C46.1 23.7989 46.2812 23.7989 46.1906 23.7989C46.0095 24.1609 45.8283 24.7038 45.5566 25.4278C45.3755 25.4278 45.1943 25.4278 45.0132 25.4278C43.9264 25.4278 43.2018 25.6088 42.4772 25.7897C42.4772 26.1517 42.6584 26.3327 42.8395 26.5137L43.0207 26.6042H46.9152L47.0057 28.1425Z" fill="#FDFEFF"/>
<path d="M51.8966 19.9986L51.1721 21.175L49.5418 20.1796L48.9078 21.175L47.0964 20.0891L47.821 18.8223L49.5418 19.9082L50.0852 18.9128L51.8966 19.9986ZM52.5306 28.1428H51.6249C51.3532 28.1428 51.2626 28.0523 50.9909 27.8713C50.9003 27.7809 50.8098 27.6904 50.7192 27.5094C50.6286 27.3284 50.5381 27.1474 50.5381 27.1474C50.4475 27.1474 50.3569 27.3284 50.1758 27.5999C49.9946 27.9618 49.8135 28.0523 49.8135 28.0523H46.6436V26.514H50.7192L50.8098 24.5232C51.1721 24.0707 51.6249 23.4373 52.1683 22.8039V22.9848C52.1683 23.6183 52.0778 24.6137 51.806 25.8805C51.7155 26.2425 51.7155 26.2425 51.7155 26.333C51.7155 26.4235 51.806 26.514 52.0778 26.514H52.5306V28.1428Z" fill="#FDFEFF"/>
<path d="M57.3307 18.4599L56.425 20.2697L56.2438 20.1792L56.6967 25.3372C56.6967 25.6992 56.6061 26.3326 56.425 27.0565C56.2438 27.8709 56.0627 28.2329 55.9721 28.2329H51.8965V26.6946H55.7004C55.791 26.6946 55.791 26.6041 55.791 26.3326C55.791 25.2467 55.4287 22.9844 54.8853 19.4553L54.7947 19.3648C54.6136 19.1838 54.4324 19.0933 54.4324 18.9123C54.4324 18.7314 54.4324 18.6409 54.523 18.5504L55.3381 17.193C55.5193 16.9215 55.6099 16.8311 55.7004 16.8311L55.8816 17.012L55.791 17.2835L55.7004 17.4645C55.7004 17.555 55.791 17.6455 55.8816 17.736C56.5156 18.0074 56.9684 18.2789 57.3307 18.4599Z" fill="#FDFEFF"/>
<path d="M61.2255 26.2424C61.2255 26.7853 60.9538 27.6903 60.5009 28.8666C60.2292 26.1519 59.9575 22.8942 59.5046 19.0031C59.4141 18.6412 59.8669 17.7363 60.5915 16.3789C60.6821 16.4694 60.7726 18.1887 60.9538 21.2654L61.2255 26.2424Z" fill="#FDFEFF"/>
<path d="M72.1845 25.6089C72.1845 25.0659 71.6411 24.523 70.4637 23.7991C70.1014 24.161 69.7391 24.7945 69.2863 25.4279C69.1957 25.6089 69.1957 25.7899 69.1957 25.8804C69.1957 26.3328 69.558 26.6043 70.1014 26.6043C70.6448 26.6043 71.1883 26.4233 71.8222 26.2423C72.094 26.0613 72.1845 25.7899 72.1845 25.6089ZM72.8185 19.365L72.094 20.5414L70.3731 19.4555L69.9203 20.4509L68.1089 19.365L68.8334 18.0981L70.5543 19.184L71.0977 18.1886L72.8185 19.365ZM73.2714 24.704C73.2714 25.0659 73.0902 25.6994 72.728 26.5138C72.3657 26.8758 72.1845 27.2377 71.8222 27.4187C71.2788 27.7807 70.6448 28.0521 69.9203 28.2331C69.4674 28.3236 69.0146 28.2331 68.6523 28.0521C68.1994 27.7807 67.9277 27.5092 67.9277 27.0567C67.9277 26.3328 68.4712 25.2469 69.6486 23.7991L71.0977 21.9892C71.2788 22.1702 71.5505 22.4417 72.0034 22.8037C72.4562 23.1656 72.7279 23.3466 72.9091 23.4371C73.1808 23.7991 73.2714 24.161 73.2714 24.704Z" fill="#FDFEFF"/>
<path d="M80.3357 27.4186C80.3357 28.5045 79.9734 29.6809 79.0677 30.8572C78.2526 31.9431 77.4374 32.5766 76.5317 32.5766C76.1694 32.5766 75.4449 32.3956 74.358 32.0336C73.2712 31.6717 72.6372 31.3097 72.6372 30.9477L72.8184 30.7667C72.9089 30.7667 73.1806 30.9477 73.8146 31.1287C74.4486 31.3097 74.9015 31.4907 75.2637 31.4907C76.0789 31.4907 77.0751 30.9477 78.162 29.8618C79.2488 28.7759 79.8828 27.871 79.8828 27.0566C79.8828 26.5137 79.2488 25.6993 77.8903 24.7039C77.9808 24.3419 78.162 23.7085 78.2526 22.894C78.9771 23.437 79.43 23.9799 79.7922 24.5229C80.064 25.4278 80.3357 26.3327 80.3357 27.4186Z" fill="#FDFEFF"/>
<path d="M84.2304 26.2424C84.2304 26.7853 83.9586 27.6903 83.5058 28.8666C83.2341 26.1519 82.9624 22.8942 82.5095 19.0031C82.419 18.6412 82.8718 17.7363 83.5964 16.3789C83.6869 16.4694 83.7775 18.1887 83.9586 21.2654L84.2304 26.2424Z" fill="#FDFEFF"/>
<path d="M90.2076 19.727L89.4831 20.9034L87.6717 19.8175L88.3962 18.6411L90.2076 19.727ZM92.2002 27.4187C92.2002 28.5046 91.8379 29.681 90.9322 30.8574C90.1171 31.9433 89.3019 32.5767 88.3962 32.5767C88.0339 32.5767 87.3094 32.3957 86.2225 32.0338C85.1357 31.6718 84.5923 31.3098 84.5923 30.9479L84.7734 30.7669C84.864 30.7669 85.1357 30.9479 85.7697 31.1288C86.4037 31.3098 86.8565 31.4908 87.2188 31.4908C88.0339 31.4908 89.0302 30.9479 90.1171 29.862C91.2039 28.7761 91.8379 27.8712 91.8379 27.0568C91.8379 26.5138 91.2039 25.6994 89.8453 24.704C89.9359 24.342 90.1171 23.7086 90.2076 22.8942C90.9322 23.4371 91.385 23.9801 91.7473 24.523C91.9285 25.4279 92.2002 26.3328 92.2002 27.4187Z" fill="#FDFEFF"/>
<path d="M98.3589 25.7899C98.3589 25.4279 98.2684 25.1565 97.9966 24.704C97.7249 24.342 97.5438 24.0706 97.1815 24.0706C96.9098 24.0706 96.7287 24.2516 96.3664 24.523C96.0041 24.7945 95.9135 25.066 96.0041 25.3374C96.0041 25.6089 96.2758 25.6994 96.5475 25.8804C96.8192 25.9709 97.0909 26.0614 97.3627 26.0614C97.9061 26.2423 98.2684 26.0614 98.3589 25.7899ZM99.5363 26.0614C99.5363 27.5092 99.1741 28.8666 98.6306 30.1335C98.2684 30.7669 97.9061 31.3098 97.4532 31.8528C96.8192 32.4862 96.2758 32.7577 95.6418 32.7577C95.189 32.6672 94.4644 32.5767 93.4681 32.3957C92.3813 32.1243 91.6567 31.9433 91.6567 31.7623C91.6567 31.6718 91.7473 31.5813 91.9285 31.5813C92.2002 31.5813 92.4719 31.6718 92.9247 31.7623C93.3776 31.8528 93.7399 31.9433 94.0116 31.9433C94.2833 31.9433 94.4644 31.9433 94.6456 31.8528C95.6418 31.4908 96.5475 30.8574 97.4532 30.043C98.4495 29.0476 98.9023 28.2331 98.9023 27.4187C98.9023 27.0568 98.9023 26.6948 98.7212 26.4233C98.3589 27.1473 98.0872 27.5997 97.6344 27.7807C97.3627 27.9617 97.0909 27.9617 96.5475 27.9617C96.1852 27.9617 95.823 27.6902 95.5513 27.2377C95.3701 26.8758 95.2795 26.5138 95.2795 26.0614C95.2795 25.6089 95.5513 24.885 96.0947 23.9801C96.6381 22.9847 97.1815 22.5322 97.6344 22.5322C97.9966 22.5322 98.2684 22.8942 98.7212 23.7086C99.2646 24.342 99.5363 25.1565 99.5363 26.0614Z" fill="#FDFEFF"/>
<path d="M2.5358 36.0151L4.70948 41.5351L6.79259 36.0151H8.15114V43.2544H6.97373V38.2774L4.98119 43.2544H4.16606L2.44523 38.2774V43.2544H1.17725V36.0151H2.5358Z" fill="#FDFEFF"/>
<path d="M9.14746 43.2544H10.3249V38.0059H9.14746V43.2544ZM9.14746 37.0105H10.3249V36.0151H9.14746V37.0105Z" fill="#FDFEFF"/>
<path d="M11.1401 38.0965H12.3175V38.4585C12.5893 38.2775 12.7704 38.0965 13.0421 38.0965C13.3138 38.0965 13.5855 37.9155 13.8572 37.9155C14.1289 37.9155 14.3101 37.9155 14.5818 38.006C14.8535 38.0965 14.9441 38.187 15.1252 38.368C15.3064 38.549 15.3969 38.7299 15.4875 38.8204C15.5781 38.9109 15.5781 39.1824 15.5781 39.4539V43.164H14.4007V39.5444C14.4007 39.1824 14.3101 39.0014 14.2195 38.9109C14.0384 38.7299 13.8572 38.7299 13.7667 38.7299C13.5855 38.7299 13.4044 38.7299 13.2232 38.8204C13.0421 38.9109 12.861 39.0014 12.7704 39.1824C12.5893 39.3634 12.4987 39.4539 12.4081 39.5444C12.3175 39.7253 12.3175 39.9063 12.3175 39.9968V43.164H11.2307C11.1401 43.164 11.1401 38.0965 11.1401 38.0965Z" fill="#FDFEFF"/>
<path d="M16.5742 43.2544H17.7516V38.0059H16.5742V43.2544ZM16.5742 37.0105H17.7516V36.0151H16.5742V37.0105Z" fill="#FDFEFF"/>
<path d="M19.8349 41.5352C19.8349 41.7161 19.8349 41.8971 19.9254 41.9876C20.016 42.1686 20.016 42.2591 20.1972 42.3496L20.5594 42.5306C20.65 42.5306 20.8311 42.621 20.9217 42.621C21.0123 42.621 21.1934 42.621 21.284 42.621C21.4651 42.621 21.5557 42.5306 21.6463 42.5306L21.918 42.2591C22.0086 42.1686 22.0086 41.9876 22.0086 41.8971C22.0086 41.7161 22.0086 41.6257 21.918 41.5352L21.6463 41.2637C21.5557 41.1732 21.3746 41.0827 21.284 41.0827C21.1029 40.9922 21.0123 40.9922 20.9217 40.9017C20.65 40.8112 20.4689 40.7207 20.2877 40.6303C20.016 40.5398 19.9254 40.4493 19.7443 40.2683C19.5632 40.0873 19.382 39.9968 19.382 39.9063C19.2915 39.7253 19.2009 39.5444 19.2009 39.2729C19.2009 39.0014 19.2915 38.9109 19.382 38.6395C19.4726 38.4585 19.6537 38.2775 19.7443 38.2775C19.9254 38.187 20.1066 38.0965 20.3783 38.006C20.65 37.9155 20.8311 37.9155 21.1029 37.9155C21.4651 37.9155 21.6463 37.9155 21.918 38.006C22.1897 38.0965 22.3708 38.187 22.552 38.2775C22.7331 38.4585 22.9143 38.6395 23.0048 38.7299C23.0954 38.9109 23.186 39.0919 23.186 39.4539H23.0954H22.9143H22.6425H22.3708H21.5557C21.5557 39.2729 21.4651 39.1824 21.4651 39.0919L21.284 38.8204L21.0123 38.7299H20.8311C20.5594 38.7299 20.4689 38.8204 20.2877 38.9109C20.1066 39.0014 20.1066 39.1824 20.1066 39.2729L20.1972 39.6349L20.4689 39.9063C20.5594 39.9968 20.7406 40.0873 20.8311 40.0873C21.0123 40.1778 21.1029 40.1778 21.1934 40.2683C21.4651 40.3588 21.5557 40.4493 21.8274 40.5398C22.0991 40.6302 22.1897 40.7207 22.3708 40.9017C22.552 40.9922 22.7331 41.1732 22.7331 41.2637C22.8237 41.4447 22.9143 41.6256 22.9143 41.8066C22.9143 42.1686 22.8237 42.3496 22.7331 42.5306C22.552 42.802 22.3708 42.8925 22.2803 42.983C22.0086 43.164 21.918 43.2545 21.5557 43.345C21.284 43.4355 21.0123 43.4355 20.65 43.4355C20.2877 43.4355 20.1066 43.4355 19.8349 43.345C19.5632 43.2545 19.382 43.164 19.2009 42.983C19.0197 42.802 18.8386 42.621 18.748 42.4401C18.6575 42.1686 18.5669 41.9876 18.5669 41.6256H19.7443C19.8349 41.8066 19.8349 41.5352 19.8349 41.5352Z" fill="#FDFEFF"/>
<path d="M25.3595 36.5581V38.0964H26.1746V38.9109H25.3595V42.1685C25.3595 42.3495 25.3595 42.5305 25.4501 42.5305L25.7218 42.621H25.9029C25.9935 42.621 26.1746 42.621 26.2652 42.5305V43.3449C26.0841 43.3449 25.9029 43.4354 25.8123 43.4354C25.6312 43.4354 25.4501 43.4354 25.4501 43.4354C25.2689 43.4354 25.0878 43.4354 24.9972 43.3449C24.8161 43.3449 24.6349 43.2544 24.6349 43.1639C24.5444 43.0734 24.3632 42.983 24.3632 42.802C24.2727 42.621 24.2726 42.44 24.2726 42.3495V38.9109H23.4575V38.0964H24.2726V36.5581H25.3595Z" fill="#FDFEFF"/>
<path d="M26.8994 38.0968H27.9863L28.0768 38.5493C28.258 38.3683 28.4391 38.1873 28.5297 38.1873C28.7108 38.0968 28.892 38.0063 29.0731 38.0063H29.3448L29.7071 38.0968V39.0922C29.3448 38.9113 29.1637 38.9113 29.1637 38.9113C28.9825 38.9113 28.8014 38.9113 28.8014 39.0017C28.6202 39.0922 28.5297 39.1827 28.4391 39.2732C28.3485 39.3637 28.258 39.5447 28.258 39.6352C28.1674 39.7257 28.1674 39.9067 28.1674 39.9971V43.1643H26.99C26.8994 43.1643 26.8994 38.0968 26.8994 38.0968Z" fill="#FDFEFF"/>
<path d="M32.4239 41.7161L33.6013 38.187H34.7787L32.605 44.4309C32.5145 44.7023 32.4239 44.7928 32.3333 44.9738C32.2428 45.1548 32.0616 45.2453 31.9711 45.3358C31.9711 45.4263 31.8805 45.5168 31.6993 45.5168C31.5182 45.5168 31.4276 45.5168 31.2465 45.5168C31.1559 45.5168 30.9748 45.5168 30.8842 45.5168C30.7936 45.5168 30.6125 45.4263 30.5219 45.3358V44.4309L30.7031 44.5214L30.8842 44.6118L31.0654 44.7023H31.1559L31.3371 44.6118L31.4276 44.4309L31.5182 44.1594L31.6088 43.8879L31.8805 43.164L29.9785 37.9155H31.2465L32.4239 41.7161Z" fill="#FDFEFF"/>
<path d="M38.6733 40.7207C38.6733 40.9922 38.6733 41.1732 38.7638 41.4447C38.8544 41.7161 38.945 41.8066 39.0355 41.9876C39.1261 42.1686 39.3072 42.3496 39.3978 42.3496C39.579 42.4401 39.7601 42.5306 39.9412 42.5306C40.2129 42.5306 40.3035 42.4401 40.4847 42.3496C40.6658 42.2591 40.8469 42.0781 40.8469 41.9876C40.8469 41.8971 41.1186 41.6256 41.1186 41.4447C41.2092 41.1732 41.2092 40.9922 41.2092 40.7207C41.2092 40.4493 41.2092 40.2683 41.1186 39.9968C41.0281 39.7253 40.9375 39.6348 40.8469 39.4539C40.7564 39.2729 40.5752 39.0919 40.4847 39.0919C40.3941 39.0919 40.1224 38.9109 39.9412 38.9109C39.7601 38.9109 39.579 39.0014 39.3978 39.0919C39.2167 39.1824 39.0355 39.3634 39.0355 39.4539C38.945 39.6348 38.7638 39.8158 38.7638 39.9968C38.6733 40.1778 38.6733 40.4493 38.6733 40.7207ZM37.4053 40.7207C37.4053 40.3588 37.4958 39.9968 37.5864 39.6349C37.677 39.2729 37.8581 39.0014 38.0393 38.7299C38.311 38.4585 38.4921 38.368 38.8544 38.187C39.2167 38.006 39.4884 37.9155 39.9412 37.9155C40.3035 37.9155 40.6658 38.006 41.0281 38.187C41.3904 38.368 41.5715 38.549 41.8432 38.7299C42.1149 39.0014 42.2055 39.2729 42.2961 39.6349C42.3866 39.9968 42.4772 40.2683 42.4772 40.7207C42.4772 41.0827 42.3866 41.4447 42.2961 41.8066C42.2055 42.1686 42.0243 42.4401 41.8432 42.7115C41.5715 42.983 41.3904 43.0735 41.0281 43.2545C40.6658 43.4355 40.3941 43.526 39.9412 43.526C39.579 43.526 39.2167 43.4355 38.8544 43.2545C38.4921 43.0735 38.311 42.8925 38.0393 42.7115C37.7676 42.4401 37.677 42.1686 37.5864 41.8066C37.4958 41.3542 37.4053 40.9922 37.4053 40.7207Z" fill="#FDFEFF"/>
<path d="M43.8359 38.0967V36.9204C43.8359 36.7394 43.8359 36.5584 43.9265 36.5584C44.017 36.3774 44.1076 36.2869 44.1982 36.1964C44.2887 36.1059 44.4699 36.0155 44.5605 35.925C44.651 35.8345 44.9227 35.8345 45.1039 35.8345C45.1944 35.8345 45.3756 35.8345 45.4662 35.925C45.6473 36.0155 45.8284 36.0155 45.919 36.1964V37.0109C45.7379 36.9204 45.5567 36.8299 45.5567 36.8299L45.3756 36.7394H45.285C45.1944 36.8299 45.1944 36.9204 45.1944 37.1013V38.1872H46.1001V39.0017H45.1944V43.3452H44.017V39.0017H43.1113V38.1872L43.8359 38.0967Z" fill="#FDFEFF"/>
<path d="M49.9945 39.5446C49.9945 39.9971 50.0851 40.54 50.1757 40.902C50.3568 41.2639 50.538 41.6259 50.6285 41.8974C50.9002 42.1688 50.9908 42.2593 51.3531 42.4403C51.6248 42.6213 51.8059 42.6213 52.1682 42.6213C52.4399 42.6213 52.6211 42.5308 52.8928 42.4403C53.1645 42.3498 53.2551 42.1688 53.4362 42.0783C53.6173 41.8974 53.7985 41.7164 53.7985 41.4449C53.8891 41.1734 53.9796 40.9924 54.0702 40.721H55.2476C55.157 41.0829 55.0665 41.4449 54.8853 41.8069C54.7042 42.1688 54.523 42.4403 54.2513 42.7118C53.9796 42.9832 53.7079 43.1642 53.2551 43.2547C52.8928 43.4357 52.4399 43.5262 52.0777 43.5262C51.6248 43.5262 51.0814 43.4357 50.7191 43.2547C50.3568 43.0737 49.904 42.8928 49.6323 42.4403C49.27 42.0783 49.0888 41.7164 48.9983 41.2639C48.8171 40.8115 48.7266 40.178 48.7266 39.5446C48.7266 39.1826 48.7266 38.9112 48.8171 38.5492C48.9077 38.1872 48.9983 38.0063 49.1794 37.6443C49.3606 37.3728 49.5417 37.1013 49.6323 36.9204C49.8134 36.6489 49.9945 36.5584 50.2663 36.3774C50.538 36.1964 50.8097 36.0155 51.0814 36.0155C51.4437 35.925 51.7154 35.8345 52.0777 35.8345C52.5305 35.8345 52.9834 35.925 53.2551 36.0155C53.6173 36.1059 53.8891 36.3774 54.2513 36.4679C54.523 36.7394 54.7042 36.9204 54.8853 37.1918C55.0665 37.5538 55.2476 37.8253 55.2476 38.1872H54.0702C53.8891 37.6443 53.7079 37.2823 53.2551 37.0109C52.8928 36.7394 52.5305 36.6489 52.0777 36.6489C51.7154 36.6489 51.4437 36.7394 51.172 36.9204C50.9002 37.1013 50.7191 37.2823 50.538 37.5538C50.3568 37.8253 50.1757 38.0967 50.0851 38.4587C50.0851 38.9112 49.9945 39.0921 49.9945 39.5446Z" fill="#FDFEFF"/>
<path d="M57.331 40.7207C57.331 40.9922 57.331 41.1732 57.4216 41.4447C57.5121 41.7161 57.6027 41.8066 57.6933 41.9876C57.7838 42.1686 57.965 42.3496 58.0555 42.3496C58.2367 42.4401 58.4178 42.5306 58.599 42.5306C58.7801 42.5306 58.9612 42.4401 59.1424 42.3496C59.3235 42.2591 59.5047 42.0781 59.5047 41.9876C59.5952 41.8066 59.7764 41.6256 59.7764 41.4447C59.8669 41.1732 59.8669 40.9922 59.8669 40.7207C59.8669 40.4493 59.8669 40.2683 59.7764 39.9968C59.6858 39.7253 59.5952 39.6348 59.5047 39.4539C59.4141 39.2729 59.233 39.0919 59.1424 39.0919C59.0518 39.0919 58.7801 38.9109 58.599 38.9109C58.4178 38.9109 58.2367 39.0014 58.0555 39.0919C57.8744 39.1824 57.6933 39.3634 57.6933 39.4539C57.6027 39.6348 57.4216 39.8158 57.4216 39.9968C57.4216 40.1778 57.331 40.4493 57.331 40.7207ZM56.2441 40.7207C56.2441 40.3588 56.3347 39.9968 56.4253 39.6349C56.5159 39.2729 56.697 39.0014 56.8781 38.7299C57.1498 38.4585 57.331 38.368 57.6933 38.187C58.0555 38.006 58.3273 37.9155 58.7801 37.9155C59.1424 37.9155 59.5047 38.006 59.8669 38.187C60.2292 38.368 60.4104 38.549 60.6821 38.7299C60.9538 39.0014 61.0444 39.2729 61.1349 39.6349C61.2255 39.9968 61.3161 40.2683 61.3161 40.7207C61.3161 41.0827 61.2255 41.4447 61.1349 41.8066C61.0444 42.1686 60.8632 42.4401 60.6821 42.7115C60.4104 42.983 60.2292 43.0735 59.8669 43.2545C59.5047 43.4355 59.233 43.526 58.7801 43.526C58.4178 43.526 58.0555 43.4355 57.6933 43.2545C57.331 43.0735 57.1498 42.8925 56.8781 42.7115C56.6064 42.4401 56.5159 42.1686 56.4253 41.8066C56.2441 41.3542 56.2441 40.9922 56.2441 40.7207Z" fill="#FDFEFF"/>
<path d="M62.0403 38.0965H63.2177V38.4585C63.4894 38.2775 63.58 38.0965 63.8517 38.0965C64.1234 38.0965 64.3045 38.006 64.5762 38.006C64.8479 38.006 65.0291 38.0965 65.3008 38.187C65.5725 38.2775 65.6631 38.4585 65.9348 38.7299C66.0254 38.549 66.2065 38.4585 66.2971 38.368C66.4782 38.2775 66.5688 38.187 66.6593 38.0965C66.8405 38.006 67.0216 38.006 67.0216 37.9155C67.2028 37.9155 67.3839 37.9155 67.3839 37.9155C67.6556 37.9155 67.8367 37.9155 68.1085 38.0965C68.3802 38.187 68.4707 38.2775 68.6519 38.4585C68.833 38.6395 68.9236 38.8204 69.0142 38.9109C69.1047 39.0919 69.1953 39.2729 69.1953 39.5444V43.2545H68.0179V39.8158C68.0179 39.6349 68.0179 39.4539 67.9273 39.3634C67.8368 39.1824 67.8368 39.0919 67.7462 39.0014L67.4745 38.8204L67.2028 38.7299C67.0216 38.7299 66.9311 38.7299 66.8405 38.8204C66.7499 38.9109 66.5688 39.0014 66.4782 39.0919C66.3876 39.1824 66.2971 39.3634 66.2065 39.4539C66.1159 39.6348 66.1159 39.8158 66.1159 39.9063V43.164H64.9385V39.7253C64.9385 39.5444 64.9385 39.3634 64.8479 39.2729C64.7574 39.0919 64.7574 39.0014 64.6668 38.9109L64.3951 38.7299L64.1234 38.6395C63.9422 38.6395 63.7611 38.7299 63.6705 38.8204C63.58 38.9109 63.3988 39.0014 63.3082 39.1824C63.2177 39.3634 63.1271 39.4539 63.0365 39.5444C62.946 39.7253 62.946 39.9063 62.946 39.9968V43.164H61.7686V38.0965H62.0403Z" fill="#FDFEFF"/>
<path d="M70.2822 38.0965H71.5502V38.4585C71.8219 38.2775 71.9125 38.0965 72.1842 38.0965C72.4559 38.006 72.637 38.006 72.9088 38.006C73.1805 38.006 73.3616 38.0965 73.6333 38.187C73.905 38.2775 73.9956 38.4585 74.2673 38.7299C74.3579 38.549 74.539 38.4585 74.6296 38.368C74.8107 38.2775 74.9013 38.187 74.9919 38.0965C75.173 38.006 75.3541 38.006 75.3541 37.9155C75.5353 37.9155 75.7164 37.9155 75.7164 37.9155C75.9881 37.9155 76.1693 37.9155 76.441 38.0965C76.7127 38.187 76.8033 38.2775 76.9844 38.4585C77.1656 38.6395 77.2561 38.8204 77.3467 38.9109C77.4373 39.0919 77.5278 39.2729 77.5278 39.5444V43.2545H76.3504V39.8158C76.3504 39.6349 76.3504 39.4539 76.2598 39.3634C76.1693 39.1824 76.1693 39.0919 76.0787 39.0014L75.807 38.8204L75.5353 38.7299C75.3542 38.7299 75.2636 38.7299 75.173 38.8204C75.0824 38.9109 74.9013 39.0014 74.8107 39.0919C74.7202 39.1824 74.6296 39.3634 74.539 39.4539C74.4485 39.6348 74.4484 39.8158 74.4484 39.9063V43.164H73.271V39.7253C73.271 39.5444 73.271 39.3634 73.1805 39.2729C73.0899 39.0919 73.0899 39.0014 72.9993 38.9109L72.7276 38.7299L72.4559 38.6395C72.2748 38.6395 72.0936 38.7299 72.0031 38.8204C71.8219 38.9109 71.7313 39.0014 71.6408 39.1824C71.5502 39.3634 71.4596 39.4539 71.3691 39.5444C71.5502 39.7253 71.5502 39.9063 71.5502 40.0873V43.2545H70.3728L70.2822 38.0965Z" fill="#FDFEFF"/>
<path d="M82.2375 40.0875C82.2375 39.9065 82.147 39.7255 82.147 39.5445C82.0564 39.3635 81.9658 39.1826 81.8753 39.1826C81.7847 39.0016 81.6035 38.9111 81.513 38.8206C81.4224 38.7301 81.1507 38.7301 81.0601 38.7301C80.879 38.7301 80.6978 38.7301 80.6073 38.8206C80.4261 38.9111 80.3356 39.0016 80.245 39.1826C80.1544 39.3635 80.0639 39.454 79.9733 39.5445C79.8827 39.7255 79.8827 39.9065 79.8827 39.997L82.2375 40.0875ZM79.7921 40.9019C79.7921 41.1734 79.8827 41.2638 79.9733 41.5353C80.0639 41.8068 80.1544 41.8973 80.245 42.0783C80.3356 42.2592 80.5167 42.3497 80.6073 42.4402C80.7884 42.5307 80.9696 42.6212 81.0601 42.6212C81.6035 42.6212 82.147 42.2592 82.3281 41.5353H83.4149C83.3244 41.8973 83.2338 42.0783 83.0527 42.3497C82.8715 42.6212 82.6904 42.7117 82.5092 42.8927C82.2375 43.0737 82.0564 43.1642 81.7847 43.2546C81.513 43.3451 81.3318 43.3451 80.9696 43.3451C80.6073 43.3451 80.245 43.2546 79.8827 43.0737C79.5204 42.8927 79.3393 42.7117 79.0676 42.4402C78.7959 42.1688 78.7053 41.8973 78.6147 41.5353C78.5242 41.1734 78.4336 40.8114 78.4336 40.4494C78.4336 40.0875 78.5242 39.816 78.6147 39.454C78.7053 39.0921 78.977 38.9111 79.0676 38.6396C79.3393 38.3681 79.5204 38.2776 79.8827 38.0967C80.245 37.9157 80.5167 37.8252 80.9696 37.8252C81.4224 37.8252 81.6941 37.9157 82.0564 38.0062C82.4187 38.1872 82.5998 38.3681 82.8715 38.5491C83.1432 38.8206 83.2338 39.0016 83.3244 39.3635C83.4149 39.7255 83.5055 39.997 83.5055 40.4494V40.9924L79.7921 40.9019Z" fill="#FDFEFF"/>
<path d="M84.23 38.0965H85.3168L85.4074 38.4585C85.5885 38.2775 85.7697 38.0965 85.8602 38.0965C86.0414 38.006 86.2225 37.9155 86.4037 37.9155H86.6754L87.0377 38.006V39.0014C86.6754 38.8204 86.4942 38.8204 86.4942 38.8204C86.3131 38.8204 86.132 38.8204 86.132 38.9109C85.9508 39.0014 85.8602 39.0919 85.7697 39.1824C85.6791 39.2729 85.5885 39.4539 85.5885 39.5444C85.498 39.7253 85.498 39.9063 85.498 39.9968V43.164H84.23V38.0965Z" fill="#FDFEFF"/>
<path d="M91.1135 39.7255C91.023 39.3635 90.8418 39.0921 90.7513 39.0016C90.5701 38.8206 90.389 38.7301 90.1173 38.7301C89.9361 38.7301 89.755 38.8206 89.5738 38.9111C89.3927 39.0016 89.2116 39.1826 89.2116 39.2731C89.121 39.454 89.0304 39.635 88.9399 39.816C88.7587 40.178 88.7587 40.3589 88.7587 40.5399C88.7587 40.8114 88.7587 40.9924 88.8493 41.2638C88.9399 41.5353 89.0304 41.7163 89.121 41.8973C89.2116 42.0783 89.3927 42.2592 89.4833 42.2592C89.5738 42.2592 89.8456 42.4402 89.9361 42.4402C90.1173 42.4402 90.2078 42.4402 90.2984 42.3497L90.6607 42.0783C90.7513 41.9878 90.8418 41.8068 90.9324 41.7163C91.023 41.5353 91.023 41.3543 91.1135 41.2638H92.3815C92.3815 41.6258 92.2909 41.8973 92.1098 42.1688C91.9287 42.4402 91.7475 42.6212 91.657 42.8022C91.4758 42.9832 91.2947 43.1642 90.9324 43.1642C90.6607 43.2546 90.389 43.3451 90.0267 43.3451C89.6644 43.3451 89.2116 43.2546 88.9399 43.0737C88.5776 42.8927 88.3964 42.7117 88.2153 42.4402C88.0342 42.1688 87.853 41.8973 87.853 41.5353C87.7624 41.1734 87.6719 40.9019 87.6719 40.5399C87.6719 40.178 87.7624 39.816 87.853 39.454C87.9436 39.0921 88.1247 38.9111 88.3059 38.6396C88.5776 38.3681 88.7587 38.2776 89.121 38.0967C89.4833 37.9157 89.755 37.8252 90.2078 37.8252C90.5701 37.8252 90.8418 37.9157 91.1135 38.0062C91.3852 38.0967 91.5664 38.2777 91.7475 38.3681C91.9287 38.5491 92.1098 38.7301 92.2004 38.9111C92.2909 39.1826 92.4721 39.3635 92.4721 39.635L91.1135 39.7255Z" fill="#FDFEFF"/>
<path d="M96.8196 40.0875C96.8196 39.9065 96.729 39.7255 96.729 39.5445C96.6384 39.3635 96.5479 39.1826 96.4573 39.1826C96.3667 39.0016 96.1856 38.9111 96.095 38.8206C96.0044 38.7301 95.7327 38.7301 95.6422 38.7301C95.461 38.7301 95.2799 38.7301 95.1893 38.8206C95.0082 38.9111 94.9176 39.0016 94.827 39.1826C94.7365 39.3635 94.6459 39.454 94.5553 39.5445C94.4648 39.7255 94.4648 39.9065 94.4648 39.997L96.8196 40.0875ZM94.3742 40.9019C94.3742 41.1734 94.4648 41.2638 94.5553 41.5353C94.6459 41.8068 94.7365 41.8973 94.827 42.0783C94.9176 42.2592 95.0987 42.3497 95.1893 42.4402C95.3704 42.5307 95.5516 42.6212 95.6422 42.6212C96.1856 42.6212 96.729 42.2592 96.9101 41.5353H97.997C97.9064 41.8973 97.8158 42.0783 97.6347 42.3497C97.4536 42.6212 97.2724 42.7117 97.0913 42.8927C96.8196 43.0737 96.6384 43.1642 96.3667 43.2546C96.095 43.3451 95.8233 43.3451 95.5516 43.3451C95.1893 43.3451 94.827 43.2546 94.4648 43.0737C94.1025 42.8927 93.9213 42.7117 93.6496 42.4402C93.3779 42.1688 93.2873 41.8973 93.1968 41.5353C93.1062 41.1734 93.0156 40.8114 93.0156 40.4494C93.0156 40.0875 93.1062 39.816 93.1968 39.454C93.2873 39.0921 93.559 38.9111 93.6496 38.6396C93.9213 38.3681 94.1025 38.2776 94.4648 38.0967C94.827 37.9157 95.0987 37.8252 95.5516 37.8252C96.0044 37.8252 96.2761 37.9157 96.6384 38.0062C97.0007 38.1872 97.1818 38.3681 97.4536 38.5491C97.7253 38.8206 97.8158 39.0016 97.9064 39.3635C97.997 39.7255 98.0876 39.997 98.0876 40.4494V40.9924L94.3742 40.9019Z" fill="#FDFEFF"/>
<path d="M169.819 0.090332C162.573 1.53818 152.52 2.44309 141.923 2.44309C131.417 2.44309 121.273 1.62868 114.028 0.090332C115.477 7.3296 116.383 17.4646 116.383 27.9615C116.383 38.5489 115.568 48.5934 114.028 55.8327C121.273 54.3848 131.417 53.4799 141.923 53.4799C152.52 53.4799 162.573 54.2943 169.819 55.8327C168.37 48.5934 167.464 38.5489 167.464 27.9615C167.555 17.4646 168.37 7.3296 169.819 0.090332ZM151.162 13.7544C151.252 13.8449 151.252 13.8449 151.252 14.0259V14.2069H151.343C151.343 14.2069 152.067 14.2974 152.067 15.2928V15.3833H152.158C152.158 15.3833 152.792 15.7452 152.882 16.2882C152.882 16.4692 152.882 16.5597 152.792 16.6501C152.701 16.6501 152.43 16.6501 152.248 16.6501C151.796 16.6501 151.433 16.5597 151.343 16.3787C151.343 16.3787 150.618 16.1072 149.894 15.5643L149.803 15.4738H149.712C149.712 15.4738 149.441 15.6547 149.169 15.6547C148.897 15.6547 148.535 15.4738 148.173 15.2928L148.082 15.2023L147.992 15.2928C147.992 15.2928 147.901 15.3833 147.72 15.4738H147.629C147.358 15.4738 147.086 15.3833 146.724 15.1118H146.633L146.542 15.2928C146.542 15.2928 146.361 15.6547 145.456 15.6547C145.275 15.6547 145.184 15.6547 145.093 15.6547C144.912 15.5643 143.916 15.2023 142.92 15.0213L142.557 14.9308C142.92 14.8403 143.191 14.6594 143.554 14.5689C144.007 14.3879 144.55 14.2974 144.55 14.2974C145.365 13.9354 145.546 13.483 145.637 13.2115C145.999 13.2115 146.18 13.121 146.361 13.0305C146.361 13.0305 146.905 12.759 147.448 12.759C147.629 12.759 147.81 12.8495 147.81 12.94C147.901 13.0305 147.901 13.121 147.901 13.2115V13.483L148.082 13.3925C148.082 13.3925 148.807 13.0305 149.35 13.0305C149.531 13.0305 149.622 13.0305 149.712 13.121C149.712 13.2115 149.712 13.302 149.712 13.3925L149.622 13.5735H149.803C149.803 13.5735 150.075 13.483 150.256 13.483C150.799 13.483 151.071 13.5735 151.162 13.7544ZM147.539 21.3557C147.539 21.3557 147.901 21.8986 147.267 22.4416L147.176 22.532V22.6225C147.176 22.8035 147.267 23.3465 147.086 23.6179L146.814 23.7989C146.452 23.437 146.18 22.9845 146.18 22.713C146.18 22.713 145.818 22.0796 145.818 21.2652V21.0842H145.727C145.727 21.0842 145.093 20.7222 145.093 19.9078V19.8173H145.003C145.003 19.8173 144.55 19.8173 144.369 18.7314V18.5505L144.188 18.6409C144.188 18.6409 143.825 18.8219 143.191 17.8265C143.101 17.6455 142.739 16.5597 142.286 15.7452C143.191 16.3787 144.278 17.6455 144.278 17.6455C144.641 18.0075 145.093 18.098 145.365 18.098C145.637 18.098 145.727 18.0075 145.818 17.917C145.908 18.098 146.09 18.279 146.18 18.279L146.09 18.3695L145.908 18.46L146.09 18.5505C146.452 18.8219 147.176 19.2744 147.086 19.5459L146.905 19.7268L146.724 19.8173L146.905 19.9983C147.086 20.1793 147.539 20.7222 147.539 21.0842V21.3557ZM136.942 23.7989L136.67 23.6179C136.399 23.256 136.58 22.6225 136.58 22.6225V22.532L136.489 22.4416C135.946 21.9891 136.217 21.3557 136.217 21.3557L136.308 21.2652L136.217 21.1747L136.036 20.9032C136.036 20.5413 136.489 19.9983 136.67 19.8173L136.851 19.6363L136.67 19.5459L136.489 19.3649C136.489 19.0934 137.033 18.6409 137.485 18.3695L137.667 18.279L137.485 18.1885L137.395 18.098C137.485 18.0075 137.576 17.8265 137.757 17.736C137.848 17.8265 138.029 17.917 138.21 17.917C138.572 17.917 138.935 17.736 139.297 17.4646C139.297 17.4646 140.384 16.1977 141.289 15.5643C140.927 16.3787 140.474 17.4646 140.384 17.6455C139.84 18.6409 139.387 18.46 139.387 18.46L139.206 18.3695V18.5505C139.116 19.5459 138.572 19.6363 138.572 19.6363H138.482V19.8173C138.482 20.8127 137.848 20.9937 137.848 20.9937H137.757V21.0842C137.757 21.8986 137.395 22.532 137.395 22.532C137.576 22.9845 137.214 23.437 136.942 23.7989ZM132.866 20.2698C132.595 19.1839 133.229 18.7314 133.229 18.6409L133.319 18.5505V18.46C133.229 18.279 133.229 18.098 133.319 17.917C133.591 17.3741 134.497 17.1026 134.497 17.1026H134.678L134.587 16.9216C134.497 16.7406 134.497 16.5597 134.587 16.5597C134.859 16.1977 135.674 16.1072 136.036 16.1072H136.217L136.127 15.9262V15.7452H136.217C136.489 15.7452 136.761 15.6547 137.123 15.3833C137.304 15.5643 137.485 15.7452 138.301 15.7452C138.482 15.7452 138.663 15.7452 138.753 15.7452C138.753 15.7452 140.384 15.1118 141.289 15.0213H141.471L141.199 15.2023L140.837 15.4738C140.021 16.1072 139.116 17.1931 139.025 17.2836C138.663 17.5551 138.301 17.6455 138.029 17.6455C137.757 17.6455 137.667 17.4646 137.667 17.4646L137.576 17.6455C137.395 17.917 137.304 18.0075 137.214 18.1885L137.123 18.279C136.851 18.5505 136.761 18.5505 136.67 18.5505L136.489 18.46L136.399 18.3695L136.308 18.5505C135.855 19.5459 135.221 19.6363 135.131 19.6363H135.04H134.95V19.7268C134.497 20.8127 133.863 21.3557 133.863 21.3557C133.682 21.7176 132.957 22.1701 132.685 22.2606C132.051 21.5367 132.866 20.3603 132.866 20.2698ZM138.301 33.6624H141.471L140.837 30.7667L141.289 30.3143L140.655 27.69L141.199 27.4186L140.474 24.5228L141.108 24.0704L140.565 21.6271L141.199 21.2652L140.837 19.0934L141.289 18.7314L141.199 16.3787C141.199 16.2882 141.471 15.6547 141.923 15.2023C142.467 15.6547 142.648 16.3787 142.648 16.3787L142.557 18.7314L143.01 19.0934L142.648 21.2652L143.282 21.6271L142.739 24.0704L143.373 24.5228L142.739 27.4186L143.191 27.69L142.557 30.3143L143.01 30.7667L142.557 33.6624H145.637C145.637 33.6624 145.999 33.8434 145.908 34.1149C145.727 34.4768 144.097 36.0152 144.097 35.9247C143.916 35.8342 143.916 35.2008 143.825 35.1103C143.735 35.0198 143.101 35.7437 142.739 35.9247C142.739 35.9247 142.376 35.5627 141.923 35.2913C141.471 35.6532 140.927 35.9247 140.927 35.9247C140.565 35.7437 140.112 35.0198 140.112 35.1103C140.021 35.2008 140.021 35.8342 139.84 35.9247C139.659 36.0152 138.029 34.3863 138.029 34.1149C137.938 33.7529 138.301 33.6624 138.301 33.6624ZM147.539 18.46L147.448 18.279L147.358 18.3695C147.358 18.3695 147.267 18.46 147.176 18.46C147.086 18.46 146.814 18.3695 146.724 18.1885L146.633 18.098C146.542 17.917 146.361 17.736 146.271 17.5551L146.18 17.3741L146.09 17.4646L145.999 17.5551C145.999 17.5551 145.908 17.736 145.637 17.736C145.365 17.736 145.093 17.5551 144.641 17.3741C144.55 17.1931 143.554 16.2882 142.829 15.5643C142.648 15.4738 142.557 15.3833 142.467 15.2928L142.195 15.1118H142.376C143.463 15.2928 144.912 15.8357 144.912 15.8357C145.093 15.8357 145.275 15.8357 145.365 15.8357C146.09 15.8357 146.452 15.5643 146.542 15.4738C146.905 15.7452 147.176 15.8357 147.539 15.8357H147.629V16.0167L147.539 16.1977H147.72C148.082 16.1977 148.897 16.2882 149.169 16.6501C149.26 16.7406 149.26 16.9216 149.169 17.0121L149.078 17.1931L149.26 17.2836C149.26 17.2836 150.165 17.5551 150.437 18.098C150.528 18.279 150.528 18.46 150.437 18.6409V18.7314L150.528 18.8219C150.528 18.8219 151.252 19.2744 150.89 20.4508V20.5413V20.6317C150.89 20.6317 151.705 21.8081 151.252 22.4416C150.89 22.2606 150.165 21.9891 150.075 21.5366C150.075 21.5366 149.441 20.9032 148.988 19.9078L148.897 19.8173H148.807H148.716C148.535 19.5459 147.992 19.4554 147.539 18.46ZM148.354 10.0443H148.535C148.535 10.0443 148.716 9.95383 148.897 9.95383C149.169 9.95383 149.35 10.1348 149.531 10.4063V10.4968H149.622H149.712C149.894 10.4968 150.346 10.4968 150.528 10.7682C150.618 10.8587 150.618 10.9492 150.618 11.1302C150.346 11.3112 149.894 11.6732 149.531 11.6732H149.441C149.441 11.6732 149.078 11.8541 148.444 11.8541C148.263 11.8541 148.173 11.8541 148.082 11.8541H147.992V11.9446C147.992 11.9446 147.629 12.3971 146.995 12.3971H146.724V12.4876C146.724 12.4876 146.724 12.6686 146.542 12.759L146.452 12.8495L146.18 12.94H146.09C145.999 12.94 145.818 12.94 145.727 12.94H145.637H145.546C145.546 13.0305 145.546 13.3925 144.641 13.9354C144.459 13.9354 143.644 14.2069 142.92 14.3879C142.648 14.4784 142.557 14.5689 142.286 14.6594L142.557 14.2974C143.01 13.8449 143.644 13.2115 143.644 13.2115C144.097 12.5781 144.097 12.1256 144.097 12.0351C144.641 11.6732 144.731 11.3112 144.731 11.1302C145.003 11.0397 145.093 10.8587 145.274 10.7682C145.365 10.7682 145.456 10.7682 145.456 10.9492L145.546 11.1302L145.637 10.9492C145.908 10.5873 146.361 10.0443 146.633 10.0443C146.633 10.0443 146.724 10.0443 146.814 10.2253L146.905 10.4063L147.086 10.2253C147.267 10.0443 147.72 9.77285 148.082 9.77285C148.263 9.77285 148.263 9.86334 148.354 10.0443ZM143.282 10.4063L143.463 10.5873L143.554 10.3158C143.644 9.86334 143.916 9.2299 144.007 9.2299L144.097 9.32039L144.278 9.50138L144.369 9.32039C144.459 9.04892 144.731 8.50598 145.093 8.50598L145.274 8.59647L145.365 8.68696L145.456 8.59647C145.456 8.59647 145.637 8.32499 145.818 8.32499C145.999 8.32499 146.09 8.41549 146.18 8.50598L146.271 8.59647H146.361C146.361 8.59647 146.724 8.41549 146.905 8.41549C147.086 8.41549 147.267 8.50598 147.267 8.59647C147.086 8.95843 146.905 9.41088 146.633 9.41088C146.633 9.41088 146.271 9.77285 145.546 10.0443H145.456V10.1348C145.456 10.1348 145.456 10.3158 145.274 10.4968C145.184 10.6778 144.912 10.8587 144.731 10.8587H144.641V11.0397V11.1302V11.2207C144.641 11.3112 144.641 11.4922 144.459 11.5827C144.369 11.6732 144.188 11.7636 144.097 11.9446L144.007 12.0351L144.097 12.1256C144.097 12.1256 144.278 12.4876 143.735 13.2115C143.644 13.302 143.282 13.5735 142.829 13.9354L142.557 14.2069L142.286 14.4784L142.376 14.2974C142.739 13.302 143.191 11.4922 143.373 10.3158L143.282 10.4063ZM140.927 9.50138L141.018 9.32039C140.927 8.41549 141.018 7.69156 141.199 7.51058L141.289 7.42009H141.38L141.561 7.51058C141.742 6.87714 141.923 6.42469 142.105 6.24371C142.286 6.42469 142.467 6.78665 142.648 7.51058V7.69156L142.829 7.60107H142.92L143.01 7.69156C143.191 7.96303 143.282 8.68696 143.191 9.50138V9.68236H143.282C143.282 9.77285 143.282 10.0443 143.191 10.3158V10.4968L143.101 10.8587C142.92 11.6732 142.648 12.759 142.286 14.0259V14.1164L142.195 14.4784V14.3879L142.105 14.0259V13.8449C141.742 12.759 141.471 11.4922 141.289 10.6778L141.199 10.3158V10.2253C140.927 9.86334 140.927 9.59187 140.927 9.50138ZM137.123 8.41549C137.395 8.41549 137.667 8.59647 137.667 8.59647H137.757L137.848 8.50598C138.029 8.41549 138.119 8.32499 138.21 8.32499C138.482 8.32499 138.572 8.59647 138.572 8.59647L138.663 8.68696L138.753 8.59647L138.935 8.50598C139.206 8.50598 139.478 9.04892 139.569 9.32039L139.659 9.50138L139.75 9.32039L139.84 9.2299C140.021 9.2299 140.203 9.77285 140.293 10.3158V10.5873L140.474 10.4063L140.655 10.3158C140.927 11.4017 141.38 13.302 141.652 14.2974L141.742 14.4784L141.471 14.2069L141.199 13.9354C140.837 13.5735 140.384 13.2115 140.293 13.2115C139.75 12.4876 139.931 12.1256 139.931 12.1256L140.021 12.0351L139.931 11.9446C139.75 11.8541 139.569 11.7636 139.569 11.5827C139.387 11.4017 139.387 11.2207 139.387 11.2207V11.1302H139.297C138.935 11.0397 138.844 10.8587 138.753 10.7682C138.572 10.4968 138.572 10.4063 138.572 10.4063V10.2253H138.482C137.938 9.95383 137.395 9.59187 137.395 9.59187C137.123 9.59187 136.942 9.13941 136.761 8.77745C136.761 8.41549 136.942 8.41549 137.123 8.41549ZM133.5 10.8587C133.772 10.5873 134.225 10.5873 134.316 10.5873H134.406H134.497V10.4968C134.678 10.1348 134.859 10.0443 135.131 10.0443C135.312 10.0443 135.493 10.1348 135.493 10.1348L135.584 10.2253L135.674 10.1348C135.765 9.95383 135.855 9.86334 136.036 9.86334C136.399 9.86334 137.033 10.3158 137.033 10.3158L137.214 10.4968L137.304 10.3158C137.304 10.1348 137.395 10.1348 137.485 10.1348C137.757 10.1348 138.21 10.6778 138.482 11.0397L138.572 11.2207L138.663 11.0397C138.753 10.8587 138.844 10.8587 138.935 10.8587C139.116 11.0397 139.297 11.2207 139.478 11.2207C139.478 11.4017 139.569 11.7636 140.112 12.1256C140.021 12.3066 140.021 12.759 140.474 13.302C140.474 13.302 141.108 13.7544 141.561 14.3879L141.833 14.7498C141.652 14.6593 141.471 14.5689 141.199 14.4784C140.474 14.2069 139.659 14.0259 139.478 14.0259C138.572 13.664 138.572 13.121 138.572 13.0305V12.94H138.482H138.391C138.21 12.94 138.119 12.94 138.029 12.94H137.938L137.667 12.8495L137.576 12.759C137.395 12.5781 137.395 12.4876 137.395 12.4876V12.3971H137.304H137.033C136.399 12.3971 136.036 11.9446 136.036 11.9446L135.946 11.8541H135.855C135.674 11.8541 135.584 11.8541 135.493 11.8541C134.95 11.8541 134.497 11.6732 134.497 11.6732H134.406C134.044 11.6732 133.591 11.3112 133.319 11.1302C133.319 10.9492 133.41 10.9492 133.5 10.8587ZM130.964 16.1977C131.055 15.7452 131.689 15.2928 131.689 15.2928H131.78V15.2023C131.78 14.2069 132.504 14.1164 132.504 14.1164H132.595V13.9354C132.595 13.7544 132.595 13.664 132.685 13.5735C132.866 13.3925 133.138 13.302 133.591 13.302C133.863 13.302 134.044 13.3925 134.044 13.3925H134.225L134.134 13.2115C134.134 13.121 134.134 12.94 134.134 12.94C134.225 12.8495 134.316 12.8495 134.497 12.8495C134.95 12.8495 135.765 13.2115 135.765 13.2115L135.946 13.302V13.0305C135.946 12.8495 135.946 12.759 136.036 12.759C136.127 12.6686 136.308 12.5781 136.399 12.5781C136.851 12.5781 137.485 12.8495 137.485 12.8495H137.576C137.757 12.94 137.938 13.0305 138.301 13.0305C138.301 13.302 138.572 13.664 139.387 14.1164C139.387 14.1164 139.75 14.2069 140.384 14.3879C140.746 14.4784 141.018 14.5689 141.38 14.7498L141.018 14.8403C140.021 15.1118 139.025 15.4738 138.844 15.4738C138.663 15.4738 138.482 15.4738 138.482 15.4738C137.576 15.4738 137.395 15.1118 137.395 15.1118L137.304 14.9308L137.214 15.0213C136.851 15.2928 136.58 15.3833 136.308 15.3833H136.217H136.127C135.946 15.2928 135.855 15.2023 135.855 15.2023L135.765 15.1118L135.674 15.2023C135.312 15.4738 135.04 15.5643 134.678 15.5643C134.316 15.5643 134.134 15.3833 134.134 15.3833H134.044L133.953 15.4738C133.229 16.0167 132.504 16.2882 132.504 16.2882C132.323 16.4692 132.142 16.5597 131.598 16.5597C131.327 16.5597 131.236 16.5597 131.055 16.5597C130.964 16.5597 130.964 16.3787 130.964 16.1977ZM149.712 38.0965C147.539 39.5443 145.365 41.2636 143.463 42.8925C144.55 43.8879 145.546 44.7928 146.542 45.9692L146.633 45.8787H146.905L146.995 46.0597L147.176 45.7882C147.086 45.5167 147.176 45.2452 147.448 45.0643C147.81 44.7928 148.082 44.7928 148.354 45.0643C148.626 45.3357 148.535 45.6977 148.263 45.9692C148.082 46.1502 147.901 46.2406 147.629 46.1502C147.448 46.4216 147.539 46.5121 147.539 46.5121C147.81 47.1455 148.988 47.598 149.984 47.598C150.709 47.598 151.162 47.3265 151.886 46.6026C152.701 45.7882 153.426 46.6026 153.426 46.6026C154.513 48.3219 152.248 49.7698 150.618 49.8603C148.626 49.8603 146.724 48.6839 146.271 48.0505C146.09 47.8695 145.908 47.779 145.818 47.8695C145.727 47.8695 145.637 48.0505 145.637 48.2314C145.637 48.5029 145.546 48.5934 145.365 48.7744C145.093 49.0459 144.731 49.0459 144.459 48.7744C144.188 48.5029 144.278 48.1409 144.55 47.8695C144.731 47.6885 144.912 47.6885 145.003 47.6885H145.093L145.003 47.598V47.3265L145.274 47.0551C144.912 46.6931 143.644 45.4262 141.923 43.9784C140.293 45.4262 139.116 46.6026 138.572 47.0551L138.844 47.3265V47.598L138.753 47.6885H138.844C139.025 47.6885 139.206 47.779 139.297 47.8695C139.569 48.1409 139.659 48.5029 139.387 48.7744C139.116 49.0459 138.753 49.0459 138.482 48.7744C138.301 48.5934 138.21 48.4124 138.21 48.2314C138.21 48.0505 138.119 47.96 138.029 47.8695C137.848 47.779 137.757 47.8695 137.576 48.0505C137.123 48.5934 135.312 49.8603 133.319 49.8603C131.598 49.8603 129.244 48.3219 130.512 46.6026C130.512 46.6026 131.236 45.7882 132.051 46.6026C132.776 47.3265 133.229 47.598 133.953 47.598C134.859 47.598 136.036 47.0551 136.308 46.5121C136.308 46.5121 136.399 46.2406 136.217 46.1502C136.036 46.2406 135.855 46.1502 135.584 45.9692C135.312 45.6977 135.221 45.3357 135.493 45.0643C135.765 44.7928 136.127 44.7928 136.399 45.0643C136.67 45.2452 136.761 45.5167 136.67 45.7882L136.851 46.0597V45.8787H137.123L137.214 45.9692C138.301 44.8833 139.297 43.8879 140.293 42.8925C138.482 41.3541 136.217 39.5443 134.044 38.0965C127.16 33.4814 121.998 34.0244 121.998 34.0244C125.893 32.5765 130.783 34.0244 132.957 35.2008C134.587 36.1057 137.938 38.187 141.742 41.4446C145.546 38.0965 148.988 36.0152 150.528 35.2008C152.792 33.9339 157.592 32.5765 161.487 34.0244C161.758 33.8434 156.596 33.4814 149.712 38.0965Z" fill="#FDFEFF"/>
</g>
<defs>
<clipPath id="clip0_224_326">
<rect width="170" height="59" fill="white"/>
</clipPath>
</defs>
</svg>
