<svg width="170" height="47" viewBox="0 0 170 47" fill="none" xmlns="http://www.w3.org/2000/svg">
<g clip-path="url(#clip0_224_367)">
<path d="M66.6411 14.0708H67.8103V17.1171H71.3907V14.0708H72.5599V21.3964H71.3907V18.1688H67.8103V21.3964H66.6411V14.0708Z" fill="white"/>
<path d="M78.8803 21.2877C78.113 21.4328 77.3092 21.5053 76.542 21.5416C75.1171 21.5416 74.2402 20.9613 74.2402 19.5832V16.3193H75.4094C75.4094 17.3348 75.4094 18.3502 75.4094 19.3656C75.4094 20.1635 75.8478 20.4173 76.5785 20.4173C76.9439 20.4173 77.3092 20.3811 77.6746 20.3085V16.3193H78.8437L78.8803 21.2877Z" fill="white"/>
<path d="M87.9044 18.1327V21.4329H86.7353C86.7353 20.4174 86.7353 19.3657 86.7353 18.3503C86.7353 17.7338 86.5161 17.2986 85.6758 17.2986C85.3469 17.2986 85.0181 17.4074 84.7258 17.5887C84.7624 17.8063 84.7989 17.9877 84.7989 18.2053V21.4329H83.6298V18.3503C83.6298 17.5887 83.1913 17.2986 82.5337 17.2986C82.2049 17.2986 81.9126 17.3349 81.6203 17.4074V21.3966H80.4512V16.4282C81.1453 16.2832 81.8761 16.2107 82.6068 16.1744C83.1548 16.1381 83.7028 16.2832 84.1413 16.6096C84.6162 16.3194 85.2008 16.1744 85.7488 16.1744C87.0276 16.1744 87.9044 16.7184 87.9044 18.1327Z" fill="white"/>
<path d="M93.677 18.1328V21.1791C92.9462 21.3967 92.179 21.5055 91.4117 21.5055C89.8407 21.5055 88.9639 20.889 88.9639 19.7647C88.9639 18.6768 89.7676 18.0603 91.3021 18.0603C91.704 18.0603 92.1425 18.0965 92.5444 18.169V18.1328C92.5444 17.5163 92.0694 17.1536 91.1195 17.1536C90.5349 17.1536 89.9138 17.2624 89.3658 17.48L89.658 16.4283C90.2061 16.2107 90.8272 16.1382 91.4117 16.1382C92.727 16.1382 93.677 16.7184 93.677 18.1328ZM91.4117 20.4538C91.7771 20.4538 92.1425 20.4175 92.5078 20.345V19.1482C92.1425 19.0757 91.7771 19.0394 91.4117 19.0394C90.5349 19.0394 90.133 19.257 90.133 19.7647C90.133 20.2724 90.5714 20.4538 91.4117 20.4538Z" fill="white"/>
<path d="M95.1387 16.4282C95.9059 16.2831 96.6732 16.2106 97.4769 16.1743C98.7192 16.1743 99.7787 16.6095 99.7787 18.1327C99.7787 19.2206 99.7787 20.3448 99.7787 21.4328H98.6096V18.3502C98.6096 17.5887 98.1711 17.2985 97.4039 17.2985C97.0385 17.2985 96.6732 17.3348 96.3078 17.4073V21.4328H95.1387V16.4282Z" fill="white"/>
<path d="M105.551 18.4589H104.199V21.3964H103.03V14.0708H105.88C107.743 14.0708 108.511 14.9412 108.511 16.2105C108.547 17.2622 107.816 18.1688 106.757 18.3501L108.693 21.3964H107.415L105.551 18.4589ZM104.199 17.4435H105.99C106.83 17.4435 107.341 17.0083 107.341 16.283C107.341 15.5577 106.793 15.195 105.99 15.195H104.199V17.4435Z" fill="white"/>
<path d="M114.21 19.257H110.264C110.374 20.0186 111.068 20.5626 111.872 20.5263C112.42 20.5263 112.968 20.4175 113.48 20.1274L113.991 21.034C113.333 21.3604 112.566 21.5417 111.835 21.5417C110.411 21.6505 109.205 20.5626 109.132 19.1845C109.132 19.0757 109.132 18.9669 109.132 18.8581C109.132 17.2261 110.191 16.1382 111.799 16.1382C113.297 16.1382 114.283 17.1899 114.283 18.713L114.21 19.257ZM110.301 18.2416H113.114C113.041 17.5525 112.53 17.1174 111.726 17.1174C110.995 17.0811 110.374 17.5888 110.301 18.2416Z" fill="white"/>
<path d="M114.722 21.1066L115.014 20.2C115.562 20.4176 116.147 20.5626 116.768 20.5626C117.498 20.5626 117.973 20.4538 117.973 20.0187C117.973 19.5835 117.791 19.5472 116.95 19.3296L116.475 19.2208C115.343 18.9307 114.868 18.4592 114.868 17.6251C114.868 16.7185 115.635 16.1745 116.914 16.1745C117.608 16.1383 118.302 16.3196 118.96 16.6097L118.631 17.5163C118.156 17.2987 117.608 17.1537 117.06 17.1537C116.439 17.1537 116.074 17.2625 116.074 17.6251C116.074 17.9878 116.366 18.0966 117.06 18.2779L117.425 18.3867C118.631 18.7131 119.106 19.1846 119.106 20.0187C119.106 21.0704 118.375 21.6143 116.877 21.6143C116.11 21.5418 115.379 21.3967 114.722 21.1066Z" fill="white"/>
<path d="M119.691 18.8579C119.654 17.371 120.86 16.1743 122.358 16.138C122.394 16.138 122.431 16.138 122.504 16.138C124.002 16.0655 125.244 17.226 125.317 18.7128C125.317 18.7491 125.317 18.7854 125.317 18.8579C125.317 20.4173 124.112 21.5415 122.504 21.5415C121.006 21.6141 119.764 20.4536 119.727 19.003C119.691 18.9304 119.691 18.8942 119.691 18.8579ZM122.504 20.4536C123.381 20.4898 124.112 19.8008 124.148 18.9304C124.148 18.8942 124.148 18.8579 124.148 18.8216C124.185 17.9513 123.49 17.226 122.614 17.1897C122.577 17.1897 122.541 17.1897 122.541 17.1897C121.664 17.1534 120.933 17.8425 120.933 18.7128C120.933 18.7491 120.933 18.7854 120.933 18.8216C120.896 19.692 121.591 20.4173 122.467 20.4173C122.431 20.4536 122.467 20.4536 122.504 20.4536Z" fill="white"/>
<path d="M131.016 21.2877C130.249 21.4328 129.445 21.5053 128.678 21.5416C127.253 21.5416 126.376 20.9613 126.376 19.5832V16.3193H127.546C127.546 17.3348 127.546 18.3502 127.546 19.3656C127.546 20.1635 127.984 20.4173 128.715 20.4173C129.08 20.4173 129.445 20.3811 129.811 20.3085V16.3193H130.98L131.016 21.2877Z" fill="white"/>
<path d="M132.441 16.5371C133.099 16.3557 133.793 16.2832 134.451 16.2832H135.401V17.3712H134.597C134.268 17.3712 133.939 17.4074 133.611 17.48V21.3966H132.441V16.5371Z" fill="white"/>
<path d="M135.985 18.8218C135.912 17.4075 137.045 16.2107 138.47 16.1382C138.543 16.1382 138.652 16.1382 138.725 16.1382C139.347 16.1382 139.931 16.247 140.479 16.5008L140.004 17.48C139.602 17.2987 139.164 17.1899 138.725 17.1899C137.885 17.1536 137.191 17.7701 137.154 18.6042C137.154 18.6768 137.154 18.7493 137.154 18.8218C137.081 19.6559 137.702 20.345 138.543 20.4175C138.616 20.4175 138.689 20.4175 138.762 20.4175C139.2 20.4175 139.639 20.345 140.041 20.1274L140.479 21.1065C139.931 21.3604 139.31 21.5055 138.689 21.5055C137.045 21.5055 135.985 20.49 135.985 18.8218Z" fill="white"/>
<path d="M146.106 19.257H142.123C142.233 20.0186 142.927 20.5626 143.731 20.5263C144.279 20.5263 144.827 20.4175 145.338 20.1274L145.85 21.034C145.192 21.3604 144.425 21.5417 143.694 21.5417C142.269 21.6505 141.064 20.5626 140.991 19.1845C140.991 19.0757 140.991 18.9669 140.991 18.8581C140.991 17.2261 142.05 16.1382 143.658 16.1382C145.156 16.1382 146.142 17.1899 146.142 18.713L146.106 19.257ZM142.16 18.2416H144.973C144.9 17.5525 144.389 17.1174 143.585 17.1174C142.891 17.0811 142.269 17.5888 142.16 18.2416Z" fill="white"/>
<path d="M146.581 21.1066L146.909 20.2C147.457 20.4176 148.042 20.5626 148.663 20.5626C149.394 20.5626 149.869 20.4538 149.869 20.0187C149.869 19.5835 149.686 19.5472 148.846 19.3296L148.371 19.2208C147.238 18.9307 146.763 18.4592 146.763 17.6251C146.763 16.7185 147.53 16.1745 148.809 16.1745C149.503 16.1383 150.198 16.3196 150.855 16.6097L150.526 17.5163C150.051 17.2987 149.503 17.1537 148.955 17.1537C148.334 17.1537 147.969 17.2625 147.969 17.6251C147.969 17.9878 148.261 18.0966 148.955 18.2779L149.321 18.3867C150.526 18.7131 151.001 19.1846 151.001 20.0187C151.001 21.0704 150.271 21.6143 148.773 21.6143C147.969 21.5418 147.238 21.3967 146.581 21.1066Z" fill="white"/>
<path d="M157.87 18.1328V21.1791C157.14 21.3967 156.372 21.5055 155.605 21.5055C154.034 21.5055 153.157 20.889 153.157 19.7647C153.157 18.6768 153.961 18.0603 155.496 18.0603C155.897 18.0603 156.336 18.0965 156.738 18.169V18.1328C156.738 17.5163 156.263 17.1536 155.313 17.1536C154.728 17.1536 154.107 17.2624 153.559 17.48L153.851 16.4283C154.399 16.2107 155.021 16.1382 155.605 16.1382C156.92 16.1382 157.87 16.7184 157.87 18.1328ZM155.605 20.4538C155.97 20.4538 156.336 20.4175 156.701 20.345V19.1482C156.336 19.0757 155.97 19.0394 155.605 19.0394C154.728 19.0394 154.326 19.257 154.326 19.7647C154.326 20.2724 154.728 20.4538 155.605 20.4538Z" fill="white"/>
<path d="M159.332 16.4282C160.099 16.2831 160.866 16.2106 161.67 16.1743C162.912 16.1743 163.972 16.6095 163.972 18.1327C163.972 19.2206 163.972 20.3448 163.972 21.4328H162.802V18.3502C162.802 17.5887 162.364 17.2985 161.597 17.2985C161.231 17.2985 160.866 17.3348 160.501 17.4073V21.4328H159.332V16.4282Z" fill="white"/>
<path d="M170 14.0708V21.2151C169.306 21.4327 168.612 21.5415 167.881 21.5777C166.091 21.5777 165.031 20.5623 165.031 18.8941C165.031 17.1896 166.164 16.2105 167.881 16.2105C168.21 16.2105 168.502 16.2467 168.794 16.283V14.1071L170 14.0708ZM168.831 20.4535V17.371C168.502 17.2984 168.173 17.2622 167.881 17.2622C166.785 17.2622 166.2 17.9149 166.2 18.8941V18.9304C166.2 19.9458 166.858 20.5623 167.918 20.5623C168.173 20.526 168.502 20.526 168.831 20.4535Z" fill="white"/>
<path d="M66.312 32.3849L66.787 31.4058C67.4081 31.8047 68.1388 32.0223 68.8695 32.0223C69.929 32.0223 70.5136 31.5871 70.5136 30.9343C70.5136 30.3903 70.1117 30.1002 69.0522 29.7738L68.4311 29.5925C67.1158 29.2298 66.5312 28.5771 66.5312 27.4891C66.5312 26.3286 67.4812 25.5308 69.0887 25.5308C69.9656 25.4945 70.8059 25.7121 71.5366 26.1473L71.0616 27.1264C70.4771 26.7638 69.7829 26.5462 69.0522 26.5462C68.1023 26.5462 67.6638 26.9451 67.6638 27.4528C67.6638 28.1056 68.0292 28.3232 68.7964 28.5408C68.9791 28.6133 69.2714 28.6858 69.4541 28.7221C71.0251 29.1573 71.6462 29.8101 71.6462 30.8618V30.898C71.6462 32.2399 70.5867 33.0377 68.8695 33.0377C68.0292 33.074 67.1158 32.8564 66.312 32.3849Z" fill="white"/>
<path d="M72.596 30.3906C72.5595 28.9037 73.7652 27.707 75.2631 27.6707C75.2997 27.6707 75.3362 27.6707 75.4093 27.6707C76.9072 27.5982 78.1494 28.7587 78.2225 30.2455C78.2225 30.2818 78.2225 30.3181 78.2225 30.3906C78.2225 31.95 77.0168 33.0743 75.4093 33.0743C73.9113 33.1468 72.6691 31.9863 72.6326 30.5357C72.596 30.4631 72.596 30.4269 72.596 30.3906ZM75.4093 31.9863C76.2861 32.0226 77.0168 31.3335 77.0534 30.4631C77.0534 30.4269 77.0534 30.3906 77.0534 30.3543C77.0899 29.484 76.3957 28.7587 75.5189 28.7224C75.4823 28.7224 75.4458 28.7224 75.4093 28.7224C74.5324 28.6861 73.8017 29.3752 73.8017 30.2455C73.8017 30.2818 73.8017 30.3181 73.8017 30.3543C73.7652 31.2247 74.4593 31.95 75.3362 31.95C75.3362 31.9863 75.3727 31.9863 75.4093 31.9863Z" fill="white"/>
<path d="M78.8438 30.3907C78.8438 28.795 79.9764 27.707 81.5839 27.707C82.205 27.707 82.7896 27.8158 83.3376 28.0697L82.8627 29.0489C82.4608 28.8675 82.0223 28.7587 81.5839 28.7587C80.7436 28.7225 80.0494 29.339 80.0129 30.1368C80.0129 30.2093 80.0129 30.2819 80.0129 30.3544C79.9398 31.1885 80.5609 31.8776 81.4012 31.9501C81.4743 31.9501 81.5474 31.9501 81.6204 31.9501C82.0589 31.9501 82.4973 31.8776 82.8992 31.66L83.3376 32.6391C82.7896 32.893 82.1685 33.038 81.5474 33.038C79.9398 33.0743 78.8803 32.0226 78.8438 30.3907Z" fill="white"/>
<path d="M84.2143 26.5098C84.2143 26.1472 84.5431 25.8571 84.9084 25.8571H84.945C85.3103 25.8208 85.6392 26.1109 85.6392 26.4736C85.6757 26.8362 85.3834 27.1626 85.0181 27.1626C84.9815 27.1626 84.945 27.1626 84.9084 27.1626C84.5431 27.1989 84.2143 26.945 84.1777 26.5461C84.2143 26.5461 84.2143 26.5461 84.2143 26.5098ZM84.3239 27.8517H85.493V32.9651H84.3239V27.8517Z" fill="white"/>
<path d="M91.3024 29.665V32.7113C90.5717 32.9289 89.8045 33.0377 89.0372 33.0377C87.4662 33.0377 86.5894 32.4212 86.5894 31.297C86.5894 30.209 87.3931 29.5925 88.9276 29.5925C89.3295 29.5925 89.768 29.6287 90.1698 29.7013V29.665C90.1698 29.0485 89.6949 28.6858 88.745 28.6858C88.1604 28.6858 87.5393 28.7946 86.9912 29.0122L87.2835 27.9605C87.8316 27.7429 88.4527 27.6704 89.0372 27.6704C90.3525 27.6704 91.3024 28.2869 91.3024 29.665ZM89.0007 32.0223C89.3661 32.0223 89.7314 31.986 90.0968 31.9135V30.7167C89.7314 30.6442 89.3661 30.6442 89.0007 30.6079C88.1239 30.6079 87.722 30.8255 87.722 31.297C87.722 31.7684 88.1604 32.0223 89.0007 32.0223Z" fill="white"/>
<path d="M92.7271 25.6396H93.8962V32.9653H92.7271V25.6396Z" fill="white"/>
<path d="M103.396 29.2662C103.396 31.5509 101.825 32.9653 99.3402 32.9653H97.1846V25.6396H99.3402C101.861 25.6396 103.396 27.0177 103.396 29.2662ZM102.153 29.2662C102.153 27.6342 101.203 26.7276 99.4863 26.7276H98.3172V31.8773H99.4863C101.167 31.8773 102.153 30.9344 102.153 29.2662Z" fill="white"/>
<path d="M109.205 30.7896H105.259C105.369 31.5512 106.063 32.1314 106.867 32.0589C107.415 32.0589 107.963 31.9501 108.474 31.66L108.949 32.5666C108.291 32.893 107.524 33.0743 106.793 33.0743C105.369 33.1831 104.163 32.0951 104.09 30.7171C104.09 30.6083 104.09 30.4995 104.09 30.3907C104.09 28.7587 105.149 27.707 106.757 27.707C108.255 27.707 109.241 28.7225 109.241 30.2819V30.7896H109.205ZM105.259 29.8104H108.072C107.999 29.1214 107.488 28.6862 106.684 28.6862C105.99 28.6137 105.369 29.1214 105.259 29.8104Z" fill="white"/>
<path d="M114.758 27.8521L113.004 32.9655H111.47L109.68 27.8521H110.922L112.237 31.9138L113.516 27.8521H114.758Z" fill="white"/>
<path d="M120.385 30.7896H116.439C116.549 31.5512 117.243 32.1314 118.047 32.0589C118.595 32.0589 119.143 31.9501 119.654 31.66L120.129 32.5666C119.472 32.893 118.704 33.0743 117.974 33.0743C116.549 33.1831 115.343 32.0951 115.233 30.7171C115.233 30.6083 115.233 30.4995 115.233 30.3907C115.233 28.7587 116.293 27.707 117.901 27.707C119.398 27.707 120.385 28.7225 120.385 30.2819V30.7896ZM116.403 29.8104H119.216C119.143 29.1214 118.631 28.6862 117.827 28.6862C117.133 28.6499 116.512 29.1214 116.403 29.8104Z" fill="white"/>
<path d="M121.444 25.6396H122.613V32.9653H121.444V25.6396Z" fill="white"/>
<path d="M123.637 30.3906C123.6 28.9037 124.806 27.707 126.304 27.6707C126.34 27.6707 126.377 27.6707 126.45 27.6707C127.948 27.5982 129.19 28.7587 129.263 30.2455C129.263 30.2818 129.263 30.3543 129.263 30.3906C129.263 31.95 128.057 33.0743 126.45 33.0743C124.952 33.1468 123.71 31.9863 123.673 30.5357C123.673 30.4631 123.637 30.4269 123.637 30.3906ZM126.45 31.9863C127.327 32.0226 128.057 31.3698 128.094 30.4994C128.094 30.4631 128.094 30.4269 128.094 30.3906C128.13 29.5202 127.436 28.7949 126.559 28.7587C126.523 28.7587 126.486 28.7587 126.45 28.7587C125.573 28.7224 124.842 29.3752 124.806 30.2455C124.806 30.2818 124.806 30.3543 124.806 30.3906C124.769 31.261 125.463 31.9863 126.34 31.9863C126.377 31.9863 126.413 31.9863 126.45 31.9863Z" fill="white"/>
<path d="M135.255 30.4268C135.255 32.095 134.195 33.1467 132.405 33.1467C132.076 33.1467 131.784 33.1104 131.491 33.0742V34.9963H130.322V27.997H130.541C131.163 27.8157 131.784 27.7432 132.405 27.7432C134.122 27.7432 135.255 28.7223 135.255 30.4268ZM134.122 30.4268C134.122 29.4839 133.537 28.7949 132.441 28.7949C132.113 28.7949 131.784 28.8311 131.491 28.9037V31.9862C131.82 32.0587 132.113 32.0588 132.441 32.0588C133.464 32.095 134.122 31.4422 134.122 30.4268Z" fill="white"/>
<path d="M143.804 29.6649V32.9651H142.635C142.635 31.9497 142.635 30.9342 142.635 29.8825C142.635 29.266 142.416 28.8308 141.575 28.8308C141.247 28.8308 140.918 28.9396 140.626 29.121C140.662 29.3386 140.699 29.5199 140.699 29.7375V32.9651H139.493V29.8825C139.493 29.121 139.055 28.8308 138.397 28.8308C138.068 28.8308 137.776 28.8671 137.484 28.9396V32.9288H136.278V27.9605C136.972 27.8154 137.703 27.7429 138.433 27.7066C138.981 27.6703 139.53 27.8154 139.968 28.1418C140.479 27.8517 141.027 27.7066 141.575 27.7066C142.927 27.7066 143.804 28.2506 143.804 29.6649Z" fill="white"/>
<path d="M150.015 30.7896H146.069C146.179 31.5512 146.873 32.1314 147.677 32.0589C148.225 32.0589 148.773 31.9501 149.284 31.66L149.796 32.5666C149.138 32.893 148.371 33.0743 147.64 33.0743C146.215 33.1831 145.01 32.0951 144.937 30.7171C144.937 30.6083 144.937 30.4995 144.937 30.3907C144.937 28.7587 145.996 27.707 147.604 27.707C149.102 27.707 150.088 28.7225 150.088 30.2819L150.015 30.7896ZM146.106 29.8104H148.919C148.846 29.1214 148.334 28.6862 147.531 28.6862C146.8 28.6499 146.179 29.1214 146.106 29.8104Z" fill="white"/>
<path d="M151.147 27.9609C151.915 27.8158 152.682 27.7433 153.486 27.707C154.728 27.707 155.787 28.1422 155.787 29.6654C155.787 30.7533 155.787 31.8776 155.787 32.9655H154.618V29.883C154.618 29.1214 154.18 28.8313 153.413 28.8313C153.047 28.8313 152.682 28.8675 152.317 28.9401V32.9655H151.147V27.9609Z" fill="white"/>
<path d="M157.688 31.3335V28.9037H156.738V27.852H157.688V26.0024H158.857V27.852H160.793V28.9037H158.857V31.0071C158.857 31.6961 159.186 31.9137 159.88 31.9137H160.83V32.9654H159.478C158.126 32.9654 157.688 32.4577 157.688 31.3335Z" fill="white"/>
<path d="M22.2136 12.1489C22.4693 12.1852 22.6885 12.2214 22.9443 12.2577C24.0403 10.2269 25.3556 8.30478 26.7805 6.52778C23.127 3.69907 18.9984 1.48688 14.5776 0L22.2136 12.1489ZM41.9428 27.5617L29.3745 23.5L44.1714 47C45.0118 40.436 44.2811 33.7631 41.9428 27.5617Z" fill="white"/>
<path d="M21.3367 18.4954C26.7805 9.82793 33.8684 3.51775 44.1715 0L29.3746 23.5L14.5777 47C13.2624 36.2654 15.8564 27.1628 21.3367 18.4954Z" fill="white"/>
<path d="M0 14.0348L15.7103 19.112C17.3909 18.2053 19.1081 17.3712 20.8618 16.6097C21.081 16.0657 21.3368 15.5217 21.5925 14.9415C22.0309 13.9986 22.4694 13.1282 22.9443 12.2578C15.2719 10.9885 7.38018 11.5688 0 14.0348ZM43.0024 19.112L29.3746 23.5001L58.7492 32.9654C54.6207 27.2354 49.2499 22.4847 43.0024 19.112Z" fill="white"/>
<path d="M0 32.9654L16.7698 27.5618C17.3909 25.9299 18.0851 24.3342 18.8889 22.7748C19.3639 20.6714 20.0215 18.6043 20.8618 16.6097C12.5317 20.1274 5.58994 25.3134 0 32.9654ZM36.499 12.149L29.3746 23.5001L58.7492 14.0348C51.5882 11.6776 43.9523 11.0248 36.499 12.149Z" fill="white"/>
</g>
<defs>
<clipPath id="clip0_224_367">
<rect width="170" height="47" fill="white"/>
</clipPath>
</defs>
</svg>
