<svg width="170" height="49" viewBox="0 0 170 49" fill="none" xmlns="http://www.w3.org/2000/svg">
<g clip-path="url(#clip0_224_664)">
<mask id="mask0_224_664" style="mask-type:luminance" maskUnits="userSpaceOnUse" x="0" y="0" width="170" height="49">
<path d="M170 0H0V49H170V0Z" fill="white"/>
</mask>
<g mask="url(#mask0_224_664)">
<path d="M61.6293 23.3376V14.2441H59.1216V23.4516C59.1216 25.5255 58.3761 26.1409 57.0884 26.1409C56.4784 26.1409 55.9814 26.0497 55.5522 25.913L55.3489 27.9186C55.8233 28.0325 56.3429 28.1009 56.9303 28.1009C60.816 28.1237 61.6293 25.7762 61.6293 23.3376Z" fill="white"/>
<path d="M83.0006 12.7856C83.7009 12.7856 84.2431 12.1931 84.2431 11.4866C84.2431 10.7573 83.7009 10.1875 83.0006 10.1875C82.3002 10.1875 81.7581 10.7801 81.7581 11.4866C81.7581 12.2159 82.3002 12.7856 83.0006 12.7856Z" fill="white"/>
<path d="M84.5594 10.0735C85.2145 10.0735 85.7341 9.52655 85.7341 8.86562C85.7341 8.20469 85.2145 7.65771 84.5594 7.65771C83.9042 7.65771 83.4072 8.20469 83.4072 8.86562C83.4072 9.52655 83.9042 10.0735 84.5594 10.0735Z" fill="white"/>
<path d="M84.8757 11.4866C84.8757 12.2159 85.4179 12.7856 86.1408 12.7856C86.8412 12.7856 87.3834 12.1931 87.3834 11.4866C87.3834 10.7573 86.8412 10.1875 86.1408 10.1875C85.4179 10.1875 84.8757 10.7801 84.8757 11.4866Z" fill="white"/>
<path d="M89.7103 12.7856C90.4332 12.7856 90.9754 12.1931 90.9754 11.4866C90.9754 10.7573 90.4332 10.1875 89.7103 10.1875C89.01 10.1875 88.4678 10.7801 88.4678 11.4866C88.4678 12.2159 89.01 12.7856 89.7103 12.7856Z" fill="white"/>
<path d="M92.8504 12.7856C93.5508 12.7856 94.093 12.1931 94.093 11.4866C94.093 10.7573 93.5508 10.1875 92.8504 10.1875C92.1501 10.1875 91.6079 10.7801 91.6079 11.4866C91.6079 12.2159 92.1501 12.7856 92.8504 12.7856Z" fill="white"/>
<path d="M109.704 18.7795C109.704 16.8879 109.455 14.9963 109.094 13.4693L106.654 13.8111C106.97 15.2697 107.196 17.0246 107.196 18.939C107.196 19.5316 107.128 20.466 107.06 21.2409H106.405C104.733 21.2409 104.327 20.6939 104.327 19.1214V14.6316H101.932V19.2125C101.932 20.58 101.638 21.4232 100.531 21.4232C99.4245 21.4232 99.0857 20.6483 99.0857 19.2125V15.4065H96.578V18.8707C96.578 20.7623 96.1036 21.2637 94.8837 21.2637H94.5674H94.2737H92.873V14.2442H90.3654V21.2637H87.9933H87.6996H86.1182V14.2442H83.6106V21.2637H81.2611H80.9448H79.6345V18.5516C79.6345 15.7483 78.3016 13.9935 75.2744 13.9935C72.089 13.9935 70.4398 16.2042 70.4398 18.9618C70.4398 20.6939 69.9202 21.2637 69.0165 21.2637H68.9262H68.6325H67.0285V9.75439H64.5435V23.2465H68.6551H68.9488C70.0783 23.2465 70.982 22.7679 71.4564 21.7651C72.0212 22.6995 73.1282 23.2465 75.3421 23.2465H80.9674H81.2837H87.6996H87.9933H94.2511H94.5448H94.8385C96.2391 23.2465 97.0072 22.7451 97.3461 21.8335C97.6624 22.8363 98.6564 23.4288 100.034 23.4288C101.232 23.4288 102.316 22.9046 102.768 21.8335C103.175 22.859 104.191 23.2465 105.84 23.2465H109.365C109.591 21.9018 109.704 20.1925 109.704 18.7795ZM77.285 21.2637H75.6584C73.7155 21.2637 72.9926 20.4204 72.9926 18.7339C72.9926 17.1158 73.8059 15.999 75.184 15.999C76.5621 15.999 77.285 16.8423 77.285 18.8479V21.2637Z" fill="white"/>
<path d="M120.706 9.75439H118.198V21.2637H112.347V23.2465H120.683V9.75439H120.706Z" fill="white"/>
<path d="M116.82 19.8279L114.064 9.61768L111.579 9.95954L114.29 19.8279H116.82Z" fill="white"/>
<path d="M126.399 9.75439H123.891V23.2465H126.399V9.75439Z" fill="white"/>
<path d="M142.552 23.2463V18.4147C142.552 15.7254 141.219 14.0161 138.282 14.0161C134.983 14.0161 133.334 16.2268 133.334 18.8477C133.334 21.537 134.712 23.2691 138.395 23.2691H142.552V23.2463ZM135.842 18.5743C135.842 17.0701 136.678 15.9989 138.101 15.9989C139.366 15.9989 140.134 16.7966 140.134 18.711V21.2636H138.688C136.7 21.2636 135.842 20.3747 135.842 18.5743Z" fill="white"/>
<path d="M139.682 12.7856C140.383 12.7856 140.925 12.1931 140.925 11.4866C140.925 10.7573 140.383 10.1875 139.682 10.1875C138.982 10.1875 138.44 10.7801 138.44 11.4866C138.44 12.2159 138.982 12.7856 139.682 12.7856Z" fill="white"/>
<path d="M136.542 12.7856C137.265 12.7856 137.807 12.1931 137.807 11.4866C137.807 10.7573 137.265 10.1875 136.542 10.1875C135.842 10.1875 135.3 10.7801 135.3 11.4866C135.277 12.2159 135.842 12.7856 136.542 12.7856Z" fill="white"/>
<path d="M147.838 23.3376V14.2441H145.33V23.4516C145.33 25.5255 144.585 26.1409 143.297 26.1409C142.687 26.1409 142.19 26.0497 141.761 25.913L141.557 27.9186C142.032 28.0325 142.551 28.1009 143.139 28.1009C147.024 28.1237 147.838 25.7762 147.838 23.3376Z" fill="white"/>
<path d="M153.327 9.75439H150.82V23.2465H153.327V9.75439Z" fill="white"/>
<path d="M152.65 27.9186C153.124 28.0325 153.644 28.1009 154.231 28.1009C158.094 28.1009 158.908 25.7534 158.908 23.3148V14.2441H156.4V23.4516C156.4 25.5255 155.655 26.1409 154.367 26.1409C153.757 26.1409 153.26 26.0497 152.831 25.913L152.65 27.9186Z" fill="white"/>
<path d="M157.665 12.6486C158.388 12.6486 158.975 12.056 158.975 11.3267C158.975 10.5974 158.388 10.0049 157.665 10.0049C156.942 10.0049 156.355 10.5974 156.355 11.3267C156.355 12.056 156.942 12.6486 157.665 12.6486Z" fill="white"/>
<path d="M166.047 13.9937C162.567 13.9937 161.031 16.2955 161.031 18.8025C161.031 21.5146 162.409 23.2467 166.092 23.2467H167.56V23.543C167.56 25.3434 166.25 26.0955 164.284 26.0955C162.816 26.0955 161.325 25.7764 161.325 25.7764L161.167 27.8504C161.167 27.8504 162.613 28.1011 164.036 28.1011C168.283 28.1011 169.955 25.9588 169.955 23.315V14.6774C170 14.6774 168.283 13.9937 166.047 13.9937ZM167.583 21.2639H166.363C164.375 21.2639 163.516 20.3295 163.516 18.5746C163.516 17.0704 164.352 15.9992 165.775 15.9992C166.86 15.9992 167.583 16.3411 167.583 16.3411V21.2639Z" fill="white"/>
<path d="M62.036 30.5166L60.7031 34.6189C60.4998 35.2115 60.3868 35.6445 60.2738 36.2599H60.2513C60.1383 35.6901 60.0027 35.1659 59.822 34.5961L58.5117 30.5166H56.7496L55.5522 38.425H57.0885L57.5177 34.7785C57.6081 34.0947 57.6984 33.4566 57.7436 32.7729H57.7662C57.8566 33.411 58.0599 34.1175 58.2632 34.7557L59.4606 38.425H60.9516L62.1941 34.4594C62.3974 33.844 62.5104 33.2743 62.6233 32.7729H62.6459C62.7137 33.3199 62.7815 33.9124 62.8944 34.6645L63.4592 38.4478H65.0406L63.8207 30.5394L62.036 30.5166Z" fill="white"/>
<path d="M66.8929 30.0381C66.3733 30.0381 65.9893 30.4483 65.9893 30.9497C65.9893 31.4511 66.3959 31.8613 66.8929 31.8613C67.4125 31.8613 67.8192 31.4511 67.8192 30.9497C67.8192 30.4255 67.4125 30.0381 66.8929 30.0381Z" fill="white"/>
<path d="M67.6385 32.6133H66.1475V38.4477H67.6385V32.6133Z" fill="white"/>
<path d="M72.5183 32.4766C71.5695 32.4766 70.9143 32.9552 70.5529 33.6389L70.5303 33.6161C70.598 33.3198 70.6206 32.864 70.6206 32.5905H69.22V38.4249H70.711V35.6217C70.711 34.5961 71.2984 33.7301 72.0439 33.7301C72.5861 33.7301 72.7442 34.0947 72.7442 34.7101V38.4477H74.2127V34.3454C74.2353 33.3198 73.8286 32.4766 72.5183 32.4766Z" fill="white"/>
<path d="M77.3301 32.6133H75.8391V38.4477H77.3301V32.6133Z" fill="white"/>
<path d="M76.5848 30.0381C76.0652 30.0381 75.6812 30.4483 75.6812 30.9497C75.6812 31.4511 76.0878 31.8613 76.5848 31.8613C77.1044 31.8613 77.5111 31.4511 77.5111 30.9497C77.5111 30.4255 77.1044 30.0381 76.5848 30.0381Z" fill="white"/>
<path d="M80.1317 34.2087C80.1317 33.844 80.4028 33.6161 80.9901 33.6161C81.3516 33.6161 81.7357 33.6845 82.0519 33.7756L82.0971 32.5905C81.7582 32.5221 81.3742 32.4766 81.0353 32.4766C79.4088 32.4766 78.5955 33.3198 78.5955 34.3454C78.5955 36.3282 80.9224 35.7356 80.9224 36.7612C80.9224 37.1487 80.5609 37.3766 79.9961 37.3766C79.5669 37.3766 79.1151 37.2854 78.7536 37.1942L78.7084 38.4249C79.0699 38.4933 79.4991 38.5389 79.9058 38.5389C81.4872 38.5389 82.4812 37.764 82.4812 36.6245C82.5038 34.7328 80.1317 35.1659 80.1317 34.2087Z" fill="white"/>
<path d="M85.4858 30.4028L83.9948 30.7903V32.5907H83.0007V33.7531H83.9948V36.7159C83.9948 38.0833 84.3788 38.5391 85.6665 38.5391C86.0732 38.5391 86.5024 38.4707 86.8639 38.3796V37.1717C86.6605 37.24 86.3894 37.2628 86.1409 37.2628C85.6213 37.2628 85.4632 37.0577 85.4632 36.3056V33.7531H86.8639V32.5907H85.4632L85.4858 30.4028Z" fill="white"/>
<path d="M89.4165 33.776H89.3939C89.4617 33.3657 89.5069 32.8871 89.5069 32.6136H88.1062V38.4481H89.5972V36.0778C89.5972 34.4597 90.1394 33.7532 91.2012 33.9811L91.269 32.4997C90.2524 32.3857 89.6876 33.0467 89.4165 33.776Z" fill="white"/>
<path d="M94.9063 34.5961C94.7256 35.143 94.4771 35.9179 94.3416 36.4421H94.319C94.1834 35.9179 94.0479 35.3482 93.8671 34.8468L93.099 32.6133H91.4499L93.5734 38.4477L93.3701 39.0175C93.0764 39.8835 92.7376 40.1114 92.2631 40.1114C91.992 40.1114 91.7435 40.0658 91.4724 39.9747L91.3821 41.2737C91.6306 41.3421 91.9469 41.3649 92.1954 41.3649C93.5057 41.3649 94.1156 40.8179 94.7934 38.9947L97.1429 32.6361H95.5615L94.9063 34.5961Z" fill="white"/>
<path d="M103.062 32.4766C101.322 32.4766 100.125 33.7984 100.125 35.5989C100.125 37.6728 101.187 38.5389 102.813 38.5389C104.53 38.5389 105.75 37.217 105.75 35.3938C105.75 33.411 104.688 32.4766 103.062 32.4766ZM102.926 37.2626C102.068 37.2626 101.639 36.6473 101.639 35.4621C101.639 34.277 102.294 33.7528 102.949 33.7528C103.807 33.7528 104.214 34.3682 104.214 35.4849C104.214 36.6701 103.672 37.2626 102.926 37.2626Z" fill="white"/>
<path d="M107.241 32.135V32.6136H106.225V33.776H107.241V38.4481H108.71V33.776H110.043V32.6136H108.71V32.1122C108.71 31.3374 109.003 30.9955 109.658 30.9955C109.884 30.9955 110.156 31.0183 110.381 31.1095L110.494 29.8788C110.201 29.8104 109.862 29.7876 109.568 29.7876C107.964 29.7876 107.241 30.5625 107.241 32.135Z" fill="white"/>
<path d="M115.081 30.5166H113.567V38.425H115.081V30.5166Z" fill="white"/>
<path d="M119.983 32.4766C119.034 32.4766 118.379 32.9552 118.017 33.6389V33.6161C118.085 33.3198 118.108 32.864 118.108 32.5905H116.707V38.4249H118.198V35.6217C118.198 34.5961 118.785 33.7301 119.531 33.7301C120.073 33.7301 120.231 34.0947 120.231 34.7101V38.4477H121.7V34.3454C121.7 33.3198 121.27 32.4766 119.983 32.4766Z" fill="white"/>
<path d="M125.811 35.2801C125.676 35.6676 125.563 36.1234 125.473 36.5108H125.45C125.337 36.1006 125.201 35.622 125.066 35.2118L124.162 32.5908H122.536L124.659 38.4252H126.173L128.319 32.5908H126.738L125.811 35.2801Z" fill="white"/>
<path d="M131.459 32.4766C129.742 32.4766 128.771 33.7984 128.771 35.5761C128.771 37.6273 129.787 38.5617 131.617 38.5617C132.34 38.5617 133.063 38.4249 133.673 38.197L133.538 37.0347C133.041 37.2626 132.431 37.3994 131.866 37.3994C130.804 37.3994 130.262 36.8752 130.284 35.7812H133.854C133.899 35.5305 133.899 35.3026 133.899 35.0975C133.876 33.6389 133.131 32.4766 131.459 32.4766ZM130.284 34.7328C130.375 34.0263 130.804 33.5705 131.414 33.5705C132.047 33.5705 132.431 34.0035 132.408 34.7328H130.284Z" fill="white"/>
<path d="M136.316 34.2087C136.316 33.844 136.587 33.6161 137.175 33.6161C137.536 33.6161 137.92 33.6845 138.237 33.7756L138.282 32.5905C137.943 32.5221 137.559 32.4766 137.22 32.4766C135.593 32.4766 134.78 33.3198 134.78 34.3454C134.78 36.3282 137.107 35.7356 137.107 36.7612C137.107 37.1487 136.745 37.3766 136.158 37.3766C135.729 37.3766 135.277 37.2854 134.916 37.1942L134.87 38.4249C135.232 38.4933 135.661 38.5389 136.068 38.5389C137.649 38.5389 138.643 37.764 138.643 36.6245C138.666 34.7328 136.316 35.1659 136.316 34.2087Z" fill="white"/>
<path d="M141.67 30.4028L140.179 30.7903V32.5907H139.185V33.7531H140.179V36.7159C140.179 38.0833 140.563 38.5391 141.851 38.5391C142.258 38.5391 142.687 38.4707 143.048 38.3796V37.1717C142.845 37.24 142.574 37.2628 142.326 37.2628C141.806 37.2628 141.648 37.0577 141.648 36.3056V33.7531H143.048V32.5907H141.648V30.4028H141.67Z" fill="white"/>
<path d="M150.978 32.4766C150.007 32.4766 149.374 33.0691 149.103 33.6389C148.967 33.0691 148.538 32.4766 147.522 32.4766C146.663 32.4766 145.963 32.9324 145.624 33.6389H145.601C145.669 33.297 145.692 32.864 145.692 32.5905H144.291V38.4249H145.782V35.6445C145.782 34.5505 146.415 33.7301 147.092 33.7301C147.657 33.7301 147.77 34.1631 147.77 34.7328V38.4249H149.239V35.6445C149.239 34.5049 149.916 33.7301 150.549 33.7301C151.091 33.7301 151.227 34.1175 151.227 34.7328V38.4249H152.718V34.4138C152.695 33.0919 152.085 32.4766 150.978 32.4766Z" fill="white"/>
<path d="M156.603 32.4766C154.886 32.4766 153.915 33.7984 153.915 35.5761C153.915 37.6273 154.932 38.5617 156.762 38.5617C157.484 38.5617 158.207 38.4249 158.817 38.197L158.682 37.0347C158.185 37.2626 157.575 37.3994 157.01 37.3994C155.948 37.3994 155.406 36.8752 155.429 35.7812H158.998C159.043 35.5305 159.043 35.3026 159.043 35.0975C159.021 33.6389 158.275 32.4766 156.603 32.4766ZM155.429 34.7328C155.519 34.0263 155.948 33.5705 156.558 33.5705C157.191 33.5705 157.575 34.0035 157.552 34.7328H155.429Z" fill="white"/>
<path d="M163.539 32.4766C162.59 32.4766 161.935 32.9552 161.573 33.6389L161.551 33.6161C161.619 33.3198 161.641 32.864 161.641 32.5905H160.24V38.4249H161.732V35.6217C161.732 34.5961 162.319 33.7301 163.064 33.7301C163.607 33.7301 163.765 34.0947 163.765 34.7101V38.4477H165.233V34.3454C165.256 33.3198 164.827 32.4766 163.539 32.4766Z" fill="white"/>
<path d="M168.599 30.4028L167.108 30.7903V32.5907H166.114V33.7531H167.108V36.7159C167.108 38.0833 167.492 38.5391 168.78 38.5391C169.187 38.5391 169.616 38.4707 169.977 38.3796V37.1717C169.774 37.24 169.503 37.2628 169.254 37.2628C168.735 37.2628 168.577 37.0577 168.577 36.3056V33.7531H169.977V32.5907H168.577V30.4028H168.599Z" fill="white"/>
<path d="M17.6439 12.5121C13.7808 13.9479 14.3908 17.64 14.3908 17.64C14.5715 17.0931 15.7689 14.6772 18.0506 14.1075C15.4978 16.7512 16.2207 20.0558 16.2207 20.0558C16.311 19.6228 17.034 16.2498 19.5868 15.5433C18.0054 17.64 18.638 20.3749 18.7961 20.9447C18.7961 19.8963 19.8353 18.0731 20.4905 17.2298C21.1456 18.5972 21.0552 21.1954 21.0552 21.1954H20.5582L21.0326 24.2721H20.6486L21.0101 27.3489H20.6938L21.1004 31.2917L19.7223 32.0438V32.2261H23.5629V32.0438L22.1848 31.2917L22.5914 27.3489H22.2752L22.6366 24.2721H22.2526L22.727 21.1954H22.2526C22.2526 21.1954 22.1622 18.5745 22.8174 17.2298C23.4499 18.0503 24.5117 19.8963 24.5117 20.9447C24.6699 20.3521 25.3024 17.64 23.721 15.5433C26.2738 16.2498 26.9968 19.6456 27.0871 20.0558C27.0871 20.0558 27.8101 16.7284 25.2572 14.0847C27.5616 14.6545 28.7589 17.0931 28.917 17.6172C28.917 17.6172 29.527 13.9252 25.6639 12.4893C25.7542 12.4893 25.9124 12.4438 26.1835 12.4438C27.0194 12.4438 28.2845 12.8084 29.1655 13.2186C29.1655 13.2186 28.3071 11.0079 24.9861 11.0079C24.8506 11.0079 24.7376 11.0079 24.7376 11.0079C24.7376 11.0079 24.8506 10.1647 26.3642 10.1647C26.8612 10.1647 27.2905 10.2558 27.2905 10.2558C27.2905 10.2558 26.4094 9.43538 25.1217 9.43538C23.6081 9.43538 22.6366 10.6661 22.4785 10.8256C21.8233 10.347 22.614 9.54934 22.9529 9.32143C22.9529 9.32143 22.8174 9.23027 22.6366 9.23027C22.3881 9.23027 22.1622 9.3898 22.0944 9.48096C22.0944 9.48096 22.0267 8.82003 22.5914 8.56934C22.1848 8.56934 21.6652 8.95678 21.6652 9.09352C21.6652 8.95678 21.1456 8.56934 20.739 8.56934C21.3263 8.84282 21.236 9.48096 21.236 9.48096C21.1682 9.3898 20.9423 9.23027 20.6938 9.23027C20.4679 9.27585 20.3323 9.34422 20.3323 9.34422C20.6712 9.57213 21.4619 10.3698 20.8067 10.8484C20.6486 10.6889 19.6546 9.45817 18.141 9.45817C16.8307 9.45817 15.9722 10.2786 15.9722 10.2786C15.9722 10.2786 16.3788 10.1875 16.8758 10.1875C18.3895 10.1875 18.5024 11.0307 18.5024 11.0307C18.5024 11.0307 18.3895 11.0307 18.2539 11.0307C14.933 11.0307 14.0745 13.2414 14.0745 13.2414C14.9556 12.8312 16.2207 12.4665 17.0566 12.4665C17.3954 12.4665 17.5536 12.5121 17.6439 12.5121ZM32.9157 29.7419C28.5104 29.7419 21.6426 34.3228 21.6426 34.3228H21.62H21.5974C21.5974 34.3228 14.7297 29.7419 10.3243 29.7419C7.95224 29.7419 6.73231 30.5624 6.37085 30.927C6.98082 30.5624 8.65258 30.5851 8.65258 30.5851C10.1662 30.5851 12.335 31.1549 13.9164 31.907C17.3954 33.5935 20.1064 35.2572 20.1064 35.2572L20.1516 35.28L16.7403 37.4679C16.7403 37.4679 15.5881 36.0777 14.5715 36.0777C13.9164 36.0777 13.8034 36.4652 13.8034 36.6475C13.8034 36.8298 13.9164 37.1717 14.3456 37.1717C14.7748 37.1717 14.7974 36.8754 14.7974 36.7614C14.8652 36.7842 14.8878 36.7842 14.9556 36.8526C15.0233 36.9438 15.6785 38.0149 15.6785 38.0149C15.6785 38.0149 13.5549 39.2 13.4194 39.2C13.3064 39.2 13.1031 38.9265 12.8772 38.9265C12.6738 38.9265 12.6738 39.1089 12.6738 39.1545C12.6738 39.2684 13.1934 40.18 13.9615 40.18C14.0745 40.18 14.4586 40.2028 14.6619 40.1117C15.4978 39.7926 16.4014 39.3368 16.6047 39.2228C16.6047 39.2228 17.3503 40.1572 17.8699 40.1572C17.8699 40.1572 18.0506 40.1572 18.1184 40.1572C18.3895 40.1572 18.6606 40.0889 18.6606 40.0889C18.6606 40.0889 19.0672 40.3624 19.3609 40.3624C19.6546 40.3624 19.9934 40.18 19.9934 39.8382C19.9934 39.4963 19.7675 39.2456 19.4512 39.2456C19.135 39.2456 18.9768 39.5191 18.9768 39.6331C18.8865 39.6331 18.8413 39.6331 18.8413 39.6331L17.7795 38.5163L21.62 36.1233L25.4606 38.5163L24.3988 39.6331C24.3988 39.6331 24.331 39.6331 24.2632 39.6331C24.2632 39.5191 24.1051 39.2456 23.7888 39.2456C23.4725 39.2456 23.2466 39.4735 23.2466 39.8382C23.2466 40.18 23.5855 40.3624 23.8792 40.3624C24.1728 40.3624 24.5795 40.0889 24.5795 40.0889C24.5795 40.0889 24.8732 40.1572 25.1217 40.1572C25.1895 40.1572 25.3702 40.1572 25.3702 40.1572C25.8898 40.1572 26.6353 39.2228 26.6353 39.2228C26.8386 39.3368 27.7649 39.7926 28.5782 40.1117C28.7815 40.18 29.1655 40.18 29.2785 40.18C30.024 40.18 30.5662 39.2684 30.5662 39.1545C30.5662 39.1317 30.5662 38.9265 30.3629 38.9265C30.1596 38.9265 29.9336 39.2 29.8207 39.2C29.6625 39.2 27.5164 37.9921 27.5164 37.9921C27.5164 37.9921 28.1941 36.921 28.2393 36.8298C28.3071 36.7386 28.3297 36.7614 28.3974 36.7386C28.3974 36.8298 28.42 37.1489 28.8493 37.1489C29.2785 37.1489 29.3915 36.7842 29.3915 36.6247C29.3915 36.4424 29.2785 36.0549 28.6233 36.0549C27.6067 36.0549 26.4546 37.4452 26.4546 37.4452L23.0433 35.2572L23.0885 35.2345C23.0885 35.2345 25.822 33.5707 29.2785 31.8842C30.8373 31.1321 33.0061 30.5624 34.5423 30.5624C34.5423 30.5624 36.2366 30.5396 36.824 30.9042C36.5077 30.5624 35.3104 29.7419 32.9157 29.7419Z" fill="white"/>
<path d="M43.285 49H0V0H43.285V49ZM2.46246 46.5158H40.8452V2.48419H2.46246V46.5158Z" fill="white"/>
</g>
</g>
<defs>
<clipPath id="clip0_224_664">
<rect width="170" height="49" fill="white"/>
</clipPath>
</defs>
</svg>
