<svg width="170" height="38" viewBox="0 0 170 38" fill="none" xmlns="http://www.w3.org/2000/svg">
<g clip-path="url(#clip0_224_415)">
<path d="M4.96335 11.1524H3.88793C3.72248 11.0698 3.55703 10.822 3.55703 10.5741C3.55703 10.4089 3.63975 10.2437 3.8052 10.2437H3.88793C4.1361 10.2437 4.21883 10.4089 4.30155 10.6568H4.88063C4.7979 9.99589 4.467 9.58284 3.88793 9.58284C3.39158 9.50024 2.97795 9.91328 2.97795 10.4089C2.97795 10.4915 2.97795 10.4915 2.97795 10.4915C2.97795 10.7394 3.06068 10.9872 3.22613 11.1524H2.8125V11.8133H4.88063L4.96335 11.1524Z" fill="white"/>
<path d="M6.70067 13.5477C6.70067 14.0434 6.53522 14.3738 5.87342 14.3738H2.23351C1.65444 14.3738 1.24081 13.9607 1.15809 13.3825C1.15809 13.2999 1.15809 13.2999 1.15809 13.2999V11.7303H-6.20689e-05V13.2999C-0.0827871 14.539 0.909914 15.5303 2.15079 15.6129C2.23351 15.6129 2.23351 15.6129 2.31624 15.6129H6.45249C7.27974 15.6129 8.02427 14.952 8.02427 14.126V14.0434V8.26074H6.70067V13.5477Z" fill="white"/>
<path d="M9.92724 15.7785C9.92724 16.3567 9.51362 16.8524 8.93454 16.8524H8.85182H8.35547V18.0915H8.85182C10.0927 18.0915 11.0854 17.1002 11.0854 15.9437V15.8611V10.6567H9.92724V15.7785Z" fill="white"/>
<path d="M24.3212 16.522C23.9076 16.522 23.5767 16.7698 23.5767 17.1828C23.5767 17.5959 23.8248 17.9263 24.2385 17.9263H24.3212C24.7348 17.9263 25.0657 17.6785 25.0657 17.2655C25.0657 16.8524 24.8175 16.522 24.4039 16.522C24.4039 16.522 24.4039 16.522 24.3212 16.522Z" fill="white"/>
<path d="M29.202 13.9608C29.202 14.2087 29.0365 14.4565 28.7883 14.4565H27.382C27.1338 14.4565 26.8857 14.3739 26.3066 13.0521C25.2312 10.7391 23.5767 9.91301 21.7567 10.5739V11.6478C23.3285 10.9869 24.2385 11.6478 24.983 13.1347C25.1484 13.5478 25.3966 13.9608 25.6448 14.3739H21.0122C20.6813 14.3739 20.3504 14.126 20.3504 13.713V13.6304V12.4739C20.3504 11.2347 19.3577 10.1608 18.1168 10.1608H18.0341H17.9513C16.7105 10.1608 15.7178 11.1521 15.635 12.3913V12.4739V13.6304C15.635 13.9608 15.3869 14.2913 15.056 14.2913H14.9732H14.146C13.8978 14.2913 13.7324 14.0434 13.7324 13.8782V8.17822H12.5742V14.2913C12.5742 14.9521 13.0706 15.5304 13.8151 15.5304H15.056C15.5523 15.5304 16.0487 15.2826 16.4623 14.8695C16.9586 15.2826 17.5377 15.5304 18.1995 15.5304C18.7786 15.5304 19.3577 15.2826 19.6886 14.8695C20.0195 15.3652 20.5158 15.613 21.0949 15.613H29.202C29.8638 15.613 30.4428 15.1174 30.4428 14.3739C30.4428 14.3739 30.4428 14.3739 30.4428 14.2913V8.17822H29.2847L29.202 13.9608ZM19.1922 13.3C19.1922 13.8782 18.6959 14.3739 18.1995 14.3739C17.7032 14.3739 17.2895 14.126 16.9586 13.7956V12.5565C16.9586 11.9782 17.3723 11.4826 17.9513 11.4826C18.0341 11.4826 18.0341 11.4826 18.0341 11.4826H18.1168C18.6959 11.4826 19.1922 11.8956 19.1922 12.4739C19.1922 12.5565 19.1922 12.5565 19.1922 12.5565V13.3Z" fill="white"/>
<path d="M33.0073 8.34326H31.8491V15.6954H33.0073V8.34326Z" fill="white"/>
<path d="M36.7301 10.2437H36.6474C35.4065 10.2437 34.4138 11.235 34.3311 12.4741C34.3311 12.5567 34.3311 12.5567 34.3311 12.5567V13.3002C34.3311 14.5393 35.3238 15.6132 36.5646 15.6132H37.8055V15.7784C37.8055 16.6045 37.1437 17.1002 35.0756 16.7697V17.9263C37.6401 18.5045 38.9637 17.5958 38.9637 16.1089V12.5567C38.9637 11.3176 38.0537 10.2437 36.8128 10.2437C36.8128 10.2437 36.8128 10.2437 36.7301 10.2437ZM37.8055 14.4567H36.5646C35.9856 14.3741 35.5719 13.961 35.5719 13.3828V12.6393C35.5719 12.061 35.9856 11.5654 36.5646 11.5654C36.6474 11.5654 36.6474 11.5654 36.6474 11.5654H36.7301C37.3092 11.5654 37.8055 11.9784 37.8055 12.5567C37.8055 12.6393 37.8055 12.6393 37.8055 12.6393V14.4567Z" fill="white"/>
<path d="M43.6786 9.41762C44.0922 9.41762 44.4231 9.08719 44.4231 8.67414C44.4231 8.2611 44.0922 7.93066 43.6786 7.93066C43.265 7.93066 42.9341 8.2611 42.9341 8.67414C42.9341 9.08719 43.265 9.41762 43.6786 9.41762Z" fill="white"/>
<path d="M45.6644 9.41762C46.0781 9.41762 46.409 9.08719 46.409 8.67414C46.409 8.2611 46.0781 7.93066 45.6644 7.93066C45.2508 7.93066 44.9199 8.2611 44.9199 8.67414C44.9199 9.08719 45.2508 9.41762 45.6644 9.41762Z" fill="white"/>
<path d="M49.7177 16.8521C49.304 16.8521 48.9731 17.1825 48.9731 17.5955C48.9731 18.0086 49.304 18.339 49.7177 18.339C50.1313 18.339 50.4622 18.0086 50.4622 17.5955C50.4622 17.1825 50.1313 16.8521 49.7177 16.8521Z" fill="white"/>
<path d="M54.5159 16.687C54.1022 16.687 53.7713 17.0174 53.8541 17.5131C53.8541 17.8435 54.185 18.174 54.5159 18.174C54.9295 18.174 55.2604 17.8435 55.1777 17.3479C55.1777 17.0174 54.8468 16.687 54.5159 16.687Z" fill="white"/>
<path d="M54.9293 14.3741V10.6567H53.6884V13.961C53.6884 14.2089 53.523 14.4567 53.2748 14.4567H51.124C50.5449 14.4567 50.2967 14.0437 50.2967 13.6306V13.4654C50.2967 13.3828 50.2967 13.2176 50.2967 13.135V10.6567H49.0558V13.6306C49.0558 14.1263 48.8904 14.4567 48.2286 14.4567H47.4013C47.0704 14.4567 46.7395 14.2089 46.7395 13.7958V13.7132V10.2437H44.3405C43.0996 10.2437 42.1069 11.235 42.1069 12.4741C42.1069 12.5567 42.1069 12.5567 42.1069 12.5567V13.3002C42.1069 14.5393 43.0996 15.6132 44.3405 15.6132C44.9196 15.6132 45.5814 15.3654 45.995 14.9523C46.3259 15.448 46.905 15.6958 47.4841 15.6958H48.3113C48.8077 15.6958 49.3867 15.5306 49.7176 15.1176C50.0485 15.448 50.4622 15.6958 50.9585 15.6958H53.6884C54.3502 15.6958 54.9293 15.1176 54.9293 14.3741C54.9293 14.4567 54.9293 14.4567 54.9293 14.3741ZM45.6641 13.8784C45.3332 14.2089 44.9196 14.4567 44.4232 14.4567C43.8442 14.4567 43.4305 13.961 43.4305 13.3828V12.6393C43.3478 12.061 43.8442 11.5654 44.4232 11.5654C44.506 11.5654 44.506 11.5654 44.506 11.5654H45.6641V13.8784Z" fill="white"/>
<path d="M52.4477 16.687C52.034 16.687 51.7031 16.9348 51.7031 17.3479C51.7031 17.7609 51.9513 18.0914 52.3649 18.174H52.4477C52.8613 18.174 53.1922 17.8435 53.1094 17.3479C53.1094 17.0174 52.7786 16.687 52.4477 16.687Z" fill="white"/>
<path d="M64.9394 9.66518C65.353 9.66518 65.6839 9.33474 65.6839 8.9217C65.6839 8.50866 65.353 8.17822 64.9394 8.17822C64.5257 8.17822 64.1948 8.50866 64.1948 8.9217C64.1948 9.33474 64.5257 9.66518 64.9394 9.66518Z" fill="white"/>
<path d="M69.241 13.9607C69.241 14.2085 69.0756 14.4563 68.8274 14.4563C68.8274 14.4563 68.8274 14.4563 68.7447 14.4563H67.5865V13.5476C67.5865 11.3998 66.6766 10.3259 64.9393 10.3259C63.7812 10.3259 62.7885 11.152 61.9612 12.0607V10.8215H60.8031V14.4563H59.1486V10.5737H57.9077V15.778C57.9077 16.3563 57.4941 16.852 56.9977 16.852H56.915H56.3359V18.0911H56.8323C58.0732 18.0911 59.0659 17.0998 59.0659 15.9433V15.8607V15.6954H69.1583C69.8201 15.6954 70.3992 15.1172 70.3992 14.4563V8.34326H69.241V13.9607ZM66.5111 14.4563H62.044V13.2172C62.9539 12.1433 63.9466 11.4824 64.8566 11.4824C65.7666 11.4824 66.5111 12.0607 66.5111 13.465V14.4563Z" fill="white"/>
<path d="M73.0463 8.34326H71.8882V15.6954H73.0463V8.34326Z" fill="white"/>
<path d="M76.7687 10.2437H76.6859C75.4451 10.2437 74.4524 11.235 74.3696 12.4741C74.3696 12.5567 74.3696 12.5567 74.3696 12.5567V13.3002C74.3696 14.5393 75.3623 15.6132 76.6032 15.6132H77.8441V15.7784C77.8441 16.6045 77.1823 17.1002 75.1142 16.7697V17.9263C77.6786 18.5045 79.0022 17.5958 79.0022 16.1089V12.5567C79.0022 11.3176 78.0923 10.2437 76.8514 10.2437C76.8514 10.2437 76.7687 10.2437 76.7687 10.2437ZM77.8441 14.4567H76.6032C76.0241 14.3741 75.6105 13.961 75.6105 13.3828V12.6393C75.6105 12.061 76.0241 11.5654 76.6032 11.5654C76.6859 11.5654 76.6859 11.5654 76.6859 11.5654H76.7687C77.3477 11.5654 77.8441 11.9784 77.8441 12.5567C77.8441 12.6393 77.8441 12.6393 77.8441 12.6393V14.4567Z" fill="white"/>
<path d="M85.7034 9.58266C86.117 9.58266 86.4479 9.25223 86.3652 8.75657C86.3652 8.42614 86.0343 8.0957 85.7034 8.0957C85.2897 8.0957 84.9588 8.42614 85.0416 8.92179C85.0416 9.25222 85.2897 9.50005 85.7034 9.58266Z" fill="white"/>
<path d="M83.6352 9.58266C84.0488 9.58266 84.3797 9.25222 84.3797 8.83918C84.3797 8.42614 84.0488 8.0957 83.6352 8.0957C83.2215 8.0957 82.8906 8.42614 82.8906 8.83918C82.8906 9.25222 83.2215 9.58266 83.6352 9.58266Z" fill="white"/>
<path d="M84.545 10.2437H84.3796C83.1387 10.2437 82.146 11.235 82.146 12.4741V13.3828C82.146 14.6219 83.1387 15.6132 84.3796 15.6132C84.3796 15.6132 84.3796 15.6132 84.4623 15.6132H84.7105C85.8686 15.6132 86.8613 14.6219 86.8613 13.4654V12.4741C86.7786 11.235 85.7859 10.2437 84.545 10.2437ZM85.5377 13.548C85.5377 14.0437 85.1241 14.4567 84.6277 14.4567H84.3796C83.8005 14.4567 83.3869 13.961 83.3869 13.3828V12.4741C83.3869 11.8958 83.8005 11.4828 84.3796 11.4002H84.4623H84.6277C85.2068 11.4002 85.6204 11.8132 85.6204 12.3915V12.4741L85.5377 13.548Z" fill="white"/>
<path d="M99.5185 9.58266C99.9321 9.58266 100.263 9.25222 100.263 8.83918C100.263 8.42614 99.9321 8.0957 99.5185 8.0957C99.1048 8.0957 98.7739 8.42614 98.7739 8.83918C98.7739 9.25222 99.1048 9.58266 99.5185 9.58266Z" fill="white"/>
<path d="M102 13.9607C102 14.2086 101.834 14.4564 101.586 14.4564C101.586 14.4564 101.586 14.4564 101.503 14.4564H100.097V10.5738H98.8562V15.7781C98.8562 16.3564 98.4426 16.852 97.9463 16.852H97.8635H97.3672V18.0912H97.8635C99.1044 18.0912 100.097 17.0999 100.097 15.9434V15.8607V15.6955H101.917C102.579 15.6955 103.158 15.1999 103.158 14.4564C103.158 14.4564 103.158 14.4564 103.158 14.3738V8.26074H102V13.9607Z" fill="white"/>
<path d="M105.805 8.34326H104.647V15.6954H105.805V8.34326Z" fill="white"/>
<path d="M110.686 9.41762C111.1 9.41762 111.43 9.08719 111.43 8.67414C111.43 8.2611 111.1 7.93066 110.686 7.93066C110.272 7.93066 109.941 8.2611 109.941 8.67414C109.941 9.08719 110.272 9.41762 110.686 9.41762Z" fill="white"/>
<path d="M112.672 9.41762C113.085 9.41762 113.416 9.08719 113.416 8.67414C113.416 8.2611 113.085 7.93066 112.672 7.93066C112.258 7.93066 111.927 8.2611 111.927 8.67414C111.927 9.08719 112.341 9.41762 112.672 9.41762Z" fill="white"/>
<path d="M117.552 9.00455H116.477C116.229 8.92194 116.146 8.67411 116.146 8.42629C116.146 8.26107 116.229 8.09585 116.394 8.01325H116.477C116.725 8.01325 116.891 8.26107 116.891 8.42629H117.47C117.387 7.68281 116.973 7.35238 116.394 7.35238C115.898 7.26977 115.484 7.68281 115.402 8.17846C115.402 8.26107 115.402 8.26107 115.402 8.34368C115.402 8.59151 115.484 8.83933 115.65 9.00455H115.319V9.66542H117.552V9.00455Z" fill="white"/>
<path d="M119.455 16.687C119.041 16.687 118.71 17.0174 118.71 17.4305C118.71 17.8435 119.041 18.174 119.455 18.174C119.869 18.174 120.2 17.8435 120.2 17.4305C120.117 17.0174 119.786 16.687 119.455 16.687Z" fill="white"/>
<path d="M121.44 16.687C121.027 16.687 120.696 17.0174 120.696 17.4305C120.696 17.8435 121.027 18.174 121.44 18.174C121.854 18.174 122.185 17.8435 122.185 17.4305C122.185 17.0174 121.854 16.687 121.44 16.687Z" fill="white"/>
<path d="M125.411 10.4912V11.1521C124.584 11.3999 124.005 12.1434 124.005 12.9695V13.5477C124.005 13.8782 124.17 14.2912 124.336 14.539H122.019C121.44 14.539 121.192 14.126 121.192 13.7129V13.5477C121.192 13.4651 121.192 13.2999 121.192 13.2173V10.739H119.951V13.7129C119.951 14.2086 119.786 14.539 119.124 14.539H117.8C117.221 14.539 116.973 14.126 116.973 13.7129V10.8216H115.815V13.7129C115.815 14.2086 115.65 14.539 114.988 14.539H114.409C114.078 14.539 113.747 14.2912 113.747 13.8782V13.7956V10.326H111.348C110.107 10.326 109.114 11.3173 109.114 12.5564C109.114 12.639 109.114 12.639 109.114 12.639V13.3825C109.114 14.6216 110.107 15.6956 111.348 15.6956C111.927 15.6956 112.589 15.4477 113.002 15.0347C113.333 15.5303 113.912 15.7782 114.491 15.7782H115.07C115.567 15.7782 116.146 15.6129 116.477 15.1999C116.808 15.5303 117.221 15.7782 117.718 15.7782H119.124C119.62 15.7782 120.199 15.6129 120.53 15.1999C120.861 15.5303 121.275 15.7782 121.771 15.7782H128.472C129.713 15.7782 130.706 14.7869 130.706 13.4651V12.7216C130.788 10.9043 128.637 9.66512 125.411 10.4912ZM112.671 13.8782C112.341 14.2086 111.927 14.4564 111.431 14.4564C110.851 14.4564 110.438 13.9608 110.438 13.3825V12.639C110.355 12.0608 110.851 11.5651 111.431 11.5651C111.513 11.5651 111.513 11.5651 111.513 11.5651H112.671V13.8782ZM126.983 14.4564H125.907C125.411 14.4564 124.915 13.9608 124.915 13.4651V12.9695C124.915 12.3086 125.246 11.9782 125.907 11.9782C126.404 11.8956 126.9 12.3086 126.9 12.8043C126.9 12.8869 126.9 12.8869 126.9 12.9695V14.4564H126.983ZM128.555 14.4564H128.058V12.9695C128.141 12.226 127.562 11.4825 126.817 11.3173C128.389 11.1521 129.63 11.8129 129.63 12.639V13.2999C129.63 13.9608 129.134 14.4564 128.555 14.4564Z" fill="white"/>
<path d="M96.7055 13.6303C96.7055 14.7042 95.7955 15.6129 94.7201 15.6129H89.3429C88.6811 15.6129 88.1021 15.1173 88.1021 14.3738C88.1021 14.3738 88.1021 14.3738 88.1021 14.2912V8.26074H89.2602V13.9607C89.2602 14.2086 89.4257 14.4564 89.6738 14.4564C89.6738 14.4564 89.6738 14.4564 89.7566 14.4564H94.7201C95.2164 14.4564 95.63 14.0434 95.63 13.5477C95.63 13.5477 95.63 13.5477 95.63 13.4651C95.63 12.8042 95.1337 12.4738 94.4719 12.4738H91.3283L90.9974 11.5651L92.8174 8.26074L93.9755 8.67379L92.5692 11.2347H94.3892C95.63 11.2347 96.7055 12.3086 96.7055 13.6303Z" fill="white"/>
<path d="M4.38443 26.4347V27.426H0V26.6826L2.81265 22.3043H0.16545V21.313H4.3017V22.1391L1.48905 26.4347H4.38443Z" fill="white"/>
<path d="M5.70826 23.7911L5.54281 23.0476C6.94914 22.4693 8.85182 22.3867 8.85182 24.2867V27.3433H7.77639V26.765C7.44549 27.178 6.94914 27.4259 6.37006 27.4259C5.79099 27.4259 5.21191 26.9302 5.21191 26.3519C5.21191 26.2693 5.21191 26.2693 5.21191 26.1867C5.21191 25.1954 6.20461 24.5346 7.77639 24.5346V24.2867C7.77639 23.2954 6.70097 23.378 5.70826 23.7911ZM6.20461 26.1041C6.20461 26.4346 6.53552 26.5998 6.86642 26.5998C7.19732 26.5998 7.52822 26.4346 7.77639 26.1867V25.1954C6.70096 25.1128 6.20461 25.6911 6.20461 26.1041Z" fill="white"/>
<path d="M14.7249 23.7911L14.5594 23.0476C15.9657 22.4693 17.8684 22.3867 17.8684 24.2867V27.3433H16.793V26.765C16.4621 27.178 15.9657 27.4259 15.3867 27.4259C14.8076 27.4259 14.2285 26.9302 14.2285 26.3519C14.2285 26.2693 14.2285 26.2693 14.2285 26.1867C14.2285 25.1954 15.2212 24.5346 16.793 24.5346V24.2867C16.793 23.2954 15.7176 23.378 14.7249 23.7911ZM15.2212 26.1041C15.2212 26.4346 15.5521 26.5998 15.883 26.5998C16.2139 26.5998 16.5448 26.4346 16.793 26.1867V25.1954C15.7176 25.1128 15.2212 25.6911 15.2212 26.1041Z" fill="white"/>
<path d="M20.2678 26.1871C20.2678 26.4349 20.4332 26.6002 20.5987 26.6002H20.6814C20.8469 26.6002 20.9296 26.6002 21.095 26.5176V27.261C20.8469 27.3436 20.516 27.3436 20.2678 27.3436C19.4405 27.3436 19.1924 26.9306 19.1924 26.1871V23.7089H18.6133L18.7787 22.8828H19.1924V21.8089L20.2678 21.561V22.8828H21.1778L21.0123 23.7089H20.2678V26.1871Z" fill="white"/>
<path d="M22.6667 28.8305H22.0049C22.1703 28.1697 22.2531 27.5914 22.3358 26.9305V26.6001H23.163V26.9305C22.9976 27.5914 22.8321 28.1697 22.6667 28.8305Z" fill="white"/>
<path d="M27.2995 22.3043V27.3434H26.1413V22.3043H24.4868V21.313H28.954V22.3043H27.2995Z" fill="white"/>
<path d="M30.2776 23.7911L30.1122 23.0476C31.5185 22.4693 33.4212 22.3867 33.4212 24.2867V27.3433H32.3457V26.765C32.0148 27.178 31.5185 27.4259 30.9394 27.4259C30.3603 27.4259 29.7812 26.9302 29.7812 26.3519C29.7812 26.2693 29.7812 26.2693 29.7812 26.1867C29.7812 25.1954 30.7739 24.5346 32.3457 24.5346V24.2867C32.3457 23.2954 31.2703 23.378 30.2776 23.7911ZM30.774 26.1041C30.774 26.4346 31.0221 26.5998 31.4358 26.5998C31.7667 26.5998 32.0976 26.4346 32.3457 26.1867V25.1954C31.2703 25.1128 30.774 25.6911 30.774 26.1041Z" fill="white"/>
<path d="M35.5716 22.9653L36.1507 23.874L36.4816 24.5349L36.8125 23.874L37.3916 22.9653H38.467L37.0607 25.1132L38.5497 27.3436H37.3089L36.7298 26.4349L36.3989 25.774L35.9853 26.4349L35.4062 27.3436H34.248L35.7371 25.1132L34.248 22.9653H35.5716Z" fill="white"/>
<path d="M41.7761 23.7911L41.6107 23.0476C43.017 22.4693 44.9197 22.3867 44.9197 24.2867V27.3433H43.8443V26.765C43.5134 27.178 43.017 27.4259 42.4379 27.4259C41.8589 27.4259 41.2798 26.9302 41.2798 26.3519C41.2798 26.2693 41.2798 26.2693 41.2798 26.1867C41.2798 25.1954 42.2725 24.5346 43.8443 24.5346V24.2867C43.8443 23.2954 42.7688 23.378 41.7761 23.7911ZM42.2725 26.1041C42.2725 26.4346 42.5207 26.5998 42.9343 26.5998C43.2652 26.5998 43.5961 26.4346 43.8443 26.1867V25.1954C42.7688 25.1128 42.2725 25.6911 42.2725 26.1041Z" fill="white"/>
<path d="M45.9951 27.3437V22.9654H47.0705V23.3785C47.4842 23.048 47.9805 22.8828 48.4769 22.8828C49.3868 22.8828 49.8005 23.3785 49.8005 24.2872V27.3437H48.725V24.6176C48.725 24.1219 48.5596 23.8741 47.9805 23.8741C47.6496 23.8741 47.3187 24.0393 46.9878 24.2872V27.3437H45.9951Z" fill="white"/>
<path d="M52.5305 27.426C51.3723 27.426 50.876 26.4347 50.876 25.113C50.876 23.7912 51.4551 22.7999 52.6132 22.7999C53.0268 22.7999 53.4405 22.9652 53.7714 23.2956V21.313H54.7641V27.3434H53.7714V26.8478C53.3577 27.2608 52.9441 27.426 52.5305 27.426ZM52.8614 23.7086C52.2823 23.7086 51.8687 24.2043 51.8687 25.113C51.8687 26.0217 52.1996 26.5173 52.8614 26.5173C53.1923 26.5173 53.4405 26.4347 53.6886 26.1869V23.9565C53.4405 23.7912 53.1923 23.7086 52.8614 23.7086Z" fill="white"/>
<path d="M60.3894 27.426C58.4867 27.426 57.7422 26.1869 57.7422 24.3695C57.7422 22.5521 58.4867 21.313 60.3894 21.313C61.0512 21.313 61.7957 21.4782 62.3748 21.8086V22.7173C61.7957 22.4695 61.1339 22.3869 60.4721 22.3043C59.3967 22.3043 58.8176 23.0478 58.8176 24.4521C58.8176 25.8565 59.3967 26.5999 60.4721 26.5999C61.1339 26.5999 61.7957 26.4347 62.3748 26.2695V27.1782C61.7957 27.3434 61.0512 27.426 60.3894 27.426Z" fill="white"/>
<path d="M67.2556 22.9653V27.4262H66.1801V27.0132C65.7665 27.3436 65.2702 27.5088 64.7738 27.5088C63.8638 27.5088 63.4502 27.0132 63.4502 26.1045V23.0479H64.5256V25.774C64.5256 26.2697 64.6911 26.5175 65.2702 26.5175C65.6011 26.5175 65.9319 26.3523 66.2628 26.1045V23.0479H67.2556V22.9653Z" fill="white"/>
<path d="M68.248 27.0957V26.2696C68.7444 26.5175 69.2408 26.6001 69.7371 26.6001C70.3989 26.6001 70.5644 26.2696 70.5644 26.1044C70.5644 25.774 70.1507 25.6088 69.6544 25.4436C69.0753 25.1957 68.3308 24.9479 68.3308 24.0392C68.3308 23.1305 68.9926 22.5522 70.2334 22.5522C70.7298 22.5522 71.2261 22.6349 71.7225 22.8827V23.7088C71.3916 23.4609 70.978 23.3783 70.4816 23.3783C69.8198 23.3783 69.4889 23.7088 69.4889 23.9566C69.4889 24.287 69.9853 24.4522 70.4816 24.6175C71.0607 24.8653 71.8052 25.1131 71.8052 25.9392C71.8052 26.8479 71.0607 27.3436 69.9853 27.3436C69.4062 27.5088 68.8271 27.3436 68.248 27.0957Z" fill="white"/>
<path d="M74.0388 26.1871C74.0388 26.4349 74.2042 26.6002 74.3697 26.6002H74.4524C74.6179 26.6002 74.7006 26.6002 74.866 26.5176V27.261C74.6179 27.3436 74.287 27.3436 74.0388 27.3436C73.2115 27.3436 72.9634 26.9306 72.9634 26.1871V23.7089H72.3843L72.5497 22.8828H72.9634V21.8089L74.0388 21.561V22.8828H74.9488L74.7833 23.7089H74.0388V26.1871Z" fill="white"/>
<path d="M75.6108 25.1128C75.6108 23.7911 76.2726 22.7998 77.679 22.7998C79.0853 22.7998 79.7471 23.7911 79.7471 25.1128C79.7471 26.4346 79.0853 27.4259 77.679 27.4259C76.1899 27.4259 75.6108 26.4346 75.6108 25.1128ZM76.5208 25.1128C76.5208 25.9389 76.8517 26.6824 77.5962 26.6824C78.3408 26.6824 78.6717 26.0215 78.6717 25.1128C78.6717 24.2868 78.3408 23.5433 77.5962 23.5433C76.8517 23.6259 76.5208 24.2868 76.5208 25.1128Z" fill="white"/>
<path d="M87.1095 24.2872V27.3437H86.0341V24.6176C86.0341 24.1219 85.8686 23.8741 85.2895 23.8741C84.9586 23.8741 84.6277 24.0393 84.2968 24.2872C84.2968 24.3698 84.2968 24.535 84.2968 24.6176V27.3437H83.3041V24.6176C83.3041 24.1219 83.056 23.8741 82.5596 23.8741C82.2287 23.8741 81.8978 24.0393 81.6496 24.2872V27.3437H80.5742V22.9654H81.6496V23.5437C81.9805 23.1306 82.4769 22.8828 83.056 22.8828C83.635 22.8828 84.0487 23.1306 84.2141 23.6263C84.7105 23.1306 85.2068 22.8828 85.7859 22.8828C86.6959 22.8828 87.1095 23.3785 87.1095 24.2872Z" fill="white"/>
<path d="M88.1021 27.0957V26.2696C88.5984 26.5175 89.0948 26.6001 89.5911 26.6001C90.2529 26.6001 90.4184 26.2696 90.4184 26.1044C90.4184 25.774 90.0047 25.6088 89.5084 25.4436C88.9293 25.1957 88.1848 24.9479 88.1848 24.0392C88.1848 23.1305 88.8466 22.5522 90.0875 22.5522C90.5838 22.5522 91.0802 22.6349 91.5765 22.8827V23.7088C91.2456 23.4609 90.832 23.3783 90.4184 23.3783C89.7566 23.3783 89.4257 23.7088 89.4257 23.9566C89.4257 24.287 89.922 24.4522 90.4184 24.6175C90.9974 24.8653 91.742 25.1131 91.742 25.9392C91.742 26.8479 90.9974 27.3436 89.922 27.3436C89.2602 27.5088 88.6811 27.3436 88.1021 27.0957Z" fill="white"/>
<path d="M95.8784 25.9391L95.3821 27.3434H94.3066L96.5402 21.313H97.4502L99.601 27.3434H98.4429L97.9465 25.9391H95.8784ZM96.0439 25.0304H97.6984L96.8711 22.4695L96.0439 25.0304Z" fill="white"/>
<path d="M104.234 22.9653V27.4262H103.158V27.0132C102.745 27.3436 102.248 27.5088 101.752 27.5088C100.842 27.5088 100.428 27.0132 100.428 26.1045V23.0479H101.504V25.774C101.504 26.2697 101.752 26.5175 102.248 26.5175C102.579 26.5175 102.91 26.3523 103.241 26.1045V23.0479H104.234V22.9653Z" fill="white"/>
<path d="M106.55 26.1871C106.55 26.4349 106.715 26.6002 106.881 26.6002H106.964C107.129 26.6002 107.212 26.6002 107.377 26.5176V27.261C107.129 27.3436 106.798 27.3436 106.55 27.3436C105.723 27.3436 105.475 26.9306 105.475 26.1871V23.7089H104.896L105.061 22.8828H105.475V21.8089L106.55 21.561V22.8828H107.46L107.295 23.7089H106.55V26.1871Z" fill="white"/>
<path d="M112.01 24.2868V27.3433H110.935V24.6172C110.935 24.1216 110.686 23.8738 110.273 23.8738C109.942 23.8738 109.528 24.039 109.28 24.2868V27.3433H108.205V21.3955H109.28V23.3781C109.611 23.0477 110.107 22.8825 110.604 22.8825C111.431 22.7999 112.01 23.2955 112.01 24.2868Z" fill="white"/>
<path d="M113.002 25.1128C113.002 23.7911 113.664 22.7998 115.071 22.7998C116.477 22.7998 117.139 23.7911 117.139 25.1128C117.139 26.4346 116.477 27.4259 115.071 27.4259C113.664 27.4259 113.002 26.4346 113.002 25.1128ZM113.995 25.1128C113.995 25.9389 114.326 26.6824 115.071 26.6824C115.815 26.6824 116.146 26.0215 116.146 25.1128C116.146 24.2868 115.815 23.5433 115.071 23.5433C114.326 23.5433 113.995 24.2868 113.995 25.1128Z" fill="white"/>
<path d="M118.131 27.3436V22.9653H119.207V23.7914C119.538 23.2958 120.117 22.9653 120.696 22.9653V23.7914C120.117 23.7088 119.372 24.2045 119.207 24.6175V27.3436H118.131Z" fill="white"/>
<path d="M121.357 21.9738C121.357 21.6433 121.606 21.3955 121.936 21.3955C122.267 21.3955 122.516 21.6433 122.516 21.9738C122.516 22.3042 122.267 22.552 121.936 22.552C121.606 22.552 121.357 22.3042 121.357 21.9738ZM122.433 27.3433H121.357V23.0477H122.433V27.3433Z" fill="white"/>
<path d="M125.08 26.1871C125.08 26.4349 125.246 26.6002 125.411 26.6002H125.494C125.659 26.6002 125.742 26.6002 125.908 26.5176V27.261C125.659 27.3436 125.328 27.3436 125.08 27.3436C124.253 27.3436 124.005 26.9306 124.005 26.1871V23.7089H123.426L123.591 22.8828H124.005V21.8089L125.08 21.561V22.8828H125.99L125.825 23.7089H125.08V26.1871Z" fill="white"/>
<path d="M130.871 22.9653L128.72 28.9958H127.727L128.141 27.7566L126.404 23.0479H127.562L128.555 26.4349L129.63 22.9653H130.871Z" fill="white"/>
<path d="M13.5671 27.3434H12.3263L10.9199 25.2782V27.3434H9.92725V21.313H10.9199V24.7826L12.2435 22.8826H13.4017L11.8299 25.0304L13.5671 27.3434Z" fill="white"/>
<path d="M138.812 10.4087L153.868 0L154.034 0.247826L138.978 10.6565L138.812 10.4087Z" fill="white"/>
<path d="M138.812 8.50852L150.89 0.165039L151.139 0.412865L139.061 8.75634L138.812 8.50852Z" fill="white"/>
<path d="M138.812 6.60878L147.25 0.826172L147.499 1.074L139.143 6.93922L138.812 6.60878Z" fill="white"/>
<path d="M138.812 4.70873L142.287 2.23047L142.452 2.5609L139.061 4.95656L138.812 4.70873Z" fill="white"/>
<path d="M161.645 13.4651L159.163 15.1173L146.589 23.7912L146.837 24.1217L145.1 25.3608L145.265 25.6086L141.625 28.1695L141.874 28.4173L145.927 25.6086L147.251 24.6999L159.99 15.8608L159.742 15.4477L161.976 13.8782L161.81 13.713L170 8.09557L169.835 7.76514L161.645 13.4651Z" fill="white"/>
<path d="M162.307 14.787L159.659 16.6043L147.499 25.0304L147.747 25.3609L145.927 26.6826L146.01 26.8478L142.453 29.4087L142.701 29.6565L146.258 27.0957L148.078 25.7739L160.239 17.3478L159.99 16.9348L162.555 15.2L162.389 15.0348L169.917 9.83043L169.752 9.5L162.307 14.787Z" fill="white"/>
<path d="M162.968 16.2741L160.817 17.7611L148.409 26.3524L148.657 26.7654L147.002 27.922L147.168 28.0872L143.528 30.648L143.776 30.8959L147.333 28.335L148.988 27.1785L161.396 18.5872L161.148 18.1741L163.299 16.6872L163.216 16.522L170 11.8133L169.834 11.5654L162.968 16.2741Z" fill="white"/>
<path d="M163.961 17.4306L161.81 18.9176L149.236 27.5089L149.484 27.9219L147.333 29.4089L147.499 29.5741L144.521 31.7219L144.686 31.9698L148.078 29.5741L150.394 27.9219L162.472 19.6611L162.224 19.248L164.292 17.8437L164.126 17.6785L169.917 13.7132L169.752 13.3828L163.961 17.4306Z" fill="white"/>
<path d="M165.202 18.4219L162.886 20.0741L152.049 27.5915L152.297 28.0045L149.733 29.7393L149.815 29.9045L145.762 32.7958L146.01 33.0437L150.394 29.9872L152.628 28.4176L163.548 20.8176L163.299 20.4045L165.533 18.835L165.45 18.6698L169.917 15.5306L169.752 15.2002L165.202 18.4219Z" fill="white"/>
<path d="M168.014 18.5042L167.932 18.4216L165.202 20.3216L154.696 27.5911L154.944 28.0042L152.131 29.9868L152.214 30.152L147.25 33.7042L147.416 34.0346L152.71 30.2346L155.44 28.252L165.698 21.1477L165.45 20.8172L168.18 18.9172L168.014 18.6694L168.097 18.8346L169.834 17.5955L169.586 17.3477L168.014 18.5042Z" fill="white"/>
<path d="M168.097 20.2394L166.525 21.3133L160.321 25.6089L160.569 26.022L157.922 27.8394L158.087 28.0046L148.657 34.6959L148.822 34.9437L158.666 28.0046L160.983 26.3524L167.104 22.1394L166.856 21.8089L168.428 20.735L168.345 20.5698L169.917 19.4959L169.752 19.248L168.097 20.2394Z" fill="white"/>
<path d="M168.428 21.9739L166.939 22.9652L162.058 26.3521L162.306 26.7652L160.073 28.3347L160.156 28.5826L150.229 35.6043L150.394 35.8521L160.817 28.4999L162.803 27.0956L167.518 23.8739L167.27 23.5434L168.676 22.5521L168.511 22.3043L169.669 21.5608L169.503 21.313L168.428 21.9739Z" fill="white"/>
<path d="M140.219 12.5565L141.625 11.5652L146.92 7.93043L146.671 7.6L148.988 6.03043L148.822 5.78261L156.681 0.330435L156.516 0L148.657 5.45217L146.34 7.02174L140.715 10.9043L140.963 11.2348L139.64 12.2261L139.805 12.3913L138.812 13.0522L138.978 13.3L140.219 12.5565Z" fill="white"/>
<path d="M141.046 13.8784L142.452 12.8871L148.988 8.34361L148.74 8.01318L150.559 6.77404L150.394 6.60883L158.915 0.661001L158.749 0.330566L150.229 6.27839L148.409 7.51752L141.46 12.3088L141.708 12.7219L140.55 13.548L140.715 13.7958L138.812 15.1175L138.978 15.3653L141.046 13.8784Z" fill="white"/>
<path d="M141.377 15.5302L143.197 14.2085L150.311 9.25195L150.063 8.83891L151.966 7.51717L151.883 7.43456L161.066 0.991079L160.817 0.660645L151.635 7.10412L149.649 8.50847L142.204 13.6302L142.452 14.0433L140.881 15.1998L141.046 15.4476L138.812 17.0172L138.978 17.3476L141.377 15.5302Z" fill="white"/>
<path d="M142.122 16.9349L144.107 15.5306L151.635 10.3262L151.387 9.91317L153.455 8.50882L153.289 8.261L163.134 1.48708L162.968 1.23926L152.958 8.01317L151.056 9.33491L142.949 14.9523L143.197 15.3653L141.377 16.6871L141.542 16.9349L138.812 18.8349L138.978 19.0827L142.122 16.9349Z" fill="white"/>
<path d="M143.032 18.1737L144.355 17.265L153.042 11.2346L152.793 10.9042L155.027 9.3346L154.944 9.16938L164.871 2.31286L164.623 1.98242L154.696 8.83894L152.462 10.4085L143.776 16.4389L144.025 16.852L142.37 18.0085L142.535 18.1737L139.061 20.652L139.226 20.8998L143.032 18.1737Z" fill="white"/>
<path d="M143.859 19.4132L145.348 18.3393L154.365 12.1436L154.117 11.8132L156.599 10.0784L156.433 9.91321L166.608 2.89147L166.36 2.56104L156.185 9.58277L153.538 11.4002L144.355 17.761L144.769 18.1741L143.197 19.248L143.363 19.4958L139.309 22.3871L139.475 22.6349L143.859 19.4132Z" fill="white"/>
<path d="M144.107 21.1477L146.258 19.6607L156.929 12.3085L156.681 11.8955L159.08 10.2433L158.915 10.0781L168.346 3.55203L168.097 3.3042L158.667 9.83029L156.268 11.4825L145.183 19.0825L145.431 19.4955L143.445 20.8999L143.611 21.0651L139.723 23.7912L139.888 24.1216L144.107 21.1477Z" fill="white"/>
<path d="M144.355 22.8825L146.175 21.5608L157.756 13.5478L157.508 13.2173L159.907 11.5652L159.825 11.3173L169.834 4.3782L169.586 4.13037L159.576 11.0695L157.177 12.7217L145.348 20.8999L145.596 21.313L143.61 22.7173L143.776 22.8825L140.219 25.4434L140.384 25.7738L144.355 22.8825Z" fill="white"/>
<path d="M144.769 24.4522L146.341 23.2957L158.667 14.8696L158.418 14.4565L160.652 12.887L160.569 12.7218L170 6.19567L169.752 5.86523L160.321 12.3913L158.087 13.9609L145.761 22.4696L146.01 22.8826L144.19 24.2044L144.355 24.3696L140.963 26.7652L141.129 27.0131L144.769 24.4522Z" fill="white"/>
<path d="M151.552 36.4305L168.594 24.3696L168.759 24.6175L151.718 36.6783L151.552 36.4305Z" fill="white"/>
<path d="M152.958 37.7522L167.353 27.5913L167.518 27.9217L153.124 38L152.958 37.7522Z" fill="white"/>
<path d="M158.005 36.0175L164.292 31.5566L164.54 31.8871L158.253 36.3479L158.005 36.0175Z" fill="white"/>
</g>
<defs>
<clipPath id="clip0_224_415">
<rect width="170" height="38" fill="white"/>
</clipPath>
</defs>
</svg>
